/* XPM */
static char * crash_xpm[] = {
"48 48 244 2",
"  	c #FFFFFF",
". 	c #FEFEFE",
"+ 	c #FDFDFD",
"@ 	c #FCFCFC",
"# 	c #FAFAFA",
"$ 	c #F9F9F9",
"% 	c #F8F8F8",
"& 	c #FBFBFB",
"* 	c #F4F4F4",
"= 	c #F0F0F0",
"- 	c #EDEDED",
"; 	c #ECECEC",
"> 	c #EEEEEE",
", 	c #F3F3F3",
"' 	c #DEDEDE",
") 	c #C8C8C8",
"! 	c #B6B6B6",
"~ 	c #ACACAC",
"{ 	c #B2B2B2",
"] 	c #C2C2C2",
"^ 	c #D7D7D7",
"/ 	c #F1F1F1",
"( 	c #F6F6F6",
"_ 	c #F7F7F7",
": 	c #DBDBDB",
"< 	c #BBBBBB",
"[ 	c #999999",
"} 	c #7D7D7D",
"| 	c #686868",
"1 	c #5D5D5D",
"2 	c #646464",
"3 	c #777777",
"4 	c #949494",
"5 	c #D8D8D8",
"6 	c #A6A6A6",
"7 	c #6B6B6B",
"8 	c #373737",
"9 	c #1F1F1F",
"0 	c #0D0D0D",
"a 	c #030303",
"b 	c #040404",
"c 	c #090909",
"d 	c #1A1A1A",
"e 	c #363636",
"f 	c #5A5A5A",
"g 	c #A8A8A8",
"h 	c #DFDFDF",
"i 	c #595959",
"j 	c #2C2C2C",
"k 	c #151515",
"l 	c #0C0C0C",
"m 	c #050505",
"n 	c #010101",
"o 	c #0A0A0A",
"p 	c #242424",
"q 	c #929292",
"r 	c #D3D3D3",
"s 	c #E8E8E8",
"t 	c #AEAEAE",
"u 	c #636363",
"v 	c #222222",
"w 	c #000000",
"x 	c #020202",
"y 	c #535353",
"z 	c #D0D0D0",
"A 	c #7B7B7B",
"B 	c #262626",
"C 	c #070707",
"D 	c #272727",
"E 	c #6E6E6E",
"F 	c #E9E9E9",
"G 	c #E6E6E6",
"H 	c #ADADAD",
"I 	c #101010",
"J 	c #161616",
"K 	c #484848",
"L 	c #989898",
"M 	c #E0E0E0",
"N 	c #E4E4E4",
"O 	c #EBEBEB",
"P 	c #F2F2F2",
"Q 	c #DDDDDD",
"R 	c #8D8D8D",
"S 	c #424242",
"T 	c #060606",
"U 	c #838383",
"V 	c #D6D6D6",
"W 	c #EFEFEF",
"X 	c #DADADA",
"Y 	c #828282",
"Z 	c #3D3D3D",
"` 	c #1D1D1D",
" .	c #202020",
"..	c #171717",
"+.	c #1C1C1C",
"@.	c #7A7A7A",
"#.	c #D1D1D1",
"$.	c #7F7F7F",
"%.	c #585858",
"&.	c #4B4B4B",
"*.	c #787878",
"=.	c #696969",
"-.	c #525252",
";.	c #2D2D2D",
">.	c #313131",
",.	c #5E5E5E",
"'.	c #707070",
").	c #727272",
"!.	c #4A4A4A",
"~.	c #898989",
"{.	c #8A8A8A",
"].	c #AFAFAF",
"^.	c #CDCDCD",
"/.	c #767676",
"(.	c #AAAAAA",
"_.	c #8E8E8E",
":.	c #A7A7A7",
"<.	c #909090",
"[.	c #9F9F9F",
"}.	c #C6C6C6",
"|.	c #D9D9D9",
"1.	c #878787",
"2.	c #C1C1C1",
"3.	c #EAEAEA",
"4.	c #DCDCDC",
"5.	c #A0A0A0",
"6.	c #D2D2D2",
"7.	c #E5E5E5",
"8.	c #E2E2E2",
"9.	c #A1A1A1",
"0.	c #A5A5A5",
"a.	c #BFBFBF",
"b.	c #F5F5F5",
"c.	c #BABABA",
"d.	c #B9B9B9",
"e.	c #E3E3E3",
"f.	c #B7B7B7",
"g.	c #969696",
"h.	c #8B8B8B",
"i.	c #C7C7C7",
"j.	c #CFCFCF",
"k.	c #9E9E9E",
"l.	c #888888",
"m.	c #858585",
"n.	c #7C7C7C",
"o.	c #9B9B9B",
"p.	c #B0B0B0",
"q.	c #303030",
"r.	c #3E3E3E",
"s.	c #717171",
"t.	c #494949",
"u.	c #292929",
"v.	c #323232",
"w.	c #5C5C5C",
"x.	c #ABABAB",
"y.	c #CCCCCC",
"z.	c #404040",
"A.	c #121212",
"B.	c #434343",
"C.	c #8F8F8F",
"D.	c #474747",
"E.	c #454545",
"F.	c #848484",
"G.	c #181818",
"H.	c #676767",
"I.	c #3C3C3C",
"J.	c #0B0B0B",
"K.	c #2E2E2E",
"L.	c #3A3A3A",
"M.	c #333333",
"N.	c #343434",
"O.	c #353535",
"P.	c #212121",
"Q.	c #141414",
"R.	c #6C6C6C",
"S.	c #B1B1B1",
"T.	c #E1E1E1",
"U.	c #414141",
"V.	c #4F4F4F",
"W.	c #555555",
"X.	c #B8B8B8",
"Y.	c #7E7E7E",
"Z.	c #4D4D4D",
"`.	c #545454",
" +	c #464646",
".+	c #2B2B2B",
"++	c #C4C4C4",
"@+	c #BDBDBD",
"#+	c #C3C3C3",
"$+	c #E7E7E7",
"%+	c #131313",
"&+	c #1B1B1B",
"*+	c #D5D5D5",
"=+	c #666666",
"-+	c #6A6A6A",
";+	c #4E4E4E",
">+	c #393939",
",+	c #CBCBCB",
"'+	c #818181",
")+	c #080808",
"!+	c #868686",
"~+	c #959595",
"{+	c #D4D4D4",
"]+	c #A2A2A2",
"^+	c #565656",
"/+	c #BEBEBE",
"(+	c #797979",
"_+	c #2A2A2A",
":+	c #0E0E0E",
"<+	c #1E1E1E",
"[+	c #979797",
"}+	c #505050",
"|+	c #3B3B3B",
"1+	c #4C4C4C",
"2+	c #A9A9A9",
"3+	c #5B5B5B",
"4+	c #6D6D6D",
"5+	c #A4A4A4",
"6+	c #232323",
"7+	c #0F0F0F",
"8+	c #191919",
"9+	c #111111",
"0+	c #656565",
"a+	c #575757",
"b+	c #606060",
"c+	c #444444",
"d+	c #515151",
"e+	c #3F3F3F",
"f+	c #747474",
"g+	c #757575",
"h+	c #C9C9C9",
"i+	c #B4B4B4",
"j+	c #2F2F2F",
"k+	c #A3A3A3",
"l+	c #9A9A9A",
"m+	c #383838",
"n+	c #252525",
"o+	c #282828",
"p+	c #CACACA",
"q+	c #C0C0C0",
"r+	c #9C9C9C",
"s+	c #CECECE",
"t+	c #626262",
"u+	c #737373",
"                                        . + @ # $ $ % % # & +                                   ",
"                                    . @ $ * = - ; - > , % # @ .                                 ",
"                                  . @ = ' ) ! ~ ~ { ] ^ / ( # @ + .                             ",
"                                . _ : < [ } | 1 1 2 3 4 ! 5 = % # & +                           ",
"                              . @ - 6 7 8 9 0 a b c d e f g h , ( ( @ .                         ",
"                            . @ 5 6 i j k l m n n a o k p i q r s / % @ .                       ",
"                          . $ > t u v m w w w w w w w n x 9 y g r - , _ & +                     ",
"                          . = z A B l n w w w w w w w w w C D E { F ; / _ & .                   ",
"                          . G H f I m w w w w w w w w w w n J K L M N O P $ .                   ",
"                          . Q R S C T T m a n w w w x b T m I j U V ' G W _ +                   ",
"                          . X Y Z 0 ` v  .I T n w x l ..v ` +.p @.#.Q G > _ +                   ",
"                          . X $.%.&.E @.*.=.-.;.>.S ,.'.@.).u !.~.z Q G - ( +                   ",
"                          . X Y {.].N # # * ^./.Y (.h ( # / z _.:.z Q G - ( +                   ",
"                          . ' <.[.}.- + + & |.1.L 2.3.@ + _ 4.5.{ 6.4.7.- ( +                   ",
"                          + 8.9.0.a.G % . b.z U q c.7.$ . W r 0.d.^ 4.e.- ( +                   ",
"                        . @ s f.g.h.}.s # : (.,.2 1.i.3.# j.~ g.d.M Q e.- ( +                   ",
"                        . @ = 5 k.7 /.Y _.~.l._.{.m.m.~._.A n.o.2.M ' e.> _ +                   ",
"                        . @ $ * p.u q.` 9 r.s.] ! R t.u.9 v.w.x.y.' ' N W _ +                   ",
"                          + # _ |.g z.A.c B.} ! ].C.D.9 l E.F.^.X X M F P $ +                   ",
"                          . @ % W ^.-.G.c Z H.Y $.E I.` J.%.[.: h |.7.> ( & .                   ",
"                            + $ % ' 2 u.G.K.L.M.N.O.j P.Q.R.S.: Q X O b.& .                     ",
"                            + & $ T.s.U.I.V.f %.%.i W.B.B *.X.4.h ' > _ @ .                     ",
"                    . _ > ; - * _ N Y.Z.U.Z.`.`.`.`.W. +.+U ++T.e.T.3./ ( # + . .               ",
"                  . # 7.++@+#+M W $+h.t.G.J Q.%+%+Q.G.&+9 h.*+O 3.e.4.' $+P $ # @ .             ",
"                  & s { =+,.-+g.) G t n.;+S >+e e 8 U.;+,.t 8.; ,+9.$.Y k.j.> b.$ + .           ",
"                . _ 6.'+I )+..!.k.e.#.! g.!+A 3 /.*.m.~+g {+O 7.]+^+P.D ^+~ 7.= ( & .           ",
"                & > /+'.0 m 0 j 1.Q M X j.^.y.y.,+y.j.6.V $+G ) (+_+:+<+!.6 e.= b.% @           ",
"            . + G ++l.t.)+a C G.R.] M F G G $+F 3.F 3.3.3.G ^.[+}+I m A.q.Y./+s P b.# +         ",
"            + $ ++U |+Q.x n a J.1+L V O G 8.M 8.e.e.7.F - V 2+3+D a n m 0 z.'+|.- = _ @ .       ",
"            + _ @+3 ;.o n w n b ` r.4+L 2.V 7.O ; F ' }.5+'.B.6+7+n w x m d W.,+$+- , _ @ .     ",
"            + % }.1.U.P.8++.d 9+c )+6+-._./+M ; e.6.! R w.B T T 7+..7+o C Q.Z.i.N s > * # +     ",
"            . + 7.2.!+0+a+b+f I.` T )+9 c+~+^.T.a._.w.N.%+)+T A.e d+e p G.e+@.*+N 8.3./ $ +     ",
"              . P T.2.H ]+(.6 _.| c+O.!./.[.t [ s.D.D A.b G.O.1 !+9.{.A s.<.{ 4.T.T.O , # +     ",
"              + # b.W s M G N |.f.<.f+Y ~ 9.U !.B l )+l J B.g+].z N 5 j.h+5 T.M M 8.> ( & .     ",
"              . & _ * ; e.8.T.8.4.#.i+~+).;+j+G.7+0 +.S /.k+}.X Q 4.4.: X 4.' ' 8.s , # + .     ",
"              . & b.3.M *+4.M M *+2.g.| >++.l I v >+%.(+l+x./+r X ' 8.e.8.8.8.8.$+- _ @ .       ",
"              . $ W 5 ) @+*+M ^ p.} m+A.w w o n+-.Y t p.g.3 (+(.y.G 3.F N s O 3.- P $ +         ",
"            . @ T.< !+=.w.*.m.n.i M.J J.J.o+Z.Y.]+X.[./.S >.M.}+3 [+l+[+<.H p+$+> = % @ .       ",
"            + $ h+R  +p 8+q.I.N.` )+J.` >+2 <.q+5 4.:.7 u.A.c k M.V.}+Z. +R.r+' ; > _ @ .       ",
"            @ * i+| 6+T b c J.o C c P.`.l+@+V ' N 7.6.0.| j+J.T J.I I 7+l P.f ,+G O b.& .       ",
"            + _ 2.Y.N.:+n n a c o+V.n.0.p+V ' M 8.N h s+i+!+a+D I x x b )+9 f ,+7.3.* & .       ",
"            . @ 5 0.a+p a n C 8+%.k.*+s N 4.|.' M e.G ; * X 2+`.v w n c ..|+g+6.7.s , # .       ",
"            . + P 5 _.t.T x %+S R z |.4.: 4.M 3.> = = = W ; p+A e w n ..|+'+c.h 7.G , # .       ",
"            . + @ > p.t+o o B 4+p.8.X 5 X M s P ( % _ * = * 4.o.1+)+b P.`.6 X T.e.G * & .       ",
"            . + & = ] u+:+J e+[ }.M ^ 5 h G W % @ + @ $ b.b.e.f.2 J )+o+=+! e.4.M s b.@ .       ",
"              . @ _ N ] g.[ g ,+5 Q 4.8.; / _ @ . . . + & $ = Q { F.| n.S.#.e.M $+= $ +         ",
"              . + & % / s G 7.7.T.Q 8.O b.$ @ .         . & % , N z i+@+' M 8.N ; ( @           ",
"                . @ % P 3.N h : Q 8.3.P $ @ .             + $ P - s T.h M ' M $+= % +           "};
