/* XPM */
static char * error_xpm[] = {
"32 32 280 2",
"  	c None",
". 	c #CA8383",
"+ 	c #C98484",
"@ 	c #C97070",
"# 	c #C76262",
"$ 	c #C76868",
"% 	c #C66A6A",
"& 	c #C78383",
"* 	c #C67979",
"= 	c #C78B8B",
"- 	c #C68B8B",
"; 	c #CB7D7D",
"> 	c #C94242",
", 	c #C72020",
"' 	c #C63030",
") 	c #C73D3D",
"! 	c #CD3A3A",
"~ 	c #CD4444",
"{ 	c #CC5A5A",
"] 	c #CB5B5B",
"^ 	c #C45151",
"/ 	c #C15151",
"( 	c #BE4141",
"_ 	c #BF5858",
": 	c #C27474",
"< 	c #CB8A8A",
"[ 	c #CB6262",
"} 	c #C84343",
"| 	c #CC1313",
"1 	c #DC0000",
"2 	c #EB1F1F",
"3 	c #F75C5C",
"4 	c #F97B7B",
"5 	c #F86B6B",
"6 	c #EA2E2E",
"7 	c #D50000",
"8 	c #BE1818",
"9 	c #B92929",
"0 	c #BC5454",
"a 	c #C48B8B",
"b 	c #CB7A7A",
"c 	c #CB4444",
"d 	c #DC1B1B",
"e 	c #F75656",
"f 	c #FCAFAF",
"g 	c #FFEBEB",
"h 	c #FDCDCD",
"i 	c #F97474",
"j 	c #D70E0E",
"k 	c #B71818",
"l 	c #B52929",
"m 	c #B95757",
"n 	c #CB6161",
"o 	c #CA2929",
"p 	c #CF0C0C",
"q 	c #EC3232",
"r 	c #FAA4A4",
"s 	c #FFDCDC",
"t 	c #FECDCD",
"u 	c #EE4343",
"v 	c #BA0000",
"w 	c #AF1818",
"x 	c #CB6565",
"y 	c #CA2020",
"z 	c #D80000",
"A 	c #F33E3E",
"B 	c #FEBFBF",
"C 	c #FFCCCC",
"D 	c #F57171",
"E 	c #C50000",
"F 	c #A90000",
"G 	c #BA6868",
"H 	c #CB8E8E",
"I 	c #CB4949",
"J 	c #CF2020",
"K 	c #F33A3A",
"L 	c #FFBCBC",
"M 	c #FFCACA",
"N 	c #F67474",
"O 	c #B50000",
"P 	c #B03636",
"Q 	c #C19595",
"R 	c #CA4E4E",
"S 	c #CB2020",
"T 	c #EC1F1F",
"U 	c #FEA0A0",
"V 	c #FFABAB",
"W 	c #FFFFFF",
"X 	c #FFE1E1",
"Y 	c #ED3F3F",
"Z 	c #AA0909",
"` 	c #AD3434",
" .	c #CB7171",
"..	c #C93434",
"+.	c #DF0000",
"@.	c #FC7373",
"#.	c #FF9A9A",
"$.	c #FFC1C1",
"%.	c #FFDBDB",
"&.	c #FE9090",
"*.	c #D00909",
"=.	c #A61B1B",
"-.	c #B97474",
";.	c #C93A3A",
">.	c #F52222",
",.	c #FF8A8A",
"'.	c #FFA0A0",
").	c #FFD4D4",
"!.	c #FA5555",
"~.	c #AA0404",
"{.	c #AD4343",
"].	c #CB8888",
"^.	c #C73434",
"/.	c #DE0000",
"(.	c #FB5353",
"_.	c #FF7979",
":.	c #FFCECE",
"<.	c #FE7272",
"[.	c #FB5555",
"}.	c #F72F2F",
"|.	c #F41818",
"1.	c #C80000",
"2.	c #A83434",
"3.	c #BC8888",
"4.	c #C97171",
"5.	c #EA0606",
"6.	c #FF6767",
"7.	c #FFC5C5",
"8.	c #FFC7C7",
"9.	c #FCACAC",
"0.	c #F72929",
"a.	c #F20000",
"b.	c #E20000",
"c.	c #9F1313",
"d.	c #C77878",
"e.	c #C62424",
"f.	c #F51616",
"g.	c #FF5656",
"h.	c #FFBEBE",
"i.	c #FA9F9F",
"j.	c #A10909",
"k.	c #B26C6C",
"l.	c #C86D6D",
"m.	c #CD2E2E",
"n.	c #F92222",
"o.	c #FF4545",
"p.	c #FFB8B8",
"q.	c #B01010",
"r.	c #AE5C5C",
"s.	c #C77474",
"t.	c #CC3636",
"u.	c #F91A1A",
"v.	c #FF3333",
"w.	c #FFB1B1",
"x.	c #AE0D0D",
"y.	c #CB3636",
"z.	c #F91111",
"A.	c #FF2222",
"B.	c #FFADAD",
"C.	c #AE0C0C",
"D.	c #C56F6F",
"E.	c #CA3232",
"F.	c #F90808",
"G.	c #FF1010",
"H.	c #FFA7A7",
"I.	c #F40000",
"J.	c #AE1515",
"K.	c #B27373",
"L.	c #C01818",
"M.	c #F90101",
"N.	c #FF0202",
"O.	c #FC9F9F",
"P.	c #F70000",
"Q.	c #9C1414",
"R.	c #B17070",
"S.	c #BA1313",
"T.	c #EE0000",
"U.	c #FD0101",
"V.	c #FD9F9F",
"W.	c #FA0000",
"X.	c #E60000",
"Y.	c #910909",
"Z.	c #BC2F2F",
"`.	c #D90404",
" +	c #FE0000",
".+	c #FE9F9F",
"++	c #FF9F9F",
"@+	c #C61818",
"#+	c #A24141",
"$+	c #C05D5D",
"%+	c #C01B1B",
"&+	c #FF0707",
"*+	c #FF3535",
"=+	c #FFA3A3",
"-+	c #A52929",
";+	c #A85858",
">+	c #C59191",
",+	c #BC4F4F",
"'+	c #DB1B1B",
")+	c #FF1212",
"!+	c #FF6C6C",
"~+	c #CD1B1B",
"{+	c #9D3838",
"]+	c #B07676",
"^+	c #BD5D5D",
"/+	c #B92727",
"(+	c #F51919",
"_+	c #FF1D1D",
":+	c #FF7272",
"<+	c #F11919",
"[+	c #A13535",
"}+	c #A45252",
"|+	c #C6A2A2",
"1+	c #BA5353",
"2+	c #BE1E1E",
"3+	c #FA2626",
"4+	c #FF2828",
"5+	c #FF5151",
"6+	c #F62929",
"7+	c #A62121",
"8+	c #A44F4F",
"9+	c #B99393",
"0+	c #C08080",
"a+	c #B64747",
"b+	c #CA2323",
"c+	c #FA3030",
"d+	c #FF3434",
"e+	c #F83030",
"f+	c #B81D1D",
"g+	c #A04444",
"h+	c #B07878",
"i+	c #BF8181",
"j+	c #B65252",
"k+	c #B92121",
"l+	c #F43636",
"m+	c #FF3F3F",
"n+	c #F13636",
"o+	c #A31616",
"p+	c #972A2A",
"q+	c #AE7171",
"r+	c #C08C8C",
"s+	c #B14141",
"t+	c #A90404",
"u+	c #D62929",
"v+	c #FF4A4A",
"w+	c #CD2929",
"x+	c #930404",
"y+	c #942020",
"z+	c #AB6868",
"A+	c #C29B9B",
"B+	c #B15151",
"C+	c #AC3C3C",
"D+	c #B02D2D",
"E+	c #CD3838",
"F+	c #EC4545",
"G+	c #EA4545",
"H+	c #C73030",
"I+	c #9F1919",
"J+	c #962020",
"K+	c #B88F8F",
"L+	c #BF9090",
"M+	c #B15555",
"N+	c #AB4646",
"O+	c #A42929",
"P+	c #AB3E3E",
"Q+	c #BA5151",
"R+	c #B64646",
"S+	c #B33838",
"T+	c #B23838",
"U+	c #A02828",
"V+	c #982020",
"W+	c #A13F3F",
"X+	c #B07777",
"Y+	c #C2A2A2",
"Z+	c #B67474",
"`+	c #B98282",
" @	c #AD6464",
".@	c #AC5F5F",
"+@	c #AF6B6B",
"@@	c #BB9696",
"                                                                ",
"                      . + @ # $ % & * = -                       ",
"                  ; > , ' ) ! ~ { ] ^ / ( _ :                   ",
"              < [ } | 1 2 3 4 4 4 4 5 6 7 8 9 0 a               ",
"            b c c d e f g g g g g g g g h i j k l m             ",
"          n o p q r s s s s s s s s s s s s t u v w m           ",
"        x y z A B C C C C C C C C C C C C C C C D E F G         ",
"      H I J K L L L M L L L L L L L L L L M L L L N O P Q       ",
"      R S T U V V C W X V V V V V V V V X W C V V V Y Z `       ",
"     ...+.@.#.#.$.W W W %.#.#.#.#.#.#.%.W W W $.#.#.&.*.=.-.    ",
"    ;.| >.,.,.'.W W W W W ).,.,.,.,.).W W W W W '.,.,.!.~.{.    ",
"  ].^./.(._._._.C W W W W W :._._.:.W W W W W C <.[.}.|.1.2.3.  ",
"  4.^.5.6.6.6.6.6.7.W W W W W 8.8.W W W W W 9.0.a.a.a.a.b.c.d.  ",
"  d.e.f.g.g.g.g.g.g.h.W W W W W W W W W W i.a.a.a.a.a.a.a.j.k.  ",
"  l.m.n.o.o.o.o.o.o.o.p.W W W W W W W W i.a.a.a.a.a.a.a.a.q.r.  ",
"  s.t.u.v.v.v.v.v.v.v.v.w.W W W W W W i.a.a.a.a.a.a.a.a.a.x.k.  ",
"  d.y.z.A.A.A.A.A.A.A.A.B.W W W W W W i.a.a.a.a.a.a.a.a.a.C.k.  ",
"  D.E.F.G.G.G.G.G.G.G.H.W W W W W W W W i.I.I.I.I.I.I.I.I.J.K.  ",
"  d.L.M.N.N.N.N.N.N.'.W W W W W W W W W W O.P.P.P.P.P.P.P.Q.R.  ",
"  d.S.T.U.U.U.U.U.U W W W W W V.V.W W W W W V.W.W.W.W.W.X.Y.d.  ",
"    Z.`. + + + +.+W W W W W ++ + +++W W W W W .+ + + + +@+#+    ",
"    $+%+&+&+&+*+W W W W W =+&+&+&+&+=+W W W W W *+&+&+&+-+;+    ",
"    >+,+'+)+)+)+!+W W W H.)+)+)+)+)+)+H.W W W !+)+)+)+~+{+]+    ",
"      ^+/+(+_+_+_+:+W V _+_+_+_+_+_+_+_+V W :+_+_+_+<+[+}+      ",
"      |+1+2+3+4+4+4+5+4+4+4+4+4+4+4+4+4+4+5+4+4+4+6+7+8+9+      ",
"        0+a+b+c+d+d+d+d+d+d+d+d+d+d+d+d+d+d+d+d+e+f+g+h+        ",
"          i+j+k+l+m+m+m+m+m+m+m+m+m+m+m+m+m+m+n+o+p+q+          ",
"            r+s+t+u+v+v+v+v+v+v+v+v+v+v+v+v+w+x+y+z+            ",
"              A+B+C+D+E+F+g.g.g.g.g.g.G+H+I+J+g+K+              ",
"                  L+M+N+O+P+Q+R+S+T+U+V+W+;+X+                  ",
"                      Y+Z+`+k.k.k. @.@+@@@                      ",
"                                                                "};
