/* XPM */
static const char *core_xpm[] = {
"16 16 103 2",
"  	c None",
". 	c #FF9F10",
"+ 	c #FF9904",
"@ 	c #FF9200",
"# 	c #717374",
"$ 	c #727475",
"% 	c #707273",
"& 	c #76787B",
"* 	c #757877",
"= 	c #6A491D",
"- 	c #616364",
"; 	c #777778",
"> 	c #C7C7C7",
", 	c #E7E7E7",
"' 	c #E1E0E0",
") 	c #AEADAD",
"! 	c #646465",
"~ 	c #313740",
"{ 	c #585A5C",
"] 	c #646565",
"^ 	c #E0E0E0",
"/ 	c #F0F0F0",
"( 	c #EEEEEE",
"_ 	c #E5E5E5",
": 	c #CFCFCF",
"< 	c #9F9F9F",
"[ 	c #3C3C3C",
"} 	c #585A5B",
"| 	c #131314",
"1 	c #8F8F8F",
"2 	c #C8C8C8",
"3 	c #CDCDCD",
"4 	c #C9C9C9",
"5 	c #C2C2C2",
"6 	c #ADADAD",
"7 	c #848484",
"8 	c #414140",
"9 	c #0A0B0B",
"0 	c #6A6C6E",
"a 	c #454748",
"b 	c #101010",
"c 	c #3F3E3E",
"d 	c #737373",
"e 	c #686868",
"f 	c #6A6A6A",
"g 	c #535353",
"h 	c #1F1F1F",
"i 	c #000000",
"j 	c #353637",
"k 	c #232424",
"l 	c #0E0E0E",
"m 	c #151515",
"n 	c #292929",
"o 	c #373737",
"p 	c #383838",
"q 	c #2D2D2D",
"r 	c #1A1A1A",
"s 	c #070707",
"t 	c #19191A",
"u 	c #1C1C1D",
"v 	c #080808",
"w 	c #161616",
"x 	c #1E1E1E",
"y 	c #1B1B1B",
"z 	c #171717",
"A 	c #0B0B0B",
"B 	c #121313",
"C 	c #2E2E2F",
"D 	c #040404",
"E 	c #191919",
"F 	c #0C0C0C",
"G 	c #1C1C1C",
"H 	c #282828",
"I 	c #303030",
"J 	c #323232",
"K 	c #2E2E2E",
"L 	c #1B1C1C",
"M 	c #2C2C2D",
"N 	c #363636",
"O 	c #141414",
"P 	c #3F3F3F",
"Q 	c #494949",
"R 	c #4A4A4A",
"S 	c #424242",
"T 	c #232323",
"U 	c #252526",
"V 	c #060606",
"W 	c #090909",
"X 	c #131313",
"Y 	c #3D3D3D",
"Z 	c #515151",
"` 	c #616161",
" .	c #5F5F5F",
"..	c #212121",
"+.	c #3B3B3B",
"@.	c #4F4F4F",
"#.	c #585858",
"$.	c #434343",
"%.	c #010101",
"&.	c #050505",
"*.	c #181818",
"=.	c #020202",
"-.	c #010102",
"                        . + @   ",
"            # $ % & * =         ",
"        - ; > , ' ) ! ~         ",
"      { ] ^ / ( _ : < [ }       ",
"      | 1 2 3 4 5 6 7 8 9 0     ",
"    a b c d e e f e g h i j     ",
"    k l m l n o p q r s i t     ",
"    u i i i v w x h y z A B     ",
"    C D E D F G H I J K G L     ",
"    M l N O G I P Q R S T U     ",
"      V W X n Y Z `  .S r       ",
"        i s ..+.@.#.$.E V       ",
"        D %.&.b *.O s %.        ",
"        &.&.=.i i i %.-.        ",
"                                ",
"                                "};
