/* XPM */
static char * help_xpm[] = {
/* width height num_colors chars_per_pixel */
"16 16 3 1",
/* colors */
" 	c None",
".	c #000000",
"X	c #BBCCBB",
/* pixels */
"                ",
"     .....X     ",
"    ..  X..X    ",
"   ..X   ...    ",
"   ..X   ...    ",
"   X..  X..X    ",
"        ..X     ",
"       ..       ",
"      ..X       ",
"      ..X       ",
"                ",
"      ..X       ",
"      ..X       ",
"      ..X       ",
"       XX       ",
"                ",
"                "};
