/* XPM */
static char * page_lnk_xpm[] = {
"16 16 5 1",
" 	s None	c None",
".	c #000000",
"X	c #FFFFFE",
"o	c #808080",
"O	c #5555FF",
"                ",
"  ........      ",
"  .XXXXX.o.     ",
"  .XXXXX.Xo.    ",
"  .XXXXX.XXo.   ",
"  .XXXXX.....o  ",
"  .XXXXOOooo.o  ",
"  .XXXXOOOXX.o  ",
"  .XOOOOOOOX.o  ",
"  .XOOOOOOOX.o  ",
"  .XXXXOOOXX.o  ",
"  .XXXXOOXXX.o  ",
"  .XXXXXXXXX.o  ",
"  ...........o  ",
"   ooooooooooo  ",
"                "};
