/* XPM */
static char * page_xpm[] = {
"16 16 4 1",
" 	c None",
".	c #000000",
"+	c #FFFFFE",
"@	c #808080",
"                ",
"  ........      ",
"  .+++++.@.     ",
"  .+++++.+@.    ",
"  .+++++.++@.   ",
"  .+++++.....@  ",
"  .++++++@@@.@  ",
"  .+++++++++.@  ",
"  .+++++++++.@  ",
"  .+++++++++.@  ",
"  .+++++++++.@  ",
"  .+++++++++.@  ",
"  .+++++++++.@  ",
"  ...........@  ",
"   @@@@@@@@@@@  ",
"                "};
