/* XPM */
static char * up_xpm[] = {
"24 24 219 2",
"  	c None",
". 	c #050505",
"+ 	c #090909",
"@ 	c #080808",
"# 	c #080807",
"$ 	c #070707",
"% 	c #030303",
"& 	c #000000",
"* 	c #AEAEAA",
"= 	c #E3E4DC",
"- 	c #D4D5CC",
"; 	c #D4D4CB",
"> 	c #D3D3C9",
", 	c #CDCDC3",
"' 	c #D7D7CB",
") 	c #838379",
"! 	c #B8B8B3",
"~ 	c #DADACD",
"{ 	c #C9C9BC",
"] 	c #CECFC3",
"^ 	c #CDCDC1",
"/ 	c #DBDACE",
"( 	c #8E8E83",
"_ 	c #ACADA7",
": 	c #D3D4C8",
"< 	c #C5C4B9",
"[ 	c #C7C8BC",
"} 	c #C7C7BB",
"| 	c #AAAA9F",
"1 	c #4B4B47",
"2 	c #4C4C49",
"3 	c #484844",
"4 	c #474742",
"5 	c #42423D",
"6 	c #45463F",
"7 	c #10100F",
"8 	c #ABACA4",
"9 	c #CDCEC2",
"0 	c #BFC0B3",
"a 	c #C3C4B7",
"b 	c #C1C1B5",
"c 	c #C0C0B3",
"d 	c #C6C6B9",
"e 	c #D0D0C4",
"f 	c #D0D1C5",
"g 	c #D1D1C5",
"h 	c #D1D2C5",
"i 	c #CECEC2",
"j 	c #D9D9CC",
"k 	c #3C3C38",
"l 	c #A9AAA2",
"m 	c #CACABF",
"n 	c #BBBCB0",
"o 	c #BCBEB1",
"p 	c #C7C7BD",
"q 	c #D0D1C7",
"r 	c #CED0C6",
"s 	c #CDCEC5",
"t 	c #CCCCC3",
"u 	c #CBCCC3",
"v 	c #CBCDC3",
"w 	c #CCCDC3",
"x 	c #CDCDC4",
"y 	c #CDCEC4",
"z 	c #CDCEC3",
"A 	c #CBCCC2",
"B 	c #D6D7CC",
"C 	c #5E5F59",
"D 	c #151515",
"E 	c #21211F",
"F 	c #1D1D1C",
"G 	c #000001",
"H 	c #A1A19B",
"I 	c #C3C4B9",
"J 	c #B4B5AB",
"K 	c #BCBCB1",
"L 	c #FAFAF6",
"M 	c #FFFFFA",
"N 	c #FEFFF8",
"O 	c #FFFFF8",
"P 	c #FEFFF7",
"Q 	c #FFFFF7",
"R 	c #FEFFF6",
"S 	c #FDFEF6",
"T 	c #FDFEF5",
"U 	c #FCFDF4",
"V 	c #FBFCF2",
"W 	c #FAFAF0",
"X 	c #4D4E48",
"Y 	c #010101",
"Z 	c #9A9A93",
"` 	c #BDBEB2",
" .	c #ADAFA2",
"..	c #C6C7BE",
"+.	c #FFFFF9",
"@.	c #FCFCF1",
"#.	c #FCFCF2",
"$.	c #FCFDF2",
"%.	c #FDFDF3",
"&.	c #FDFDF4",
"*.	c #FEFEF4",
"=.	c #FEFFF5",
"-.	c #30302C",
";.	c #999992",
">.	c #BABBB0",
",.	c #A5A699",
"'.	c #D9D9D3",
").	c #F7F8ED",
"!.	c #F9FAEF",
"~.	c #F9FAF0",
"{.	c #FAFBF1",
"].	c #FBFCF1",
"^.	c #FFFFF6",
"/.	c #E4E5DA",
"(.	c #95968F",
"_.	c #B3B5A9",
":.	c #A3A598",
"<.	c #EAEAE4",
"[.	c #F8F9EE",
"}.	c #F3F4E8",
"|.	c #F5F5EB",
"1.	c #F5F6EB",
"2.	c #F6F7EC",
"3.	c #F7F7EC",
"4.	c #F8F8EE",
"5.	c #F6F6EB",
"6.	c #88887F",
"7.	c #020102",
"8.	c #8B8B83",
"9.	c #A9AB9E",
"0.	c #ADAFA4",
"a.	c #F3F3EC",
"b.	c #ECEEE2",
"c.	c #EDEFE3",
"d.	c #EEEFE3",
"e.	c #EFF0E6",
"f.	c #F0F1E6",
"g.	c #F0F1E7",
"h.	c #F0F2E7",
"i.	c #F1F2E7",
"j.	c #F1F3E8",
"k.	c #F2F4E8",
"l.	c #F3F4E9",
"m.	c #F4F5EA",
"n.	c #232320",
"o.	c #020202",
"p.	c #86877F",
"q.	c #9D9F94",
"r.	c #C5C7BF",
"s.	c #ECEDE5",
"t.	c #E1E3D6",
"u.	c #E4E6D9",
"v.	c #E4E7DA",
"w.	c #E5E7DB",
"x.	c #E6E8DB",
"y.	c #E7E8DD",
"z.	c #E7E9DD",
"A.	c #E8EADE",
"B.	c #E9EBDF",
"C.	c #EAECE0",
"D.	c #EBECE1",
"E.	c #EBEDE1",
"F.	c #AFB1A5",
"G.	c #82837C",
"H.	c #D5D6CF",
"I.	c #D9DCD0",
"J.	c #D4D7CA",
"K.	c #D7D9CD",
"L.	c #D8DACD",
"M.	c #D9DBCE",
"N.	c #DADBCF",
"O.	c #DBDCD0",
"P.	c #DBDDD1",
"Q.	c #DCDED2",
"R.	c #DEDFD3",
"S.	c #DEE0D4",
"T.	c #DFE2D6",
"U.	c #E0E3D6",
"V.	c #E0E2D6",
"W.	c #3E3F3A",
"X.	c #797A72",
"Y.	c #ABAEA3",
"Z.	c #CFD2C9",
"`.	c #C1C3B7",
" +	c #C5C7BB",
".+	c #C7C8BF",
"++	c #C8CBC0",
"@+	c #C9CBC0",
"#+	c #CACDC2",
"$+	c #CBCEC3",
"%+	c #CDD0C3",
"&+	c #CED1C5",
"*+	c #D0D3C7",
"=+	c #D2D3C8",
"-+	c #D2D4C8",
";+	c #DDDED4",
">+	c #B1B3A8",
",+	c #010001",
"'+	c #6E6F68",
")+	c #C2C4BA",
"!+	c #C3C5BA",
"~+	c #BEC1B5",
"{+	c #BFC2B7",
"]+	c #BFC2B8",
"^+	c #C0C3B8",
"/+	c #C0C3B9",
"(+	c #C1C4B9",
"_+	c #C2C5B9",
":+	c #C4C6BA",
"<+	c #C4C6BB",
"[+	c #CACEC3",
"}+	c #353531",
"|+	c #121211",
"1+	c #252523",
"2+	c #232421",
"3+	c #242421",
"4+	c #232321",
"5+	c #1A1B18",
"6+	c #010100",
"                                                ",
"                                                ",
"                                                ",
"                                                ",
"    . + + @ # $ $ %                             ",
"  & * = - ; > , ' ) &                           ",
"  & ! ~ { ] ] ^ / ( &                           ",
"  & _ : < [ [ } ] | 1 2 2 3 4 4 4 5 6 7         ",
"  & 8 9 0 a b 0 c d e f g e e g h i j k         ",
"  & l m n o p q r s t u v w x y z A B C D E F % ",
"  G H I J K L M N O N P P P Q R S S T U V W M X ",
"  Y Z `  ...+.@.@.@.#.$.$.$.$.%.%.&.&.*.=.T M -.",
"  Y ;.>.,.'.P ).!.!.~.W W W W {.{.{.].].W ^./.% ",
"  Y (._.:.<.[.}.|.1.1.1.2.2.3.).).4.[.[.5.O 6.  ",
"  7.8.9.0.a.b.b.c.d.d.e.f.g.h.i.j.k.l.l.m.l.n.  ",
"  o.p.q.r.s.t.u.v.w.x.y.z.A.A.B.C.D.E.B.1.F.&   ",
"  o.G.q.H.I.J.K.L.M.N.O.P.Q.R.S.T.U.t.V.E.W.    ",
"  o.X.Y.Z.`. + +.+++@+#+$+%+&+*+=+: -+;+>+o.    ",
"  ,+'+)+!+~+{+{+{+{+]+^+^+/+(+_+!+:+<+[+}+      ",
"    |+1+2+3+3+3+3+3+3+3+4+4+4+4+4+4+1+5+6+      ",
"                                                ",
"                                                ",
"                                                ",
"                                                "};
