/* XPM */
static const char *window_xpm[] = {
"16 16 57 1",
" 	c None",
".	c #BABDB6",
"+	c #FFFFFF",
"@	c #FEFEFE",
"#	c #204A87",
"$	c #FCFCFB",
"%	c #3465A4",
"&	c #FAFBFA",
"*	c #F9F9F9",
"=	c #F8F9F8",
"-	c #F8F8F8",
";	c #F6F6F6",
">	c #F5F6F6",
",	c #F6F5F6",
"'	c #F6F6F5",
")	c #F6F5F5",
"!	c #BBBDB3",
"~	c #F7F7F7",
"{	c #F4F3F3",
"]	c #F3F3F3",
"^	c #F2F3F3",
"/	c #F2F2F3",
"(	c #F3F2F3",
"_	c #F5F5F5",
":	c #F1F0F1",
"<	c #F0F1F1",
"[	c #F1F0F0",
"}	c #F0F0F0",
"|	c #F0F1F0",
"1	c #F0EFF0",
"2	c #EFF0EF",
"3	c #F5F5F4",
"4	c #EEEEEE",
"5	c #EDEEED",
"6	c #EDEDED",
"7	c #EDEDEE",
"8	c #EEEEED",
"9	c #F2F2F2",
"0	c #EBEBEB",
"a	c #EBEBEA",
"b	c #EAEAEB",
"c	c #EAEAEA",
"d	c #F1F2F1",
"e	c #EFEFF0",
"f	c #E9E8E8",
"g	c #E8E8E8",
"h	c #E8E7E8",
"i	c #E7E7E7",
"j	c #E8E7E7",
"k	c #EFEFEF",
"l	c #EEEFEE",
"m	c #E5E5E6",
"n	c #E5E5E5",
"o	c #E5E6E5",
"p	c #F3F2F2",
"q	c #F0EFEF",
"r	c #EFF0F0",
"                ",
"  ............  ",
" .++++++++++++. ",
" .@##########+. ",
" .$%%%%%%%%%%+. ",
" .&***==-====&. ",
" .-;>,;'')'''-! ",
" .~{]]]]^^]/(;. ",
" ._:<[}|}}}123. ",
" .]4567867666]. ",
" .900aabbbcacd. ",
" .efgggghigjhk. ",
" .lmnonnnnnnn8. ",
" .p2qkr1kkkqkk. ",
"  ............  ",
"                "};
