/* XPM */
static char * ede_small2_xpm[] = {
"16 16 57 1",
" 	c None",
".	c #002F78",
"+	c #002C77",
"@	c #002E78",
"#	c #003079",
"$	c #00367B",
"%	c #003179",
"&	c #002B76",
"*	c #003D7D",
"=	c #004E84",
"-	c #082775",
";	c #002A76",
">	c #003E7E",
",	c #005285",
"'	c #082072",
")	c #081C6F",
"!	c #081F71",
"~	c #003B7D",
"{	c #3F8299",
"]	c #005486",
"^	c #082675",
"/	c #085887",
"(	c #081D70",
"_	c #082975",
":	c #081169",
"<	c #004D83",
"[	c #608F9F",
"}	c #002D77",
"|	c #003F7E",
"1	c #257694",
"2	c #13678E",
"3	c #082574",
"4	c #082172",
"5	c #11648C",
"6	c #2B7995",
"7	c #004480",
"8	c #085B89",
"9	c #397F98",
"0	c #004681",
"a	c #081A6F",
"b	c #196C8F",
"c	c #005586",
"d	c #085988",
"e	c #082474",
"f	c #082373",
"g	c #003D7E",
"h	c #307C97",
"i	c #081C70",
"j	c #00387C",
"k	c #1D7091",
"l	c #11668D",
"m	c #207392",
"n	c #005185",
"o	c #004581",
"p	c #004580",
"q	c #00347A",
"r	c #082A76",
"..++++++++++++@.",
".#$$$$$$$$$$$$%.",
"&*            =-",
";>            ,-",
";>   ,')!~{   ]^",
";>  /(@._:<  [>&",
";>  _}+'|1  2_^#",
";>  34%5  6$',7+",
";>  -8  904ab c^",
";>     de^@'  ,^",
";>   2ff@.3g  ,^",
";>   h.i'ij   ,^",
";>     klm    ,^",
";g            n^",
"@%7opppo0oppopq@",
"..r___________@."};
