/* XPM */
static char * ede_small_xpm[] = {
"54 15 298 2",
"  	c None",
". 	c #4A484A",
"+ 	c #454345",
"@ 	c #000000",
"# 	c #996523",
"$ 	c #3A332A",
"% 	c #706D70",
"& 	c #282726",
"* 	c #434243",
"= 	c #E7EEDE",
"- 	c #E4EDDA",
"; 	c #E3ECD7",
"> 	c #E2EBD6",
", 	c #DFE9D3",
"' 	c #DDE8CF",
") 	c #D9E5CA",
"! 	c #C4CEB8",
"~ 	c #791818",
"{ 	c #7D1616",
"] 	c #7E1617",
"^ 	c #7F1617",
"/ 	c #801717",
"( 	c #7F1717",
"_ 	c #7A1515",
": 	c #671314",
"< 	c #675E5E",
"[ 	c #410E92",
"} 	c #4C12AB",
"| 	c #5314B9",
"1 	c #5A1BBF",
"2 	c #5E1FC1",
"3 	c #6428C3",
"4 	c #6931C4",
"5 	c #6D37C4",
"6 	c #713FBE",
"7 	c #8D5F22",
"8 	c #603A08",
"9 	c #030303",
"0 	c #050504",
"a 	c #131313",
"b 	c #DDE8D0",
"c 	c #DBE6CD",
"d 	c #D4DFC6",
"e 	c #CAD4BE",
"f 	c #CFDBC0",
"g 	c #D2DDC4",
"h 	c #D3E0C2",
"i 	c #D2E0C1",
"j 	c #8C2727",
"k 	c #912625",
"l 	c #912423",
"m 	c #922726",
"n 	c #8B2727",
"o 	c #5211B8",
"p 	c #5718BD",
"q 	c #5E26B7",
"r 	c #5C2CA9",
"s 	c #532A95",
"t 	c #1B132B",
"u 	c #404040",
"v 	c #2F2E2F",
"w 	c #787578",
"x 	c #494749",
"y 	c #0E0E0E",
"z 	c #4C4B4C",
"A 	c #D4E1C3",
"B 	c #33362F",
"C 	c #2F312C",
"D 	c #3E413A",
"E 	c #953738",
"F 	c #993738",
"G 	c #943839",
"H 	c #903636",
"I 	c #983637",
"J 	c #873637",
"K 	c #5C1FBC",
"L 	c #6124C2",
"M 	c #612CB7",
"N 	c #7B7B7B",
"O 	c #F9E445",
"P 	c #A5A3A5",
"Q 	c #2F2F2F",
"R 	c #3B3B3B",
"S 	c #CCDCB9",
"T 	c #CBDCB8",
"U 	c #A24B4B",
"V 	c #A44949",
"W 	c #984C4E",
"X 	c #9E4B4B",
"Y 	c #A44A4A",
"Z 	c #A24A4A",
"` 	c #642CBC",
" .	c #6930C4",
"..	c #6D39BF",
"+.	c #4A4C4A",
"@.	c #949295",
"#.	c #E2DEE2",
"$.	c #3E3D3E",
"%.	c #0F0F0F",
"&.	c #353435",
"*.	c #C3D3AF",
"=.	c #C5D6AF",
"-.	c #C1D5AA",
";.	c #AA5C5C",
">.	c #AB5A5A",
",.	c #A35D5C",
"'.	c #AA5959",
").	c #AC5B5B",
"!.	c #6D39C1",
"~.	c #743DC8",
"{.	c #7845C9",
"].	c #7D7C7D",
"^.	c #757275",
"/.	c #817F81",
"(.	c #757475",
"_.	c #121212",
":.	c #191919",
"<.	c #343334",
"[.	c #BCD0A4",
"}.	c #BBD2A2",
"|.	c #B9D09E",
"1.	c #BACF9E",
"2.	c #B6CE9A",
"3.	c #B6CB9A",
"4.	c #ACC290",
"5.	c #A4BA87",
"6.	c #96AB7B",
"7.	c #B16B6C",
"8.	c #B3696A",
"9.	c #AC6E6E",
"0.	c #B46A6A",
"a.	c #7243BC",
"b.	c #7C49CC",
"c.	c #8352CF",
"d.	c #8659CD",
"e.	c #8B60CE",
"f.	c #9169D2",
"g.	c #966FD1",
"h.	c #9B75D5",
"i.	c #9F7DD5",
"j.	c #A19DA1",
"k.	c #6F6C6F",
"l.	c #A9A7A9",
"m.	c #E2DFE2",
"n.	c #2C2B2C",
"o.	c #010101",
"p.	c #1E1D1C",
"q.	c #2A2A2B",
"r.	c #1F1F1F",
"s.	c #B5CC97",
"t.	c #B2CB95",
"u.	c #AEC790",
"v.	c #899C70",
"w.	c #90A477",
"x.	c #A1B784",
"y.	c #AEC391",
"z.	c #ADC390",
"A.	c #A9C289",
"B.	c #B97C7D",
"C.	c #BD7E7E",
"D.	c #B97E7E",
"E.	c #BD7C7C",
"F.	c #BB7A7B",
"G.	c #8E63D1",
"H.	c #8658CF",
"I.	c #8B5FD0",
"J.	c #8962C8",
"K.	c #616061",
"L.	c #F4F0F4",
"M.	c #9E9D9E",
"N.	c #CCC9CC",
"O.	c #F6F3F6",
"P.	c #212021",
"Q.	c #4A494B",
"R.	c #232323",
"S.	c #AEC68E",
"T.	c #ABC689",
"U.	c #9CB27F",
"V.	c #3E4731",
"W.	c #4C583D",
"X.	c #C48F8F",
"Y.	c #C68F8E",
"Z.	c #C09191",
"`.	c #C58E8D",
" +	c #936BD3",
".+	c #777677",
"++	c #E7E3E7",
"@+	c #878587",
"#+	c #B3B0B2",
"$+	c #FCF8FC",
"%+	c #171717",
"&+	c #ADAAAD",
"*+	c #878687",
"=+	c #A4C17E",
"-+	c #A2BF7D",
";+	c #899F6B",
">+	c #CDA0A0",
",+	c #CDA1A1",
"'+	c #CDA2A2",
")+	c #CD9FA0",
"!+	c #A07DD7",
"~+	c #9871D5",
"{+	c #9C78D6",
"]+	c #676667",
"^+	c #AFABAF",
"/+	c #F6F2F6",
"(+	c #6C6A6C",
"_+	c #282728",
":+	c #C1BDC1",
"<+	c #BAB7BA",
"[+	c #060606",
"}+	c #9BBB73",
"|+	c #9ABA71",
"1+	c #7B955B",
"2+	c #D6B1B1",
"3+	c #D7B0B0",
"4+	c #D4B2B2",
"5+	c #D1ADAE",
"6+	c #D6AFAF",
"7+	c #D7B2B1",
"8+	c #A382D8",
"9+	c #515051",
"0+	c #CAC6C9",
"a+	c #BEBABE",
"b+	c #585558",
"c+	c #C4C0C4",
"d+	c #CECACE",
"e+	c #252525",
"f+	c #020202",
"g+	c #93B668",
"h+	c #92B566",
"i+	c #91B365",
"j+	c #DFC3C4",
"k+	c #DBC3C3",
"l+	c #DCC0C1",
"m+	c #BFA6A8",
"n+	c #A888DA",
"o+	c #AC8FDD",
"p+	c #4A4848",
"q+	c #ACA9AB",
"r+	c #B3B0B3",
"s+	c #CCC8CC",
"t+	c #D4D0D4",
"u+	c #464546",
"v+	c #080808",
"w+	c #575557",
"x+	c #8DB05F",
"y+	c #8AAE5B",
"z+	c #8AAE5A",
"A+	c #86AC55",
"B+	c #85AB53",
"C+	c #84AA52",
"D+	c #83AA51",
"E+	c #82A74F",
"F+	c #81A451",
"G+	c #E8D3D4",
"H+	c #E9D3D4",
"I+	c #E9D4D5",
"J+	c #DDCACB",
"K+	c #B094DE",
"L+	c #B69CE1",
"M+	c #BAA2E2",
"N+	c #C0AAE4",
"O+	c #C6B1E6",
"P+	c #CBB9E7",
"Q+	c #D0C0E9",
"R+	c #D4C5EC",
"S+	c #525352",
"T+	c #6C6B6C",
"U+	c #626263",
"V+	c #4E4D4E",
"W+	c #4C4C4C",
"X+	c #818081",
"Y+	c #535253",
"Z+	c #101010",
"`+	c #222122",
" @	c #393839",
".@	c #6B8844",
"+@	c #79994C",
"@@	c #7FA34E",
"#@	c #80A54D",
"$@	c #7B9D4D",
"%@	c #D0C5C4",
"&@	c #D0C6C5",
"*@	c #D1C6C5",
"=@	c #C1B8B6",
"-@	c #8B8181",
";@	c #B59EDA",
">@	c #BBA4DE",
",@	c #AE9ACC",
"'@	c #545354",
")@	c #59585A",
"!@	c #858485",
"~@	c #838183",
"{@	c #6D6B6D",
"]@	c #595959",
"^@	c #312C38",
"/@	c #43404B",
"            . +               @ @ @ @ @ @ @ @ @ @ @     @ @ @ @ @ @ @ @ @         @ @ @ @ @ @ @ @ @ @ @     ",
"        # $ % & *             @ = = - ; > , ' ) ! @     @ ~ { ] ^ / ( _ : @ <     @ [ } | 1 2 3 4 5 6 @     ",
"      7 8 9 0 @ a             @ b b c d e f g h i @     @ j k l k k k k m n @     @ o p 2 q r s s s s t     ",
"        u v w x y z           @ b A h @ B C D @ @ @     @ E F G @ @ @ H F I J @   @ K L M @ @ @ @ @ @ @     ",
"        N O O P Q R           @ b S T @                 @ U V W @     @ X Y Z @   @ `  ...@                 ",
"      +.@.O #.$.%.&.v         @ *.=.-.@ @ @ @ @ @ @     @ ;.>.,.@       @ '.).@   @ !.~.{.@ @ @ @ @ @ @     ",
"    ].^./.O (._.9 :.<.        @ [.}.|.1.2.3.4.5.6.@     @ 7.8.9.@       @ 8.0.@   @ a.b.c.d.e.f.g.h.i.@     ",
"    j.k.l.m.n.o.p.q.r.        @ s.t.u.v.w.x.y.z.A.@     @ B.C.D.@       @ E.F.@   @ G.H.I.J.e.e.e.e.e.@     ",
"  K.L.M.N.O.P.9 k.Q.y R.      @ S.T.U.@ @ @ @ V.W.@     @ X.Y.Z.@       @ Y.`.@   @ G.G. +@ @ @ @ @ @ @     ",
"  .+++@+#+$+<.%+&+*+@ %+      @ =+-+;+@                 @ >+,+'+@       @ )+,+@   @ !+~+{+@                 ",
"  ]+^+  /./+(+_+:+<+[+%.      @ }+|+1+@                 @ 2+3+4+@     @ 5+6+7+@   @ !+!+8+@                 ",
"        9+0+a+b+c+d+e+f+      @ g+h+i+@ @ @ @ @ @ @     @ j+j+k+@ @ @ l+j+j+m+@   @ !+n+o+@ @ @ @ @ @ @     ",
"          p+q+r+s+t+u+v+w+    @ x+y+z+A+B+C+D+E+F+@     @ G+H+I+H+H+H+H+H+J+@     @ !+K+L+M+N+O+P+Q+R+@     ",
"        S+T+U+V+W+X+Y+Z+`+ @  @ .@.@.@.@.@+@@@#@$@@     @ %@%@&@&@&@*@=@-@@       @ !+;@>@,@N+N+N+N+N+@     ",
"          '@)@!@~@{@]@        @ @ @ @ @ @ @ @ @ @ @     @ @ @ @ @ @ @ @ @         @ @ ^@/@@ @ @ @ @ @ @     "};
