/* XPM */
static char * favourites_xpm[] = {
"16 15 132 2",
"  	c None",
". 	c #EDCFD2",
"+ 	c #F3E6E9",
"@ 	c #FEE0E0",
"# 	c #FED2D0",
"$ 	c #EDB0B2",
"% 	c #DE6062",
"& 	c #F1CDCD",
"* 	c #F3CECE",
"= 	c #F6D2D2",
"- 	c #ECCACA",
"; 	c #DBA2A7",
"> 	c #F0C0C2",
", 	c #FEEDED",
"' 	c #FEE2E2",
") 	c #FECFCF",
"! 	c #FEBDBF",
"~ 	c #FEB3B3",
"{ 	c #FD9595",
"] 	c #DB5F62",
"^ 	c #FBB0B1",
"/ 	c #FEA7A7",
"( 	c #FEACAB",
"_ 	c #FEB9B9",
": 	c #FEC8C9",
"< 	c #FED3D3",
"[ 	c #FEDDDE",
"} 	c #FEDBDB",
"| 	c #FED2D2",
"1 	c #FEC6C6",
"2 	c #FEB7B7",
"3 	c #FEA8A9",
"4 	c #FE9C9C",
"5 	c #FA6C6B",
"6 	c #F78282",
"7 	c #FE7E7E",
"8 	c #FE8988",
"9 	c #FEADAE",
"0 	c #FEBABA",
"a 	c #FEC9CA",
"b 	c #FEC7C7",
"c 	c #FEC4C4",
"d 	c #FEAFAE",
"e 	c #FE9A9A",
"f 	c #FE7374",
"g 	c #FC4949",
"h 	c #9D5054",
"i 	c #FB5756",
"j 	c #FE7475",
"k 	c #FE8484",
"l 	c #FE9393",
"m 	c #FEA1A1",
"n 	c #FEABAB",
"o 	c #FEB7B8",
"p 	c #FEB4B4",
"q 	c #FEA4A5",
"r 	c #FE8A89",
"s 	c #FE6969",
"t 	c #FE4A4A",
"u 	c #FC3738",
"v 	c #A33F41",
"w 	c #FD4748",
"x 	c #FE6A6A",
"y 	c #FE7777",
"z 	c #FE8586",
"A 	c #FE9292",
"B 	c #FE9B9B",
"C 	c #FEA2A3",
"D 	c #FEA3A4",
"E 	c #FE8F8F",
"F 	c #FE7979",
"G 	c #FE6363",
"H 	c #FE5757",
"I 	c #FA3535",
"J 	c #9A5053",
"K 	c #F32D2F",
"L 	c #FE5C5C",
"M 	c #FE6565",
"N 	c #FE7171",
"O 	c #FE7B7C",
"P 	c #FE8181",
"Q 	c #FE8383",
"R 	c #FE7C7B",
"S 	c #FE7272",
"T 	c #FF9500",
"U 	c #FE5454",
"V 	c #FE4545",
"W 	c #F73E3D",
"X 	c #7E2A2B",
"Y 	c #E03E3E",
"Z 	c #FE4B4B",
"` 	c #FE5C5D",
" .	c #FE6D6D",
"..	c #FE7373",
"+.	c #FE6B6C",
"@.	c #FE4C4D",
"#.	c #6A2324",
"$.	c #B56767",
"%.	c #F13A3A",
"&.	c #FE5352",
"*.	c #FE5A59",
"=.	c #FE6161",
"-.	c #FE6665",
";.	c #FFFF1A",
">.	c #FFC600",
",.	c #CC4040",
"'.	c #FE4D4C",
").	c #FE5353",
"!.	c #FE5857",
"~.	c #FE5959",
"{.	c #FFFF5D",
"].	c #FFFF8C",
"^.	c #FFFFB6",
"/.	c #BF4948",
"(.	c #F74A4A",
"_.	c #FE4747",
":.	c #FD4647",
"<.	c #FD4A4B",
"[.	c #FE4A4B",
"}.	c #FFFFCC",
"|.	c #5A292A",
"1.	c #B24949",
"2.	c #F84848",
"3.	c #FE3D3E",
"4.	c #F83738",
"5.	c #A43D3D",
"6.	c #D44F4F",
"7.	c #9A3837",
"8.	c #EC2525",
"9.	c #75302F",
"0.	c #8F3A3B",
"a.	c #BF4242",
"                . + @ # $ %     ",
"    & * = - ; > , ' ) ! ~ { ]   ",
"  ^ / ( _ : < [ } | 1 2 3 4 5   ",
"6 7 8 4 9 0 1 a b c 0 d e f g h ",
"i j k l m n ~ 2 o p q r s t u v ",
"w x y z A B C D 4 E F G H t I J ",
"K L M N O P k Q R S T T U V W X ",
"Y Z ` M  ...y T T +.T T @.T T #.",
"$.%.&.*.=.-.T ;.>.T ;.;.T >.;.T ",
"  ,.V '.).!.~.T {.].^.^.].{.T   ",
"    /.(._.:.<.[.T >.}.}.>.T |.  ",
"      1.2.3.4.T {.].^.^.].{.T   ",
"        5.6.T ;.>.T ;.;.T >.;.T ",
"            7.T T 8.T T   T T   ",
"              9.0.a.T T         "};
