/* XPM */
static char * find_xpm[] = {
"16 16 186 2",
"  	c None",
". 	c #71A0D1",
"+ 	c #7FACD8",
"@ 	c #79A5D0",
"# 	c #719FC8",
"$ 	c #6293BE",
"% 	c #90BBE5",
"& 	c #B1D5F2",
"* 	c #E4F7FF",
"= 	c #F6FDFF",
"- 	c #F7FFFF",
"; 	c #ECF8FF",
"> 	c #A4CAE2",
", 	c #346386",
"' 	c #8FBAE4",
") 	c #DCF4FF",
"! 	c #FBFFFF",
"~ 	c #FBFCFF",
"{ 	c #F4FAFF",
"] 	c #EBF7FF",
"^ 	c #E7F4FF",
"/ 	c #E9FAFF",
"( 	c #BAE3FD",
"_ 	c #13446B",
": 	c #719FD0",
"< 	c #B7D7F2",
"[ 	c #F7FEFF",
"} 	c #F7FCFF",
"| 	c #F1F9FF",
"1 	c #EBF6FF",
"2 	c #E4F3FF",
"3 	c #DDEFFE",
"4 	c #CAE5FD",
"5 	c #C3E7FF",
"6 	c #528AB6",
"7 	c #85AFD9",
"8 	c #EFFCFF",
"9 	c #F7FBFF",
"0 	c #EEF7FF",
"a 	c #EAF6FE",
"b 	c #E6F3FE",
"c 	c #DFF0FE",
"d 	c #CDE5FD",
"e 	c #B4D9FC",
"f 	c #B8DBFF",
"g 	c #A8D4FE",
"h 	c #003258",
"i 	c #76A4D0",
"j 	c #E5F6FF",
"k 	c #EAF5FF",
"l 	c #E6F3FF",
"m 	c #E2F1FE",
"n 	c #D4E9FE",
"o 	c #BFDDFC",
"p 	c #B0D3FB",
"q 	c #ABD0FA",
"r 	c #AFD2FD",
"s 	c #97C3F4",
"t 	c #002F52",
"u 	c #699FCF",
"v 	c #C5E8FF",
"w 	c #C3E1FD",
"x 	c #C4E1FE",
"y 	c #C1DDFC",
"z 	c #AFD2FB",
"A 	c #A8CCFA",
"B 	c #A5C8F9",
"C 	c #A1C3F8",
"D 	c #A3C2FA",
"E 	c #91BBF9",
"F 	c #003157",
"G 	c #325881",
"H 	c #8FC0ED",
"I 	c #BCDEFF",
"J 	c #AED2FC",
"K 	c #ABCEFA",
"L 	c #A6C8F9",
"M 	c #9FC0F8",
"N 	c #98B9F7",
"O 	c #91B1F5",
"P 	c #96B4FF",
"Q 	c #2F67A1",
"R 	c #000C16",
"S 	c #618ABF",
"T 	c #4B7EAC",
"U 	c #B6DBFF",
"V 	c #B3D2FF",
"W 	c #A2C4F8",
"X 	c #9BBCF8",
"Y 	c #91B0F6",
"Z 	c #89A6F5",
"` 	c #8AA2FD",
" .	c #5F8AF0",
"..	c #54879C",
"+.	c #8B7F00",
"@.	c #ABCCFF",
"#.	c #758492",
"$.	c #3A6FA2",
"%.	c #6EA0DB",
"&.	c #A4C3FF",
"*.	c #93B2FE",
"=.	c #88A5FD",
"-.	c #7895F6",
";.	c #386CC4",
">.	c #586674",
",.	c #F5FC73",
"'.	c #FCE56A",
").	c #754200",
"!.	c #A1C6FF",
"~.	c #F8F8FD",
"{.	c #95A1AD",
"].	c #214561",
"^.	c #1E5A90",
"/.	c #195287",
"(.	c #175189",
"_.	c #134783",
":.	c #1A2628",
"<.	c #C0710D",
"[.	c #DCA026",
"}.	c #DBC095",
"|.	c #E6C07B",
"1.	c #774500",
"2.	c #A1C5FE",
"3.	c #F6FAFF",
"4.	c #E8EEFD",
"5.	c #B4C2DE",
"6.	c #77859B",
"7.	c #5D697A",
"8.	c #596679",
"9.	c #5D6A7D",
"0.	c #5372A1",
"a.	c #22170E",
"b.	c #854B0C",
"c.	c #C08330",
"d.	c #E2C692",
"e.	c #E5BF7B",
"f.	c #784700",
"g.	c #F0F6FE",
"h.	c #DDEAFF",
"i.	c #CDDEFF",
"j.	c #C4D7F9",
"k.	c #BCD0F1",
"l.	c #B3CAF1",
"m.	c #B8CDF2",
"n.	c #83B2F8",
"o.	c #89510C",
"p.	c #E1C694",
"q.	c #E3BC75",
"r.	c #7E4C01",
"s.	c #A6C9FF",
"t.	c #F1F6FF",
"u.	c #D9E7FF",
"v.	c #D1E2FF",
"w.	c #CFE1FF",
"x.	c #CCE0FF",
"y.	c #C2D9FF",
"z.	c #C7DEFF",
"A.	c #8ABBFF",
"B.	c #0F3162",
"C.	c #874F09",
"D.	c #C88C3C",
"E.	c #C39748",
"F.	c #B3700D",
"G.	c #A4C7FE",
"H.	c #EDF4FE",
"I.	c #D6E4FE",
"J.	c #CDDEFE",
"K.	c #C9DCFE",
"L.	c #C7DBFE",
"M.	c #BDD6FE",
"N.	c #C3DAFF",
"O.	c #87B8FF",
"P.	c #0E3162",
"Q.	c #844F0D",
"R.	c #925B19",
"S.	c #623901",
"T.	c #4988E5",
"U.	c #5691E5",
"V.	c #528EE5",
"W.	c #508CE3",
"X.	c #508BE3",
"Y.	c #4F8BE3",
"Z.	c #4D8AE3",
"`.	c #4F8BE4",
" +	c #478DF3",
".+	c #241400",
"      . + @ # $                 ",
"    % & * = - ; > ,             ",
"  ' ) ! ~ { ] ^ / ( _           ",
": < [ } | 1 2 3 4 5 6           ",
"7 8 9 0 a b c d e f g h         ",
"i j k l m n o p q r s t         ",
"u v w x y z A B C D E F         ",
"G H I J K L M N O P Q R         ",
"S T U V W X Y Z `  ...+.        ",
"@.#.$.%.&.*.=.-.;.>.,.'.).      ",
"!.~.{.].^./.(._.:.<.[.}.|.1.    ",
"2.3.4.5.6.7.8.9.0.a.b.c.d.e.f.  ",
"2.g.h.i.j.k.l.m.n.    o.c.p.q.r.",
"s.t.u.v.w.x.y.z.A.B.    C.D.E.F.",
"G.H.I.J.K.L.M.N.O.P.      Q.R.S.",
"T.U.V.W.X.Y.Z.`. +          .+  "};
