/* XPM */
static char * help_xpm[] = {
"16 16 119 2",
"  	c None",
". 	c #724700",
"+ 	c #774800",
"@ 	c #856D3C",
"# 	c #985817",
"$ 	c #8E6106",
"% 	c #8C5E00",
"& 	c #6A4C19",
"* 	c #797A7B",
"= 	c #D0D4DB",
"- 	c #EEF5F5",
"; 	c #EBB3B2",
"> 	c #ED2423",
", 	c #D51E23",
"' 	c #9A2423",
") 	c #C6CFD7",
"! 	c #FFFFFF",
"~ 	c #FFDBDB",
"{ 	c #FF6767",
"] 	c #FF6A6A",
"^ 	c #F95354",
"/ 	c #D52A2D",
"( 	c #4B3000",
"_ 	c #6A4500",
": 	c #C9343A",
"< 	c #FFBABB",
"[ 	c #DEDEDE",
"} 	c #949999",
"| 	c #735959",
"1 	c #7E2020",
"2 	c #B03E3E",
"3 	c #F76868",
"4 	c #FA8989",
"5 	c #DBC5C7",
"6 	c #583600",
"7 	c #7F5902",
"8 	c #751E21",
"9 	c #FF2828",
"0 	c #FF4F4F",
"a 	c #BE8B8B",
"b 	c #E9D8D8",
"c 	c #B1B4B9",
"d 	c #7B4F0E",
"e 	c #CB262C",
"f 	c #FF4A4A",
"g 	c #DE3232",
"h 	c #7D8080",
"i 	c #FBFBFB",
"j 	c #EAECF0",
"k 	c #8A795C",
"l 	c #823E0E",
"m 	c #EB2626",
"n 	c #FF4B4B",
"o 	c #901414",
"p 	c #DEE3E3",
"q 	c #FBFFFF",
"r 	c #9F9B8C",
"s 	c #EA6867",
"t 	c #FD7E7E",
"u 	c #6D2020",
"v 	c #C7A6A6",
"w 	c #FDE0E0",
"x 	c #917675",
"y 	c #EAE9E6",
"z 	c #717171",
"A 	c #CD3333",
"B 	c #FF7373",
"C 	c #8C1F20",
"D 	c #8F6A26",
"E 	c #D5D8DC",
"F 	c #A1A2A2",
"G 	c #E44242",
"H 	c #F86D70",
"I 	c #95321F",
"J 	c #875603",
"K 	c #9B9A9B",
"L 	c #FCFCFE",
"M 	c #E9EDED",
"N 	c #B61C1C",
"O 	c #FA6666",
"P 	c #D65E63",
"Q 	c #703E15",
"R 	c #835000",
"S 	c #DEE4E7",
"T 	c #FBECEC",
"U 	c #D94C4C",
"V 	c #730808",
"W 	c #B3AEAE",
"X 	c #F39393",
"Y 	c #FD7778",
"Z 	c #823135",
"` 	c #493100",
" .	c #E68788",
"..	c #EF3F3F",
"+.	c #D11818",
"@.	c #BA3F3F",
"#.	c #BDBEBE",
"$.	c #DEE0E0",
"%.	c #F8FAFA",
"&.	c #FCFFFF",
"*.	c #A47177",
"=.	c #644100",
"-.	c #BA5960",
";.	c #EF7A7D",
">.	c #FD6B6D",
",.	c #FD9595",
"'.	c #FAFCFD",
").	c #F8FBFE",
"!.	c #DADDE2",
"~.	c #868A8F",
"{.	c #5E3E00",
"].	c #8B492D",
"^.	c #A14336",
"/.	c #9A5655",
"(.	c #A29E96",
"_.	c #9E937C",
":.	c #6E5935",
"<.	c #472C00",
"[.	c #643F00",
"      . +   @     # $ %         ",
"      & * = - ; > , '           ",
"      ) ! ! ! ~ { ] ^ /     (   ",
"_   : < ! [ } | 1 2 3 4 5   6   ",
"7 8 9 0 a             b ! c     ",
"d e f g               h i j k   ",
"l m n o                 p q r   ",
"  s t u                 v w x   ",
"  y ! z                 A B C   ",
"D E ! F                 G H I   ",
"J K L M               N O P Q   ",
"R   S T U V         W X Y Z `   ",
"       .] ..+.@.#.$.%.&.*.  =.  ",
"        -.;.>.,.'.).!.~.        ",
"    ( {.  ].^./.(._.:.<.[.      ",
"                                "};
