/* XPM */
static char * keyboard_xpm[] = {
"16 16 145 2",
"  	c None",
". 	c #5071B8",
"+ 	c #B9CBF5",
"@ 	c #E2ECFC",
"# 	c #4D6497",
"$ 	c #B7FBFA",
"% 	c #ACEBFA",
"& 	c #A9CCED",
"* 	c #F5F5FF",
"= 	c #F3F5FF",
"- 	c #C7D8FE",
"; 	c #465D92",
"> 	c #A3D2C3",
", 	c #ADEEE0",
"' 	c #B4F4E6",
") 	c #B4FFFD",
"! 	c #ADFAED",
"~ 	c #B1E4D7",
"{ 	c #D8E8EF",
"] 	c #DDE4FF",
"^ 	c #A1BDFD",
"/ 	c #324778",
"( 	c #7DCBB1",
"_ 	c #8BE8BD",
": 	c #92F7E7",
"< 	c #95FAF2",
"[ 	c #92F2E0",
"} 	c #89E1B7",
"| 	c #78D69D",
"1 	c #6FCA96",
"2 	c #B6D5E8",
"3 	c #A3BDFF",
"4 	c #90B0F8",
"5 	c #2D4274",
"6 	c #35C36D",
"7 	c #6CE3C4",
"8 	c #6EF8FC",
"9 	c #70F9FF",
"0 	c #6DE1C4",
"a 	c #66D196",
"b 	c #60CE98",
"c 	c #2CB87D",
"d 	c #3FA685",
"e 	c #9EB9FF",
"f 	c #89ABFD",
"g 	c #799CEC",
"h 	c #1B2E5A",
"i 	c #1FB789",
"j 	c #02C093",
"k 	c #31E1F3",
"l 	c #4BEAFF",
"m 	c #4EE6F9",
"n 	c #4CCE95",
"o 	c #45C47B",
"p 	c #2DB974",
"q 	c #09A044",
"r 	c #118E5C",
"s 	c #89A8E6",
"t 	c #8FB0FE",
"u 	c #7498EA",
"v 	c #6183D2",
"w 	c #00B1BC",
"x 	c #00B9A0",
"y 	c #00BFA4",
"z 	c #0BCFFF",
"A 	c #13CDF7",
"B 	c #13B762",
"C 	c #0BAB37",
"D 	c #009F30",
"E 	c #00903C",
"F 	c #1080A5",
"G 	c #88A1D3",
"H 	c #99B8FF",
"I 	c #759AEB",
"J 	c #6387D9",
"K 	c #5D81D4",
"L 	c #06A6F8",
"M 	c #00AB94",
"N 	c #00A92D",
"O 	c #00B694",
"P 	c #00BCF2",
"Q 	c #00B4D6",
"R 	c #00A675",
"S 	c #009528",
"T 	c #008462",
"U 	c #1272BA",
"V 	c #91A5CE",
"W 	c #A3C0FF",
"X 	c #7EA2F4",
"Y 	c #6589DC",
"Z 	c #4968B1",
"` 	c #45A7E6",
" .	c #0095B6",
"..	c #009E35",
"+.	c #00A34E",
"@.	c #00ABE1",
"#.	c #00A8FF",
"$.	c #0099B0",
"%.	c #008430",
"&.	c #006C79",
"*.	c #2368A7",
"=.	c #A0AFD1",
"-.	c #AFC8FF",
";.	c #86A8F8",
">.	c #5270B4",
",.	c #0D86C5",
"'.	c #008844",
").	c #0093A6",
"!.	c #0095E8",
"~.	c #008FE1",
"{.	c #0082A4",
"].	c #006D6B",
"^.	c #0055A0",
"/.	c #5B7EA7",
"(.	c #BAC7E5",
"_.	c #BBD2FF",
":.	c #7995D2",
"<.	c #097067",
"[.	c #0073BC",
"}.	c #0074C8",
"|.	c #0070C3",
"1.	c #0061B4",
"2.	c #0050A4",
"3.	c #3E6EA5",
"4.	c #AEB6C7",
"5.	c #D5E2FF",
"6.	c #95ABD9",
"7.	c #182646",
"8.	c #1D6199",
"9.	c #175EA3",
"0.	c #12589D",
"a.	c #4174A9",
"b.	c #7D91AA",
"c.	c #B6BCC7",
"d.	c #DFE8F7",
"e.	c #A5B6D9",
"f.	c #192848",
"g.	c #5D7B9F",
"h.	c #D4D9E1",
"i.	c #F0F4FC",
"j.	c #B7C5E3",
"k.	c #243458",
"l.	c #92B0F2",
"m.	c #ABBBD7",
"n.	c #28385C",
"                .               ",
"              + @ #             ",
"        $ % & * = - ;           ",
"    > , ' ) ! ~ { ] ^ /         ",
"  ( _ : < [ } | 1 2 3 4 5       ",
"  6 7 8 9 0 a b c d e f g h     ",
"i j k l m n o p q r s t u v     ",
"w x y z A B C D E F G H I J K   ",
"L M N O P Q R S T U V W X Y Z   ",
"`  ...+.@.#.$.%.&.*.=.-.;.>.    ",
"  ,.'.).!.~.{.].^./.(._.:.      ",
"    <.[.}.|.1.2.3.4.5.6.7.      ",
"      8.9.0.a.b.c.d.e.f.        ",
"            g.h.i.j.k.          ",
"              l.m.n.            ",
"                                "};
