/* XPM */
static char * panel_xpm[] = {
"16 16 180 2",
"  	c None",
". 	c #C2D4D4",
"+ 	c #D4E0DD",
"@ 	c #DAE4DD",
"# 	c #D6E6E7",
"$ 	c #A0C0E0",
"% 	c #799BBF",
"& 	c #7EA0C1",
"* 	c #83A5C7",
"= 	c #8DAECE",
"- 	c #99B9D5",
"; 	c #B4D0E8",
"> 	c #BDD6EB",
", 	c #C1DEF6",
"' 	c #6A97CD",
") 	c #4A85D7",
"! 	c #3272CD",
"~ 	c #2063C1",
"{ 	c #175BB5",
"] 	c #1455A9",
"^ 	c #105098",
"/ 	c #79A1CD",
"( 	c #CEECFF",
"_ 	c #6989AF",
": 	c #469D2C",
"< 	c #5EC647",
"[ 	c #41942B",
"} 	c #33592C",
"| 	c #94A9AD",
"1 	c #97BBE2",
"2 	c #629AE3",
"3 	c #5695F2",
"4 	c #3C81E9",
"5 	c #2A72DF",
"6 	c #1C65D1",
"7 	c #0D55BA",
"8 	c #3371BE",
"9 	c #C6E2FE",
"0 	c #9FC3E8",
"a 	c #559D36",
"b 	c #8AD768",
"c 	c #89D968",
"d 	c #70D657",
"e 	c #5FBF51",
"f 	c #3972A0",
"g 	c #68A0F3",
"h 	c #5D9BF0",
"i 	c #4085E7",
"j 	c #2D76DD",
"k 	c #1D66CE",
"l 	c #185EBD",
"m 	c #92B8E5",
"n 	c #CBEAFF",
"o 	c #597692",
"p 	c #56A136",
"q 	c #548A47",
"r 	c #7C9F61",
"s 	c #9CB054",
"t 	c #86D155",
"u 	c #7B9B51",
"v 	c #5086CF",
"w 	c #69A1F1",
"x 	c #498BE9",
"y 	c #337ADF",
"z 	c #1A64CD",
"A 	c #6C9EDC",
"B 	c #D9F1FF",
"C 	c #95B9E2",
"D 	c #509435",
"E 	c #72A867",
"F 	c #8CC064",
"G 	c #93CB67",
"H 	c #86CE58",
"I 	c #A9B655",
"J 	c #3268A7",
"K 	c #5B97EA",
"L 	c #5997ED",
"M 	c #397FE1",
"N 	c #3A7CD8",
"O 	c #C1DBF7",
"P 	c #C2E3FF",
"Q 	c #556E8F",
"R 	c #52902E",
"S 	c #8EB256",
"T 	c #73C153",
"U 	c #79C15C",
"V 	c #A0CF6A",
"W 	c #A5B04F",
"X 	c #2960A0",
"Y 	c #3781E6",
"Z 	c #4D90ED",
"` 	c #3E84E3",
" .	c #92BBEE",
"..	c #D6EFFF",
"+.	c #82A9D6",
"@.	c #418928",
"#.	c #62AB57",
"$.	c #7BB955",
"%.	c #638E56",
"&.	c #81C651",
"*.	c #ABB550",
"=.	c #5D83AA",
"-.	c #3E87E9",
";.	c #277AEA",
">.	c #4F90E8",
",.	c #CBE3FA",
"'.	c #A3CEFF",
").	c #42628D",
"!.	c #2F8114",
"~.	c #48AA2D",
"{.	c #5B9B41",
"].	c #449D35",
"^.	c #7EC451",
"/.	c #A3B253",
"(.	c #778790",
"_.	c #A3C8F5",
":.	c #63A4F6",
"<.	c #A6CAF6",
"[.	c #C1E0FE",
"}.	c #5695E5",
"|.	c #2D423A",
"1.	c #2C7E0F",
"2.	c #41A723",
"3.	c #537F3D",
"4.	c #518A41",
"5.	c #70B84B",
"6.	c #213A0C",
"7.	c #4A5B6F",
"8.	c #9AB5D2",
"9.	c #B4D5F9",
"0.	c #6DA5F4",
"a.	c #619CDB",
"b.	c #313B27",
"c.	c #2D800F",
"d.	c #5BB136",
"e.	c #5C8E3F",
"f.	c #54943D",
"g.	c #67AC44",
"h.	c #3A4641",
"i.	c #929997",
"j.	c #AAABA8",
"k.	c #A4B0B8",
"l.	c #A0C8F6",
"m.	c #A3C8F8",
"n.	c #B7D9F8",
"o.	c #596C76",
"p.	c #287010",
"q.	c #53A42F",
"r.	c #6DB546",
"s.	c #71AE50",
"t.	c #82A2AD",
"u.	c #DEF1FF",
"v.	c #EDFCFF",
"w.	c #EAF9FF",
"x.	c #E5F3FD",
"y.	c #C2DFF9",
"z.	c #96C6FC",
"A.	c #7FBFFF",
"B.	c #2E4B5F",
"C.	c #214512",
"D.	c #38831C",
"E.	c #419624",
"F.	c #5C7982",
"G.	c #B5D4F4",
"H.	c #CDE9FF",
"I.	c #D2E8FC",
"J.	c #C0E0FE",
"K.	c #A7D5FF",
"L.	c #7CADDC",
"M.	c #4D739E",
"N.	c #25303B",
"O.	c #1F400F",
"P.	c #4C5D71",
"Q.	c #97BCE5",
"R.	c #C1E5FF",
"S.	c #9FC4DB",
"T.	c #5B7A92",
"U.	c #252B30",
"V.	c #415678",
"W.	c #2C3134",
"            . + @               ",
"          # $ % & & * = - ; >   ",
"          , ' ) ! ~ { ] ^ / ( _ ",
": < [ } | 1 2 3 4 5 6 7 8 9 0   ",
"a b c d e f g h i j k l m n o   ",
"p q r s t u v w x y z A B C     ",
"D E F G H I J K L M N O P Q     ",
"R S T U V W X Y Z `  ...+.      ",
"@.#.$.%.&.*.=.-.;.>.,.'.).      ",
"!.~.{.].^./.(._.:.<.[.}.|.      ",
"1.2.3.4.5.6.  7.8.9.0.a.b.      ",
"c.d.e.f.g.h.i.j.k.l.m.n.o.      ",
"  p.q.r.s.t.u.v.w.x.y.z.A.B.    ",
"    C.D.E.F.G.H.I.J.K.L.M.N.    ",
"        O.  P.Q.R.S.T.U.        ",
"                V.W.            "};
