/* XPM */
static char * penguin_xpm[] = {
"32 32 323 2",
"  	c None",
". 	c #A5A5A5",
"+ 	c #727272",
"@ 	c #555555",
"# 	c #6B6B6B",
"$ 	c #7D7D7D",
"% 	c #A4A4A4",
"& 	c #A7A7A7",
"* 	c #848484",
"= 	c #868686",
"- 	c #979797",
"; 	c #999999",
"> 	c #959595",
", 	c #8B8B8B",
"' 	c #737373",
") 	c #757575",
"! 	c #808080",
"~ 	c #777777",
"{ 	c #A2A2A2",
"] 	c #A0A0A0",
"^ 	c #9C9C9C",
"/ 	c #969696",
"( 	c #909090",
"_ 	c #898989",
": 	c #838383",
"< 	c #767676",
"[ 	c #3F3F3F",
"} 	c #616161",
"| 	c #ADADAD",
"1 	c #EAEAEA",
"2 	c #F4F4F4",
"3 	c #B9B9B9",
"4 	c #929292",
"5 	c #8D8D8D",
"6 	c #878787",
"7 	c #7E7E7E",
"8 	c #747474",
"9 	c #6A6A6A",
"0 	c #636363",
"a 	c #292929",
"b 	c #474747",
"c 	c #575757",
"d 	c #6F6F6F",
"e 	c #A3A3A3",
"f 	c #EBEBEB",
"g 	c #FCFCFC",
"h 	c #FEFEFE",
"i 	c #F5F5F5",
"j 	c #BCBCBC",
"k 	c #858585",
"l 	c #7F7F7F",
"m 	c #7A7A7A",
"n 	c #7B7B7B",
"o 	c #6C6C6C",
"p 	c #424242",
"q 	c #000000",
"r 	c #4A4A4A",
"s 	c #6D6D6D",
"t 	c #444444",
"u 	c #E0E0E0",
"v 	c #FDFDFD",
"w 	c #FFFFFF",
"x 	c #FBFBFB",
"y 	c #989898",
"z 	c #E2E2E2",
"A 	c #F3F3F3",
"B 	c #E8E8E8",
"C 	c #B5B5B5",
"D 	c #1B1B1B",
"E 	c #010101",
"F 	c #6E6E6E",
"G 	c #212121",
"H 	c #5B5B5B",
"I 	c #BABABA",
"J 	c #F2F2F2",
"K 	c #F9F9F9",
"L 	c #FAFAFA",
"M 	c #B4B4B4",
"N 	c #ECECEC",
"O 	c #F8F8F8",
"P 	c #0B0B0B",
"Q 	c #3A3A3A",
"R 	c #EEEEEE",
"S 	c #F7F7F7",
"T 	c #BBBBBB",
"U 	c #C2C2C2",
"V 	c #8F8F8F",
"W 	c #ABABAB",
"X 	c #CBCBCB",
"Y 	c #040404",
"Z 	c #535353",
"` 	c #060606",
" .	c #464646",
"..	c #4C4C4C",
"+.	c #D0D0D0",
"@.	c #E1E1E1",
"#.	c #EFEFEF",
"$.	c #696969",
"%.	c #656565",
"&.	c #565656",
"*.	c #F1F1F1",
"=.	c #BFBFBF",
"-.	c #050505",
";.	c #101010",
">.	c #7E7D7D",
",.	c #5E5E5E",
"'.	c #030303",
").	c #3D3D3D",
"!.	c #434343",
"~.	c #CDCDCD",
"{.	c #D9D9D9",
"].	c #DFDFDF",
"^.	c #9B9B9B",
"/.	c #676767",
"(.	c #E6E6E6",
"_.	c #D1D1D1",
":.	c #919191",
"<.	c #020202",
"[.	c #070707",
"}.	c #0D0D0D",
"|.	c #363536",
"1.	c #242424",
"2.	c #C1C1C1",
"3.	c #CACACA",
"4.	c #F3F370",
"5.	c #FEFE55",
"6.	c #FEFE57",
"7.	c #FEFE53",
"8.	c #FEFE4F",
"9.	c #FFF043",
"0.	c #FAD554",
"a.	c #D5D5D5",
"b.	c #080808",
"c.	c #111111",
"d.	c #5C5C5C",
"e.	c #1A1A1A",
"f.	c #090909",
"g.	c #2C2C2C",
"h.	c #3B3B3B",
"i.	c #595959",
"j.	c #B1B1B1",
"k.	c #C4C49E",
"l.	c #F3F364",
"m.	c #FFFF45",
"n.	c #FFFE42",
"o.	c #FFF23E",
"p.	c #FFD33D",
"q.	c #F2D69D",
"r.	c #171717",
"s.	c #404040",
"t.	c #0A0A0A",
"u.	c #373737",
"v.	c #F9F9DB",
"w.	c #FDFD5B",
"x.	c #FFF339",
"y.	c #FFCE36",
"z.	c #F1CB8D",
"A.	c #DEDDDD",
"B.	c #E4E4E4",
"C.	c #666666",
"D.	c #0E0E0E",
"E.	c #2D2D2D",
"F.	c #0C0C0C",
"G.	c #F5F2CA",
"H.	c #FCD952",
"I.	c #F2C481",
"J.	c #DDDCDB",
"K.	c #D8D7D7",
"L.	c #D8D8D8",
"M.	c #3C3C3C",
"N.	c #222222",
"O.	c #2A2A2A",
"P.	c #202020",
"Q.	c #CFCFCF",
"R.	c #F0F0F0",
"S.	c #E2E1E1",
"T.	c #D9D8D9",
"U.	c #D3D3D3",
"V.	c #D6D6D6",
"W.	c #D4D4D4",
"X.	c #1C1C1C",
"Y.	c #232323",
"Z.	c #141414",
"`.	c #131313",
" +	c #F6F6F6",
".+	c #EFEEEF",
"++	c #DBDBDB",
"@+	c #DCDCDC",
"#+	c #C5C5C5",
"$+	c #4D4D4D",
"%+	c #1D1D1D",
"&+	c #282828",
"*+	c #121212",
"=+	c #3E3E3E",
"-+	c #3C3B3B",
";+	c #AEAEAE",
">+	c #DDDDDD",
",+	c #E5E5E5",
"'+	c #F3F2F2",
")+	c #CCCCCC",
"!+	c #B0B0B0",
"~+	c #303030",
"{+	c #454545",
"]+	c #B7B6B7",
"^+	c #A4A3A3",
"/+	c #ADACAC",
"(+	c #282727",
"_+	c #4F4F4F",
":+	c #C4C4C4",
"<+	c #E7E7E7",
"[+	c #C3C3C3",
"}+	c #B6B6B6",
"|+	c #A8A8A8",
"1+	c #8E8E8E",
"2+	c #353535",
"3+	c #EDEDED",
"4+	c #E9E9E9",
"5+	c #C7C7C7",
"6+	c #A1A1A1",
"7+	c #8C8C8C",
"8+	c #343434",
"9+	c #D7D7D7",
"0+	c #E3E3E3",
"a+	c #B2B2B2",
"b+	c #A6A6A6",
"c+	c #9A9A9A",
"d+	c #8A8A8A",
"e+	c #545353",
"f+	c #BDBDBD",
"g+	c #C9C9C9",
"h+	c #B7B7B7",
"i+	c #ACACAC",
"j+	c #9E9E9E",
"k+	c #939393",
"l+	c #888888",
"m+	c #4B4B4B",
"n+	c #DADADA",
"o+	c #DEDEDE",
"p+	c #CECECE",
"q+	c #AFAFAF",
"r+	c #BEBEBE",
"s+	c #C6C6C6",
"t+	c #B3B3B3",
"u+	c #434242",
"v+	c #C0C0C0",
"w+	c #A9A9A9",
"x+	c #AAAAAA",
"y+	c #FCFCD4",
"z+	c #FCFC98",
"A+	c #F8F76E",
"B+	c #F6F14B",
"C+	c #F1E64C",
"D+	c #DFD474",
"E+	c #CEC69B",
"F+	c #BFBEBC",
"G+	c #A7A7A0",
"H+	c #C1C0A4",
"I+	c #E2E2C6",
"J+	c #F2F2B9",
"K+	c #F6F386",
"L+	c #F3F056",
"M+	c #EBDF5B",
"N+	c #FDFA99",
"O+	c #FDF896",
"P+	c #FDF88F",
"Q+	c #FDF481",
"R+	c #FDED67",
"S+	c #F8DA40",
"T+	c #F2C73B",
"U+	c #EDBB4A",
"V+	c #DBAF67",
"W+	c #BEB19E",
"X+	c #B8B088",
"Y+	c #E0D377",
"Z+	c #F5EDB0",
"`+	c #F9F2BF",
" @	c #FCF4B8",
".@	c #FCF2A1",
"+@	c #F7E46A",
"@@	c #EFC83B",
"#@	c #E0A53D",
"$@	c #CC895E",
"%@	c #FCE136",
"&@	c #FCE13D",
"*@	c #FBE254",
"=@	c #FADE5A",
"-@	c #F9D754",
";@	c #F7C444",
">@	c #F2AA35",
",@	c #EB9031",
"'@	c #E17832",
")@	c #D66A33",
"!@	c #BB8061",
"~@	c #CC9F4E",
"{@	c #E8AE44",
"]@	c #EEBC62",
"^@	c #F1C373",
"/@	c #F1C273",
"(@	c #ECB55F",
"_@	c #E29C3E",
":@	c #D37C2B",
"<@	c #BA5527",
"[@	c #90251E",
"}@	c #F2C767",
"|@	c #F1B64E",
"1@	c #EEA740",
"2@	c #EC9537",
"3@	c #E57F33",
"4@	c #DF6B36",
"5@	c #D65C3E",
"6@	c #CD5B4C",
"7@	c #C66E63",
"8@	c #856559",
"9@	c #A7886A",
"0@	c #D28C60",
"a@	c #CF7347",
"b@	c #CB6137",
"c@	c #C7562E",
"d@	c #BF4E29",
"e@	c #B7462A",
"f@	c #AC4233",
"g@	c #A04340",
"h@	c #9A5555",
"                                                                ",
"                          . + @ @ # $ %                         ",
"                      & * = - ; ; > , ' ) -                     ",
"                    ! ~ { . ] ^ / ( _ : < [ #                   ",
"                  } ! | 1 2 3 4 5 6 7 8 9 0 a b                 ",
"                c d e f g h i j k l < m n o p q r               ",
"              s t = u g v h w x y < | z A B C D E F             ",
"            / G H I J K L x L M ; { N v x O A ^ E P n           ",
"            b Q @ u R J i S T U V W - L O J f X E Y Z           ",
"            `  ...+.@.B f #.$.9 %.+ &.2 *.f @.=.E -.;.>.        ",
"          ,.'.).!.4 ~.{.].z ^./.~ C > N (.u _.:.<.[.}.)         ",
"          |.Y 1.Q ..e 2.3.4.5.6.7.8.9.0.a.X ] a '.b.c.d.        ",
"          e.` f.g.h.i.| j.k.l.m.n.o.p.q.].{.F '.-.P r.!.        ",
"        s.t.-.E ;.u.W S K L v.w.x.y.z.@.u A.B.C.` D.e.E.        ",
"        F.E <.q q d *.i S K O G.H.I.J.K.a.L.L._.M.c.D N.F       ",
"      O.q q E q P.Q.f R.i O S 2 N S.T.U.V.L.W.X e e.X.Y.Z.[     ",
"  H E.`.'.E E q s @.B R J  +S  +.+B u ++@+K.+.#+j $+%+&+&+*+=+  ",
"        -+}.<.Z.;+>+,+f *.i  + +'+R (.z >+a.)+=.!+! ~+{+]+^+/+  ",
"        (+c.<._+:+L.u B R J 2 2 *.R <+@.{.Q.[+}+|+1+2+..        ",
"          G E : [+U.@+B.1 R #.R.3+4+z @+U.5+T | 6+7+h.&.        ",
"          8+Y { 2.Q.9+u (.1 f 1 B 0+>+a.X =.a+b+c+d+[ e+        ",
"          p f.|+f+g+U.++u 0+,+B.z >+9+~.[+h+i+j+k+l+M.m+        ",
"            O.j+h+:+~.a.n+o+].o+n+V.p+#+j q+e - 1+$ p           ",
"            [ d+a+r+s+~.U.9+9+a.U.~.s+j t+b+^.:.l+$.u+          ",
"              d - h+v+#+)+p+p+~.g+U j t+w+j+> 7++ d             ",
"                # x+3 2.#+5+s+[+=.3 a+W { c+( ~ s               ",
"            y+z+A+B+C+D+E+F+f+I }+q+x+G+H+I+J+K+L+M+            ",
"          N+O+P+Q+R+S+T+U+V+W+j.;+& X+Y+Z+`+ @.@+@@@#@$@        ",
"        %@&@*@=@-@;@>@,@'@)@!@c+- :.~@{@]@^@/@(@_@:@<@[@        ",
"          }@|@1@2@3@4@5@6@7@8@      9@0@a@b@c@d@e@f@g@h@        ",
"                                                                ",
"                                                                "};
