/* XPM */
static char * programs_user_xpm[] = {
"18 18 157 2",
"  	c None",
". 	c #4193FF",
"+ 	c #ACD4FB",
"@ 	c #AAD3FB",
"# 	c #A9D1FB",
"$ 	c #A7CFFA",
"% 	c #72B6F9",
"& 	c #70B3F9",
"* 	c #6DAFF8",
"= 	c #67ABF7",
"- 	c #62A8F6",
"; 	c #70B1F9",
"> 	c #6DB0F8",
", 	c #68ABF7",
"' 	c #63A8F6",
") 	c #5CA1F6",
"! 	c #99C2F8",
"~ 	c #95BEF7",
"{ 	c #8FB9F6",
"] 	c #8BB3F4",
"^ 	c #86AFF2",
"/ 	c #82AAF2",
"( 	c #7FA7EF",
"_ 	c #7CA4EF",
": 	c #0034A8",
"< 	c #6CAFF8",
"[ 	c #69ACF8",
"} 	c #63A6F7",
"| 	c #5DA1F6",
"1 	c #569CF4",
"2 	c #4E94F2",
"3 	c #448AF0",
"4 	c #3B81ED",
"5 	c #3379E9",
"6 	c #2C70E7",
"7 	c #3770E2",
"8 	c #7290DC",
"9 	c #7C89D2",
"0 	c #1B3BA1",
"a 	c #A6CFFB",
"b 	c #69ACF7",
"c 	c #63A8F7",
"d 	c #5DA2F6",
"e 	c #579BF5",
"f 	c #4F94F2",
"g 	c #468AF1",
"h 	c #3C81ED",
"i 	c #5B8DE6",
"j 	c #4B7FE3",
"k 	c #2C69E1",
"l 	c #A59DCE",
"m 	c #EBDAE1",
"n 	c #F2C4C8",
"o 	c #B16686",
"p 	c #A3CDFA",
"q 	c #63A9F7",
"r 	c #5EA2F6",
"s 	c #589DF5",
"t 	c #4F94F3",
"u 	c #488DF2",
"v 	c #5189E7",
"w 	c #E4ABB9",
"x 	c #FCBDBD",
"y 	c #F9C2C5",
"z 	c #ECB7BF",
"A 	c #FFDCDB",
"B 	c #FFD1D1",
"C 	c #FFB3B2",
"D 	c #FF9091",
"E 	c #D8676A",
"F 	c #A1CBFA",
"G 	c #5EA3F6",
"H 	c #579CF5",
"I 	c #5198F4",
"J 	c #4A8FF2",
"K 	c #7A8DD2",
"L 	c #DE7E8C",
"M 	c #FF7373",
"N 	c #FF8889",
"O 	c #FFA8A7",
"P 	c #FFC1C0",
"Q 	c #FFC2C3",
"R 	c #FFB8B7",
"S 	c #FE9F9E",
"T 	c #FF6D6D",
"U 	c #E94647",
"V 	c #FFFFFF",
"W 	c #FDFDFD",
"X 	c #E97777",
"Y 	c #F54443",
"Z 	c #FF5D5D",
"` 	c #FF7A7B",
" .	c #FF8F8F",
"..	c #FF9B9C",
"+.	c #FF8988",
"@.	c #FE6363",
"#.	c #FF3939",
"$.	c #E53031",
"%.	c #FAFAFA",
"&.	c #F3F3F3",
"*.	c #DCA0A2",
"=.	c #EA4142",
"-.	c #FF4646",
";.	c #FF5C5D",
">.	c #FE6B6C",
",.	c #FF7171",
"'.	c #FF6B6A",
").	c #FF5A59",
"!.	c #FF4848",
"~.	c #FF3535",
"{.	c #DA2E2E",
"].	c #E8E8E8",
"^.	c #DDDBDB",
"/.	c #D48383",
"(.	c #FD2F2F",
"_.	c #FF4B4A",
":.	c #FE5555",
"<.	c #FF5958",
"[.	c #FF5655",
"}.	c #FF4C4C",
"|.	c #FF3D3E",
"1.	c #FF2C2C",
"2.	c #BF3436",
"3.	c #F6F6F6",
"4.	c #EFEFEF",
"5.	c #DEDEDE",
"6.	c #D7D7D7",
"7.	c #CFCDCD",
"8.	c #D54444",
"9.	c #FF3635",
"0.	c #FF3D3D",
"a.	c #FE4241",
"b.	c #FF4141",
"c.	c #FE3939",
"d.	c #FA2A2A",
"e.	c #EE2929",
"f.	c #883435",
"g.	c #263B97",
"h.	c #BD3840",
"i.	c #FE2F2E",
"j.	c #FE2829",
"k.	c #F62829",
"l.	c #F12324",
"m.	c #F41717",
"n.	c #AA3C3D",
"o.	c #000000",
"p.	c #290E0F",
"q.	c #993031",
"r.	c #D72F2F",
"s.	c #E92021",
"t.	c #E81213",
"u.	c #B52526",
"v.	c #4E2E2F",
"w.	c #551A1A",
"x.	c #9F2C2C",
"y.	c #B62527",
"z.	c #542021",
"                                    ",
"                                    ",
"    . . . .                         ",
"  . + @ # $ .                       ",
". + % & * = - . . . . . . . .       ",
". @ ; > , ' ) ! ~ { ] ^ / ( _ :     ",
". # < [ } | 1 2 3 4 5 6 7 8 9 0     ",
". a b c d e f g h i j k l m n o     ",
". p q r s t u v w x y z A B C D E   ",
". F G H I J K L M N O P Q R S T U   ",
". V V V V W X Y Z `  .....+.@.#.$.  ",
". V V V %.&.*.=.-.;.>.,.'.).!.~.{.  ",
". V V %.&.].^./.(._.:.<.[.}.|.1.2.  ",
". V 3.4.].5.6.7.8.9.0.a.b.c.d.e.f.  ",
"  : : : : : : : g.h.i.j.k.l.m.n.    ",
"      o.o.o.o.o.o.p.q.r.s.t.u.v.    ",
"                      w.x.y.z.      ",
"                                    "};
