/* XPM */
static char * run_xpm[] = {
"16 16 158 2",
"  	c None",
". 	c #2D2D52",
"+ 	c #454584",
"@ 	c #555589",
"# 	c #6A6A91",
"$ 	c #262655",
"% 	c #4A4A8C",
"& 	c #595995",
"* 	c #5D5D9B",
"= 	c #6969A6",
"- 	c #7E7EB3",
"; 	c #9898C8",
"> 	c #5E5E81",
", 	c #39396B",
"' 	c #2F2F68",
") 	c #414184",
"! 	c #63639A",
"~ 	c #7272A6",
"{ 	c #7E7EB1",
"] 	c #8787B9",
"^ 	c #8C8CBC",
"/ 	c #AFAFD2",
"( 	c #ACACD7",
"_ 	c #21214E",
": 	c #2E2E62",
"< 	c #3F3F84",
"[ 	c #50508B",
"} 	c #9E9EC5",
"| 	c #C4C4DF",
"1 	c #C0C0DC",
"2 	c #A9A9CF",
"3 	c #9595C2",
"4 	c #9A9AC6",
"5 	c #A6A6CD",
"6 	c #AAAAD2",
"7 	c #6C6C99",
"8 	c #28285D",
"9 	c #555591",
"0 	c #B8B8D5",
"a 	c #BEBEDB",
"b 	c #8989BB",
"c 	c #6868A4",
"d 	c #8B8BB6",
"e 	c #AEAED2",
"f 	c #ADADD1",
"g 	c #BDBDDB",
"h 	c #D7D7F0",
"i 	c #7676A1",
"j 	c #202045",
"k 	c #4B4B8A",
"l 	c #A8A8CC",
"m 	c #BBBBDA",
"n 	c #7878B1",
"o 	c #464681",
"p 	c #29295A",
"q 	c #38385A",
"r 	c #ADADD7",
"s 	c #BCBCDB",
"t 	c #C5C5DF",
"u 	c #DDDDEE",
"v 	c #A8A8D3",
"w 	c #1A1A36",
"x 	c #2F2F54",
"y 	c #555596",
"z 	c #7272A7",
"A 	c #C6C6E0",
"B 	c #8383B8",
"C 	c #474785",
"D 	c #0C0C1E",
"E 	c #2E2E4D",
"F 	c #B2B2DC",
"G 	c #CCCCE4",
"H 	c #D1D1E7",
"I 	c #C3C3DE",
"J 	c #ABABD1",
"K 	c #52528E",
"L 	c #555597",
"M 	c #6A6AA3",
"N 	c #9191BE",
"O 	c #B5B5D7",
"P 	c #565692",
"Q 	c #0A0A1D",
"R 	c #8787AF",
"S 	c #CACAE5",
"T 	c #B4B4D6",
"U 	c #8B8BBB",
"V 	c #7171AA",
"W 	c #42427D",
"X 	c #464676",
"Y 	c #8E8EBC",
"Z 	c #454582",
"` 	c #8E8EB9",
" .	c #D2D2EC",
"..	c #DADAEB",
"+.	c #CDCDE4",
"@.	c #8A8ABB",
"#.	c #5B5B99",
"$.	c #3A3A76",
"%.	c #7171AC",
"&.	c #9898C5",
"*.	c #A0A0CA",
"=.	c #57578F",
"-.	c #373758",
";.	c #8A8AB1",
">.	c #D3D3ED",
",.	c #D3D3E7",
"'.	c #E6E6F2",
").	c #E7E7F3",
"!.	c #7C7CB1",
"~.	c #353570",
"{.	c #8181B6",
"].	c #9F9FC9",
"^.	c #A6A6CB",
"/.	c #7878A2",
"(.	c #BBBBE1",
"_.	c #D1D1E9",
":.	c #DEDEEE",
"<.	c #F6F6FB",
"[.	c #F3F3FA",
"}.	c #8383B2",
"|.	c #111125",
"1.	c #6C6C8E",
"2.	c #A1A1CF",
"3.	c #B7B7D8",
"4.	c #B5B5D6",
"5.	c #BCBCDA",
"6.	c #C8C8E5",
"7.	c #D5D5E9",
"8.	c #D7D7EA",
"9.	c #D2D2E7",
"0.	c #EFEFF7",
"a.	c #EEEEF7",
"b.	c #B1B1D4",
"c.	c #9898C7",
"d.	c #40406E",
"e.	c #5B5B7F",
"f.	c #AEAED9",
"g.	c #B5B5D8",
"h.	c #CFCFE8",
"i.	c #D4D4E8",
"j.	c #D8D8EA",
"k.	c #B2B2D4",
"l.	c #ABABD3",
"m.	c #9797C7",
"n.	c #6666A5",
"o.	c #28285B",
"p.	c #313160",
"q.	c #BBBBD6",
"r.	c #EEEEFB",
"s.	c #363672",
"t.	c #454576",
"u.	c #333364",
"v.	c #2A2A5D",
"w.	c #9999C4",
"x.	c #7070A9",
"y.	c #393975",
"z.	c #52528F",
"A.	c #41417D",
"            . +     @ #         ",
"          $ % & * = - ; >       ",
"      , ' ) ! ~ { ] ^ / ( _     ",
"    : < [ } | 1 2 3 4 5 6 7     ",
"    8 9 0 a b c [ d e f g h i   ",
"  j k l m n o p   q r s t u v w ",
"x y z A B C D     E F G H I J K ",
"L M N O P Q       R S H T U V W ",
"X V Y 5 Z       `  ...+.@.#.$.  ",
"  %.&.*.=.  -.;.>.,.'.).!.~.    ",
"  {.].2 ^./.(._.:.'.<.[.}.|.    ",
"1.2.3.4.5.6.7.8.9.0.a.b.c.d.    ",
"  e.f.g.h.i.j.k.U ^ l.m.n.o.    ",
"    p.=.q.r.I @.#.s.t.u.v.      ",
"          w.6 x.y.              ",
"            z.A.                "};
