/* XPM */
static char * showdesktop_xpm[] = {
"16 16 119 2",
"  	c None",
". 	c #FEDB6F",
"+ 	c #8F6346",
"@ 	c #F8C400",
"# 	c #FEBD09",
"$ 	c #A75416",
"% 	c #FED105",
"& 	c #FB9611",
"* 	c #E7C21D",
"= 	c #FECE20",
"- 	c #BD6418",
"; 	c #41A0EE",
"> 	c #5AA9F6",
", 	c #8DB7B8",
"' 	c #F9DA36",
") 	c #FEB635",
"! 	c #99BFE7",
"~ 	c #BBD1ED",
"{ 	c #DAE0F3",
"] 	c #EEDA7B",
"^ 	c #FEDC48",
"/ 	c #D09959",
"( 	c #B8CFE9",
"_ 	c #FBF6F8",
": 	c #F6F0F3",
"< 	c #EDEBF5",
"[ 	c #E8DDD1",
"} 	c #FEDE68",
"| 	c #FED261",
"1 	c #7C879F",
"2 	c #1F6BD1",
"3 	c #5FC0F9",
"4 	c #93DBFD",
"5 	c #BDE0F2",
"6 	c #F0EDF3",
"7 	c #EDEDF5",
"8 	c #E9EBF7",
"9 	c #E7D8CB",
"0 	c #FCE0AC",
"a 	c #DEB78C",
"b 	c #4972B9",
"c 	c #256AD8",
"d 	c #2262C3",
"e 	c #83D8FE",
"f 	c #D1F8FE",
"g 	c #CFF8FE",
"h 	c #B3E6FB",
"i 	c #D7E3F0",
"j 	c #F6F3F7",
"k 	c #F0F2F9",
"l 	c #DDCEC9",
"m 	c #B3958B",
"n 	c #CCBEC4",
"o 	c #88A0CE",
"p 	c #225DC8",
"q 	c #1D5FD7",
"r 	c #1D67DB",
"s 	c #60B0DE",
"t 	c #CBFEFE",
"u 	c #CAF5FE",
"v 	c #AAE6FE",
"w 	c #B5DAF3",
"x 	c #F5F2F6",
"y 	c #F2F3F8",
"z 	c #E8E2E6",
"A 	c #D5CCD2",
"B 	c #DDDEEB",
"C 	c #E4E0E7",
"D 	c #6891D7",
"E 	c #1053D6",
"F 	c #0B4CD8",
"G 	c #256EE4",
"H 	c #52A0CF",
"I 	c #AEEDFE",
"J 	c #B1E7FE",
"K 	c #97D3F9",
"L 	c #DCE7F3",
"M 	c #FDF9FB",
"N 	c #F9F8FC",
"O 	c #FCFBFD",
"P 	c #F9F5F7",
"Q 	c #F8F2F2",
"R 	c #BEC5DE",
"S 	c #2F69D0",
"T 	c #4D90F1",
"U 	c #59A1FE",
"V 	c #4693CB",
"W 	c #9BE0FE",
"X 	c #95D7FE",
"Y 	c #A9D3F3",
"Z 	c #F2F1F3",
"` 	c #D7DEE9",
" .	c #B5C6E0",
"..	c #83A4D6",
"+.	c #6290D3",
"@.	c #6CA3E1",
"#.	c #73B1F3",
"$.	c #447CC4",
"%.	c #3983C3",
"&.	c #87D5FE",
"*.	c #8CCFFD",
"=.	c #76B3ED",
"-.	c #5396E1",
";.	c #4089E2",
">.	c #4393F0",
",.	c #50A6FE",
"'.	c #3F84D6",
").	c #102F60",
"!.	c #3170AC",
"~.	c #74C5FE",
"{.	c #6FBDFE",
"].	c #53A8FE",
"^.	c #52ABFE",
"/.	c #4191EC",
"(.	c #163F77",
"_.	c #2864A4",
":.	c #79C8FE",
"<.	c #4299F8",
"[.	c #1C5399",
"                      . +       ",
"                    @ # $       ",
"                    % &         ",
"                  * = -         ",
"            ; > , ' )           ",
"          ! ~ { ] ^ /           ",
"      ( _ : < [ } | 1 2         ",
"  3 4 5 6 7 8 9 0 a b c d       ",
"e f g h i j k l m n o p q r     ",
"s t u v w x y z A B C D E F G   ",
"  H I J K L M N O P Q R S T U   ",
"    V W X Y Z `  ...+.@.#.$.    ",
"      %.&.*.=.-.;.>.,.'.).      ",
"        !.~.{.].^./.(.          ",
"          _.:.<.[.              ",
"                                "};
