/* XPM */
static char * sound_xpm[] = {
"16 16 183 2",
"  	c None",
". 	c #3B9929",
"+ 	c #4EAB37",
"@ 	c #49B437",
"# 	c #49B335",
"$ 	c #4EBC38",
"% 	c #368E23",
"& 	c #6A9A3F",
"* 	c #69AA41",
"= 	c #83B64E",
"- 	c #7FB24E",
"; 	c #8ACB6A",
"> 	c #69CB52",
", 	c #6FCB53",
"' 	c #7EA568",
") 	c #636764",
"! 	c #757475",
"~ 	c #5D5D5D",
"{ 	c #6D9832",
"] 	c #9EBB60",
"^ 	c #A0D777",
"/ 	c #5B9146",
"( 	c #515550",
"_ 	c #667467",
": 	c #7D9A7B",
"< 	c #C7C4C8",
"[ 	c #AFAEAF",
"} 	c #8F8F8F",
"| 	c #757575",
"1 	c #424242",
"2 	c #6D9941",
"3 	c #73A644",
"4 	c #7FCC5B",
"5 	c #679149",
"6 	c #181C17",
"7 	c #5F5C5F",
"8 	c #E5E1E6",
"9 	c #FFFFFF",
"0 	c #EBEBED",
"a 	c #969697",
"b 	c #C9CACB",
"c 	c #C6C6C6",
"d 	c #4C4C4C",
"e 	c #679133",
"f 	c #77AB43",
"g 	c #75BF55",
"h 	c #8FC968",
"i 	c #577144",
"j 	c #727274",
"k 	c #F5F4F5",
"l 	c #FEFEFD",
"m 	c #CCCCCB",
"n 	c #858587",
"o 	c #D4D5D3",
"p 	c #9E9E9E",
"q 	c #111111",
"r 	c #5E8E3A",
"s 	c #66A437",
"t 	c #4E803D",
"u 	c #78856B",
"v 	c #333B2D",
"w 	c #4F4E4F",
"x 	c #B8B8BA",
"y 	c #D9D9D7",
"z 	c #DDDE79",
"A 	c #D6D04B",
"B 	c #E8CB87",
"C 	c #D5D4D7",
"D 	c #535354",
"E 	c #0A0A0A",
"F 	c #262626",
"G 	c #3D7530",
"H 	c #629C39",
"I 	c #3B8727",
"J 	c #355B2C",
"K 	c #070707",
"L 	c #1C1C1C",
"M 	c #9A9A9A",
"N 	c #DDDDE1",
"O 	c #F4F5B9",
"P 	c #FFDB56",
"Q 	c #E5D1BA",
"R 	c #CCCDD0",
"S 	c #3A3A3A",
"T 	c #090909",
"U 	c #212121",
"V 	c #508C32",
"W 	c #68AE44",
"X 	c #19350F",
"Y 	c #000000",
"Z 	c #3D3D3D",
"` 	c #EFEFEF",
" .	c #FEFEFE",
"..	c #FCFBFD",
"+.	c #EFE7DF",
"@.	c #E1E1E5",
"#.	c #E8E8E8",
"$.	c #B1B1B1",
"%.	c #242424",
"&.	c #141414",
"*.	c #478B2B",
"=.	c #336C1D",
"-.	c #122209",
";.	c #050404",
">.	c #8A8A8B",
",.	c #F0F0F0",
"'.	c #F2F1F1",
").	c #F7F7F8",
"!.	c #F3F5F7",
"~.	c #E9E9E9",
"{.	c #D8D8D8",
"].	c #C4C4C4",
"^.	c #5F5F5F",
"/.	c #171717",
"(.	c #468528",
"_.	c #47902A",
":.	c #5A754D",
"<.	c #2A2729",
"[.	c #BABABA",
"}.	c #E0E0E0",
"|.	c #ECECEC",
"1.	c #DFDFDF",
"2.	c #C9C9C9",
"3.	c #7C7C7C",
"4.	c #252525",
"5.	c #488828",
"6.	c #2B7013",
"7.	c #404A3D",
"8.	c #445D3F",
"9.	c #B8B7B9",
"0.	c #D3D3D3",
"a.	c #E1E1E1",
"b.	c #E4E4E4",
"c.	c #DEDEDE",
"d.	c #CFCFCF",
"e.	c #B7B7B7",
"f.	c #A0A0A0",
"g.	c #4D842E",
"h.	c #5A8F41",
"i.	c #759257",
"j.	c #69865B",
"k.	c #A19DA7",
"l.	c #C3C3CA",
"m.	c #D0D1D4",
"n.	c #D4D4D4",
"o.	c #CDCDCD",
"p.	c #BBBBBC",
"q.	c #A1A1A3",
"r.	c #8C8C91",
"s.	c #515259",
"t.	c #3E7829",
"u.	c #335D28",
"v.	c #1F4719",
"w.	c #335426",
"x.	c #8A9A66",
"y.	c #CDCBA1",
"z.	c #C7C9BA",
"A.	c #C2C4C5",
"B.	c #BABABB",
"C.	c #A9ACAC",
"D.	c #AEB1AA",
"E.	c #A3A686",
"F.	c #002510",
"G.	c #002A0F",
"H.	c #33581C",
"I.	c #E3E665",
"J.	c #FFF16C",
"K.	c #FFCE45",
"L.	c #EBA553",
"M.	c #B19D92",
"N.	c #999A99",
"O.	c #D8BB79",
"P.	c #FEE2A2",
"Q.	c #FDDD7F",
"R.	c #E7A330",
"S.	c #753517",
"T.	c #A47822",
"U.	c #B17126",
"V.	c #A54C22",
"W.	c #7F2817",
"X.	c #974520",
"Y.	c #903B1F",
"Z.	c #78241A",
"                                ",
"  . + + @ # $ %                 ",
"& * = - ; > , ' ) ! ~           ",
"{ ] ^ / ( _ : < [ } | 1         ",
"2 3 4 5 6 7 8 9 0 a b c d       ",
"e f g h i j k l m n o 9 p q     ",
"r s t u v w x y z A B C D E F   ",
"G H I J K L M N O P Q R S T U   ",
"  V W X Y Z `  ...+.@.#.$.%.&.  ",
"  *.=.-.;.>.,.'.).!.~.{.].^./.Y ",
"  (._.:.<.[.}.|.,.|.1.2.$.3.4.  ",
"  5.6.7.8.9.0.a.b.c.d.e.f.|     ",
"  g.h.i.j.k.l.m.n.o.p.q.r.s.    ",
"  t.u.v.w.x.y.z.A.B.C.D.E.      ",
"  F.G.H.I.J.K.L.M.N.O.P.Q.R.S.  ",
"        T.U.V.W.      X.Y.Z.    "};
