/* XPM */
static char * tux_xpm[] = {
"18 18 70 1",
" 	c None",
".	c #000000",
"+	c #363636",
"@	c #5A5A5A",
"#	c #0E0E0E",
"$	c #0D0D0D",
"%	c #151515",
"&	c #999999",
"*	c #909090",
"=	c #9C9C9C",
"-	c #555555",
";	c #998B54",
">	c #E2CD41",
",	c #BFAB31",
"'	c #675930",
")	c #131313",
"!	c #81702D",
"~	c #E4BE29",
"{	c #DAAB05",
"]	c #6A4411",
"^	c #343434",
"/	c #232323",
"(	c #C8C8C5",
"_	c #DED4AF",
":	c #E5DEB5",
"<	c #939291",
"[	c #1A1A1A",
"}	c #878787",
"|	c #F5F5F5",
"1	c #EBEBEB",
"2	c #F0F0F0",
"3	c #DADADA",
"4	c #3B3B3B",
"5	c #DEDEDE",
"6	c #F7F7F7",
"7	c #F1F1F1",
"8	c #E8E8E8",
"9	c #7E7E7E",
"0	c #606060",
"a	c #C4C4C4",
"b	c #E9E9E9",
"c	c #ECECEC",
"d	c #575757",
"e	c #141414",
"f	c #58564D",
"g	c #F0DE76",
"h	c #4A3E00",
"i	c #DBDBDB",
"j	c #E4E4E4",
"k	c #A99E88",
"l	c #9F9149",
"m	c #534508",
"n	c #54472D",
"o	c #B5A74B",
"p	c #F8D505",
"q	c #DCBB00",
"r	c #6D6957",
"s	c #B9B9B9",
"t	c #A2A2A2",
"u	c #4D4A41",
"v	c #F7DB31",
"w	c #E6C70C",
"x	c #917F0F",
"y	c #7B6D11",
"z	c #8B7500",
"A	c #5F4D00",
"B	c #070500",
"C	c #232116",
"D	c #C7B134",
"E	c #836E00",
"                  ",
"                  ",
"                  ",
"       ..+@       ",
"       #$%%.      ",
"       &*=-.      ",
"       ;>,')      ",
"       !~{]^      ",
"      /(_:<[      ",
"      }|1234.     ",
"     .561789.     ",
"     .0abc3de     ",
"    fgh^ijklmn    ",
"    opqrstuvwx    ",
"    yzAB..CDE     ",
"                  ",
"                  ",
"                  "};
