/* XPM */
static const char * tux_xpm[] = {
"48 48 207 2",
"  	c None",
". 	c #000000",
"+ 	c #858585",
"@ 	c #333333",
"# 	c #7F7F7F",
"$ 	c #BABABA",
"% 	c #B8B8B8",
"& 	c #C1C1C1",
"* 	c #2D2D2D",
"= 	c #C6C6C6",
"- 	c #D9D9D9",
"; 	c #8A8A8A",
"> 	c #BBBBBB",
", 	c #C9C9C9",
"' 	c #9C9C9C",
") 	c #EDEDED",
"! 	c #D7D7D7",
"~ 	c #888888",
"{ 	c #DEDEDE",
"] 	c #E9E9E9",
"^ 	c #EAEAEA",
"/ 	c #C2C2C2",
"( 	c #EBEBEB",
"_ 	c #BEBEBE",
": 	c #262626",
"< 	c #929292",
"[ 	c #999999",
"} 	c #828282",
"| 	c #F3F3F3",
"1 	c #DDDDDD",
"2 	c #ABABAB",
"3 	c #DCAF00",
"4 	c #FFDC00",
"5 	c #939393",
"6 	c #878787",
"7 	c #F2F2F2",
"8 	c #FFF793",
"9 	c #FFF148",
"0 	c #FFE957",
"a 	c #EFE3A3",
"b 	c #482D00",
"c 	c #424242",
"d 	c #AF6800",
"e 	c #FFF461",
"f 	c #FFF1C1",
"g 	c #FFF1B5",
"h 	c #FFE600",
"i 	c #E1B500",
"j 	c #815200",
"k 	c #484848",
"l 	c #EBC200",
"m 	c #FFEB84",
"n 	c #FFE71C",
"o 	c #C99300",
"p 	c #610000",
"q 	c #343434",
"r 	c #DBC975",
"s 	c #D8AA00",
"t 	c #D9AB00",
"u 	c #B57300",
"v 	c #C08500",
"w 	c #E3B800",
"x 	c #2D0000",
"y 	c #636363",
"z 	c #A1A1A1",
"A 	c #EEEEEE",
"B 	c #E9D677",
"C 	c #CC9A00",
"D 	c #DFB300",
"E 	c #E7BE00",
"F 	c #EDD700",
"G 	c #EEE3AD",
"H 	c #666666",
"I 	c #8D8D8D",
"J 	c #B2B2B2",
"K 	c #3F3F3F",
"L 	c #D1D1D1",
"M 	c #F1F1F1",
"N 	c #E8E8E8",
"O 	c #DADADA",
"P 	c #ECECEC",
"Q 	c #DFDFDF",
"R 	c #818181",
"S 	c #393939",
"T 	c #676767",
"U 	c #D3D3D3",
"V 	c #F0F0F0",
"W 	c #D2D2D2",
"X 	c #CACACA",
"Y 	c #C4C4C4",
"Z 	c #646464",
"` 	c #D8D8D8",
" .	c #F5F5F5",
"..	c #F7F7F7",
"+.	c #F8F8F8",
"@.	c #CDCDCD",
"#.	c #EFEFEF",
"$.	c #E4E4E4",
"%.	c #FAFAFA",
"&.	c #E7E7E7",
"*.	c #E1E1E1",
"=.	c #DCDCDC",
"-.	c #C7C7C7",
";.	c #898989",
">.	c #FBFBFB",
",.	c #F9F9F9",
"'.	c #8E8E8E",
").	c #D5D5D5",
"!.	c #E3E3E3",
"~.	c #AFAFAF",
"{.	c #E6E6E6",
"].	c #D0D0D0",
"^.	c #E5E5E5",
"/.	c #E0E0E0",
"(.	c #767676",
"_.	c #414141",
":.	c #E1E0DF",
"<.	c #575757",
"[.	c #959595",
"}.	c #FCF8E8",
"|.	c #F9F3DB",
"1.	c #E2E2E2",
"2.	c #1C0000",
"3.	c #F7EFC6",
"4.	c #A49F8F",
"5.	c #5F5D51",
"6.	c #D9D2BB",
"7.	c #FFEA66",
"8.	c #D8B400",
"9.	c #B4B4B4",
"0.	c #D9D9D7",
"a.	c #614800",
"b.	c #FCF7E3",
"c.	c #CBA900",
"d.	c #9B7300",
"e.	c #8A7C00",
"f.	c #521C00",
"g.	c #1C1A00",
"h.	c #CCC9C2",
"i.	c #FAF3D8",
"j.	c #FFED92",
"k.	c #FBD700",
"l.	c #F7D300",
"m.	c #D7B300",
"n.	c #616161",
"o.	c #D6D6D5",
"p.	c #684C00",
"q.	c #FBF3C9",
"r.	c #FAD700",
"s.	c #E0BD00",
"t.	c #BB9600",
"u.	c #E3C000",
"v.	c #9A9382",
"w.	c #E7DFBC",
"x.	c #D4CDA8",
"y.	c #FFE400",
"z.	c #F2CF00",
"A.	c #EECB00",
"B.	c #D7B400",
"C.	c #CCCCCC",
"D.	c #5F5F5F",
"E.	c #FBF0C3",
"F.	c #F9D700",
"G.	c #FDDA00",
"H.	c #C9B400",
"I.	c #EEDA55",
"J.	c #E9C700",
"K.	c #938500",
"L.	c #DED086",
"M.	c #EAC700",
"N.	c #C9A700",
"O.	c #979797",
"P.	c #BFBFBF",
"Q.	c #A6A6A6",
"R.	c #989898",
"S.	c #595959",
"T.	c #F8EFC3",
"U.	c #F7D400",
"V.	c #EDCB00",
"W.	c #D3B400",
"X.	c #877000",
"Y.	c #E7DDAA",
"Z.	c #FBE100",
"`.	c #DCB900",
" +	c #947300",
".+	c #F5ECC3",
"++	c #EBC900",
"@+	c #F3CF00",
"#+	c #EFCC00",
"$+	c #E6C200",
"%+	c #B39600",
"&+	c #A99500",
"*+	c #DCB800",
"=+	c #D3B000",
"-+	c #CFAC00",
";+	c #AF8A00",
">+	c #836300",
",+	c #EDE09B",
"'+	c #EAD866",
")+	c #E1BE00",
"!+	c #B79A00",
"~+	c #9A8100",
"{+	c #605721",
"]+	c #9D8B21",
"^+	c #968319",
"/+	c #746100",
"(+	c #211E0D",
"                                                                                                ",
"                                                                                                ",
"                                                                                                ",
"                                                                                                ",
"                                                                                                ",
"                                                                                                ",
"                                                                                                ",
"                                              . .                                               ",
"                                        . . . . . . . +                                         ",
"                                        . . . . @ # $ # .                                       ",
"                                      . . . . . . . % & . .                                     ",
"                                      . . . . . . . . * . . .                                   ",
"                                    . . . . . . . . . . . . .                                   ",
"                                    . . = - ; . . > , . . . .                                   ",
"                                    . ' ) ) ! ~ { ] ^ / . . .                                   ",
"                                    . ( _ : < [ = . } | . . .                                   ",
"                                    . 1 2 . 3 4 5 . 6 7 . . .                                   ",
"                                    . @ 3 8 9 0 4 4 a b . . . c                                 ",
"                                    . d e f g h 4 4 4 i j . . k                                 ",
"                                    . . 3 l m n 4 3 d o p . . q                                 ",
"                                    . . r s t d u v w x . [ . y                                 ",
"                                    . z A B C D E F G H . I J .                                 ",
"                                  . K L M M N O A P ] Q R . . . .                               ",
"                                S . T U V W N W N X - / Y . . . . .                             ",
"                                . Z `  ...+.@.( | #.$.U ! + . . . . .                           ",
"                              . . , $...%.+.&... .M A *.=.-.. . . . .                           ",
"                            . . ;.M  .+.>.>.,.1  .M A ( &.$.'.. . . .                           ",
"                            . . ).M  ...%.,.Q P  .M A ( &.!.~.. . . .                           ",
"                            . . X V |  .....-  .| V ) ^ {.!.].. . . .                           ",
"                            . . + A M |  . .- | M A ( N ^.*.& . . . .                           ",
"                            . . . % ! ^.M M =.V #.P ] {.!./.'.H (..                             ",
"                          . . . . . . _.& A /.#.( ] &.$.:.. . . . .   <.                        ",
"                        . [.}.|.. . . . . X !.$.N {.$.1.2.3.4.. . . . 5.                        ",
"                      . . 6.7.4 8.. . . . 9.&.` &.!.*.0.a.b.c.. . d.e.f.g.                      ",
"                    . h.i.j.4 k.l.m.. n./ !.!.{ *./.{ o.p.q.r.s.t.u.v.w..                       ",
"                    . x.y.4 k.l.z.A.B.. L /./.Q { 1 C.D.. E.F.G.G.H.I.J.K..                     ",
"                      . L.k.l.z.A.M.N.. O.P.@._ Q.R.S.. . T.l.r.r.U.V.W.X..                     ",
"                    . Y.Z.l.z.A.M.`. +. . . . . . . . . . .+++@+#+$+%+. .                       ",
"                    . &+*+B.=+-+;+>+. . . . . . . . . . . ,+'+)+!+~+.                           ",
"                      . . . . . . . .       . . . .       {+]+^+/+.                             ",
"                                                            (+                                  ",
"                                                                                                ",
"                                                                                                ",
"                                                                                                ",
"                                                                                                ",
"                                                                                                ",
"                                                                                                ",
"                                                                                                "};
