/* XPM */
static char * hint_xpm[] = {
"48 48 769 2",
"  	c None",
". 	c #C8BC92",
"+ 	c #E4DBAC",
"@ 	c #F3EBC2",
"# 	c #FAF5DF",
"$ 	c #FBF9ED",
"% 	c #FCF9F2",
"& 	c #FBF9EC",
"* 	c #F8F3DC",
"= 	c #F3EABB",
"- 	c #E1D290",
"; 	c #AA975E",
"> 	c #D9D2B3",
", 	c #EDE9D3",
"' 	c #F6F5F1",
") 	c #FAF8F3",
"! 	c #FEFCF4",
"~ 	c #FEFDF5",
"{ 	c #FEFDF3",
"] 	c #FEFCF3",
"^ 	c #FEFCF2",
"/ 	c #FEFCF1",
"( 	c #FDFBEF",
"_ 	c #FBF8EE",
": 	c #F1E9B9",
"< 	c #C3B47C",
"[ 	c #929292",
"} 	c #EAE5C8",
"| 	c #F8F6F2",
"1 	c #FCFBF6",
"2 	c #FEFDF8",
"3 	c #FEFDF7",
"4 	c #FEFDF2",
"5 	c #FEFDF1",
"6 	c #FEFCF0",
"7 	c #FEFCEE",
"8 	c #FAF9EE",
"9 	c #EAE2B9",
"0 	c #AAAAAA",
"a 	c #DBD6C7",
"b 	c #EEECE1",
"c 	c #FBFAF6",
"d 	c #FEFDFA",
"e 	c #FEFDFB",
"f 	c #FEFDF4",
"g 	c #FEFDF0",
"h 	c #FEFDEF",
"i 	c #FEFCEF",
"j 	c #FCF9EE",
"k 	c #F1EED6",
"l 	c #BEB49E",
"m 	c #DBD7C7",
"n 	c #EEEDE5",
"o 	c #F8F7F4",
"p 	c #FEFDF9",
"q 	c #FEFDFC",
"r 	c #FEFDFD",
"s 	c #FEFDEE",
"t 	c #FCF9ED",
"u 	c #F5F2DC",
"v 	c #AEA384",
"w 	c #EEECE0",
"x 	c #FAF9F6",
"y 	c #FEFDFE",
"z 	c #CCCBCB",
"A 	c #D1D0CF",
"B 	c #C7C6BE",
"C 	c #D8D7CD",
"D 	c #F3EFD5",
"E 	c #777777",
"F 	c #E9E7D7",
"G 	c #F7F7F4",
"H 	c #FDFCF8",
"I 	c #787878",
"J 	c #656564",
"K 	c #FEFDF6",
"L 	c #71716C",
"M 	c #6A6A65",
"N 	c #FDFCED",
"O 	c #FAF7EC",
"P 	c #EDE7B9",
"Q 	c #E3E0D2",
"R 	c #F2F2F0",
"S 	c #5A5A59",
"T 	c #4D4D4C",
"U 	c #545451",
"V 	c #41413E",
"W 	c #F9F7EC",
"X 	c #C5B582",
"Y 	c #EBE9DE",
"Z 	c #515150",
"` 	c #FFFEF7",
" .	c #FFFEF6",
"..	c #FFFEF5",
"+.	c #4E4E4B",
"@.	c #FEFDED",
"#.	c #F3EDC0",
"$.	c #6B6B6B",
"%.	c #DBD3B8",
"&.	c #F3F3F0",
"*.	c #5B5B5A",
"=.	c #4F4F4E",
"-.	c #FFFFF9",
";.	c #FFFFF8",
">.	c #FFFEF8",
",.	c #4F4E4B",
"'.	c #FEFDEC",
").	c #FEFDEB",
"!.	c #FCFAEC",
"~.	c #917E4C",
"{.	c #E8E4CE",
"].	c #FFFFFF",
"^.	c #545453",
"/.	c #FFFFFB",
"(.	c #FFFFFA",
"_.	c #4D4C4A",
":.	c #FFFEF4",
"<.	c #E8DA86",
"[.	c #8E8E8E",
"}.	c #EEEBD8",
"|.	c #585857",
"1.	c #4C4B49",
"2.	c #535250",
"3.	c #F5EFBC",
"4.	c #9A9A9A",
"5.	c #F3F0E3",
"6.	c #FDFCF7",
"7.	c #60605E",
"8.	c #585856",
"9.	c #4A4947",
"0.	c #FFFEF2",
"a.	c #F8F6D7",
"b.	c #C9C7C5",
"c.	c #B2B1B0",
"d.	c #959494",
"e.	c #B3B2B0",
"f.	c #BCBCBB",
"g.	c #F5F4EF",
"h.	c #FFFFFC",
"i.	c #DEDEDB",
"j.	c #EEEEEA",
"k.	c #D9D9D3",
"l.	c #FFFEF3",
"m.	c #FFFEEF",
"n.	c #FEFDEA",
"o.	c #FAF7E8",
"p.	c #707070",
"q.	c #B6B5B4",
"r.	c #E6E3DF",
"s.	c #DAD6D1",
"t.	c #5A5551",
"u.	c #C1BAB2",
"v.	c #DCD8D5",
"w.	c #B5B2AF",
"x.	c #F7F5F2",
"y.	c #FFFFFE",
"z.	c #9C9B90",
"A.	c #FCFAED",
"B.	c #5A5A5A",
"C.	c #C2BFBA",
"D.	c #EAE6E2",
"E.	c #D5C9BE",
"F.	c #7B7268",
"G.	c #E8E3DE",
"H.	c #E8E1DA",
"I.	c #968A7E",
"J.	c #898583",
"K.	c #F4F4ED",
"L.	c #FDFCF6",
"M.	c #D8D7D3",
"N.	c #FFFFFD",
"O.	c #FFFEE6",
"P.	c #FFFEF0",
"Q.	c #FEFDE9",
"R.	c #6F6F66",
"S.	c #FDF9E8",
"T.	c #5E5E5E",
"U.	c #8D8A88",
"V.	c #E6E2DC",
"W.	c #D9C9B9",
"X.	c #9C8979",
"Y.	c #B4A89B",
"Z.	c #E7DED3",
"`.	c #CBBBA7",
" +	c #94887A",
".+	c #C6C0B8",
"++	c #A6A4A2",
"@+	c #F2EFE2",
"#+	c #FDFCF4",
"$+	c #848380",
"%+	c #D2D1CC",
"&+	c #FFFEE8",
"*+	c #C7C6B7",
"=+	c #7A7A70",
"-+	c #FCF8D9",
";+	c #626262",
">+	c #B3AFAB",
",+	c #E8E1D9",
"'+	c #CBB4A0",
")+	c #7C6C5B",
"!+	c #E1D8CC",
"~+	c #DFCFBD",
"{+	c #A69482",
"]+	c #C3BBB2",
"^+	c #EDE9E6",
"/+	c #CFC9C2",
"(+	c #949391",
"_+	c #EEEAD4",
":+	c #FCFBF3",
"<+	c #D8D7D1",
"[+	c #686865",
"}+	c #FFFEE7",
"|+	c #FFFEE4",
"1+	c #7E7E74",
"2+	c #D8D7C7",
"3+	c #F8F2B6",
"4+	c #807150",
"5+	c #CAC5B9",
"6+	c #B3B3B3",
"7+	c #DCD7D1",
"8+	c #DBCEC1",
"9+	c #AB9884",
"0+	c #9E8F81",
"a+	c #E7DDD1",
"b+	c #D2BFA9",
"c+	c #958475",
"d+	c #E2DCD5",
"e+	c #DED3C6",
"f+	c #B4A694",
"g+	c #83807D",
"h+	c #E5DFBF",
"i+	c #FAF8F2",
"j+	c #9D9C97",
"k+	c #858481",
"l+	c #FEFDCD",
"m+	c #FFFEDE",
"n+	c #FFFEF1",
"o+	c #A09F93",
"p+	c #8B8A7F",
"q+	c #FEFCEB",
"r+	c #E6D579",
"s+	c #B49E58",
"t+	c #D3CCB0",
"u+	c #C2C0B9",
"v+	c #B5B3B0",
"w+	c #E6DFD6",
"x+	c #C3B4A5",
"y+	c #917F70",
"z+	c #D2C5B8",
"A+	c #DECEBD",
"B+	c #AB9984",
"C+	c #B5A99C",
"D+	c #E8E0D8",
"E+	c #BEAE9D",
"F+	c #B6ADA3",
"G+	c #B6B2AE",
"H+	c #9A9997",
"I+	c #CDC3A5",
"J+	c #FDFCF2",
"K+	c #7B7B75",
"L+	c #B2B1AB",
"M+	c #FEFCBF",
"N+	c #FFFDD6",
"O+	c #FFFEEE",
"P+	c #E1E0CE",
"Q+	c #828177",
"R+	c #D1D0BF",
"S+	c #FEFBED",
"T+	c #8A722C",
"U+	c #C8B876",
"V+	c #DBD3BD",
"W+	c #CBC3B4",
"X+	c #6B6865",
"Y+	c #E9E4DD",
"Z+	c #EDE8E3",
"`+	c #D5CDC5",
" @	c #B2A69A",
".@	c #B4A493",
"+@	c #8D7D6E",
"@@	c #DCD4CC",
"#@	c #DBCEC0",
"$@	c #BAAA9B",
"%@	c #EAE4E0",
"&@	c #E2DCD6",
"*@	c #999794",
"=@	c #EBE8D5",
"-@	c #FAF8F0",
";@	c #74746E",
">@	c #A09F98",
",@	c #FEFDE3",
"'@	c #FEFBAC",
")@	c #DDDCCA",
"!@	c #78786E",
"~@	c #BEBDAD",
"{@	c #FEFDE8",
"]@	c #F7EFB6",
"^@	c #463814",
"/@	c #D3C693",
"(@	c #DAD2BB",
"_@	c #D9D4C6",
":@	c #917E6B",
"<@	c #B7A68F",
"[@	c #E2D3C2",
"}@	c #EDE4D9",
"|@	c #F1EEE9",
"1@	c #F1EEEB",
"2@	c #D7D1CA",
"3@	c #A39489",
"4@	c #DFD6CD",
"5@	c #B4A292",
"6@	c #C3B8AD",
"7@	c #E3DBD3",
"8@	c #C4B9AC",
"9@	c #888683",
"0@	c #D5CEB5",
"a@	c #F9F6EF",
"b@	c #7B7B73",
"c@	c #8E8D86",
"d@	c #C3C2B7",
"e@	c #FEFDC6",
"f@	c #FDFAA0",
"g@	c #BFBEAF",
"h@	c #727268",
"i@	c #CCCBBB",
"j@	c #FDFBED",
"k@	c #A58939",
"l@	c #675325",
"m@	c #D1C69E",
"n@	c #D9D4C2",
"o@	c #DFDBD3",
"p@	c #BDAE9B",
"q@	c #927F6A",
"r@	c #D5C4B1",
"s@	c #E9DFD2",
"t@	c #EEE7DF",
"u@	c #F2EEEB",
"v@	c #F1EFED",
"w@	c #D9D2CB",
"x@	c #C8BAAB",
"y@	c #A09183",
"z@	c #D5C8B8",
"A@	c #948C82",
"B@	c #E7DFB9",
"C@	c #FCFAF1",
"D@	c #B2B1A4",
"E@	c #818077",
"F@	c #A3A26A",
"G@	c #B9B8AB",
"H@	c #FEFCBE",
"I@	c #C3C297",
"J@	c #717167",
"K@	c #7F7E74",
"L@	c #D8D7C5",
"M@	c #FDFBEA",
"N@	c #EFE6A8",
"O@	c #3E3E3E",
"P@	c #807252",
"Q@	c #CBBEA1",
"R@	c #D9D2C4",
"S@	c #E4DED6",
"T@	c #DBD2C5",
"U@	c #897664",
"V@	c #A59584",
"W@	c #E7DED2",
"X@	c #ECE5DE",
"Y@	c #F0EBE8",
"Z@	c #F3F1EE",
"`@	c #BDB1A8",
" #	c #B9AFA5",
".#	c #E4DBCF",
"+#	c #C1B3A1",
"@#	c #7F7C78",
"##	c #797979",
"$#	c #F3EED4",
"%#	c #FCF9EF",
"&#	c #FEFCEA",
"*#	c #EDECDB",
"=#	c #A7A56B",
"-#	c #8E8D82",
";#	c #74746A",
">#	c #747469",
",#	c #747356",
"'#	c #807F75",
")#	c #EDECD9",
"!#	c #F6F1D1",
"~#	c #6F6F6F",
"{#	c #848484",
"]#	c #8C867C",
"^#	c #B3AA93",
"/#	c #DCD2C8",
"(#	c #E7DFD4",
"_#	c #E7E2DC",
":#	c #C7B5A0",
"<#	c #A79481",
"[#	c #CEC2B6",
"}#	c #EBE5DE",
"|#	c #EFEBE7",
"1#	c #F3F0EE",
"2#	c #F0EDEA",
"3#	c #E3DAD3",
"4#	c #D2C1B3",
"5#	c #D2C4B2",
"6#	c #988E82",
"7#	c #858584",
"8#	c #ADA48D",
"9#	c #F3EFDF",
"0#	c #FAF9EF",
"a#	c #FEFDBD",
"b#	c #D0CD7C",
"c#	c #F8F4DC",
"d#	c #988D72",
"e#	c #939393",
"f#	c #B1ABA1",
"g#	c #E0D2C4",
"h#	c #E8DFD1",
"i#	c #EBE3DA",
"j#	c #DED2C5",
"k#	c #CEBDAB",
"l#	c #D0C4B8",
"m#	c #EBE5DF",
"n#	c #F0EEEB",
"o#	c #F4F1EF",
"p#	c #F1EDEA",
"q#	c #EBE4DD",
"r#	c #DDCEBF",
"s#	c #C1B19F",
"t#	c #8C8884",
"u#	c #AFA896",
"v#	c #F0EBD1",
"w#	c #FEFBEE",
"x#	c #FEFCE8",
"y#	c #FDFA9D",
"z#	c #FEFDCF",
"A#	c #FEFDCB",
"B#	c #FEFDE7",
"C#	c #FDF996",
"D#	c #FEFDE2",
"E#	c #FEFCE7",
"F#	c #FBF9EA",
"G#	c #F3F0D4",
"H#	c #9B9077",
"I#	c #838383",
"J#	c #B6B3B1",
"K#	c #CEC3B4",
"L#	c #E6DACC",
"M#	c #E9DED1",
"N#	c #E7DCD1",
"O#	c #DECFBF",
"P#	c #E0D5C8",
"Q#	c #EFEDE9",
"R#	c #EFECE8",
"S#	c #E8DBCD",
"T#	c #D3C4B2",
"U#	c #A3988C",
"V#	c #A4A3A2",
"W#	c #858585",
"X#	c #E4DBB2",
"Y#	c #F9F6EC",
"Z#	c #FCF8E4",
"`#	c #FCF6B6",
" $	c #FCF8B1",
".$	c #FEFAB0",
"+$	c #FEFBB3",
"@$	c #FEFBB7",
"#$	c #FEFCB6",
"$$	c #FEFCB8",
"%$	c #FEFBB2",
"&$	c #FEFAC5",
"*$	c #FCFBDA",
"=$	c #F8F8EB",
"-$	c #EAE4C2",
";$	c #8B8B8B",
">$	c #8D8883",
",$	c #DDCCB8",
"'$	c #E7D9C8",
")$	c #E9DCCC",
"!$	c #E7DBCA",
"~$	c #E7DCCF",
"{$	c #EAE3DC",
"]$	c #E8DFD3",
"^$	c #E3D7C8",
"/$	c #DBCCBA",
"($	c #B9AA97",
"_$	c #8E8A83",
":$	c #6C6C6C",
"<$	c #948454",
"[$	c #F5EBA6",
"}$	c #F6EDB3",
"|$	c #F7F0B2",
"1$	c #F9F2B2",
"2$	c #FCF6B7",
"3$	c #FCF7B7",
"4$	c #FDF9B7",
"5$	c #FDFAB8",
"6$	c #FCF8B7",
"7$	c #FBF7B6",
"8$	c #FAF4B5",
"9$	c #F4EB92",
"0$	c #A69D6D",
"a$	c #959595",
"b$	c #B1B1B1",
"c$	c #969592",
"d$	c #B4ACA2",
"e$	c #DFD2C2",
"f$	c #E0D2C1",
"g$	c #E5D7C7",
"h$	c #E7DBCB",
"i$	c #E5D9CB",
"j$	c #E2D5C7",
"k$	c #DCCFBE",
"l$	c #D2C3B0",
"m$	c #B9A997",
"n$	c #A09485",
"o$	c #93918F",
"p$	c #F7F1C0",
"q$	c #F1E7A4",
"r$	c #F3EAA3",
"s$	c #F6EEB7",
"t$	c #F8F1BF",
"u$	c #F8F1BE",
"v$	c #F9F3BC",
"w$	c #F9F3B5",
"x$	c #F9F3AE",
"y$	c #F8EF9F",
"z$	c #F8F0AB",
"A$	c #F4EA99",
"B$	c #D9C14F",
"C$	c #938355",
"D$	c #918E8A",
"E$	c #AEACA9",
"F$	c #BDB6AF",
"G$	c #C8BBAD",
"H$	c #CCBCAB",
"I$	c #CDBFAE",
"J$	c #CFC1B1",
"K$	c #CEBFAD",
"L$	c #C1B09F",
"M$	c #B19F8D",
"N$	c #A49483",
"O$	c #A19A91",
"P$	c #F5E79A",
"Q$	c #F6F0C1",
"R$	c #FAF8E6",
"S$	c #FBFAEE",
"T$	c #FAF5CE",
"U$	c #F9F5CA",
"V$	c #FAF6CE",
"W$	c #FBF7D0",
"X$	c #F6EEB3",
"Y$	c #F0E59A",
"Z$	c #DDC862",
"`$	c #968336",
" %	c #A18D4B",
".%	c #948960",
"+%	c #7D7D7C",
"@%	c #9D9C9C",
"#%	c #6F6E6A",
"$%	c #72665C",
"%%	c #A18F7D",
"&%	c #AD9984",
"*%	c #9E8C77",
"=%	c #A1907B",
"-%	c #9D8F7E",
";%	c #A9A096",
">%	c #A39F9C",
",%	c #F3E3A6",
"'%	c #EADB9B",
")%	c #F4E7A8",
"!%	c #F7E9A9",
"~%	c #F7EAA9",
"{%	c #F5E89B",
"]%	c #F2E187",
"^%	c #EDDB7A",
"/%	c #E7D573",
"(%	c #DFCB6B",
"_%	c #D7C367",
":%	c #BCA85A",
"<%	c #9D8B47",
"[%	c #6C612F",
"}%	c #928349",
"|%	c #B6A977",
"1%	c #B1AB98",
"2%	c #969696",
"3%	c #919191",
"4%	c #918A6F",
"5%	c #49422C",
"6%	c #3C3835",
"7%	c #8C8278",
"8%	c #ABA196",
"9%	c #9F9891",
"0%	c #A09E9B",
"a%	c #F8F3DD",
"b%	c #F8F0D5",
"c%	c #E6D69B",
"d%	c #DACC96",
"e%	c #D4C68E",
"f%	c #D6C686",
"g%	c #CDBC70",
"h%	c #CAB766",
"i%	c #C3B064",
"j%	c #C6B477",
"k%	c #C9BE8F",
"l%	c #D3C38A",
"m%	c #A28E55",
"n%	c #3B3B3B",
"o%	c #BDB083",
"p%	c #DAC88C",
"q%	c #D5C692",
"r%	c #968E72",
"s%	c #6E6E6E",
"t%	c #999999",
"u%	c #8C8C8C",
"v%	c #C1B693",
"w%	c #9D9269",
"x%	c #545454",
"y%	c #F0DC96",
"z%	c #F6EBC1",
"A%	c #FBF8EA",
"B%	c #FCFBF1",
"C%	c #FDFBF2",
"D%	c #F9F4DA",
"E%	c #F3EAC3",
"F%	c #F1E6BD",
"G%	c #ECE2BA",
"H%	c #EBE2BD",
"I%	c #DFD4A9",
"J%	c #BDAA64",
"K%	c #8B8054",
"L%	c #828282",
"M%	c #A1A1A1",
"N%	c #9F9F9F",
"O%	c #464646",
"P%	c #D7C37C",
"Q%	c #E4CD7B",
"R%	c #E4CF86",
"S%	c #E4D393",
"T%	c #DDCD93",
"U%	c #DECD92",
"V%	c #CFBF82",
"W%	c #C3B377",
"X%	c #505050",
"Y%	c #F3E6B6",
"Z%	c #E3D296",
"`%	c #F1E1A8",
" &	c #F4E7B9",
".&	c #F2E4B1",
"+&	c #EFDD9C",
"@&	c #E7D288",
"#&	c #DFC97A",
"$&	c #D9C374",
"%&	c #CCB76D",
"&&	c #C4B069",
"*&	c #A29565",
"=&	c #948A62",
"-&	c #878787",
";&	c #696969",
">&	c #424242",
",&	c #ACA076",
"'&	c #BFB077",
")&	c #C7B572",
"!&	c #C6B472",
"~&	c #887D57",
"{&	c #494949",
"]&	c #F7EFD6",
"^&	c #F4EAC7",
"/&	c #E6D8AA",
"(&	c #D4C697",
"_&	c #D1C59C",
":&	c #CEC190",
"<&	c #C4B275",
"[&	c #BDAA67",
"}&	c #B6A361",
"|&	c #AE9D5D",
"1&	c #C8BD9A",
"2&	c #D1C599",
"3&	c #9A8D55",
"4&	c #727272",
"5&	c #717171",
"6&	c #EBD792",
"7&	c #F1E5BA",
"8&	c #F9F5E6",
"9&	c #FCFAF4",
"0&	c #FBF9EE",
"a&	c #F9F6EA",
"b&	c #F5EED7",
"c&	c #ECE3C0",
"d&	c #EADFBC",
"e&	c #E8E0C3",
"f&	c #D2C492",
"g&	c #B8A462",
"h&	c #837646",
"i&	c #434343",
"j&	c #EFE6BF",
"k&	c #DFD099",
"l&	c #EDE0B1",
"m&	c #EEE2B3",
"n&	c #EBDCA7",
"o&	c #E6D597",
"p&	c #DDC982",
"q&	c #D3BF72",
"r&	c #CDB86D",
"s&	c #C9B46A",
"t&	c #BCAA65",
"u&	c #9F8F55",
"v&	c #72673C",
"w&	c #484848",
"x&	c #F1E9CB",
"y&	c #E6DCB9",
"z&	c #D4C9A3",
"A&	c #CCC19A",
"B&	c #C3B480",
"C&	c #B9A86C",
"D&	c #B2A060",
"E&	c #AC9B5C",
"F&	c #A59558",
"G&	c #BFB38B",
"H&	c #CCBF92",
"I&	c #92824E",
"J&	c #535353",
"K&	c #ABA48D",
"L&	c #E4D4A3",
"M&	c #F0E9CE",
"N&	c #F8F6EB",
"O&	c #F8F5E9",
"P&	c #EFE7CC",
"Q&	c #EBE2C2",
"R&	c #E7DEBC",
"S&	c #E7DEC1",
"T&	c #D9D0A9",
"U&	c #C4B57F",
"V&	c #AEA070",
"W&	c #605F5A",
"X&	c #868686",
"Y&	c #B1B0AD",
"Z&	c #DCD5B8",
"`&	c #E0D4A4",
" *	c #E0D2A1",
".*	c #E0D19D",
"+*	c #DAC98F",
"@*	c #D0BC7A",
"#*	c #C7B46C",
"$*	c #C3B068",
"%*	c #BEAA66",
"&*	c #AB9C62",
"**	c #898578",
"=*	c #8E8D8C",
"-*	c #B7B7B7",
";*	c #A9A8A4",
">*	c #B6B098",
",*	c #AFA682",
"'*	c #AA9E73",
")*	c #928553",
"!*	c #847847",
"~*	c #6B6242",
"{*	c #36311D",
"]*	c #3E3A2C",
"^*	c #696968",
"/*	c #515151",
"(*	c #767676",
"_*	c #242424",
":*	c #191919",
"<*	c #1F1F1F",
"[*	c #666666",
"}*	c #676767",
"|*	c #353535",
"1*	c #3C3C3C",
"2*	c #757575",
"3*	c #4E4E4E",
"4*	c #8D8D8D",
"                                                                                                ",
"                                                                                                ",
"                      . + @ # $ % & * = - ;                                                     ",
"                  > , ' ) ! ~ { ] ^ / / ( _ : < [                                               ",
"                } | 1 2 2 3 3 ~ { { 4 5 5 6 7 8 9 0                                             ",
"            a b c 2 d e e d 3 ~ f { { 4 5 g h i j k l                                           ",
"          m n o p q r r e p 3 ~ ~ f { { 5 g g s h t u v                                         ",
"          w x d q r y z A p 3 3 ~ ~ f B C 5 g h s s t D E                                       ",
"        F G H e r r r I J p 2 3 K ~ f L M 5 g h s s N O P I                                     ",
"      Q R H d q r r r S T p p 3 3 ~ ~ U V 4 g g s s s N W X                                     ",
"      Y o d e q q q q S Z d p 2 `  ...+.+.4 g g s @.@.@.N #.$.                                  ",
"    %.&.H d e q r r r *.=.d -.;.>.`  .,.,.{ 5 g s '.).).s !.~.                                  ",
"    {.o p d e q r ].r S ^./.(.-.;.>.` _.,.:.4 h @.'.).).@.7 <.[.                                ",
"    }.1 p d e q r r r |.Z /./.(.(.-.>.1.2...:.g s ).).).@.s 3.4.                                ",
"    5.6.p d e e q q r 7.8././.(.(.-.-.9.2. ...0.h @.).).).s a.[.            b.c.d.e.f.          ",
"    g.3 p p d e e e h.i.j./.h././././.k.k.>. .l.m.@.n.).'.s o.p.          q.r.s.t.u.v.w.        ",
"    x.3 2 p p e e e /././.y.y.h.]./.].-.(.>.` :.m.s n.z.).s A.B.          C.D.E.F.G.H.I.J.      ",
"    K.L.K M.p p d d N.N.N./.N.(.N.(.N.N.;.O. .:.P.'.Q.R.'.@.S.T.        U.V.W.X.Y.Z.`. +.+++    ",
"    @+#+3 $+%+p d d &+(.(.y./.]./.].-.-.;.P. .0.m.).*+=+n.@.-+;+        >+,+'+)+!+~+{+]+^+/+(+  ",
"    _+:+~ <+[+2 2 p ~ }+(.(.-.-.-.-.-.>.|+..l.m.'.Q.1+2+n.@.3+4+5+    6+7+8+9+0+a+b+c+d+e+f+g+  ",
"    h+i+f f j+k+3 2 2 l+;.-.;.>.>.` `  .m+l.n+@.n.o+p+Q.n.q+r+s+t+u+  v+w+x+y+z+A+B+C+D+E+F+G+H+",
"    I+g.J+g 4 K+L+f ~ M+K  . . .......:.N+O+).n.P+Q+R+n.).S+T+U+V+W+X+]+Y+Z+`+ @.@+@@@#@$@%@&@*@",
"      =@-@h h g ;@>@4 ,@{ { l.l.l.l.n+P.'@).Q.)@!@~@{@Q.).]@^@/@(@_@:@<@[@}@|@1@2@3@4@5@6@7@8@9@",
"      0@a@^ s @.s b@c@d@e@5 g g P.P.m.@.f@{@g@h@i@Q.Q.'.j@k@l@m@n@o@p@q@r@s@t@u@v@w@x@y@7@z@A@  ",
"        B@C@/ ).'.'.D@E@F@G@).).Q.Q.Q.H@I@J@K@L@Q.{@).M@N@O@P@Q@R@S@T@U@V@W@X@Y@Z@^+`@ #.#+#@#  ",
"        ##$#%#&#n.n.n.*#=#-#;#J@;#>#>#,#'#)#{@{@{@Q.M@!#~#{#]#^#/#(#_#:#<#[#}#|#1#2#3#4#5#6#7#  ",
"          8#9#0#6 n.n.n.a#e@2+R+R+R+R+b#Q.Q.Q.{@'.M@c#d#e#    f#g#h#i#j#k#l#m#n#o#p#q#r#s#t#    ",
"            u#v#t w#x#{@,@y#z#l+A#A#B#C#D#B#B#E#F#G#H#I#      J#K#L#M#N#O#P#q#Q#R#i#S#T#U#V#    ",
"              W#X#Y#Z#`# $.$+$@$#$$$$$%$%$&$*$=$-$[ ;$          >$,$'$)$!$~${$}#]$^$/$($_$      ",
"                :$<$[$}$|$1$2$3$4$5$5$6$7$8$9$0$a$b$            c$d$e$f$g$h$i$j$k$l$m$n$o$      ",
"                    p$q$r$s$t$u$v$w$x$y$z$A$B$C$D$                E$F$G$H$I$J$K$L$M$N$O$        ",
"                    P$Q$R$S$F#T$U$V$W$X$Y$Z$`$ %.%+%                @%#%$%%%&%*%=%-%;%>%        ",
"                    ,%'%)%!%~%{%]%^%/%(%_%:%<%[%}%|%1%2%            3%4%5%6%7%8%9%0%            ",
"                    a%b%c%d%e%f%g%h%i%j%k%l%m%n%T.o%p%q%r%s%{#[ t%u%v%w%x%e#                    ",
"                    y%z%A%B%C%D%E%F%G%H%I%J%K%L%M%N%O%P%Q%R%S%T%U%V%W%X%2%                      ",
"                    Y%Z%`% &.&+&@&#&$&%&&&*&=&-&      ;&>&,&'&)&!&~&{&                          ",
"                    ]&^&/&(&_&:&<&[&}&|&1&2&3&;+          I 4&5&                                ",
"                    6&7&8&9&0&a&b&c&d&e&f&g&h&i&                                                ",
"                    j&k&l&m&n&o&p&q&r&s&t&u&v&w&                                                ",
"                    9#x&y&z&A&B&C&D&E&F&G&H&I&J&                                                ",
"                    K&L&M&N&O&P&Q&R&S&T&U&V&W&X&                                                ",
"                    Y&Z&`& *.*+*@*#*$*%*&***=*                                                  ",
"                      -*;*>*,*'*)*!*~*{*]*^*-&                                                  ",
"                          N%/*I#(*_*:*<*[*                                                      ",
"                            }*;+4&|*1*2*                                                        ",
"                              3*T.(*4*                                                          ",
"                                                                                                ",
"                                                                                                "};
