/* XPM */
static const char *bug_xpm[] = {
"22 22 191 2",
"  	c None",
". 	c #4C2C16",
"+ 	c #5D3C23",
"@ 	c #5E3D23",
"# 	c #41200E",
"$ 	c #59331B",
"% 	c #3C1E0D",
"& 	c #52311A",
"* 	c #59371F",
"= 	c #402310",
"- 	c #3C2313",
"; 	c #483220",
"> 	c #5F3A20",
", 	c #674D3A",
"' 	c #412B20",
") 	c #33170A",
"! 	c #3C1D0C",
"~ 	c #2C170B",
"{ 	c #36281C",
"] 	c #4E433C",
"^ 	c #4A3E35",
"/ 	c #593B21",
"( 	c #2D1909",
"_ 	c #CD3502",
": 	c #D97D3F",
"< 	c #D4CDBE",
"[ 	c #958577",
"} 	c #391E10",
"| 	c #230E05",
"1 	c #17130C",
"2 	c #2C2D25",
"3 	c #835037",
"4 	c #A43818",
"5 	c #160802",
"6 	c #593B1F",
"7 	c #BA6D2B",
"8 	c #FFBD3C",
"9 	c #FB6B07",
"0 	c #DD8D46",
"a 	c #D6C1B0",
"b 	c #574636",
"c 	c #0A0300",
"d 	c #140C07",
"e 	c #6D341E",
"f 	c #E34E24",
"g 	c #FD511E",
"h 	c #593720",
"i 	c #E3A968",
"j 	c #FFD582",
"k 	c #EB8D30",
"l 	c #F56600",
"m 	c #DB5600",
"n 	c #8F391D",
"o 	c #480701",
"p 	c #BB330E",
"q 	c #E83C16",
"r 	c #9A2209",
"s 	c #B95227",
"t 	c #E25F2E",
"u 	c #321A0E",
"v 	c #070401",
"w 	c #FF8F1A",
"x 	c #FFA434",
"y 	c #5D3014",
"z 	c #9C3201",
"A 	c #FF5F00",
"B 	c #F42600",
"C 	c #DD1500",
"D 	c #FC3704",
"E 	c #DA2106",
"F 	c #2C0000",
"G 	c #521E0A",
"H 	c #FF7030",
"I 	c #C02F00",
"J 	c #FF6900",
"K 	c #FF6D04",
"L 	c #9E3200",
"M 	c #BB2500",
"N 	c #F94B00",
"O 	c #E53700",
"P 	c #BD1600",
"Q 	c #DC2903",
"R 	c #CF1505",
"S 	c #A71607",
"T 	c #AE2E0F",
"U 	c #FE7635",
"V 	c #A1491D",
"W 	c #5D432B",
"X 	c #141513",
"Y 	c #A24608",
"Z 	c #FF6209",
"` 	c #F94500",
" .	c #FF4300",
"..	c #FD3500",
"+.	c #F33D00",
"@.	c #D92800",
"#.	c #AD1101",
"$.	c #D42003",
"%.	c #C10E04",
"&.	c #DC270C",
"*.	c #E33F16",
"=.	c #FD7B38",
"-.	c #88401B",
";.	c #F94206",
">.	c #E82A00",
",.	c #EA2D00",
"'.	c #E32600",
").	c #E02400",
"!.	c #D21300",
"~.	c #B21602",
"{.	c #E31C04",
"].	c #D81607",
"^.	c #D12B0C",
"/.	c #D44318",
"(.	c #FF8B44",
"_.	c #793516",
":.	c #100B09",
"<.	c #6D4B2F",
"[.	c #DD2300",
"}.	c #E01F00",
"|.	c #EC2100",
"1.	c #E81D00",
"2.	c #DB1800",
"3.	c #C51000",
"4.	c #BF1603",
"5.	c #C31305",
"6.	c #861003",
"7.	c #D2300F",
"8.	c #E35321",
"9.	c #FF9046",
"0.	c #662D14",
"a.	c #1D0D03",
"b.	c #D71B00",
"c.	c #CB1C02",
"d.	c #581806",
"e.	c #A71101",
"f.	c #DD1000",
"g.	c #B90301",
"h.	c #BA0A00",
"i.	c #710A03",
"j.	c #39190B",
"k.	c #D44117",
"l.	c #F66F32",
"m.	c #F8823D",
"n.	c #41190B",
"o.	c #B70D01",
"p.	c #CA1503",
"q.	c #431408",
"r.	c #830A02",
"s.	c #D60C02",
"t.	c #B70C03",
"u.	c #B00A01",
"v.	c #C8280D",
"w.	c #B63C18",
"x.	c #E25725",
"y.	c #FF8C44",
"z.	c #BD5B27",
"A.	c #C81304",
"B.	c #D21404",
"C.	c #CF1A07",
"D.	c #B81304",
"E.	c #9C0B02",
"F.	c #E13E17",
"G.	c #E25322",
"H.	c #F67B3A",
"I.	c #F27937",
"J.	c #561E0A",
"K.	c #7C1002",
"L.	c #CB2108",
"M.	c #D82A0C",
"N.	c #DA3611",
"O.	c #BF2A0E",
"P.	c #A71102",
"Q.	c #EB5F27",
"R.	c #F57131",
"S.	c #F26C2D",
"T.	c #78270D",
"U.	c #611104",
"V.	c #AF240A",
"W.	c #DF3D13",
"X.	c #E33910",
"Y.	c #D42909",
"Z.	c #F25B21",
"`.	c #CD4918",
" +	c #661905",
".+	c #3B0600",
"++	c #5C1004",
"@+	c #650E03",
"#+	c #6B1203",
"$+	c #691B06",
"%+	c #2D0400",
"                                            ",
"                                            ",
"                                            ",
"                  . + @ #                   ",
"          $     % & * = - ;       >         ",
"            - , ' ) ! ~ { ] ^   / (         ",
"            _ : < [ } | 1 2 3 4             ",
"  5 6     7 8 9 0 a b c d e f g     h       ",
"          i j k l m n o p q r s t u v       ",
"          w x y z A B C D E F G H           ",
"        I J K L M N O P Q R S T U V         ",
"    W X Y Z `  ...+.@.#.$.%.&.*.=.-.        ",
"          ;.>.,.'.).!.~.{.].^./.(._.:.<.    ",
"          [.}.|.1.2.3.4.5.6.7.8.9.0.    a.  ",
"          b.c.d.e.f.g.h.i.j.k.l.m.n.        ",
"          o.p.q.r.s.t.u.v.w.x.y.z.          ",
"            A.B.R C.D.E.F.G.H.I.J.          ",
"            K.L.M.N.O.P.Q.R.S.T.            ",
"              U.V.W.X.Y.Z.`. +              ",
"                .+++@+#+$+%+                ",
"                                            ",
"                                            "};
