/* XPM */
static char * behaviour_xpm[] = {
"32 32 406 2",
"  	c None",
". 	c #FFD303",
"+ 	c #FFDB7C",
"@ 	c #FFBF49",
"# 	c #FFE013",
"$ 	c #FFE793",
"% 	c #FFF0DC",
"& 	c #FFA345",
"* 	c #7CACFA",
"= 	c #70A2F5",
"- 	c #FBD208",
"; 	c #FFE427",
"> 	c #FFC419",
", 	c #FFBE46",
"' 	c #FF8E2B",
") 	c #CCCCCC",
"! 	c #C9CBCE",
"~ 	c #85B1FB",
"{ 	c #A3C6FF",
"] 	c #B8D6FF",
"^ 	c #CCE6FF",
"/ 	c #B3BFA4",
"( 	c #FFE526",
"_ 	c #FFCF28",
": 	c #FFC61F",
"< 	c #FF9E2B",
"[ 	c #FF6E00",
"} 	c #B4C0D2",
"| 	c #A8B8D2",
"1 	c #CCCED1",
"2 	c #D6D6D6",
"3 	c #C9D7E9",
"4 	c #D3EAFF",
"5 	c #C5E5FF",
"6 	c #BEE2FF",
"7 	c #B4DEFF",
"8 	c #F2D731",
"9 	c #FFE23A",
"0 	c #FFCA2C",
"a 	c #FFB834",
"b 	c #FF8012",
"c 	c #9ABFFB",
"d 	c #9EBAE5",
"e 	c #A6B8D4",
"f 	c #D7D7D7",
"g 	c #D2D2D2",
"h 	c #D2D4D6",
"i 	c #C6E2F9",
"j 	c #C2E4FF",
"k 	c #CCD79F",
"l 	c #FFE839",
"m 	c #FFD23B",
"n 	c #FFC934",
"o 	c #FF9F35",
"p 	c #A5C5F9",
"q 	c #ABCAFD",
"r 	c #BFD8FF",
"s 	c #D2E5FF",
"t 	c #D5E3EF",
"u 	c #BBC9D5",
"v 	c #CBCED1",
"w 	c #D4D4D4",
"x 	c #D1D1D1",
"y 	c #CAD4DC",
"z 	c #C2E1EF",
"A 	c #F9DB2C",
"B 	c #FFE14D",
"C 	c #FFCF40",
"D 	c #FFBD47",
"E 	c #FD790C",
"F 	c #AFCBFA",
"G 	c #B9D3FD",
"H 	c #CEE1FF",
"I 	c #E1EEFF",
"J 	c #F0F8FF",
"K 	c #E6F4FF",
"L 	c #DAE9F6",
"M 	c #BECEDA",
"N 	c #C5CCD1",
"O 	c #D9D9D9",
"P 	c #D8D8D8",
"Q 	c #D3D3D3",
"R 	c #D0D0D0",
"S 	c #C5DCEF",
"T 	c #DBD77F",
"U 	c #FFEC54",
"V 	c #FFD54E",
"W 	c #FFCD48",
"X 	c #FF9B37",
"Y 	c #B9D4FE",
"Z 	c #DEEBFF",
"` 	c #F1F7FF",
" .	c #F6FBFF",
"..	c #F1F9FF",
"+.	c #EDF7FF",
"@.	c #EAF6FF",
"#.	c #E3F1FC",
"$.	c #C9D7E3",
"%.	c #C6CFD6",
"&.	c #DDDDDD",
"*.	c #DADADA",
"=.	c #D5D5D5",
"-.	c #D8D4BA",
";.	c #FADE39",
">.	c #FFE561",
",.	c #FFD453",
"'.	c #FFBE53",
").	c #EA710E",
"!.	c #CBDFFE",
"~.	c #FFFFFF",
"{.	c #FCFEFF",
"].	c #F8FCFF",
"^.	c #F5FAFF",
"/.	c #D3E0EA",
"(.	c #C6CFD8",
"_.	c #E2E2E2",
":.	c #DFDFDF",
"<.	c #DCDCDC",
"[.	c #EFD558",
"}.	c #FFEF6D",
"|.	c #FFD961",
"1.	c #FFD05D",
"2.	c #FF9733",
"3.	c #7A5D5B",
"4.	c #B1CCF7",
"5.	c #DFEAF3",
"6.	c #C6CFD7",
"7.	c #D3D4D4",
"8.	c #E9E9E9",
"9.	c #E4E4E4",
"0.	c #E1E1E1",
"a.	c #DEDEDE",
"b.	c #DBDBDB",
"c.	c #D9D3B9",
"d.	c #FFE242",
"e.	c #FFE574",
"f.	c #FFDA66",
"g.	c #FFC264",
"h.	c #D99767",
"i.	c #4875C1",
"j.	c #ECF3FF",
"k.	c #E9F3FB",
"l.	c #C8D2D9",
"m.	c #D2D4D5",
"n.	c #ECECEC",
"o.	c #E6E6E6",
"p.	c #E3E3E3",
"q.	c #E0E0E0",
"r.	c #F4D647",
"s.	c #FFEE7E",
"t.	c #FFDE74",
"u.	c #FFD570",
"v.	c #F99B42",
"w.	c #AFC7DF",
"x.	c #4E82DC",
"y.	c #D9E7FF",
"z.	c #D1DAE1",
"A.	c #D1D4D6",
"B.	c #EEEEEE",
"C.	c #EBEBEB",
"D.	c #E8E8E8",
"E.	c #E5E5E5",
"F.	c #E3D7A3",
"G.	c #FFE85F",
"H.	c #FFE785",
"I.	c #FFE079",
"J.	c #FFC26D",
"K.	c #DD9D6D",
"L.	c #93CCFF",
"M.	c #73A7F9",
"N.	c #C4DBFF",
"O.	c #DCE3E9",
"P.	c #CED1D4",
"Q.	c #E7E7E7",
"R.	c #F3F3F3",
"S.	c #F0F0F0",
"T.	c #EDEDED",
"U.	c #EAEAEA",
"V.	c #F6D74C",
"W.	c #FFF39C",
"X.	c #FFE387",
"Y.	c #FFDB82",
"Z.	c #FC993E",
"`.	c #D9CFC9",
" +	c #A1CAEF",
".+	c #82B6FF",
"++	c #A8C6F6",
"@+	c #FDFEFF",
"#+	c #EBF0F5",
"$+	c #CFD3D7",
"%+	c #F8F8F8",
"&+	c #F5F5F5",
"*+	c #F2F2F2",
"=+	c #EFEFEF",
"-+	c #ECDB8C",
";+	c #FFEE83",
">+	c #FFE997",
",+	c #FFE48D",
"'+	c #FFBC69",
")+	c #E5A675",
"!+	c #B8CBDC",
"~+	c #89BEFF",
"{+	c #3A63A8",
"]+	c #A1BEEE",
"^+	c #E9F2FF",
"/+	c #F3F7FA",
"(+	c #D5D8DB",
"_+	c #FDFDFD",
":+	c #FAFAFA",
"<+	c #F7F7F7",
"[+	c #F4F4F4",
"}+	c #F1F1F1",
"|+	c #FBDD4C",
"1+	c #FFF4AE",
"2+	c #FFE99A",
"3+	c #FFDF94",
"4+	c #FA9640",
"5+	c #CECECE",
"6+	c #98C9F5",
"7+	c #96CBFF",
"8+	c #4479D4",
"9+	c #D4E4FF",
"0+	c #F2F6F9",
"a+	c #D6D8D9",
"b+	c #FBFBFB",
"c+	c #FCFCFC",
"d+	c #F9F9F9",
"e+	c #F6F6F6",
"f+	c #F3DC73",
"g+	c #FFF19E",
"h+	c #FFEEAA",
"i+	c #FFEAA0",
"j+	c #FFBB6A",
"k+	c #E7B087",
"l+	c #B1CAE1",
"m+	c #8AC7FF",
"n+	c #8FC8FC",
"o+	c #6096EC",
"p+	c #BDD6FF",
"q+	c #FAFDFF",
"r+	c #E0E4E9",
"s+	c #D7DEE2",
"t+	c #FEFEFE",
"u+	c #F9E06E",
"v+	c #FFF6C0",
"w+	c #FFEEAD",
"x+	c #FFE5A5",
"y+	c #F69A4C",
"z+	c #C2C8CF",
"A+	c #8DC0F1",
"B+	c #7FB7EC",
"C+	c #7BB5ED",
"D+	c #6596E3",
"E+	c #9EC0F6",
"F+	c #F6FAFF",
"G+	c #D2D9DE",
"H+	c #D7DBDF",
"I+	c #FCDA70",
"J+	c #FFF1CE",
"K+	c #FFEFB4",
"L+	c #FFB25F",
"M+	c #D2AD92",
"N+	c #BEBEBE",
"O+	c #8BABCA",
"P+	c #7BADDD",
"Q+	c #72A5D6",
"R+	c #71A7DB",
"S+	c #6C9CDB",
"T+	c #294577",
"U+	c #97B9EE",
"V+	c #E0ECFF",
"W+	c #EBF3F9",
"X+	c #CED6DE",
"Y+	c #D4D6D8",
"Z+	c #F0D390",
"`+	c #FFB160",
" @	c #D5A175",
".@	c #B3B3B3",
"+@	c #9CA6B1",
"@@	c #77A6D1",
"#@	c #74A5D3",
"$@	c #71A5D6",
"%@	c #6EA4D8",
"&@	c #71A3DB",
"*@	c #2C569D",
"=@	c #C9DDFF",
"-@	c #F5FBFF",
";@	c #DFE9F0",
">@	c #CCD6DE",
",@	c #BEBDC7",
"'@	c #C4A383",
")@	c #C8B098",
"!@	c #B8B8B8",
"~@	c #AAAAAA",
"{@	c #7FA6CA",
"]@	c #76A6D1",
"^@	c #73A5D3",
"/@	c #70A4D6",
"(@	c #6CA3D8",
"_@	c #77ACDC",
":@	c #3B6CC2",
"<@	c #AFCEFF",
"[@	c #F7FCFF",
"}@	c #CAD9E6",
"|@	c #C9D3DB",
"1@	c #C7C7C7",
"2@	c #A2A2AA",
"3@	c #B5B5B8",
"4@	c #BCBCBC",
"5@	c #B2B2B2",
"6@	c #8FA4B7",
"7@	c #78A6CF",
"8@	c #78A9D7",
"9@	c #72A4D3",
"0@	c #76AEE4",
"a@	c #6FA9DF",
"b@	c #77B5F1",
"c@	c #5992EF",
"d@	c #96BAF6",
"e@	c #F4F9FF",
"f@	c #EBF6FF",
"g@	c #DAEDFC",
"h@	c #BDD1E1",
"i@	c #CED2D6",
"j@	c #A9AEB2",
"k@	c #8BB7E0",
"l@	c #82B4E2",
"m@	c #84BBEF",
"n@	c #81BBF1",
"o@	c #8AC3F9",
"p@	c #91C5FD",
"q@	c #6DA7FD",
"r@	c #4682EA",
"s@	c #8FB2EE",
"t@	c #DDEAFF",
"u@	c #E8F4FF",
"v@	c #DBEFFF",
"w@	c #CFE5F8",
"x@	c #B9CCDC",
"y@	c #A5CAEC",
"z@	c #94C8F9",
"A@	c #92CAFF",
"B@	c #9FD0FD",
"C@	c #8DBFFF",
"D@	c #639EFF",
"E@	c #396FCE",
"F@	c #25447B",
"G@	c #C3DAFF",
"H@	c #F2F9FF",
"I@	c #E5F3FF",
"J@	c #D9EEFF",
"K@	c #D2EBFF",
"L@	c #BFDAEF",
"M@	c #BFCCD8",
"N@	c #BCCAD8",
"O@	c #A1D2FF",
"P@	c #A9D5FF",
"Q@	c #8ABBFF",
"R@	c #5C96F9",
"S@	c #3867B8",
"T@	c #A8C9FF",
"U@	c #E2F2FF",
"V@	c #D8EDFF",
"W@	c #D1EAFF",
"X@	c #C9E6FE",
"Y@	c #B2CFE7",
"Z@	c #CBCFD3",
"`@	c #AED1F9",
" #	c #80B2FF",
".#	c #4A82E1",
"+#	c #375D9E",
"@#	c #8CB4F6",
"##	c #F2F8FF",
"$#	c #E1F1FF",
"%#	c #D6ECFF",
"&#	c #CFE9FF",
"*#	c #C8E6FF",
"=#	c #BFDFFA",
"-#	c #B1C9DE",
";#	c #A0B9DF",
">#	c #4A7BCE",
",#	c #87B0F1",
"'#	c #DAE8FF",
")#	c #DFF1FF",
"!#	c #D4EBFF",
"~#	c #CDE8FF",
"{#	c #C7E5FF",
"]#	c #B9D7F5",
"^#	c #AFBFD6",
"/#	c #C3C7CC",
"(#	c #BED7FF",
"_#	c #E0F1FF",
":#	c #BFDCFF",
"<#	c #96C0FF",
"[#	c #5F90E0",
"}#	c #607497",
"|#	c #C4C4C4",
"1#	c #7B7B7B",
"2#	c #A0C4FF",
"3#	c #E8F3FF",
"4#	c #BAD7FF",
"5#	c #80AFF9",
"6#	c #5E88CF",
"7#	c #84B0F8",
"8#	c #84AEF4",
"9#	c #5576AC",
"                                                . + @           ",
"                                                # $ % &         ",
"                                          * = - ; > , '         ",
"                            ) ) !   ~ { ] ^ / ( _ : < [         ",
"                          } | 1 2 3 4 5 6 7 8 9 0 a b           ",
"                      c d e 1 f g h i j 6 k l m n o             ",
"              p q r s t u v f w x x y j z A B C D E             ",
"        F G H I J K L M N O P 2 Q R R S T U V W X               ",
"  Y H Z `  ...+.@.#.$.%.&.&.*.P =.g g -.;.>.,.'.).              ",
"  !.~.{.].^...+.@./.(.O _.:.<.O f w x [.}.|.1.2.3.              ",
"  4.~.{.].^...+.5.6.7.8.9.0.a.b.P 2 c.d.e.f.g.h.i.              ",
"    j.{.].^...k.l.m.n.8.o.p.q.&.*.P r.s.t.u.v.w.x.              ",
"    y.{.].^...z.A.n.B.C.D.E._.:.<.F.G.H.I.J.K.L.M.              ",
"    N.{.].^.O.P.Q.R.S.T.U.Q.9.0.a.V.W.X.Y.Z.`. +.+              ",
"    ++@+].#+$+9.%+&+*+=+n.8.o.p.-+;+>+,+'+)+g !+~+{+            ",
"    ]+^+/+(+<._+:+<+[+}+B.C.D.E.|+1+2+3+4+Q 5+6+7+8+            ",
"      9+0+$+a+b+c+d+e+R.S.T.U.f+g+h+i+j+k+Q l+m+n+o+            ",
"      p+q+r+s+<.t+b+%+&+*+=+n.u+v+w+x+y+=.z+A+B+C+D+            ",
"      E+F+^.G+H+=+_+:+<+[+}+B.I+J+K+L+M+N+O+P+Q+R+S+T+          ",
"      U+V+^.W+X+Y+b+c+d+e+R.=+Z+% `+ @.@+@@@#@$@%@&@*@          ",
"        =@-@..;@>@<.t+b+%+*+9.,@'@)@!@~@{@]@^@/@(@_@:@          ",
"        <@[@..+.}@|@=+_+:+B.1@2@3@4@5@6@7@8@9@0@a@b@c@          ",
"        d@e@..f@g@h@i@b+c+%+b.*.:.5+j@k@l@m@n@o@p@q@r@          ",
"        s@t@..u@v@w@x@<.t+b+%+R.*+a.y@z@A@B@C@D@E@F@            ",
"          G@H@I@J@K@L@M@=+_+:+<+=+N@O@P@Q@R@S@                  ",
"          T@ .U@V@W@X@Y@Z@b+c+d+Y+`@ #.#+#                      ",
"          @###$#%#&#*#=#-#_.t+n.;#>#                            ",
"          ,#'#)#!#~#{#*#]#^#=+/#                                ",
"            (#_#!#%#:#<#[#}#|#1#                                ",
"            2#3#4#5#6#                                          ",
"            7#8#9#                                              ",
"                                                                "};
