/* XPM */
static char * display_xpm[] = {
"32 32 535 2",
"  	c None",
". 	c #ACD1F8",
"+ 	c #C6E0FA",
"@ 	c #D0E5FB",
"# 	c #CBE2FA",
"$ 	c #CAE2FA",
"% 	c #C9E0FA",
"& 	c #C7DFFA",
"* 	c #C6DFFA",
"= 	c #C7E1FA",
"- 	c #CBE3F9",
"; 	c #CCE3F9",
"> 	c #CDE4FA",
", 	c #CFE4FA",
"' 	c #CFE4F9",
") 	c #CFE5F9",
"! 	c #D2E5F8",
"~ 	c #D7E9F9",
"{ 	c #BAD9F9",
"] 	c #B5D6F8",
"^ 	c #91CEA8",
"/ 	c #379C4A",
"( 	c #46A25B",
"_ 	c #54AB6A",
": 	c #6FBA88",
"< 	c #8BC7AA",
"[ 	c #93CAB2",
"} 	c #9CCDBE",
"| 	c #AAD3CE",
"1 	c #B6DADD",
"2 	c #B9DCE5",
"3 	c #BCDCEB",
"4 	c #C3DFF5",
"5 	c #C5E0FA",
"6 	c #C4E0FA",
"7 	c #C1E0FA",
"8 	c #C5E1FA",
"9 	c #A9CDF5",
"0 	c #A0CBF5",
"a 	c #CDE9EB",
"b 	c #27963B",
"c 	c #017907",
"d 	c #01790B",
"e 	c #02770C",
"f 	c #03730E",
"g 	c #027010",
"h 	c #036E13",
"i 	c #046C17",
"j 	c #086D1C",
"k 	c #0B7023",
"l 	c #0D7029",
"m 	c #127131",
"n 	c #1B763A",
"o 	c #207842",
"p 	c #419067",
"q 	c #CCE3FA",
"r 	c #B7D8F8",
"s 	c #A2C8F2",
"t 	c #A9CEF7",
"u 	c #CAE4FB",
"v 	c #7AC495",
"w 	c #108D1E",
"x 	c #01A21F",
"y 	c #01A125",
"z 	c #029D23",
"A 	c #039923",
"B 	c #049226",
"C 	c #058D27",
"D 	c #06862B",
"E 	c #088030",
"F 	c #097938",
"G 	c #0C7341",
"H 	c #0E6B4A",
"I 	c #106453",
"J 	c #135C5F",
"K 	c #2C7D63",
"L 	c #C9E1FB",
"M 	c #C4E0F9",
"N 	c #8BBDFA",
"O 	c #C0DCF9",
"P 	c #B2D4F9",
"Q 	c #D4ECE8",
"R 	c #29963D",
"S 	c #059B18",
"T 	c #01A82A",
"U 	c #02A42A",
"V 	c #02A12A",
"W 	c #039C2B",
"X 	c #04972D",
"Y 	c #05922F",
"Z 	c #078B36",
"` 	c #08873C",
" .	c #0A8144",
"..	c #0D7A4C",
"+.	c #0F7456",
"@.	c #126C63",
"#.	c #1E716F",
"$.	c #ADD0E3",
"%.	c #C9E3FA",
"&.	c #C9E2FA",
"*.	c #AFD3FB",
"=.	c #578AC8",
"-.	c #A2CBF6",
";.	c #E1F3FD",
">.	c #72BE8C",
",.	c #0B9019",
"'.	c #01AA28",
").	c #01A92E",
"!.	c #02A62C",
"~.	c #02A12B",
"{.	c #039C2D",
"].	c #04982F",
"^.	c #059331",
"/.	c #078C36",
"(.	c #09863E",
"_.	c #0B8045",
":.	c #0D794D",
"<.	c #107358",
"[.	c #136C65",
"}.	c #61A39E",
"|.	c #C9E3FB",
"1.	c #CAE3FB",
"2.	c #C2DFFA",
"3.	c #78AEF6",
"4.	c #2D5172",
"5.	c #B2D3F8",
"6.	c #C8E1FA",
"7.	c #CCE9DD",
"8.	c #239536",
"9.	c #04A21E",
"0.	c #01AE30",
"a.	c #01AA31",
"b.	c #02A52E",
"c.	c #02A22E",
"d.	c #039E30",
"e.	c #049830",
"f.	c #059334",
"g.	c #078E39",
"h.	c #09873E",
"i.	c #0B8147",
"j.	c #0D7A50",
"k.	c #11715D",
"l.	c #2A8270",
"m.	c #B8DAEB",
"n.	c #A1CCFF",
"o.	c #4D80B9",
"p.	c #C4DFF9",
"q.	c #B0D1F7",
"r.	c #EFF7FD",
"s.	c #61B47B",
"t.	c #0A951B",
"u.	c #01AF30",
"v.	c #01AF2E",
"w.	c #01AC30",
"x.	c #02A82F",
"y.	c #02A430",
"z.	c #03A030",
"A.	c #049B32",
"B.	c #059534",
"C.	c #078F3B",
"D.	c #098940",
"E.	c #0E7A51",
"F.	c #13765C",
"G.	c #78B6AE",
"H.	c #CCE4FB",
"I.	c #CBE3FB",
"J.	c #BEDDFE",
"K.	c #6EA4E9",
"L.	c #334F68",
"M.	c #A6CEF7",
"N.	c #DDEEFC",
"O.	c #BBDDCC",
"P.	c #1B942F",
"Q.	c #01A824",
"R.	c #00B435",
"S.	c #01B031",
"T.	c #01AC31",
"U.	c #02AA32",
"V.	c #02A532",
"W.	c #03A230",
"X.	c #049B33",
"Y.	c #059734",
"Z.	c #07903A",
"`.	c #098A3E",
" +	c #0B8346",
".+	c #0E7953",
"++	c #399475",
"@+	c #C7E2F6",
"#+	c #CDE5FB",
"$+	c #98C4FB",
"%+	c #4D7DA6",
"&+	c #B4D5F8",
"*+	c #C2DEF9",
"=+	c #EDF7F9",
"-+	c #59AF71",
";+	c #059C1B",
">+	c #00B73C",
",+	c #01B232",
"'+	c #01AB32",
")+	c #02A634",
"!+	c #03A431",
"~+	c #049E35",
"{+	c #059936",
"]+	c #079339",
"^+	c #088C3D",
"/+	c #0B8347",
"(+	c #178355",
"_+	c #93C9C4",
":+	c #CCE5FB",
"<+	c #CBE5FB",
"[+	c #B7D8FB",
"}+	c #679EEC",
"|+	c #30464A",
"1+	c #C6DFF9",
"2+	c #AAD1F7",
"3+	c #EEF8FE",
"4+	c #B6D9CB",
"5+	c #14962A",
"6+	c #00B232",
"7+	c #00B93D",
"8+	c #00B637",
"9+	c #01B333",
"0+	c #01B032",
"a+	c #01AC32",
"b+	c #02A834",
"c+	c #03A435",
"d+	c #04A034",
"e+	c #059B38",
"f+	c #06953A",
"g+	c #088E3F",
"h+	c #0B8447",
"i+	c #4FA882",
"j+	c #CDE6FB",
"k+	c #C7E1FB",
"l+	c #8EBEF5",
"m+	c #4773BE",
"n+	c #ACD0F7",
"o+	c #EBF4F4",
"p+	c #379E48",
"q+	c #03A623",
"r+	c #00BD44",
"s+	c #00BB42",
"t+	c #01B83A",
"u+	c #01B538",
"v+	c #01B235",
"w+	c #01AF32",
"x+	c #02AB33",
"y+	c #03A736",
"z+	c #04A238",
"A+	c #059D38",
"B+	c #06973A",
"C+	c #088E40",
"D+	c #19924F",
"E+	c #AAD7D6",
"F+	c #CEE6FB",
"G+	c #B3D6F9",
"H+	c #6198E6",
"I+	c #25365A",
"J+	c #8BBCF3",
"K+	c #C5DFFA",
"L+	c #F5FCFE",
"M+	c #A4DDC5",
"N+	c #12A938",
"O+	c #00BD42",
"P+	c #00BF46",
"Q+	c #00BC45",
"R+	c #00BA3F",
"S+	c #01B73C",
"T+	c #01B43A",
"U+	c #01B035",
"V+	c #02AC33",
"W+	c #02A835",
"X+	c #03A237",
"Y+	c #049F39",
"Z+	c #06983A",
"`+	c #088F40",
" @	c #67BB92",
".@	c #D2E6FB",
"+@	c #C2E1FA",
"@@	c #80B3F1",
"#@	c #426BB0",
"$@	c #6DA6EF",
"%@	c #FDFFFE",
"&@	c #E3F7F2",
"*@	c #6AD0B1",
"=@	c #17C468",
"-@	c #00C147",
";@	c #00BE45",
">@	c #00BB43",
",@	c #01B840",
"'@	c #01B53B",
")@	c #01B238",
"!@	c #02AE34",
"~@	c #02AA35",
"{@	c #03A637",
"]@	c #04A039",
"^@	c #069A3D",
"/@	c #24A356",
"(@	c #C0E0E6",
"_@	c #D2E7FB",
":@	c #A3CBF6",
"<@	c #5D98EE",
"[@	c #6DA2EB",
"}@	c #78AAEE",
"|@	c #A3C9F6",
"1@	c #E8F4FC",
"2@	c #FBFFFF",
"3@	c #B6E4E2",
"4@	c #40C58D",
"5@	c #06C04B",
"6@	c #00B941",
"7@	c #01B73F",
"8@	c #01B339",
"9@	c #02B037",
"0@	c #02AC37",
"a@	c #03A737",
"b@	c #04A13B",
"c@	c #059C3B",
"d@	c #7FCBA9",
"e@	c #D5E8FB",
"f@	c #B4D7F7",
"g@	c #76B0FC",
"h@	c #384F7A",
"i@	c #6C9AD9",
"j@	c #7AABEE",
"k@	c #B6D4F7",
"l@	c #F2FAFF",
"m@	c #EEF9FB",
"n@	c #83D2C2",
"o@	c #20C068",
"p@	c #01BB45",
"q@	c #01BA43",
"r@	c #01B63E",
"s@	c #01B139",
"t@	c #02AE38",
"u@	c #03A938",
"v@	c #04A43A",
"w@	c #2EB15F",
"x@	c #D1E9F6",
"y@	c #D2E8FB",
"z@	c #B8D9F9",
"A@	c #97C4F8",
"B@	c #588AD9",
"C@	c #6191D2",
"D@	c #80B0EF",
"E@	c #C3DDF9",
"F@	c #F4FDFF",
"G@	c #C9EBEB",
"H@	c #50C499",
"I@	c #10BD53",
"J@	c #01B740",
"K@	c #01B33F",
"L@	c #02B03D",
"M@	c #03AC3B",
"N@	c #05A73B",
"O@	c #98D8C0",
"P@	c #D7EBFB",
"Q@	c #C0DDF9",
"R@	c #A5CFF7",
"S@	c #5C97ED",
"T@	c #4466A8",
"U@	c #6598DE",
"V@	c #89B7F2",
"W@	c #EEF9FE",
"X@	c #99D6D2",
"Y@	c #33BE7D",
"Z@	c #01B53E",
"`@	c #02B140",
" #	c #02AD3D",
".#	c #49C279",
"+#	c #D4EAF8",
"@#	c #A8D0F7",
"##	c #81B5F9",
"$#	c #3573BB",
"%#	c #2E4942",
"&#	c #436CA9",
"*#	c #6699E2",
"=#	c #96C1F7",
"-#	c #DAEDFF",
";#	c #DCEFFA",
">#	c #6BC8B4",
",#	c #12B753",
"'#	c #0FB448",
")#	c #ABE0D0",
"!#	c #B4D6F8",
"~#	c #8FC0F4",
"{#	c #5190F6",
"]#	c #3571A3",
"^#	c #2E4726",
"/#	c #4D78BE",
"(#	c #699EEA",
"_#	c #A4CAFA",
":#	c #E0F3FF",
"<#	c #B5DFE5",
"[#	c #8CD5BF",
"}#	c #E3F1FD",
"|#	c #C6E1FB",
"1#	c #96C4F5",
"2#	c #68A0ED",
"3#	c #4687F5",
"4#	c #4982A1",
"5#	c #263E20",
"6#	c #4066A2",
"7#	c #6CA0E7",
"8#	c #B1D7FF",
"9#	c #DEEDFB",
"0#	c #DAEDFC",
"a#	c #9EC9F6",
"b#	c #70A8F0",
"c#	c #4886E7",
"d#	c #70AAFE",
"e#	c #558993",
"f#	c #1B2C19",
"g#	c #4870A9",
"h#	c #79B1F5",
"i#	c #76ACF0",
"j#	c #4A8BEA",
"k#	c #3B7DE7",
"l#	c #669EEB",
"m#	c #99CAFF",
"n#	c #598798",
"o#	c #8DA7A4",
"p#	c #C7D9D8",
"q#	c #D6D7D8",
"r#	c #C8CFD0",
"s#	c #BEC6C2",
"t#	c #BCC8D1",
"u#	c #B5D7FB",
"v#	c #8EBCF3",
"w#	c #8EBBF3",
"x#	c #A4C9F6",
"y#	c #D4ECFE",
"z#	c #ABC9EE",
"A#	c #586574",
"B#	c #B2CDE1",
"C#	c #98C3E3",
"D#	c #DCF6FF",
"E#	c #F9FFFF",
"F#	c #F8FFFF",
"G#	c #F6FFFF",
"H#	c #ECFAFF",
"I#	c #DEEEFC",
"J#	c #DEEFFC",
"K#	c #EAF6FD",
"L#	c #E8F5FE",
"M#	c #D1E7FC",
"N#	c #ACD4FD",
"O#	c #8AC1F2",
"P#	c #597E74",
"Q#	c #D0E6FA",
"R#	c #A4CEFD",
"S#	c #C7E3FF",
"T#	c #CFE7FB",
"U#	c #D6EAFC",
"V#	c #E7F3FD",
"W#	c #E7F4FD",
"X#	c #E3F3FD",
"Y#	c #E6F4FD",
"Z#	c #EBF6FD",
"`#	c #DCEEFC",
" $	c #BDDCFA",
".$	c #8CBEF3",
"+$	c #7AB1F1",
"@$	c #75ADF8",
"#$	c #69ABE6",
"$$	c #3D5662",
"%$	c #98C5FF",
"&$	c #B8DAFB",
"*$	c #D3E8FB",
"=$	c #CBE4FB",
"-$	c #D4E8FC",
";$	c #DFEFFC",
">$	c #CEE6FA",
",$	c #A4CDF7",
"'$	c #98C4F5",
")$	c #8BBDF3",
"!$	c #80B5F2",
"~$	c #78B0F7",
"{$	c #6CADFF",
"]$	c #376DAD",
"^$	c #4D7BAA",
"/$	c #74A9EF",
"($	c #B2D8FF",
"_$	c #D0E7FF",
":$	c #CCE4FA",
"<$	c #C8E2FA",
"[$	c #CAE3FA",
"}$	c #D7EAFB",
"|$	c #CBE4FA",
"1$	c #B8D9F8",
"2$	c #ACD1F7",
"3$	c #A3CCF6",
"4$	c #99C5F4",
"5$	c #93C4F7",
"6$	c #84BDFF",
"7$	c #5D9CDC",
"8$	c #3B66A3",
"9$	c #182A2A",
"0$	c #5484B6",
"a$	c #86B7F1",
"b$	c #BCDDFD",
"c$	c #CAE4FA",
"d$	c #C4E1FA",
"e$	c #C6E2FA",
"f$	c #BBD9F9",
"g$	c #B1D5F8",
"h$	c #ABD1F8",
"i$	c #ABD2F9",
"j$	c #9DCEFF",
"k$	c #74ADF0",
"l$	c #426D75",
"m$	c #1C2E36",
"n$	c #3B6468",
"o$	c #6095EB",
"p$	c #97C3F5",
"q$	c #BDDFFB",
"r$	c #C9E5FB",
"s$	c #B8DBFF",
"t$	c #B0DAFF",
"u$	c #85BBF4",
"v$	c #497796",
"w$	c #1F2F4A",
"x$	c #181616",
"y$	c #5482CC",
"z$	c #70ABFA",
"A$	c #A9CEF8",
"B$	c #C8E5FD",
"C$	c #BCE0FF",
"D$	c #91C2D3",
"E$	c #4F778E",
"F$	c #1E2D2F",
"G$	c #5E91DA",
"H$	c #6FA0E7",
"I$	c #527CAA",
"J$	c #1B2C20",
"                                                                ",
"                  . + @ # $ % & * = - ; > , ' ' ) ! ~           ",
"                { ] ^ / ( _ : < [ } | 1 2 3 4 5 6 7 8 9         ",
"                0 a b c d e f g h i j k l m n o p $ q r s       ",
"              t u v w x y z A B C D E F G H I J K L # M N       ",
"            O P Q R S T U V W X Y Z `  ...+.@.#.$.%.&.*.=.      ",
"            -.;.>.,.'.).!.~.{.].^./.(._.:.<.[.}.|.1.2.3.4.      ",
"          5.6.7.8.9.0.a.b.c.d.e.f.g.h.i.j.k.l.m.1.%.n.o.        ",
"        p.q.r.s.t.u.v.w.x.y.z.A.B.C.D.i.E.F.G.H.I.J.K.L.        ",
"        M.N.O.P.Q.R.S.T.U.V.W.X.Y.Z.`. +.+++@+#+|.$+%+          ",
"      &+*+=+-+;+>+R.,+u.'+)+!+~+{+]+^+/+(+_+:+<+[+}+|+          ",
"    1+2+3+4+5+6+7+8+9+0+a+b+c+d+e+f+g+h+i+j+#+k+l+m+            ",
"    n+N.o+p+q+r+s+t+u+v+w+x+y+z+A+B+C+D+E+F+u G+H+I+            ",
"  J+K+L+M+N+O+P+Q+R+S+T+U+V+W+X+Y+Z+`+ @.@H.+@@@#@              ",
"  $@q %@&@*@=@-@;@>@,@'@)@!@~@{@]@^@/@(@_@8 :@<@                ",
"  [@}@|@1@2@3@4@5@Q+6@7@8@9@0@a@b@c@d@e@1.f@g@h@                ",
"      i@j@k@l@m@n@o@p@q@r@s@t@u@v@w@x@y@z@A@B@                  ",
"          C@D@E@F@G@H@I@J@K@L@M@N@O@P@Q@R@S@T@                  ",
"              U@V@y@W@X@Y@Z@`@ #.#+#F+@###$#%#                  ",
"                &#*#=#-#;#>#,#'#)#P@!#~#{#]#^#                  ",
"                    /#(#_#:#<#[#}#|#1#2#3#4#5#                  ",
"                        6#7#8#9#0#a#b#c#d#e#f#                  ",
"                            g#h#i#j#k#l#m#n#                    ",
"                  o#p#q#r#s#t#u#v#w#x#6 y#z#A#                  ",
"              B#C#D#E#2@F#G#H#I#J#K#L#M#r N#O#P#                ",
"            Q#R#S#T#U#}#V#W#X#Y#Z#`# $-..$+$@$#$$$              ",
"            %$&$*$<+=$H.#+:+-$;$>$G+,$'$)$!$~${$]$              ",
"            ^$/$($_$:$|.<$[$}$|$1$2$3$4$5$6$7$8$9$              ",
"                0$a$b$c$d$e$:+f$g$h$i$j$k$l$m$                  ",
"                  n$o$p$q$r$d$z@s$t$u$v$w$x$                    ",
"                      y$z$A$B$C$D$E$F$                          ",
"                          G$H$I$J$                              "};
