/* XPM */
static char * hwinfo_xpm[] = {
"32 32 653 2",
"  	c None",
". 	c #BECEC6",
"+ 	c #CAD5C9",
"@ 	c #C7D6D0",
"# 	c #B9D4E6",
"$ 	c #CFE0EB",
"% 	c #CCDEE8",
"& 	c #CDDEE5",
"* 	c #CBDDE3",
"= 	c #CCDCE1",
"- 	c #CBDBDE",
"; 	c #CEDEDD",
"> 	c #D0DFDD",
", 	c #D2E0DB",
"' 	c #D3E0DA",
") 	c #D5E0DA",
"! 	c #D5E1D8",
"~ 	c #D6E1D6",
"{ 	c #D8E1D6",
"] 	c #DBE4D9",
"^ 	c #A7CBEE",
"/ 	c #C0D9F5",
"( 	c #6F99C8",
"_ 	c #7198C5",
": 	c #7CA1D1",
"< 	c #90B2E0",
"[ 	c #9EC1E9",
"} 	c #A2C4EC",
"| 	c #ABCAEF",
"1 	c #B9D6F5",
"2 	c #BED9F7",
"3 	c #C0DCF9",
"4 	c #C4DEFA",
"5 	c #C3DFF9",
"6 	c #C1DFF8",
"7 	c #C5E2F8",
"8 	c #B1C9D5",
"9 	c #B5CED8",
"0 	c #C2DEFA",
"a 	c #82AADE",
"b 	c #537DAB",
"c 	c #547DA8",
"d 	c #4874A4",
"e 	c #3C6B9E",
"f 	c #336499",
"g 	c #2C5E95",
"h 	c #275A93",
"i 	c #265C97",
"j 	c #255E9A",
"k 	c #285E9C",
"l 	c #2E63A3",
"m 	c #366AA6",
"n 	c #4A79B4",
"o 	c #CAE2FA",
"p 	c #CCE2FA",
"q 	c #B6D6F8",
"r 	c #ACC5CD",
"s 	c #356D19",
"t 	c #3F7828",
"u 	c #1E5902",
"v 	c #CAD6CF",
"w 	c #ACD1F5",
"x 	c #C5DCF6",
"y 	c #5684BC",
"z 	c #6A9BD7",
"A 	c #5A95E5",
"B 	c #4C8ADE",
"C 	c #4080D8",
"D 	c #3577CE",
"E 	c #2D6FC7",
"F 	c #286ABC",
"G 	c #2264B3",
"H 	c #205FA9",
"I 	c #1D5BA0",
"J 	c #1C5796",
"K 	c #1B538B",
"L 	c #28609B",
"M 	c #C9E1FB",
"N 	c #C4DFFA",
"O 	c #89B9F4",
"P 	c #307413",
"Q 	c #55BF40",
"R 	c #4DB038",
"S 	c #3C8D25",
"T 	c #2A6A0E",
"U 	c #214811",
"V 	c #A9CAE6",
"W 	c #D9ECFC",
"X 	c #7EA5D5",
"Y 	c #5A8BC2",
"Z 	c #6CA3ED",
"` 	c #5996ED",
" .	c #498AE9",
"..	c #3C80E5",
"+.	c #3479E0",
"@.	c #2A70DA",
"#.	c #2269D4",
"$.	c #1D64CC",
"%.	c #1A60C4",
"&.	c #175BBA",
"*.	c #1759B0",
"=.	c #1C5CA7",
"-.	c #8CB5E1",
";.	c #C9E3FA",
">.	c #ABD1FE",
",.	c #5D7E94",
"'.	c #2B7210",
").	c #60C447",
"!.	c #66D24F",
"~.	c #5FD74C",
"{.	c #53C540",
"].	c #459E30",
"^.	c #305F21",
"/.	c #43684A",
"(.	c #A7BDC1",
"_.	c #BBD7F0",
":.	c #C3D7EC",
"<.	c #497CB8",
"[.	c #699FE0",
"}.	c #6DA3F1",
"|.	c #5995EE",
"1.	c #4B8BE9",
"2.	c #3F82E5",
"3.	c #337AE0",
"4.	c #2A71DA",
"5.	c #236AD3",
"6.	c #1D64CB",
"7.	c #1B60C2",
"8.	c #1658AB",
"9.	c #4B82C6",
"0.	c #C8E2FA",
"a.	c #CBE3FB",
"b.	c #C2DFFC",
"c.	c #70A3E4",
"d.	c #4B5249",
"e.	c #256F0B",
"f.	c #8FC968",
"g.	c #AAD57D",
"h.	c #9CD473",
"i.	c #89D669",
"j.	c #63D84F",
"k.	c #5ED94A",
"l.	c #5BC348",
"m.	c #55AC41",
"n.	c #5E9278",
"o.	c #618AB9",
"p.	c #417BBC",
"q.	c #6AA1EC",
"r.	c #70A5F1",
"s.	c #5B97EE",
"t.	c #4D8DEB",
"u.	c #4084E6",
"v.	c #367CE0",
"w.	c #2D73DB",
"x.	c #246CD4",
"y.	c #1E65CB",
"z.	c #195CB7",
"A.	c #2665B7",
"B.	c #A3C7EC",
"C.	c #C9E3FB",
"D.	c #CCE4FB",
"E.	c #9BC6FE",
"F.	c #5A798B",
"G.	c #296F0E",
"H.	c #85C65F",
"I.	c #5FC746",
"J.	c #89CF61",
"K.	c #97D06D",
"L.	c #98D472",
"M.	c #7DD963",
"N.	c #69DA55",
"O.	c #6BE854",
"P.	c #48A34B",
"Q.	c #2D5D8B",
"R.	c #3C7AC8",
"S.	c #6299E6",
"T.	c #74A7EE",
"U.	c #609CEF",
"V.	c #5090EA",
"W.	c #4285E6",
"X.	c #387DE1",
"Y.	c #2E75DB",
"Z.	c #266DD5",
"`.	c #1F67CC",
" +	c #1C62C3",
".+	c #1A5EB7",
"++	c #6597D6",
"@+	c #BBDBFF",
"#+	c #6899CE",
"$+	c #46493D",
"%+	c #276F0D",
"&+	c #85C660",
"*+	c #5CBB44",
"=+	c #6A7A65",
"-+	c #7FC272",
";+	c #5FCD4A",
">+	c #A3BE6A",
",+	c #ADCD7A",
"'+	c #9BD874",
")+	c #88CB5D",
"!+	c #487965",
"~+	c #2D6ABA",
"{+	c #4C88D6",
"]+	c #74A5E8",
"^+	c #669FED",
"/+	c #5693EB",
"(+	c #478AE7",
"_+	c #3B80E3",
":+	c #3078DC",
"<+	c #2870D5",
"[+	c #2068CD",
"}+	c #1D62C1",
"|+	c #3574C7",
"1+	c #B8D6F5",
"2+	c #CDE6FB",
"3+	c #CAE3FB",
"4+	c #90BFFA",
"5+	c #5E7365",
"6+	c #276E0C",
"7+	c #82C35F",
"8+	c #5ABC3A",
"9+	c #272C29",
"0+	c #848A77",
"a+	c #85D764",
"b+	c #987531",
"c+	c #889436",
"d+	c #54D74E",
"e+	c #ADC45B",
"f+	c #D9D156",
"g+	c #386C73",
"h+	c #3573C5",
"i+	c #6799DC",
"j+	c #6DA1E9",
"k+	c #5B97EC",
"l+	c #4C8EE8",
"m+	c #4084E3",
"n+	c #347ADE",
"o+	c #2A73D7",
"p+	c #236ACD",
"q+	c #2367C4",
"r+	c #82ADE3",
"s+	c #CDE5FC",
"t+	c #B5D8F9",
"u+	c #6591D1",
"v+	c #3D3E2E",
"w+	c #246C0B",
"x+	c #88C857",
"y+	c #579870",
"z+	c #40993A",
"A+	c #6AA14B",
"B+	c #94D36C",
"C+	c #61C549",
"D+	c #98CD6E",
"E+	c #74CF5C",
"F+	c #A8C55C",
"G+	c #DAD55B",
"H+	c #396860",
"I+	c #2C66B4",
"J+	c #467FCD",
"K+	c #6D9FE4",
"L+	c #639BEA",
"M+	c #5291EA",
"N+	c #4588E5",
"O+	c #387EE0",
"P+	c #2E75D8",
"Q+	c #286DCD",
"R+	c #4B86D6",
"S+	c #C7E1F9",
"T+	c #CAE5FB",
"U+	c #84B6F1",
"V+	c #5E6E86",
"W+	c #226B09",
"X+	c #8AC655",
"Y+	c #4F8292",
"Z+	c #83B375",
"`+	c #9CD46D",
" @	c #91CC6B",
".@	c #94D06E",
"+@	c #8ED069",
"@@	c #8CCE6A",
"#@	c #A5C458",
"$@	c #D8D45B",
"%@	c #37655E",
"&@	c #2B62A9",
"*@	c #2F6DC0",
"=@	c #518BDB",
"-@	c #689EE8",
";@	c #5A97EC",
">@	c #4B8CE7",
",@	c #3E82E1",
"'@	c #3478D9",
")@	c #3376D3",
"!@	c #9FC2EF",
"~@	c #D1E6FB",
"{@	c #CCE6FB",
"]@	c #AAD1F8",
"^@	c #658EC0",
"/@	c #236A08",
"(@	c #7AC65D",
"_@	c #998638",
":@	c #68A93B",
"<@	c #8ACA66",
"[@	c #4ABA34",
"}@	c #7FCA5C",
"|@	c #94CE6D",
"1@	c #8CCD6A",
"2@	c #A4C257",
"3@	c #D7D355",
"4@	c #38655B",
"5@	c #2B5FA3",
"6@	c #2D69B9",
"7@	c #3175D4",
"8@	c #4D8DE5",
"9@	c #5E99EC",
"0@	c #5090E7",
"a@	c #4085E2",
"b@	c #367CDA",
"c@	c #659BE4",
"d@	c #D4E7FB",
"e@	c #CEE5FB",
"f@	c #BDDDF8",
"g@	c #75AEF8",
"h@	c #65707D",
"i@	c #226906",
"j@	c #7EC25E",
"k@	c #9D8531",
"l@	c #94AD54",
"m@	c #96CF70",
"n@	c #46AF33",
"o@	c #92BC6A",
"p@	c #89CC64",
"q@	c #88CB66",
"r@	c #A7C25B",
"s@	c #2C5EA1",
"t@	c #2F6AB9",
"u@	c #3275D2",
"v@	c #327DE3",
"w@	c #4088E9",
"x@	c #4D8FE8",
"y@	c #4789E3",
"z@	c #4889E0",
"A@	c #B5D2F5",
"B@	c #D2E8FB",
"C@	c #C4E0F9",
"D@	c #9CCCFC",
"E@	c #5D7B9D",
"F@	c #1F6707",
"G@	c #85C24D",
"H@	c #4B7E8B",
"I@	c #4DA24C",
"J@	c #ACD97A",
"K@	c #6C884B",
"L@	c #736879",
"M@	c #95C078",
"N@	c #87CA61",
"O@	c #A3C257",
"P@	c #D9D55D",
"Q@	c #416B5D",
"R@	c #3264A2",
"S@	c #326DBA",
"T@	c #357AD4",
"U@	c #3480E4",
"V@	c #317FE8",
"W@	c #337EE6",
"X@	c #3C82E2",
"Y@	c #7BADEC",
"Z@	c #D5EBFB",
"`@	c #C7E2FA",
" #	c #AFD4F9",
".#	c #71A7EC",
"+#	c #3C3F42",
"@#	c #246909",
"##	c #4EA829",
"$#	c #468A60",
"%#	c #83B169",
"&#	c #97CF6A",
"*#	c #379120",
"=#	c #30402B",
"-#	c #5D9E4F",
";#	c #5BC141",
">#	c #A2BF54",
",#	c #D3D055",
"'#	c #6B845F",
")#	c #6E88A7",
"!#	c #487BBA",
"~#	c #387BD5",
"{#	c #3882E6",
"]#	c #3482E9",
"^#	c #317EE5",
"/#	c #3F86E5",
"(#	c #C6E0F9",
"_#	c #D1E8FB",
":#	c #B3D7F8",
"<#	c #85B8F6",
"[#	c #4A6FAC",
"}#	c #27680A",
"|#	c #35991D",
"1#	c #38A418",
"2#	c #4AAA2C",
"3#	c #84C05D",
"4#	c #4BA438",
"5#	c #4CB435",
"6#	c #46B02F",
"7#	c #56B93F",
"8#	c #A5C056",
"9#	c #D4D258",
"0#	c #5E7C5D",
"a#	c #95A0A9",
"b#	c #A9B6C3",
"c#	c #71A1D9",
"d#	c #448BE7",
"e#	c #3684EA",
"f#	c #337FE7",
"g#	c #90BCF3",
"h#	c #D7EBFB",
"i#	c #BDDCF9",
"j#	c #96C5F7",
"k#	c #5390EC",
"l#	c #3C5743",
"m#	c #266809",
"n#	c #38981D",
"o#	c #389D1E",
"p#	c #44A62A",
"q#	c #9AC368",
"r#	c #575250",
"s#	c #809C7F",
"t#	c #5EBA3F",
"u#	c #A0CB76",
"v#	c #9CBC56",
"w#	c #DBDB64",
"x#	c #446341",
"y#	c #526D8D",
"z#	c #809FC5",
"A#	c #CAD7E3",
"B#	c #B3D1F1",
"C#	c #609FEF",
"D#	c #66A2EF",
"E#	c #D7EAFC",
"F#	c #CCE4FA",
"G#	c #9EC9F6",
"H#	c #69A3F3",
"I#	c #397BE3",
"J#	c #495F30",
"K#	c #256708",
"L#	c #35941A",
"M#	c #34981A",
"N#	c #47A32B",
"O#	c #80C058",
"P#	c #2E561D",
"Q#	c #4B6940",
"R#	c #62BA43",
"S#	c #7EC659",
"T#	c #2E7B1B",
"U#	c #324D22",
"V#	c #182010",
"W#	c #1C191A",
"X#	c #485158",
"Y#	c #668AB7",
"Z#	c #AFD3F7",
"`#	c #D6ECFF",
" $	c #DDEDFC",
".$	c #E1F0FD",
"+$	c #ACD2F8",
"@$	c #78AEF0",
"#$	c #4C8BF0",
"$$	c #5995E3",
"%$	c #4D5F31",
"&$	c #256607",
"*$	c #339117",
"=$	c #309415",
"-$	c #3E9E23",
";$	c #91C062",
">$	c #6C845C",
",$	c #73A763",
"'$	c #5BB23C",
")$	c #7CC556",
"!$	c #296519",
"~$	c #465465",
"{$	c #709DD5",
"]$	c #B1D2F8",
"^$	c #A4CBF6",
"/$	c #629EED",
"($	c #4383E7",
"_$	c #66A0F6",
":$	c #74AFDD",
"<$	c #3B4426",
"[$	c #1D6301",
"}$	c #3A921C",
"|$	c #81B757",
"1$	c #459E27",
"2$	c #469F24",
"3$	c #31372A",
"4$	c #667769",
"5$	c #5FB53E",
"6$	c #7CC356",
"7$	c #276517",
"8$	c #282721",
"9$	c #545C50",
"0$	c #6E6E6E",
"a$	c #6A6A68",
"b$	c #636261",
"c$	c #77858D",
"d$	c #89BDF9",
"e$	c #67A1EE",
"f$	c #5D99ED",
"g$	c #7AABEF",
"h$	c #B7D8FB",
"i$	c #AED5F3",
"j$	c #4D5356",
"k$	c #206306",
"l$	c #2D8C0F",
"m$	c #499D29",
"n$	c #89BB5E",
"o$	c #7EBA56",
"p$	c #63973F",
"q$	c #437E2C",
"r$	c #52AB33",
"s$	c #79BE52",
"t$	c #327126",
"u$	c #5A625A",
"v$	c #758D8D",
"w$	c #CCD7D7",
"x$	c #EBEBEB",
"y$	c #F8F8F8",
"z$	c #FBFDFD",
"A$	c #F2FCFF",
"B$	c #DAECFB",
"C$	c #CDE5F9",
"D$	c #DEEEFC",
"E$	c #E5F3FE",
"F$	c #D4EAFB",
"G$	c #CAE4FC",
"H$	c #9FC2DD",
"I$	c #506350",
"J$	c #13130D",
"K$	c #266D0F",
"L$	c #208006",
"M$	c #2E8F12",
"N$	c #4EA02E",
"O$	c #A3CC72",
"P$	c #84C059",
"Q$	c #63AD41",
"R$	c #74B94C",
"S$	c #488241",
"T$	c #728DA8",
"U$	c #A5B6C4",
"V$	c #C1D0DF",
"W$	c #DBE8F2",
"X$	c #E7F3FB",
"Y$	c #E8F4FD",
"Z$	c #E3F2FD",
"`$	c #E5F2FD",
" %	c #EDF7FE",
".%	c #E0F0FD",
"+%	c #BFDCF9",
"@%	c #A0C9F5",
"#%	c #88BAF3",
"$%	c #7DB5F8",
"%%	c #73B7EB",
"&%	c #3A5047",
"*%	c #283521",
"=%	c #286F0E",
"-%	c #2D9010",
";%	c #39991C",
">%	c #5EA83B",
",%	c #A2C773",
"'%	c #79BA50",
")%	c #448249",
"!%	c #8D9CAB",
"~%	c #A2B3C2",
"{%	c #B6CCE0",
"]%	c #C8DEF2",
"^%	c #D1E7FB",
"/%	c #D0E7FB",
"(%	c #D6EAFC",
"_%	c #E2F1FD",
":%	c #D0E6FB",
"<%	c #B3D6F8",
"[%	c #A0CAF6",
"}%	c #91C0F4",
"|%	c #83B8F2",
"1%	c #7AB1F5",
"2%	c #7AB8FF",
"3%	c #4486D2",
"4%	c #21201D",
"5%	c #1B360B",
"6%	c #1A6B01",
"7%	c #218906",
"8%	c #49A029",
"9%	c #4BA429",
"0%	c #38733B",
"a%	c #6B8AAC",
"b%	c #9FB3C6",
"c%	c #BACEE0",
"d%	c #C4DCF2",
"e%	c #C7E1FA",
"f%	c #D6E9FB",
"g%	c #CBE4FA",
"h%	c #B6D8F8",
"i%	c #A9CFF7",
"j%	c #9EC8F6",
"k%	c #98C4F5",
"l%	c #90C6FF",
"m%	c #75B2F1",
"n%	c #4A7DBB",
"o%	c #31434A",
"p%	c #1E1C18",
"q%	c #335721",
"r%	c #287C0B",
"s%	c #329F15",
"t%	c #2A681A",
"u%	c #3B4442",
"v%	c #577B9A",
"w%	c #98BDE3",
"x%	c #C6E0F4",
"y%	c #C7E3FA",
"z%	c #C6E2FA",
"A%	c #CCE5FA",
"B%	c #BAD8F9",
"C%	c #B0D3F8",
"D%	c #AFD3FB",
"E%	c #ACD8FF",
"F%	c #8EC5FF",
"G%	c #5B8BA8",
"H%	c #394841",
"I%	c #26251D",
"J%	c #1C2B12",
"K%	c #20520B",
"L%	c #294B19",
"M%	c #404230",
"N%	c #566F87",
"O%	c #76A7E8",
"P%	c #B1D7FA",
"Q%	c #CBE7FC",
"R%	c #C4E1FA",
"S%	c #B9DAFA",
"T%	c #BBDFFF",
"U%	c #9ED0F4",
"V%	c #6694AF",
"W%	c #3F4B52",
"X%	c #231F21",
"Y%	c #68747F",
"Z%	c #6891C6",
"`%	c #8FBBF2",
" &	c #C3E7FF",
".&	c #ADD7FF",
"+&	c #709B93",
"@&	c #3F4941",
"#&	c #1E1C19",
"$&	c #778895",
"%&	c #546884",
"&&	c #454D4D",
"*&	c #201915",
"                                                                ",
"                          . +                                   ",
"                        @ # $ % & * = - ; > , ' ) ! ~ { ]       ",
"                        ^ / ( _ : < [ } | 1 2 3 4 5 5 6 7 8     ",
"                      9 0 a b c d e f g h i j k l m n o p q r   ",
"  s t u             v w x y z A B C D E F G H I J K L M o N O   ",
"  P Q R S T U       V W X Y Z `  ...+.@.#.$.%.&.*.=.-.;.o >.,.  ",
"  '.).!.~.{.].^./.(._.:.<.[.}.|.1.2.3.4.5.6.7.&.8.9.0.a.b.c.d.  ",
"  e.f.g.h.i.j.k.l.m.n.o.p.q.r.s.t.u.v.w.x.y.7.z.A.B.C.D.E.F.    ",
"  G.H.I.J.K.L.M.N.O.P.Q.R.S.T.U.V.W.X.Y.Z.`. +.+++D.D.@+#+$+    ",
"  %+&+*+=+-+;+>+,+'+)+!+~+{+]+^+/+(+_+:+<+[+}+|+1+2+3+4+5+      ",
"  6+7+8+9+0+a+b+c+d+e+f+g+h+i+j+k+l+m+n+o+p+q+r+2+s+t+u+v+      ",
"  w+x+y+z+A+B+C+D+E+F+G+H+I+J+K+L+M+N+O+P+Q+R+S+2+T+U+V+        ",
"  W+X+Y+Z+`+ @.@+@@@#@$@%@&@*@=@-@;@>@,@'@)@!@~@{@]@^@          ",
"  /@(@_@:@<@[@}@|@1@2@3@4@5@6@7@8@9@0@a@b@c@d@e@f@g@h@          ",
"  i@j@k@l@m@n@o@p@q@r@$@4@s@t@u@v@w@x@y@z@A@B@C@D@E@            ",
"  F@G@H@I@J@K@L@M@N@O@P@Q@R@S@T@U@V@W@X@Y@Z@`@ #.#+#            ",
"  @###$#%#&#*#=#-#;#>#,#'#)#!#~#{#]#^#/#(#_#:#<#[#              ",
"  }#|#1#2#3#4#5#6#7#8#9#0#a#b#c#d#e#f#g#h#i#j#k#l#              ",
"  m#n#o#p#q#r#s#t#u#v#w#x#y#z#A#B#C#D#E#F#G#H#I#J#              ",
"  K#L#M#N#O#P#Q#R#S#T#U#V#W#X#Y#Z#`# $.$+$@$#$$$%$              ",
"  &$*$=$-$;$>$,$'$)$!$          ~${$]$^$/$($_$:$<$              ",
"  [$}$|$1$2$3$4$5$6$7$  8$9$0$a$b$c$d$e$f$g$h$i$j$              ",
"  k$l$m$n$o$p$q$r$s$t$u$v$w$x$y$z$A$B$C$D$E$F$G$H$I$J$          ",
"    K$L$M$N$O$P$Q$R$S$T$U$V$W$X$Y$Z$`$ %.%+%@%#%$%%%&%          ",
"      *%=%-%;%>%,%'%)%!%~%{%]%^%/%(%_%:%<%[%}%|%1%2%3%4%        ",
"          5%6%7%8%9%0%a%b%c%d%e%;.f%g%h%i%j%k%l%m%n%o%p%        ",
"              q%r%s%t%u%v%w%x%y%z%A%B%C%D%E%F%G%H%I%            ",
"                J%K%L%  M%N%O%P%Q%R%S%T%U%V%W%X%                ",
"                            Y%Z%`% &.&+&@&#&                    ",
"                                $&%&&&*&                        ",
"                                                                "};
