/* XPM */
static char * keyboard_xpm[] = {
"32 32 128 2",
"  	c None",
". 	c #B9B9B9",
"+ 	c #BBBBBB",
"@ 	c #B6B6B6",
"# 	c #B5B5B5",
"$ 	c #B7B7B7",
"% 	c #9F9F9F",
"& 	c #999999",
"* 	c #EFEFEF",
"= 	c #F8F8F8",
"- 	c #F7F7F7",
"; 	c #F5F5F5",
"> 	c #F4F4F4",
", 	c #F3F3F3",
"' 	c #EDEDED",
") 	c #929292",
"! 	c #ACACAC",
"~ 	c #E8E8E8",
"{ 	c #F2F2F2",
"] 	c #F0F0F0",
"^ 	c #EEEEEE",
"/ 	c #ECECEC",
"( 	c #EAEAEA",
"_ 	c #E9E9E9",
": 	c #E5E5E5",
"< 	c #D5D5D5",
"[ 	c #AAAAAA",
"} 	c #F1F1F1",
"| 	c #E7E7E7",
"1 	c #E6E6E6",
"2 	c #E3E3E3",
"3 	c #E2E2E2",
"4 	c #E1E1E1",
"5 	c #D4D4D4",
"6 	c #EBEBEB",
"7 	c #DFDFDF",
"8 	c #DDDDDD",
"9 	c #DBDBDB",
"0 	c #E0E0E0",
"a 	c #D6D6D6",
"b 	c #DADADA",
"c 	c #E4E4E4",
"d 	c #DCDCDC",
"e 	c #D8D8D8",
"f 	c #AFAFAF",
"g 	c #BEBEBE",
"h 	c #474747",
"i 	c #D2D2D2",
"j 	c #DEDEDE",
"k 	c #FBFBFB",
"l 	c #B4B4B4",
"m 	c #646464",
"n 	c #D3D3D3",
"o 	c #F9F9F9",
"p 	c #C6C6C6",
"q 	c #F6F6F6",
"r 	c #FDFDFD",
"s 	c #FCFCFC",
"t 	c #CDCDCD",
"u 	c #FEFEFE",
"v 	c #FFFFFF",
"w 	c #606060",
"x 	c #BFBFBF",
"y 	c #C4C4C4",
"z 	c #C8C8C8",
"A 	c #CACACA",
"B 	c #CCCCCC",
"C 	c #D0D0D0",
"D 	c #818181",
"E 	c #BDBDBD",
"F 	c #D1D1D1",
"G 	c #565656",
"H 	c #A7A7A7",
"I 	c #4B4B4B",
"J 	c #A5A5A5",
"K 	c #898989",
"L 	c #CBCBCB",
"M 	c #9B9B9B",
"N 	c #494949",
"O 	c #A8A8A8",
"P 	c #8B8B8B",
"Q 	c #C2C2C2",
"R 	c #ABABAB",
"S 	c #A3A3A3",
"T 	c #D7D7D7",
"U 	c #8A8A8A",
"V 	c #BABABA",
"W 	c #8E8E8E",
"X 	c #C0C0C0",
"Y 	c #B8B8B8",
"Z 	c #9C9C9C",
"` 	c #939393",
" .	c #757575",
"..	c #9D9D9D",
"+.	c #686868",
"@.	c #737373",
"#.	c #808080",
"$.	c #CFCFCF",
"%.	c #909090",
"&.	c #949494",
"*.	c #8C8C8C",
"=.	c #777777",
"-.	c #4F4F4F",
";.	c #7E7E7E",
">.	c #7A7A7A",
",.	c #696969",
"'.	c #7F7F7F",
").	c #9E9E9E",
"!.	c #D9D9D9",
"~.	c #ADADAD",
"{.	c #979797",
"].	c #959595",
"^.	c #969696",
"/.	c #C1C1C1",
"(.	c #515151",
"_.	c #AEAEAE",
":.	c #C5C5C5",
"<.	c #CECECE",
"[.	c #555555",
"}.	c #FAFAFA",
"|.	c #585858",
"1.	c #5E5E5E",
"2.	c #525252",
"3.	c #C9C9C9",
"4.	c #C7C7C7",
"5.	c #919191",
"6.	c #A6A6A6",
"7.	c #C3C3C3",
"                                                                ",
"                                                                ",
"                                                                ",
"                  . + . @ # # @ @ @ $ $ + %                     ",
"                & * = = - ; > , , , , , ; ' )                   ",
"                ! ~ { { ] ^ / ( ~ ~ ~ ~ _ : <                   ",
"                [ _ ' } ^ ' ( | 1 2 3 4 3 3 5                   ",
"                [ ( ( ' { ' 6 | : 2 7 8 9 0 a                   ",
"                [ 6 ' 7 b ~ 6 ~ 1 c 0 d e 7 e                   ",
"                f ^ - g h i 6 | 1 c 4 d < j 9                   ",
"                @ } k l m e ( c 2 4 j b n 0 j                   ",
"                g , o * | ( 6 ~ 1 3 0 8 e 1 0                   ",
"                p q r s s o q q > , { } * q 2                   ",
"                t 8 ~ 6 ' ] } } > - k u v v 1                   ",
"              w x y z A B t j * , ~ j 4 c 1 C                   ",
"  D c 4 4 7 0 0 7 7 j j 7 9 E : b z c c 2 4 7 0 c j d d j F G   ",
"  . > = - q > , } ] } } { * 8 H ) z o - ; > > 2 t 6 , { > ( 5   ",
"I @ ] ] { * ' 6 _ | 1 1 1 2 | J K L ; } ] * * x M y / 1 | 7 |   ",
"N @ ] ( ] ^ / ( 1 c 4 7 7 8 | O P L } / * ' ^ Q R S 1 0 0 d 1   ",
"N @ } ~ ' } ' ' | 2 0 d b T ~ [ U L , | ' ] T V j W X 4 b e ~   ",
"N Y ; ^ 3 a ~ C : : 0 d e n ( R P t q ~ | ] Z 5 q `  .3 T a 6   ",
"I x = ..D +.@.#.8 c 0 d a $.' ! %.n o ' * t &.[ ' *.=.F a < ^   ",
"-.z = ;.>.,.'.).d c 4 j !.5 { ~.{.e k } q . A ].=.^.l /.9 9 }   ",
"(.t s * c 1 _ ( _ | c 4 j d - _.).d u ; > / $.:.<.g C c 8 3 ,   ",
"[.n o r r s }.o - - q ; > > r _.J j s }.}.}.s r k s = ; > - -   ",
"|.< e 7 3 : ~ / * } ; = }.u v f f i 9 0 2 | ( ' * , ; o s v o   ",
"1.c 4 : ~ 6 * { ; = s v v v v l + j 2 1 _ ' ] , - }.r v v v v   ",
"2.3.y :.4.3.A t <.C i < T T e 5.6.:.7.:.4.3.L t $.F n < T e F   ",
"                                                                ",
"                                                                ",
"                                                                ",
"                                                                "};
