/* XPM */
static char * mimetypes_xpm[] = {
"48 52 542 2",
"  	c None",
". 	c #FFFDFF",
"+ 	c #000000",
"@ 	c #FDFDFF",
"# 	c #E0DBF6",
"$ 	c #FEFEFF",
"% 	c #E9E2FD",
"& 	c #FEFDFE",
"* 	c #D5CFEC",
"= 	c #CFC7FC",
"- 	c #FFFFFF",
"; 	c #FDFCFF",
"> 	c #F1EEFC",
", 	c #BFB8DC",
"' 	c #D0C8FB",
") 	c #F4F2FE",
"! 	c #D6CFEC",
"~ 	c #F6F3FE",
"{ 	c #D0CBE9",
"] 	c #CDC5E3",
"^ 	c #D2CAF9",
"/ 	c #EAE7FD",
"( 	c #D8D1EF",
"_ 	c #D5CDEB",
": 	c #D0CCEA",
"< 	c #E5E1F5",
"[ 	c #C9C4E1",
"} 	c #C5C0DD",
"| 	c #FFFEFF",
"1 	c #E4DDFB",
"2 	c #FBFAFE",
"3 	c #E8E4FB",
"4 	c #CDC6EB",
"5 	c #BDB5E1",
"6 	c #C7C3E5",
"7 	c #CFC9E8",
"8 	c #CDC7E5",
"9 	c #DFDAED",
"0 	c #C5BFDB",
"a 	c #C2BCDA",
"b 	c #DDD8F6",
"c 	c #FCFBFF",
"d 	c #DCD7F3",
"e 	c #D5CEEC",
"f 	c #C4BBE4",
"g 	c #B1A7D7",
"h 	c #B8B0DA",
"i 	c #D1CBE9",
"j 	c #CAC4E3",
"k 	c #C6BFDF",
"l 	c #CFC9E2",
"m 	c #C0BAD8",
"n 	c #BEB8D6",
"o 	c #DBD5F2",
"p 	c #E6E2F5",
"q 	c #D2CBE9",
"r 	c #D3CCE9",
"s 	c #B6ABD8",
"t 	c #D0CAE7",
"u 	c #D0CBE7",
"v 	c #CCC5E2",
"w 	c #A6A0C3",
"x 	c #B3AECE",
"y 	c #C9C6DE",
"z 	c #BCB6D5",
"A 	c #928CB0",
"B 	c #DAD2F1",
"C 	c #F4F1FC",
"D 	c #E9E5F5",
"E 	c #CEC9E5",
"F 	c #BAB4DB",
"G 	c #A7A1CF",
"H 	c #B1AAD5",
"I 	c #CDC8E5",
"J 	c #CCC4E2",
"K 	c #C9C2E0",
"L 	c #C7C1DF",
"M 	c #9B92BB",
"N 	c #968FB5",
"O 	c #958FB4",
"P 	c #9B94B9",
"Q 	c #948DB1",
"R 	c #9B95B8",
"S 	c #D8D1F0",
"T 	c #F5F3FE",
"U 	c #D5D0EA",
"V 	c #C9C4E2",
"W 	c #C9C4E3",
"X 	c #AAA3CB",
"Y 	c #ABA3CD",
"Z 	c #A7A0CD",
"` 	c #A098C3",
" .	c #B0A9CE",
"..	c #C4BFDC",
"+.	c #C4BDDC",
"@.	c #ADA6C9",
"#.	c #9690B8",
"$.	c #8F89B0",
"%.	c #9892B6",
"&.	c #9993B6",
"*.	c #948DB3",
"=.	c #918AAF",
"-.	c #D5D0EF",
";.	c #F2EFFC",
">.	c #D5CFE8",
",.	c #C8C2E0",
"'.	c #A59DC7",
").	c #A69DC7",
"!.	c #A39BC2",
"~.	c #9D96C0",
"{.	c #9B95BC",
"].	c #BFB9D8",
"^.	c #BEB8D8",
"/.	c #BEB7D6",
"(.	c #9790B5",
"_.	c #9A92B7",
":.	c #9992B7",
"<.	c #9992B5",
"[.	c #9992B6",
"}.	c #FFFCFF",
"|.	c #D5CEED",
"1.	c #F1EDFB",
"2.	c #DFDAEF",
"3.	c #C6BFDE",
"4.	c #C5BFDD",
"5.	c #C3BCDD",
"6.	c #A199C1",
"7.	c #9D96BE",
"8.	c #B5AECF",
"9.	c #BEB5D5",
"0.	c #938CB2",
"a.	c #9A93B6",
"b.	c #9B93B8",
"c.	c #9A92B9",
"d.	c #9991B5",
"e.	c #9C94B8",
"f.	c #9792B5",
"g.	c #9F98BC",
"h.	c #9E96BC",
"i.	c #B6AECF",
"j.	c #FEFBFF",
"k.	c #D4CEED",
"l.	c #F0EDFB",
"m.	c #D1CDE5",
"n.	c #C4BEDD",
"o.	c #C3BCDC",
"p.	c #C1BAD9",
"q.	c #ABA3C9",
"r.	c #9B92B9",
"s.	c #9891B4",
"t.	c #B6B0CF",
"u.	c #A19ABB",
"v.	c #8E84AB",
"w.	c #8D86AB",
"x.	c #928AAF",
"y.	c #9790B4",
"z.	c #9891B5",
"A.	c #9991B8",
"B.	c #A098BE",
"C.	c #AAA1C6",
"D.	c #BFB8D7",
"E.	c #C0B9D8",
"F.	c #FDFAFD",
"G.	c #D2CDEB",
"H.	c #E7E4F4",
"I.	c #C3BBDB",
"J.	c #C2BAD9",
"K.	c #C0B8D8",
"L.	c #BFB8D6",
"M.	c #9991B7",
"N.	c #958EB1",
"O.	c #8A83AC",
"P.	c #867EA4",
"Q.	c #8780A5",
"R.	c #B1A9CB",
"S.	c #958DB1",
"T.	c #8B82A8",
"U.	c #938CB0",
"V.	c #968EB3",
"W.	c #9A92B8",
"X.	c #A29ABF",
"Y.	c #B2A9CD",
"Z.	c #BFB8D8",
"`.	c #BDB7D7",
" +	c #BCB6D6",
".+	c #BBB3D5",
"++	c #FCF6FC",
"@+	c #CFC7EA",
"#+	c #EAE7F6",
"$+	c #D0CBE4",
"%+	c #C3BCDB",
"&+	c #BFB6D6",
"*+	c #BDB5D5",
"=+	c #9F9ABD",
"-+	c #9790B3",
";+	c #9089AF",
">+	c #A59DBD",
",+	c #A59EBF",
"'+	c #9E96B8",
")+	c #ABA4C3",
"!+	c #A8A1C0",
"~+	c #8D85A8",
"{+	c #918AAC",
"]+	c #948CB0",
"^+	c #9B94B8",
"/+	c #A29AC1",
"(+	c #C2BADB",
"_+	c #C1B9DA",
":+	c #BCB4D6",
"<+	c #BBB3D6",
"[+	c #BAB3D2",
"}+	c #B7B0D0",
"|+	c #F1E9F2",
"1+	c #C9C1E3",
"2+	c #E7E3F3",
"3+	c #CDC6E1",
"4+	c #C0B9D9",
"5+	c #BBB3D4",
"6+	c #AAA2C6",
"7+	c #9189AF",
"8+	c #857EA3",
"9+	c #AAA3C2",
"0+	c #8D85A9",
"a+	c #827B9E",
"b+	c #807A9D",
"c+	c #8E86AA",
"d+	c #938BB1",
"e+	c #9C94BD",
"f+	c #A49DC4",
"g+	c #B9B2D4",
"h+	c #BEB7D7",
"i+	c #B8B1D1",
"j+	c #B8B1D0",
"k+	c #B4B0CE",
"l+	c #B3ACCD",
"m+	c #E8E1EB",
"n+	c #BCB5D5",
"o+	c #C9C6DB",
"p+	c #BFB9D4",
"q+	c #B3ADCD",
"r+	c #B6B0D1",
"s+	c #BAB3D4",
"t+	c #B8B2D1",
"u+	c #A7A0C2",
"v+	c #9189AE",
"w+	c #847DA3",
"x+	c #7D7699",
"y+	c #7D7799",
"z+	c #857DA2",
"A+	c #7F789C",
"B+	c #0F0E12",
"C+	c #242424",
"D+	c #282828",
"E+	c #48484B",
"F+	c #E5DDE7",
"G+	c #B4AECE",
"H+	c #B9B3CD",
"I+	c #B7B2CD",
"J+	c #AAA4C3",
"K+	c #ACA5C4",
"L+	c #ABA5C5",
"M+	c #ACA6C6",
"N+	c #B0A9C9",
"O+	c #9791B1",
"P+	c #8E86AB",
"Q+	c #8B84A9",
"R+	c #867FA3",
"S+	c #A59EC0",
"T+	c #948DAF",
"U+	c #837CA1",
"V+	c #A49DBF",
"W+	c #A49DC0",
"X+	c #2A2A2A",
"Y+	c #E0E0E0",
"Z+	c #C1C1C1",
"`+	c #BCB2C8",
" @	c #ACA5C8",
".@	c #A8A1BF",
"+@	c #A59FBD",
"@@	c #A49DB9",
"#@	c #A49EBE",
"$@	c #A49EBD",
"%@	c #9C96B5",
"&@	c #8983A5",
"*@	c #827B9D",
"=@	c #837C9E",
"-@	c #837D9E",
";@	c #7E779C",
">@	c #7D769D",
",@	c #ACA5C5",
"'@	c #ADA6C8",
")@	c #AFA8C8",
"!@	c #B1AAC9",
"~@	c #B1AAC8",
"{@	c #F4F4F4",
"]@	c #FDFDFD",
"^@	c #FBFBFB",
"/@	c #C3C3C3",
"(@	c #A8A8A8",
"_@	c #8A82A5",
":@	c #787295",
"<@	c #787091",
"[@	c #776F91",
"}@	c #766E8E",
"|@	c #766E8F",
"1@	c #797192",
"2@	c #797392",
"3@	c #756E8E",
"4@	c #746E8B",
"5@	c #867F9D",
"6@	c #797393",
"7@	c #797194",
"8@	c #A39ABD",
"9@	c #AEA6C8",
"0@	c #141317",
"a@	c #525252",
"b@	c #6F6F6E",
"c@	c #EAEAEA",
"d@	c #ADADAD",
"e@	c #767676",
"f@	c #5D5D5D",
"g@	c #404040",
"h@	c #6C6681",
"i@	c #756F8E",
"j@	c #726B8A",
"k@	c #716B87",
"l@	c #6E6985",
"m@	c #6F6986",
"n@	c #716A8A",
"o@	c #6C6585",
"p@	c #71698B",
"q@	c #9D97B4",
"r@	c #9F98B7",
"s@	c #8B83A5",
"t@	c #928CAC",
"u@	c #A59FBF",
"v@	c #4D4D4D",
"w@	c #D0D0D0",
"x@	c #848484",
"y@	c #4B4B49",
"z@	c #161616",
"A@	c #5A546E",
"B@	c #78708E",
"C@	c #686280",
"D@	c #5E5876",
"E@	c #716A87",
"F@	c #978FAE",
"G@	c #726D8C",
"H@	c #6B6684",
"I@	c #9B95B2",
"J@	c #9E97B6",
"K@	c #9E97B7",
"L@	c #9F98B5",
"M@	c #4E4E4E",
"N@	c #DCDCDC",
"O@	c #D5D5D5",
"P@	c #5B5670",
"Q@	c #827C9B",
"R@	c #5D5874",
"S@	c #7B7694",
"T@	c #8E89A7",
"U@	c #938CAB",
"V@	c #746E8C",
"W@	c #958DAD",
"X@	c #978EAD",
"Y@	c #121114",
"Z@	c #777777",
"`@	c #73708A",
" #	c #6A6481",
".#	c #857F9E",
"+#	c #8B85A3",
"@#	c #8B85A4",
"##	c #8D88A6",
"$#	c #8E88A7",
"%#	c #908AAA",
"&#	c #414141",
"*#	c #D1D1CF",
"=#	c #BFBFBF",
"-#	c #716B86",
";#	c #88809F",
">#	c #8880A0",
",#	c #8D86A4",
"'#	c #8D88A4",
")#	c #3D3D3D",
"!#	c #C6C6C4",
"~#	c #BABABA",
"{#	c #867E9D",
"]#	c #887F9E",
"^#	c #887F9F",
"/#	c #8984A1",
"(#	c #F6F6F6",
"_#	c #FBFBFA",
":#	c #FAFAFA",
"<#	c #3D3D3C",
"[#	c #C2C2C0",
"}#	c #6A6680",
"|#	c #847D9C",
"1#	c #847D9D",
"2#	c #857E9D",
"3#	c #F8F8F8",
"4#	c #F3F3F3",
"5#	c #F8F8F6",
"6#	c #E2E2E2",
"7#	c #858585",
"8#	c #3C3C3B",
"9#	c #C7C7C6",
"0#	c #BDBDBC",
"a#	c #6A667F",
"b#	c #827D9B",
"c#	c #817C9B",
"d#	c #F2F2F2",
"e#	c #F0F0F0",
"f#	c #EFEFEF",
"g#	c #3B3B3A",
"h#	c #C4C4C2",
"i#	c #BCBCBC",
"j#	c #69657F",
"k#	c #807A98",
"l#	c #7F7A98",
"m#	c #F9F9F9",
"n#	c #F6F6F3",
"o#	c #F3F3F0",
"p#	c #EDEDED",
"q#	c #EDEDEA",
"r#	c #EAEAE7",
"s#	c #E5E5E5",
"t#	c #DFDFDF",
"u#	c #EBEBEB",
"v#	c #3A3A3A",
"w#	c #B8B8B7",
"x#	c #B4B4B4",
"y#	c #68627E",
"z#	c #7E7A97",
"A#	c #F6F6F4",
"B#	c #EBEBE9",
"C#	c #E9E9E7",
"D#	c #E0E0DE",
"E#	c #3A3A39",
"F#	c #BFBFBD",
"G#	c #BABAB8",
"H#	c #66617C",
"I#	c #F0F0ED",
"J#	c #E7E7E5",
"K#	c #E5E5E2",
"L#	c #E2E2DF",
"M#	c #DFDFDC",
"N#	c #DCDCD9",
"O#	c #D9D9D9",
"P#	c #D9D9D6",
"Q#	c #D6D6D4",
"R#	c #E5E5E4",
"S#	c #D7D7D5",
"T#	c #393938",
"U#	c #665F7A",
"V#	c #E9E9E9",
"W#	c #E4E4E2",
"X#	c #E2E2E0",
"Y#	c #D3D3D1",
"Z#	c #383838",
"`#	c #B6B6B6",
" $	c #EEEEEC",
".$	c #D4D4D1",
"+$	c #DEDEDC",
"@$	c #DEDEDB",
"#$	c #D9D9D7",
"$$	c #383837",
"%$	c #B5B5B1",
"&$	c #E7E7E7",
"*$	c #EFEFED",
"=$	c #DBDBD9",
"-$	c #D5D5D3",
";$	c #BDBDBA",
">$	c #B8B8B8",
",$	c #E3E3E3",
"'$	c #CFCFC9",
")$	c #CBCBC7",
"!$	c #C9C9C7",
"~$	c #DBDBD7",
"{$	c #C8C8C7",
"]$	c #373736",
"^$	c #BCBCB8",
"/$	c #B8B8B6",
"($	c #E4E4E4",
"_$	c #D9D9D5",
":$	c #D7D7D3",
"<$	c #D5D5D1",
"[$	c #D0D0CE",
"}$	c #B1B1AE",
"|$	c #B3B3B3",
"1$	c #DDDDDB",
"2$	c #CFCFCB",
"3$	c #CBCBC9",
"4$	c #C9C9C4",
"5$	c #C7C7C4",
"6$	c #C4C4C1",
"7$	c #C4C4BF",
"8$	c #C1C1BC",
"9$	c #D3D3D0",
"0$	c #D1D1D0",
"a$	c #B7B7B3",
"b$	c #DCDCDB",
"c$	c #E0E0DC",
"d$	c #D1D1CE",
"e$	c #D0D0CC",
"f$	c #CACAC8",
"g$	c #30302F",
"h$	c #A7A7A5",
"i$	c #929290",
"j$	c #D4D4D0",
"k$	c #C7C7C1",
"l$	c #BFBFBC",
"m$	c #BCBCB9",
"n$	c #B9B9B8",
"o$	c #B8B8B4",
"p$	c #B8B8B2",
"q$	c #B4B4B2",
"r$	c #C5C5C1",
"s$	c #282826",
"t$	c #CECECC",
"u$	c #CECECA",
"v$	c #262626",
"w$	c #CECEC9",
"x$	c #BFBFB9",
"y$	c #B9B9B4",
"z$	c #B4B4AF",
"A$	c #B2B2AF",
"B$	c #B2B2AD",
"C$	c #CCCCC8",
"D$	c #CCCCCA",
"E$	c #CACAC7",
"F$	c #C1C1BD",
"G$	c #C8C8C5",
"H$	c #C7C7C3",
"I$	c #050505",
"J$	c #B1B1AF",
"K$	c #B4B4B3",
"L$	c #B4B4B1",
"M$	c #B3B3B1",
"N$	c #B3B3AF",
"O$	c #B1B1AD",
"P$	c #AFAFAD",
"Q$	c #B6B6B4",
"                                                                                                ",
"                                                                                                ",
"                                          . +                                                   ",
"                                        @ + # +                                                 ",
"                                      $ + % & * +                                               ",
"                                    $ + = - ; > , +                                             ",
"                                  $ + ' - ) ! ~ { ] +                                           ",
"                                $ + ^ $ / ( _ : < [ } +                                         ",
"                              | + 1 2 3 4 5 6 7 8 9 0 a +                                       ",
"                            | + b c d e f g h i j k l m n +                                     ",
"                          | + o ; p q r s t u 8 v w x y z A +                                   ",
"                        | + B C D E F G H I J K L M N O P Q R +                                 ",
"                      | + S T U V W X Y Z `  ...+.@.#.$.%.&.*.=.+                               ",
"                    $ + -.;.>.,.,.,.'.).!.~.{.].^./.(._.:.<.[.:.(.+                             ",
"                  }.+ |.1.2.3.3.4.5.6.7.8.9.0.a.b.c.d.b.e.f.[.g.h.i.+                           ",
"                j.+ k.l.m.n.+.o.p.q.r.*.s.t.u.v.w.x.y.z._.A.B.C.D.E.D.+                         ",
"              F.+ G.H.m.+.I.J.K.L.M.N.O.P.Q.R.S.T.U.S.V.W.X.Y.Z.].`. +.++                       ",
"            +++ @+#+$+%+I.p.&+*+=+-+;+>+,+'+)+!+~+{+]+^+/+q.(+_+:+<+.+[+}++                     ",
"          |++ 1+2+3+4+].K.&+5+6+Q 7+8+9+u.0+a+b+c+d+M.e+f+g+Z.D.h+[+i+j+k+l++                   ",
"        m++ n+o+p+q+r+s+[+t+u+v+c+w+x+y+z+A+B+C+C+D+D+D+D+D+D+D+D+D+D+D+D+D+E++                 ",
"      F++ G+H+I+J+K+L+M+N+O+P+Q+R+S+T+U+V+W+X+- - - - - - - - - - - - - - - Y+Z++               ",
"    `++  @.@+@@@#@$@%@&@*@=@-@;@>@,@'@)@!@~@X+- {@- - - - - ]@]@]@]@]@]@]@^@/@^@(@+             ",
"      _@+ :@<@[@}@|@1@2@3@4@5@6@7@8@9@0@C+C+D+D+D+D+D+D+D+D+D+D+D+D+D+a@b@c@d@e@f@g@+           ",
"        h@+ i@j@k@l@m@n@o@p@q@r@s@t@u@X+- - - - - - - - - - - - - - ]@Y+Z+v@w@x@y@z@+           ",
"          A@+ B@C@D@E@F@G@H@I@I@J@K@L@X+- {@- - - - - ]@]@]@]@]@]@]@^@/@^@(@M@N@O@d@+           ",
"            P@+ Q@R@S@T@U@V@W@X@Y@C+C+D+D+D+D+D+D+D+D+D+D+D+D+D+a@b@c@d@e@f@g@Z@N@Z++           ",
"              `@+  #.#+#@###$#%#X+- - - - - - - - - - - - - - - Y+Z+v@w@x@y@z@&#*#=#+           ",
"                -#+ ;#>#;#>#,#'#X+- {@- - - - - ]@]@]@]@]@]@]@^@/@^@(@M@N@O@d@)#!#~#+           ",
"                  h@+ {#{#]#^#/#X+- (#- - - ]@]@]@]@]@]@^@^@_#:#d@e@f@g@Z@N@Z+<#[#~#+           ",
"                    }#+ |#1#2#|#X+- (#- ^@^@^@^@3#3#3#(#(#(#4#5#6#7#y@z@&#*#=#8#9#0#+           ",
"                      a#+ b#Q@c#X+- {@]@]@^@^@_#:#:#:#3#5#(#{@d#e#f#O@d@)#!#~#g#h#i#+           ",
"                        j#+ k#l#X+- d#m#(#(#n#4#4#o#e#p#q#r#s#6#t#u#6#Z+<#[#~#v#w#x#+           ",
"                          y#+ z#X+- e#3#3#3#5#(#A#{@d#e#f#p#u#B#C#C#D#=#8#9#0#E#F#G#+           ",
"                            H#+ X+- f#4#e#I#p#q#r#J#K#L#M#N#O#P#Q#R#S#~#g#h#i#T#F#G#+           ",
"                              U#X+- p#{@{@d#e#f#p#u#V#C#J#R#R#W#D#X#Y#~#v#w#x#Z#G#`#+           ",
"                                X+- u# $J#s#L#M#N#O#P#Q#.$X#D#+$@$+$#$0#E#F#G#$$%$x#+           ",
"                                D+- &$*$u#B#C#J#R#R#W#X#D#+$@$N#=$=$-$i#T#F#G#$$;$>$+           ",
"                                D+- s#,$O#P#Q#.$*#*#'$)$!$N#~$#$S##${$x#Z#G#`#]$^$/$+           ",
"                                D+- X#R#($W#X#D#+$@$N#=$~$_$:$-$<$:$[$G#$$%$x#]$}$|$+           ",
"                                D+- +$1$*#2$3$!$4$5$6$7$8$<$<$9$0$9$[$G#$$;$>$]$a$x#+           ",
"                                D+- b$c$+$b$N#~$#$S#-$<$<$9$d$d$e$0$f$`#]$^$/$g$h$i$+           ",
"                                D+- =$j$5$k$7$8$l$m$m$^$n$o$p$p$q$d$r$x#]$}$|$+ + + +           ",
"                                s$- O@#$#$:$<$Y#9$9$d$e$e$t$u$u$u$e$u$>$]$a$x#+                 ",
"                                v$- Y#w$x$m$^$^$y$p$p$z$z$z$A$A$B$u$C$/$g$h$i$+                 ",
"                                v$- -$9$9$0$[$e$t$u$u$D$C$C$C$E$E$C$F$|$+ + + +                 ",
"                                v$- 0$d$[$t$u$u$u$u$C$C$C$E$E$G$G$C$H$x#+                       ",
"                                I$- J$K$L$L$L$M$M$N$N$N$J$O$O$P$P$N$Q$i$+                       ",
"                                + + + + + + + + + + + + + + + + + + + + +                       ",
"                                                                                                ",
"                                                                                                ",
"                                                                                                ",
"                                                                                                "};
