/* XPM */
static char * newsoft_xpm[] = {
"31 32 444 2",
"  	c None",
". 	c #E6D8EB",
"+ 	c #E5DDEE",
"@ 	c #F1EFFA",
"# 	c #E3DCEC",
"$ 	c #D6C1D4",
"% 	c #D9CDE5",
"& 	c #CFB8CD",
"* 	c #E5D7E7",
"= 	c #ECE7F5",
"- 	c #FBFCFF",
"; 	c #FFFFFF",
"> 	c #F9F9FF",
", 	c #DBD2E7",
"' 	c #DFDCF4",
") 	c #F2F4FF",
"! 	c #E1DEF6",
"~ 	c #CDBCD6",
"{ 	c #E0D5EA",
"] 	c #F2F1FB",
"^ 	c #FEFFFF",
"/ 	c #FDFDFE",
"( 	c #FBFBFE",
"_ 	c #FCFCFE",
": 	c #F4F5FF",
"< 	c #D5CBE1",
"[ 	c #DBD4ED",
"} 	c #F3F2FE",
"| 	c #EEEFFF",
"1 	c #E2E4FC",
"2 	c #D2CAE7",
"3 	c #C3ABC4",
"4 	c #E4DEF1",
"5 	c #F6F6FE",
"6 	c #F8F8FE",
"7 	c #F7F7FE",
"8 	c #EFF1FE",
"9 	c #D1C6DC",
"0 	c #D7CEE7",
"a 	c #EFF0FF",
"b 	c #F1F1FF",
"c 	c #EEEEFE",
"d 	c #ECECFE",
"e 	c #EAEAFE",
"f 	c #E2E4FD",
"g 	c #D6D4F2",
"h 	c #C5B5D4",
"i 	c #D8CBDF",
"j 	c #EAE8F8",
"k 	c #F7F9FF",
"l 	c #EFEFFD",
"m 	c #EBEBFD",
"n 	c #F1F1FE",
"o 	c #FAFBFF",
"p 	c #E4E4FA",
"q 	c #C0B9E1",
"r 	c #EBECFD",
"s 	c #F6F6FF",
"t 	c #E9E9FD",
"u 	c #E7E7FC",
"v 	c #E4E4FB",
"w 	c #E3E3FB",
"x 	c #E0E0FA",
"y 	c #D6D8F7",
"z 	c #CBC4E7",
"A 	c #C0A9C2",
"B 	c #DAD2E8",
"C 	c #F1F1FC",
"D 	c #F2F2FE",
"E 	c #E5E5FB",
"F 	c #E0E0F9",
"G 	c #E2E2FA",
"H 	c #EAEAFD",
"I 	c #EDEDFE",
"J 	c #EEEEFF",
"K 	c #D3D3F1",
"L 	c #7372C2",
"M 	c #7576C8",
"N 	c #ADADE3",
"O 	c #DEDEF7",
"P 	c #E7E7FD",
"Q 	c #E1E1F9",
"R 	c #DFDFF8",
"S 	c #DCDCF7",
"T 	c #DADAF7",
"U 	c #CCCBF0",
"V 	c #C1B3D5",
"W 	c #DBD9F1",
"X 	c #F4F6FF",
"Y 	c #E8E8FB",
"Z 	c #DBDBF7",
"` 	c #D7D7F6",
" .	c #DEDEF8",
"..	c #E6E6FC",
"+.	c #B0B0E2",
"@.	c #5E5DB7",
"#.	c #4343A8",
"$.	c #7D7DCA",
"%.	c #8E8ED5",
"&.	c #9292D6",
"*.	c #C0C0EA",
"=.	c #D6D6F5",
"-.	c #D4D4F5",
";.	c #D3D4F4",
">.	c #CCCDF2",
",.	c #C1BEE6",
"'.	c #B7A0BA",
").	c #D5CDEB",
"!.	c #F5F7FF",
"~.	c #E0E1F9",
"{.	c #D5D5F5",
"].	c #D3D3F4",
"^.	c #D0D0F3",
"/.	c #D2D2F4",
"(.	c #D8D8F6",
"_.	c #8F8ED2",
":.	c #5454B3",
"<.	c #5050B0",
"[.	c #4F4FAF",
"}.	c #8080CC",
"|.	c #9696D9",
"1.	c #8F8FD5",
"2.	c #8989D2",
"3.	c #A1A1DD",
"4.	c #D3D2F2",
"5.	c #D9D9F7",
"6.	c #D4D4F4",
"7.	c #D2D2F3",
"8.	c #D1D1F3",
"9.	c #CECEF2",
"0.	c #CFD0F4",
"a.	c #AFB0E4",
"b.	c #9980AF",
"c.	c #AF8C9F",
"d.	c #D4CBEA",
"e.	c #EBEDFE",
"f.	c #CDCDF1",
"g.	c #CCCCF2",
"h.	c #B3B3E5",
"i.	c #7575C6",
"j.	c #5555B4",
"k.	c #5959B7",
"l.	c #5959B6",
"m.	c #5353B1",
"n.	c #8484CE",
"o.	c #9999DA",
"p.	c #9191D6",
"q.	c #8D8DD4",
"r.	c #8585D0",
"s.	c #8988D2",
"t.	c #B0B0E3",
"u.	c #D9D9F5",
"v.	c #CFCFF2",
"w.	c #CCCCF1",
"x.	c #B1B1E5",
"y.	c #9680B9",
"z.	c #A88294",
"A.	c #C6BCE2",
"B.	c #CFCFF3",
"C.	c #CDCDF2",
"D.	c #C6C6EF",
"E.	c #9999D8",
"F.	c #6463BC",
"G.	c #5B5BB7",
"H.	c #5D5DB8",
"I.	c #5C5CB8",
"J.	c #5C5CB7",
"K.	c #5858B5",
"L.	c #8787D0",
"M.	c #9898D9",
"N.	c #8888D1",
"O.	c #8181CE",
"P.	c #7979C9",
"Q.	c #8C8CD3",
"R.	c #BFBFEA",
"S.	c #B2B3E6",
"T.	c #9082BE",
"U.	c #B694A6",
"V.	c #CBC3E5",
"W.	c #DBDCF6",
"X.	c #B0B0E4",
"Y.	c #7B7BC9",
"Z.	c #5F5EB9",
"`.	c #6161BA",
" +	c #6262BB",
".+	c #6060BA",
"++	c #5E5EB9",
"@+	c #8787D1",
"#+	c #9797D9",
"$+	c #8A8AD2",
"%+	c #8484CF",
"&+	c #7F7FCC",
"*+	c #7272C6",
"=+	c #7272C5",
"-+	c #9B9BD9",
";+	c #B6B7E8",
">+	c #8E83BF",
",+	c #E0C8D5",
"'+	c #D7D2E7",
")+	c #FCFCF9",
"!+	c #F6F7F5",
"~+	c #EEEBEE",
"{+	c #E9E6EF",
"]+	c #D9D7F2",
"^+	c #7A79C9",
"/+	c #5555B5",
"(+	c #6161BB",
"_+	c #6363BB",
":+	c #5E5EB8",
"<+	c #9292D7",
"[+	c #8383CE",
"}+	c #7E7ECB",
"|+	c #7575C7",
"1+	c #7171C4",
"2+	c #6969C0",
"3+	c #6767BF",
"4+	c #9091D4",
"5+	c #B4A2BE",
"6+	c #9B99A7",
"7+	c #9284C1",
"8+	c #B9B7E5",
"9+	c #F7F8FF",
"0+	c #F4F4FF",
"a+	c #E5E6FD",
"b+	c #C7C6EE",
"c+	c #5A5AB6",
"d+	c #5F5FB9",
"e+	c #7F7FCD",
"f+	c #8282CE",
"g+	c #7A7ACA",
"h+	c #6E6EC3",
"i+	c #6767BE",
"j+	c #7070C4",
"k+	c #A5A5DE",
"l+	c #DCDCF8",
"m+	c #E8EAFF",
"n+	c #DBDCF7",
"o+	c #8987CD",
"p+	c #7F70A6",
"q+	c #9D9BD7",
"r+	c #E3E4F8",
"s+	c #F3F3FF",
"t+	c #E1E1FA",
"u+	c #DDDEF9",
"v+	c #D1D1F4",
"w+	c #9696D6",
"x+	c #5D5DB9",
"y+	c #5757B4",
"z+	c #7777C7",
"A+	c #6C6CC2",
"B+	c #6666BF",
"C+	c #6161BC",
"D+	c #8383CD",
"E+	c #B8B8E8",
"F+	c #CACAF0",
"G+	c #B8BAE8",
"H+	c #7170C1",
"I+	c #635688",
"J+	c #796A93",
"K+	c #918ACA",
"L+	c #CACAEE",
"M+	c #F2F2FF",
"N+	c #DDDDF8",
"O+	c #A9A9E1",
"P+	c #6565BC",
"Q+	c #5454B2",
"R+	c #4D4DAE",
"S+	c #4E4EAD",
"T+	c #6363BC",
"U+	c #6A6AC1",
"V+	c #6565BD",
"W+	c #6969BF",
"X+	c #9B9BDA",
"Y+	c #C4C4EE",
"Z+	c #C7C7EF",
"`+	c #C8C8F0",
" @	c #8E90D4",
".@	c #6962B1",
"+@	c #6A5B7D",
"@@	c #8679B3",
"#@	c #A6A7DE",
"$@	c #E8E8FD",
"%@	c #D8D8F5",
"&@	c #B9B9E9",
"*@	c #7474C4",
"=@	c #4747AB",
"-@	c #4343A6",
";@	c #3D3DA1",
">@	c #4141A4",
",@	c #4949AA",
"'@	c #7C7CC9",
")@	c #B5B5E6",
"!@	c #B6B6E8",
"~@	c #6566BC",
"{@	c #6156A5",
"]@	c #4A4AAD",
"^@	c #8C8CD2",
"/@	c #DBDBF8",
"(@	c #C7C7EE",
"_@	c #C3C3EE",
":@	c #BABAEA",
"<@	c #8787CE",
"[@	c #4040A4",
"}@	c #38389F",
"|@	c #3B3BA0",
"1@	c #3939A0",
"2@	c #5959B4",
"3@	c #BDBDEB",
"4@	c #BFBFEB",
"5@	c #C5C5EF",
"6@	c #9898D8",
"7@	c #383AA3",
"8@	c #7B698F",
"9@	c #5353B2",
"0@	c #7070C3",
"a@	c #BCBCE9",
"b@	c #C5C5EE",
"c@	c #B4B4E6",
"d@	c #6767BC",
"e@	c #5252AF",
"f@	c #9898D7",
"g@	c #D3D3F5",
"h@	c #8080CB",
"i@	c #5656B4",
"j@	c #5050AF",
"k@	c #4143A8",
"l@	c #766586",
"m@	c #7B7BCB",
"n@	c #6B6BC1",
"o@	c #6363BD",
"p@	c #A0A0DB",
"q@	c #C4C4ED",
"r@	c #AEAEE3",
"s@	c #9F9FDA",
"t@	c #9D9DD9",
"u@	c #9C9CD8",
"v@	c #9B9BD8",
"w@	c #9D9DDA",
"x@	c #7777C6",
"y@	c #6666BE",
"z@	c #6868BF",
"A@	c #4E4FB1",
"B@	c #6F5F7E",
"C@	c #A3A3DF",
"D@	c #7A7AC9",
"E@	c #6A6AC0",
"F@	c #7474C5",
"G@	c #7474C6",
"H@	c #6D6DC3",
"I@	c #ABABE2",
"J@	c #B3B3E6",
"K@	c #9393D7",
"L@	c #8F8FD4",
"M@	c #8686D0",
"N@	c #595BB7",
"O@	c #685773",
"P@	c #8C8DD3",
"Q@	c #C7C7F0",
"R@	c #7E7ECC",
"S@	c #8888D2",
"T@	c #A7A7E1",
"U@	c #C3C3EC",
"V@	c #A8A8E1",
"W@	c #A4A4DF",
"X@	c #9F9FDD",
"Y@	c #9C9CDB",
"Z@	c #9494D7",
"`@	c #9595D7",
" #	c #8788D2",
".#	c #5355B6",
"+#	c #8B85CC",
"@#	c #BCBEEC",
"##	c #BEBDEB",
"$#	c #9E9EDC",
"%#	c #C0C0EB",
"&#	c #D1D1F2",
"*#	c #B0B0E5",
"=#	c #AFAFE4",
"-#	c #A7A7E0",
";#	c #A5A5E0",
">#	c #8587D1",
",#	c #6263BA",
"'#	c #917FAB",
")#	c #9D7BA4",
"!#	c #9389C9",
"~#	c #B1B4E6",
"{#	c #CDCEF2",
"]#	c #ACACE3",
"^#	c #B2B2E5",
"/#	c #C3C3ED",
"(#	c #CACAF1",
"_#	c #B7B7E8",
":#	c #B5B5E7",
"<#	c #B0B0E6",
"[#	c #AEAEE5",
"}#	c #7E80CD",
"|#	c #6F68BA",
"1#	c #877592",
"2#	c #9984BC",
"3#	c #A3A3DC",
"4#	c #C7C9F0",
"5#	c #CBCBF1",
"6#	c #C8C8EF",
"7#	c #BCBCEA",
"8#	c #BBBBE9",
"9#	c #B9B9E8",
"0#	c #BEBDEA",
"a#	c #ACADE4",
"b#	c #7374C6",
"c#	c #756CAD",
"d#	c #9576A4",
"e#	c #9892D2",
"f#	c #BBBCEA",
"g#	c #CECFF3",
"h#	c #C9C9F0",
"i#	c #C6C6EE",
"j#	c #D6D6F6",
"k#	c #BDBDEC",
"l#	c #A1A3DE",
"m#	c #6F6DC0",
"n#	c #8874A2",
"o#	c #927193",
"p#	c #988AC6",
"q#	c #ADADE1",
"r#	c #C9CAF1",
"s#	c #C2C3EE",
"t#	c #9294D6",
"u#	c #6C67B6",
"v#	c #725C73",
"w#	c #9880B5",
"x#	c #9F9CD8",
"y#	c #BFC0EC",
"z#	c #D6D7F6",
"A#	c #BBBCEB",
"B#	c #7D7ECB",
"C#	c #7E6BA9",
"D#	c #9477A2",
"E#	c #9B8FCE",
"F#	c #B6B9E8",
"G#	c #7471C1",
"H#	c #776090",
"I#	c #A18CBF",
"J#	c #7C70AB",
"K#	c #6B5576",
"                                                              ",
"                      .                                       ",
"                    + @ #             $ % &                   ",
"                * = - ; > ,           ' ) ! ~                 ",
"              { ] ^ / ( _ : <       [ : } | 1 2 3             ",
"            4 5 - 6 5 7 7 > 8 9   0 a b c d e f g h           ",
"        i j k l m n n n n n o p q r s d t u v w x y z A       ",
"      B C D E F G H I d J s K L M N O b P w Q R S T y U V     ",
"    W X Y Z T T `  ...e e +.@.#.$.%.&.*.P u S T ` =.-.;.>.,.'.",
"    ).!.~.{.-.].^./.w (._.:.<.[.}.|.1.2.3.4.w 5.6.7.8.9.0.a.b.",
"    c.d.e.5.^.f.g.9.h.i.j.k.l.m.n.o.p.q.r.s.t.u.5.v.w.9.x.y.  ",
"      z.A.1 B.C.D.E.F.G.H.I.J.K.L.M.p.q.N.O.P.Q.R.=.v.S.T.    ",
"        U.V.W.X.Y.Z.`. +.+++H.G.@+#+1.$+%+&+P.*+=+-+;+>+      ",
",+'+)+!+~+{+]+^+/+H.++(+_+ +.+:+n.<+2.[+}+P.|+1+2+3+4+5+6+    ",
"  7+8+9+0+a+w b+}+c+G.H.d+_+ +d+e+$+f+g+|+1+h+i+j+k+l+m+J n+o+",
"    p+q+r+s+t+u+v+w+x+y+K.G.H.J.|+e+z+=+A+B+C+D+E+F+9.P G+H+I+",
"      J+K+L+M+N+8.v+O+P+[.m.Q+R+S+T+U+V+G.W+X+Y+Z+w.`+ @.@+@  ",
"          @@#@$@%@w.C.&@*@=@-@;@;@>@,@l.'@)@Y+Y+w.!@~@{@      ",
"            ]@^@6./@(@_@:@<@[@}@|@1@2@X+3@4@_@5@6@++7@8@      ",
"            9@(+0@a@T b@_@w.c@d@e@f@`+g@^.g@3@h@i@j@k@l@      ",
"            2+m@n@o@p@v.q@r@s@D+%+t@u@v@v@w@x@T+y@z@A@B@      ",
"            L.C@r.D@E@F@G@U+H@I@J@K@L@Q.M@O.}+}.}.f+N@O@      ",
"            P@Q@x.p.%+R@[+S@T@8.U@I@V@W@X@Y@#+Z@`@ #.#        ",
"            +#@#9.##$#%.1.r@%#&#Z+*#=#N O+-#W@;#>#,#'#        ",
"            )#!#~#{#`+]#^#Z+/#{.(#_#:#:#J@<#[#}#|#1#          ",
"                2#3#4#C.5#6#b@=.f.7#8#9#0#a#b#c#              ",
"                  d#e#f#g#h#i#j#f.k#4@_@l#m#n#                ",
"                    o#p#q#r#Z+{.f._@s#t#u#v#                  ",
"                        w#x#y#z#/.A#B#C#                      ",
"                          D#E#(@F#G#H#                        ",
"                              I#J#K#                          ",
"                                                              "};
