/* XPM */
static char * panel_xpm[] = {
"32 32 318 2",
"  	c None",
". 	c #BAC6DB",
"+ 	c #93A0B7",
"@ 	c #F1F6FF",
"# 	c #FFFFFF",
"$ 	c #FEFFFF",
"% 	c #F9FDFF",
"& 	c #F4F7FE",
"* 	c #EBF0F9",
"= 	c #E3E9F4",
"- 	c #DAE1EF",
"; 	c #CED7E8",
"> 	c #B8C6DF",
", 	c #A2ADC0",
"' 	c #F2F7FF",
") 	c #F5F9FF",
"! 	c #EEF3FC",
"~ 	c #E8EDF7",
"{ 	c #E0E7F3",
"] 	c #D7DFED",
"^ 	c #CBD5E6",
"/ 	c #B5C2D9",
"( 	c #E1EAF9",
"_ 	c #9CA8BC",
": 	c #FBFEFF",
"< 	c #F6FAFF",
"[ 	c #F1F5FE",
"} 	c #E3EAF4",
"| 	c #DCE3F0",
"1 	c #CFD8E8",
"2 	c #B8C4DB",
"3 	c #E6ECF7",
"4 	c #D2DDEF",
"5 	c #9CA8BE",
"6 	c #FCFFFF",
"7 	c #F8FBFF",
"8 	c #F4F8FE",
"9 	c #EEF2FB",
"0 	c #E7EDF7",
"a 	c #DFE5F2",
"b 	c #D2DBEA",
"c 	c #BAC6DC",
"d 	c #F5F8FF",
"e 	c #DEE4F1",
"f 	c #D1DBEF",
"g 	c #9DA9BF",
"h 	c #FDFFFF",
"i 	c #F9FCFF",
"j 	c #F0F4FD",
"k 	c #E9EFF8",
"l 	c #E1E7F3",
"m 	c #D5DDEC",
"n 	c #BCC7DB",
"o 	c #F3F7FE",
"p 	c #E2E8F3",
"q 	c #D4DFF1",
"r 	c #9FABC0",
"s 	c #FAFDFF",
"t 	c #F7FAFF",
"u 	c #F2F5FD",
"v 	c #EBEFF9",
"w 	c #D9E1EF",
"x 	c #B4C1D7",
"y 	c #E9EBF1",
"z 	c #E2E8EF",
"A 	c #DAE1ED",
"B 	c #CED7E6",
"C 	c #C6D2E7",
"D 	c #97A4BB",
"E 	c #F5E4E4",
"F 	c #F7F0F0",
"G 	c #F7FBFF",
"H 	c #F2F6FD",
"I 	c #EDF1FB",
"J 	c #E6ECF6",
"K 	c #DEE5F2",
"L 	c #BECADD",
"M 	c #8E9FBB",
"N 	c #E9C1C1",
"O 	c #F0DDDE",
"P 	c #F3F7FF",
"Q 	c #E7ECF7",
"R 	c #E1E7F4",
"S 	c #DBE3F0",
"T 	c #CDD6E7",
"U 	c #B7C4DA",
"V 	c #ACBAD3",
"W 	c #AAB9D2",
"X 	c #A4B4D1",
"Y 	c #7A8BA7",
"Z 	c #D99191",
"` 	c #E9C4C4",
" .	c #F5F8FE",
"..	c #E2E9F4",
"+.	c #C2CCE0",
"@.	c #B4C0D8",
"#.	c #B1BFD6",
"$.	c #AFBCD5",
"%.	c #ABBBD6",
"&.	c #CB6666",
"*.	c #E3B3B3",
"=.	c #F0F5FD",
"-.	c #E9EFF9",
";.	c #E5EBF6",
">.	c #DDE4F1",
",.	c #CBD5E5",
"'.	c #BDC9DE",
").	c #BBC7DC",
"!.	c #B8C5DB",
"~.	c #B7C3DA",
"{.	c #B3C1DB",
"].	c #E6B6B6",
"^.	c #EBC3C3",
"/.	c #B83030",
"(.	c #CF7575",
"_.	c #E5BDBE",
":.	c #EBF0FA",
"<.	c #DFE6F2",
"[.	c #D0D8E8",
"}.	c #C6D0E3",
"|.	c #C2CDE0",
"1.	c #BFCADF",
"2.	c #BDC8DD",
"3.	c #BCC8DC",
"4.	c #B9C6DE",
"5.	c #D17777",
"6.	c #A80000",
"7.	c #B52929",
"8.	c #E0E6F3",
"9.	c #D2DBEB",
"0.	c #CCD6E7",
"a.	c #C9D3E4",
"b.	c #C6D1E3",
"c.	c #C4CFE2",
"d.	c #C1CDE0",
"e.	c #BECBE2",
"f.	c #E4B3B3",
"g.	c #AC0B0B",
"h.	c #B73031",
"i.	c #ECE3EA",
"j.	c #E9EEF8",
"k.	c #D5DEEC",
"l.	c #D1DAE9",
"m.	c #D0D9E9",
"n.	c #C8D2E5",
"o.	c #C4D0E6",
"p.	c #EAEFF8",
"q.	c #DAE2EF",
"r.	c #D3DBEA",
"s.	c #CFD8E9",
"t.	c #CDD7E8",
"u.	c #CAD4E6",
"v.	c #CAD3E5",
"w.	c #C8D4E8",
"x.	c #F3F7FD",
"y.	c #D8E0EE",
"z.	c #D4DCEB",
"A.	c #CED7E7",
"B.	c #CBD6EA",
"C.	c #A5A5A5",
"D.	c #A8A8A8",
"E.	c #ACACAC",
"F.	c #B1B4BA",
"G.	c #D0D9E6",
"H.	c #D0DAE9",
"I.	c #CFD9EC",
"J.	c #ECECEC",
"K.	c #F5F5F5",
"L.	c #F4F4F4",
"M.	c #FEFEFE",
"N.	c #FDFDFD",
"O.	c #FBFBFB",
"P.	c #FCFCFC",
"Q.	c #F6F6F6",
"R.	c #E0E0E0",
"S.	c #73757A",
"T.	c #C7CEDD",
"U.	c #D2DAE9",
"V.	c #D3DCEA",
"W.	c #D1DBED",
"X.	c #9C9C9C",
"Y.	c #A4A4A4",
"Z.	c #B7B7B7",
"`.	c #B5B5B5",
" +	c #B2B2B2",
".+	c #939393",
"++	c #C0C0C0",
"@+	c #5C5E62",
"#+	c #BAC0CC",
"$+	c #D2D9E7",
"%+	c #D2DCEE",
"&+	c #A1A1A1",
"*+	c #F3F3F3",
"=+	c #F9F9F9",
"-+	c #C7C7C7",
";+	c #DFDFDF",
">+	c #DEDEDE",
",+	c #DDDDDD",
"'+	c #EDEDED",
")+	c #F1F1F1",
"!+	c #626262",
"~+	c #000000",
"{+	c #3F3F3F",
"]+	c #E5E5E5",
"^+	c #EFEFEF",
"/+	c #BBBBBB",
"(+	c #585A5D",
"_+	c #B4BAC6",
":+	c #D1D9E7",
"<+	c #D6DEEC",
"[+	c #D4DEF0",
"}+	c #9E9E9E",
"|+	c #F0F0F0",
"1+	c #B0B0B0",
"2+	c #898989",
"3+	c #929292",
"4+	c #8B8B8B",
"5+	c #D1D1D1",
"6+	c #B6B6B6",
"7+	c #57595C",
"8+	c #B5BCC8",
"9+	c #D5DDED",
"0+	c #D5DFF0",
"a+	c #9D9D9D",
"b+	c #AEAEAE",
"c+	c #EAEAEA",
"d+	c #E3E3E3",
"e+	c #BEBEBE",
"f+	c #C8C8C8",
"g+	c #C1C1C1",
"h+	c #DCDCDC",
"i+	c #E6E6E6",
"j+	c #B4B4B4",
"k+	c #58595D",
"l+	c #B5BCC7",
"m+	c #D3DBE8",
"n+	c #D7DFEE",
"o+	c #9A9A9A",
"p+	c #EBEBEB",
"q+	c #ABABAB",
"r+	c #E7E7E7",
"s+	c #E1E1E1",
"t+	c #3A3A3A",
"u+	c #202020",
"v+	c #CFCFCF",
"w+	c #B6BDC8",
"x+	c #D2DAE7",
"y+	c #D6DFF1",
"z+	c #979797",
"A+	c #B1B1B1",
"B+	c #DADADA",
"C+	c #585858",
"D+	c #C5C5C5",
"E+	c #D7D7D7",
"F+	c #ADADAD",
"G+	c #56575B",
"H+	c #B5BBC8",
"I+	c #989898",
"J+	c #B3B3B3",
"K+	c #BABABA",
"L+	c #BCBCBC",
"M+	c #A9A9A9",
"N+	c #545558",
"O+	c #B5BBC7",
"P+	c #838383",
"Q+	c #4F4F4F",
"R+	c #3C3C3C",
"S+	c #47484A",
"T+	c #4C4D4D",
"U+	c #4D4D4D",
"V+	c #4C4C4D",
"W+	c #4B4C4D",
"X+	c #4B4B4C",
"Y+	c #4A4B4C",
"Z+	c #5E6064",
"`+	c #B7BEC9",
" @	c #8A93A2",
".@	c #B3B7BD",
"+@	c #BDBDBD",
"@@	c #B8B9BC",
"#@	c #B1B5BB",
"$@	c #B0B4BA",
"%@	c #B0B3BA",
"&@	c #ADB1B9",
"*@	c #ACB0B8",
"=@	c #ABB0B7",
"-@	c #AAAFB6",
";@	c #A8ADB5",
">@	c #A6ABB4",
",@	c #A5AAB3",
"'@	c #A3A8B2",
")@	c #ACB2BC",
"!@	c #C1C8D5",
"~@	c #D5DCEA",
"{@	c #D7DEED",
"]@	c #D6E0F2",
"^@	c #ABB6CA",
"/@	c #DFE4EB",
"(@	c #E5E6EA",
"_@	c #DCE1E8",
":@	c #DBE0E7",
"<@	c #DADFE7",
"[@	c #D8DCE5",
"}@	c #D6DBE5",
"|@	c #D5DAE4",
"1@	c #D4D9E3",
"2@	c #D1D7E1",
"3@	c #CED5E0",
"4@	c #CED4DF",
"5@	c #CBD1DD",
"6@	c #CCD4E0",
"7@	c #EAF3FF",
"8@	c #F8FAFE",
"9@	c #EFF4FC",
"0@	c #EEF3FB",
"a@	c #EDF2FB",
"b@	c #EAEFF9",
"c@	c #E8EEF8",
"              . . . . . . . . . . . . . . . +                   ",
"              . @ # # # # # # $ % & * = - ; > ,                 ",
"              . ' # # # # # $ % ) ! ~ { ] ^ / ( _               ",
"              . ' # # # # # $ : < [ * } | 1 2 3 4 5             ",
"              . ' # # # # # # 6 7 8 9 0 a b c d e f g           ",
"              . ' # # # # # # h i d j k l m n # o p q r         ",
"              . ' # # # # # # h s t u v = w x y z A B C D       ",
"              . ' # # # # # # E F G H I J K L M M M M M M M     ",
"              . ' # # # # # # N O 7 P 9 Q R S ] T U V W X Y     ",
"              . ' # # # # # # Z ` s  .! k ..S m +.@.#.$.%.Y     ",
"              . ' # # # # # # &.*.i d =.-.;.>.,.'.).!.~.{.Y     ",
"              . ' # # # # ].^./.(._.t o :.<.[.}.|.1.2.3.4.Y     ",
"              . ' # # # # 5.6.6.6.7.o * 8.9.0.a.b.c.|.d.e.Y     ",
"              . ' # # # # # f.g.h.i.j.a k.l.m.T ^ n.b.b.o.Y     ",
"              . ' # # # # h : i ) p.<.q.] m r.l.s.t.u.v.w.Y     ",
"              . ' # # # $ h 6 x.J l K | S y.] z.r.l.; A.B.Y     ",
"C.D.D.D.D.D.D.D.D.D.D.D.D.D.D.D.D.D.D.D.D.D.D.E.F.G.b H.I.Y     ",
"D.J.K.L.M.N.O.O.O.O.O.O.O.O.P.Q.L.L.L.# Q.K.K.R.S.T.U.V.W.Y     ",
"C.K.O.# X.Y.Z.`.`.`.`.`.`.`. +J.P.P.# .+L.# K.++@+#+$+m %+Y     ",
"&+*+L.=+&+-+;+>+>+>+>+>+>+>+,+'+L.)+!+~+{+]+^+/+(+_+:+<+[+Y     ",
"}+)+|+)+1+R.# # # # # # # # # |+'+R.2+3+4+5+J.6+7+8+:+9+0+Y     ",
"a+)+'+^+b+>+# # # # # # # # # '+c+d+e+f+g+h+i+j+k+l+m+n+0+Y     ",
"o+)+c+p+q+R.# # # # # # # # # p+r+s+t+~+u+v+]+1+7+w+x+y.y+Y     ",
"z+'+R.;+A+h+Q.Q.Q.Q.Q.Q.Q.Q.Q.s+B+s+>+C+D+i+E+F+G+H+x+y.y+Y     ",
"I+d+J+Z.K+Z.6+6+6+6+6+6+6+6+6+Z.Z.Z.K+++L+Z.K+M+N+O+m+y.0+Y     ",
"P+Q+t+R+R+R+R+S+T+U+U+T+V+V+V+V+V+W+W+W+X+X+Y+Y+Z+`+m+] y+Y     ",
"               @.@+@@@#@#@$@%@&@&@*@=@-@;@>@,@'@)@!@~@{@]@Y     ",
"              ^@/@p+(@_@_@:@<@[@[@}@|@1@2@3@4@5@6@:+] {@]@Y     ",
"              . 7@# 8@9@9@0@a@b@b@c@0 J = { <.| q.y.y.{@]@Y     ",
"              . Y Y Y Y Y Y Y Y Y Y Y Y Y Y Y Y Y Y Y Y Y Y     ",
"                                                                ",
"                                                                "};
