/* XPM */
static char * printer_xpm[] = {
"32 32 471 2",
"  	c None",
". 	c #75A7FE",
"+ 	c #6EA3FB",
"@ 	c #75A6FB",
"# 	c #CADDFC",
"$ 	c #E6EFFE",
"% 	c #D2E2FF",
"& 	c #ADCBFE",
"* 	c #86B1FC",
"= 	c #7AAAFD",
"- 	c #72A6FE",
"; 	c #92B7F7",
"> 	c #FFFFFF",
", 	c #FEFEFF",
"' 	c #F6F9FF",
") 	c #EAF1FE",
"! 	c #E4EEFF",
"~ 	c #D3E3FE",
"{ 	c #B1CDFD",
"] 	c #9EC2FE",
"^ 	c #8DB7FE",
"/ 	c #87B0F6",
"( 	c #F5F7FA",
"_ 	c #F9FBFF",
": 	c #F3F7FF",
"< 	c #F1F6FF",
"[ 	c #F2F7FF",
"} 	c #F2F6FF",
"| 	c #F0F5FF",
"1 	c #EFF5FF",
"2 	c #E2EDFF",
"3 	c #4983E7",
"4 	c #CDDBF3",
"5 	c #FAFCFF",
"6 	c #F0F4FF",
"7 	c #EDF3FF",
"8 	c #EBF1FF",
"9 	c #E7EFFF",
"0 	c #E6EEFF",
"a 	c #E3EDFF",
"b 	c #E0EAFF",
"c 	c #DFEAFF",
"d 	c #BCD1F6",
"e 	c #205CC3",
"f 	c #77A6F8",
"g 	c #F9FAFE",
"h 	c #F5F8FF",
"i 	c #EEF4FF",
"j 	c #EBF2FF",
"k 	c #E9F0FF",
"l 	c #DDE8FF",
"m 	c #D6E4FF",
"n 	c #D0E1FF",
"o 	c #CEDFFF",
"p 	c #CDDFFF",
"q 	c #DAE8FF",
"r 	c #5385DC",
"s 	c #73A5FB",
"t 	c #D8E2F2",
"u 	c #F8FAFF",
"v 	c #ECF3FF",
"w 	c #EAF1FF",
"x 	c #BBD4FF",
"y 	c #B3CEFF",
"z 	c #B7D1FF",
"A 	c #BFD5FF",
"B 	c #C6DAFF",
"C 	c #D3E3FF",
"D 	c #A3BFF1",
"E 	c #205ABF",
"F 	c #8BB3F6",
"G 	c #F4F7FB",
"H 	c #DCE8FF",
"I 	c #ADCAFF",
"J 	c #A9C8FF",
"K 	c #B5CFFF",
"L 	c #BED5FF",
"M 	c #C3D9FF",
"N 	c #C8DCFF",
"O 	c #5384DA",
"P 	c #143D86",
"Q 	c #D1DCF2",
"R 	c #E5EEFF",
"S 	c #A7C7FF",
"T 	c #B4CFFF",
"U 	c #BDD4FF",
"V 	c #C1D7FF",
"W 	c #C5D9FF",
"X 	c #CCDEFF",
"Y 	c #A3C0F2",
"Z 	c #1E59BF",
"` 	c #7EAAF5",
" .	c #F4F7FF",
"..	c #E3ECFF",
"+.	c #AAC9FF",
"@.	c #B4CEFF",
"#.	c #BBD3FF",
"$.	c #C0D6FF",
"%.	c #C3D8FF",
"&.	c #D4E4FF",
"*.	c #4E82DC",
"=.	c #0E3373",
"-.	c #959CDC",
";.	c #949CDE",
">.	c #99A1E3",
",.	c #9CA4E5",
"'.	c #919FCD",
").	c #E6EAF0",
"!.	c #DDE9FF",
"~.	c #C2D7FF",
"{.	c #AECAFF",
"].	c #CBDDFF",
"^.	c #B7CFFA",
"/.	c #326CCD",
"(.	c #9997C1",
"_.	c #9093C8",
":.	c #CDCFEB",
"<.	c #B7BFFF",
"[.	c #A4ACEE",
"}.	c #9DA5E6",
"|.	c #8292C3",
"1.	c #E4ECF9",
"2.	c #B7D3FF",
"3.	c #B5D2FF",
"4.	c #B9D3FF",
"5.	c #BCD4FF",
"6.	c #BFD6FF",
"7.	c #C4D9FF",
"8.	c #CCDFFF",
"9.	c #77A1E8",
"0.	c #124396",
"a.	c #8C91CA",
"b.	c #9CA3DD",
"c.	c #E7E9F7",
"d.	c #8991D3",
"e.	c #474F91",
"f.	c #3D4587",
"g.	c #7880C2",
"h.	c #6B73B5",
"i.	c #6770AE",
"j.	c #7480BA",
"k.	c #8E9DD3",
"l.	c #A2B4E2",
"m.	c #B4C9F3",
"n.	c #C7DDFF",
"o.	c #C9DFFF",
"p.	c #C6DBFF",
"q.	c #BCD0FD",
"r.	c #3964BD",
"s.	c #8B8CBC",
"t.	c #CFD3EE",
"u.	c #FBFBFF",
"v.	c #6C74B6",
"w.	c #2D3577",
"x.	c #121A5C",
"y.	c #0B1355",
"z.	c #3E4688",
"A.	c #51599B",
"B.	c #434B8D",
"C.	c #343C7D",
"D.	c #3E4583",
"E.	c #576095",
"F.	c #7B85AF",
"G.	c #A3B2DA",
"H.	c #BFD1F7",
"I.	c #D2E4FF",
"J.	c #6679BB",
"K.	c #9199DA",
"L.	c #9194CA",
"M.	c #9396C9",
"N.	c #B3936E",
"O.	c #9F8E93",
"P.	c #A8AEE4",
"Q.	c #E5E9FE",
"R.	c #DBDFFF",
"S.	c #ECEEFF",
"T.	c #F9FAFF",
"U.	c #E7EAFF",
"V.	c #98A0E2",
"W.	c #6169AB",
"X.	c #394183",
"Y.	c #192163",
"Z.	c #000633",
"`.	c #081052",
" +	c #151D5F",
".+	c #252D6F",
"++	c #353D7F",
"@+	c #2C3476",
"#+	c #20286A",
"$+	c #252C64",
"%+	c #2C3360",
"&+	c #293171",
"*+	c #F1F3FF",
"=+	c #F0F2FF",
"-+	c #F0F2FE",
";+	c #D6DBF8",
">+	c #B9B5CD",
",+	c #AF9172",
"'+	c #9199DB",
")+	c #EFF0FF",
"!+	c #F3F5FF",
"~+	c #E6E9FF",
"{+	c #E8EBFF",
"]+	c #F7F8FF",
"^+	c #D1D6FF",
"/+	c #A2AAEC",
"(+	c #6971B3",
"_+	c #1F2769",
":+	c #091153",
"<+	c #020A4C",
"[+	c #050D4F",
"}+	c #1A2264",
"|+	c #161E60",
"1+	c #DADEFF",
"2+	c #F2F4FF",
"3+	c #C4CAFF",
"4+	c #929ADC",
"5+	c #A0A8EA",
"6+	c #ACB4F6",
"7+	c #6D75C8",
"8+	c #A4ABE9",
"9+	c #BBC1F0",
"0+	c #CFD3F7",
"a+	c #DCDFFC",
"b+	c #E2E6FF",
"c+	c #DEE1FF",
"d+	c #EBEDFF",
"e+	c #F6F7FF",
"f+	c #485092",
"g+	c #11195B",
"h+	c #030B4D",
"i+	c #AEB6F8",
"j+	c #DFE2FF",
"k+	c #9098DA",
"l+	c #969EE0",
"m+	c #99A1E8",
"n+	c #8991D4",
"o+	c #CCD1FA",
"p+	c #BCC1F3",
"q+	c #B2B8EF",
"r+	c #B6BCEF",
"s+	c #BCC1EF",
"t+	c #CACEF3",
"u+	c #D6DAFA",
"v+	c #D6DAFE",
"w+	c #FDFDFF",
"x+	c #EAECFF",
"y+	c #EDEFFF",
"z+	c #F0F1FF",
"A+	c #B2BAFC",
"B+	c #8E96D8",
"C+	c #979FE1",
"D+	c #7179C4",
"E+	c #7C84CF",
"F+	c #8890D2",
"G+	c #CBD1FF",
"H+	c #D0D5FF",
"I+	c #7D85C7",
"J+	c #777FC2",
"K+	c #A6AEE9",
"L+	c #BCC2F4",
"M+	c #B1B8EE",
"N+	c #B3B9ED",
"O+	c #BEC3F0",
"P+	c #C3C9F3",
"Q+	c #CFD4F8",
"R+	c #E2E6FE",
"S+	c #E1E4FF",
"T+	c #F8F9FF",
"U+	c #D5DAFF",
"V+	c #9098DC",
"W+	c #6870BE",
"X+	c #8189D4",
"Y+	c #868ED0",
"Z+	c #BDC4FF",
"`+	c #C2C8FF",
" @	c #7A83B8",
".@	c #7C83BC",
"+@	c #646CAE",
"@@	c #A2AAED",
"#@	c #B4BCF8",
"$@	c #B7BEF3",
"%@	c #B8BEF0",
"&@	c #BEC3EE",
"*@	c #CACEF4",
"=@	c #C9CEF9",
"-@	c #CED3FD",
";@	c #FCFCFF",
">@	c #8B93DA",
",@	c #676FBE",
"'@	c #939BE2",
")@	c #B0B8FA",
"!@	c #B3BBFD",
"~@	c #858DCF",
"{@	c #BDC0ED",
"]@	c #CBD5FA",
"^@	c #F0EDA9",
"/@	c #C0C7FC",
"(@	c #828ACC",
"_@	c #757DBF",
":@	c #848CCE",
"<@	c #949CDF",
"[@	c #ADB5FA",
"}@	c #BFC5F3",
"|@	c #B9BEEF",
"1@	c #BBC0EE",
"2@	c #B7BDEF",
"3@	c #C3C8F3",
"4@	c #D8DCFA",
"5@	c #E4E7FD",
"6@	c #9199E0",
"7@	c #6E76C6",
"8@	c #A3ABF0",
"9@	c #B4BCFE",
"0@	c #B9C1FF",
"a@	c #BAC2FF",
"b@	c #7B76A7",
"c@	c #A5A6D4",
"d@	c #CFD9FF",
"e@	c #FFFEF4",
"f@	c #FDEFE2",
"g@	c #FAE3E2",
"h@	c #EBE9FB",
"i@	c #CED3FF",
"j@	c #878FD1",
"k@	c #838BCD",
"l@	c #878FCF",
"m@	c #A3ABED",
"n@	c #D8DCFD",
"o@	c #D1D5FA",
"p@	c #C5C9F5",
"q@	c #B5BBF0",
"r@	c #B1B7EC",
"s@	c #959EE7",
"t@	c #AFB8FB",
"u@	c #BEC5FF",
"v@	c #C0C7FF",
"w@	c #98B3E4",
"x@	c #BFCEE8",
"y@	c #E3E8D6",
"z@	c #F5CECD",
"A@	c #E54F48",
"B@	c #E1534D",
"C@	c #F9D2A8",
"D@	c #FBFDDC",
"E@	c #EFF7FB",
"F@	c #C3C9FF",
"G@	c #ADB5F7",
"H@	c #8188C7",
"I@	c #5B669F",
"J@	c #8189CB",
"K@	c #D4D9FF",
"L@	c #D6DBFF",
"M@	c #D7DCFF",
"N@	c #D9DDFF",
"O@	c #BCC3FF",
"P@	c #8D95D7",
"Q@	c #8B6C61",
"R@	c #9FC2FD",
"S@	c #BFCBE0",
"T@	c #C1C0BE",
"U@	c #8D8C8A",
"V@	c #BBA8AA",
"W@	c #BB4D5A",
"X@	c #EB9739",
"Y@	c #E8ED28",
"Z@	c #7BC492",
"`@	c #48AFD7",
" #	c #C3DEF3",
".#	c #FAF9FC",
"+#	c #7282BD",
"@#	c #63658A",
"##	c #787FBD",
"$#	c #C9CFFF",
"%#	c #CAD0FF",
"&#	c #876D6B",
"*#	c #9EC1FE",
"=#	c #CBDEFF",
"-#	c #FFFEE8",
";#	c #FAE2C1",
">#	c #F57977",
",#	c #CD9080",
"'#	c #CCD4AE",
")#	c #D1CDA0",
"!#	c #8BAB74",
"~#	c #2D9BCE",
"{#	c #549BD3",
"]#	c #A9A8CE",
"^#	c #CBC5DE",
"/#	c #92A6E6",
"(#	c #8581AD",
"_#	c #3E436D",
":#	c #6F76B2",
"<#	c #BBC2FE",
"[#	c #BCC3FE",
"}#	c #C5CCFF",
"|#	c #BFC6FF",
"1#	c #82696B",
"2#	c #A6C6FD",
"3#	c #CFE1FF",
"4#	c #FEFCC7",
"5#	c #FEF99A",
"6#	c #FBEAEA",
"7#	c #FEE793",
"8#	c #FFFF7F",
"9#	c #8EB0C1",
"0#	c #92A9C4",
"a#	c #D7D9E0",
"b#	c #C4BDCD",
"c#	c #B7ABCE",
"d#	c #F1F0F7",
"e#	c #C1D4F4",
"f#	c #807879",
"g#	c #785543",
"h#	c #59423C",
"i#	c #3E3F60",
"j#	c #4F517B",
"k#	c #596099",
"l#	c #838BC9",
"m#	c #8D94D5",
"n#	c #B8C0FF",
"o#	c #8A92D4",
"p#	c #7E6871",
"q#	c #83B0FE",
"r#	c #88B4FF",
"s#	c #D7E6FF",
"t#	c #FCF8A3",
"u#	c #FEFAA4",
"v#	c #FEFBB3",
"w#	c #FEFBB7",
"x#	c #FFFFFB",
"y#	c #FBFEFF",
"z#	c #E8EFF6",
"A#	c #D8D3DA",
"B#	c #E6E4E6",
"C#	c #C7C7C4",
"D#	c #A5C0EE",
"E#	c #455E89",
"F#	c #553D34",
"G#	c #4F4048",
"H#	c #604F5B",
"I#	c #535688",
"J#	c #6E555D",
"K#	c #8CB1F1",
"L#	c #95BBFC",
"M#	c #AFCCFE",
"N#	c #DFE9D5",
"O#	c #FAF9C7",
"P#	c #FEF996",
"Q#	c #FEFDD6",
"R#	c #FFFEEB",
"S#	c #FEFEFE",
"T#	c #FAFCFE",
"U#	c #84A9E7",
"V#	c #3B547F",
"W#	c #6B89BC",
"X#	c #86ACEC",
"Y#	c #93B9FA",
"Z#	c #A8C8F5",
"`#	c #EDF0B5",
" $	c #FBF8A3",
".$	c #FEFBC1",
"+$	c #F7FAFE",
"@$	c #7AA2E5",
"#$	c #304872",
"$$	c #5F82BF",
"%$	c #82A8E9",
"&$	c #88B4FC",
"*$	c #B1CBF9",
"=$	c #7DA2E1",
"-$	c #223961",
"                                                                ",
"                                      . +                       ",
"                                    @ # $ % & * = -             ",
"                                    ; > > , ' ) ! ~ { ] ^       ",
"                                  / ( _ : < < [ } < | 1 2 3     ",
"                                  4 5 } 6 7 8 9 0 a b c d e     ",
"                                f g h i j k l m n o p q r       ",
"                              s t u v w l x y z A B C D E       ",
"                              F G | k H I J K L M N n O P       ",
"                              Q ' 9 R z S T U V W X Y Z         ",
"                            `  .j ..B +.@.#.$.%.B &.*.=.        ",
"                  -.;.>.,.'.).[ !.~.{.T x $.~.%.].^./.          ",
"              (._.:.<.[.}.|.1.N 2.3.4.5.6.V %.7.8.9.0.          ",
"            a.b.c.d.e.f.g.h.i.j.k.l.m.n.o.n.B p.q.r.            ",
"          s.t.u.u.v.w.x.y.x.z.A.B.C.D.E.F.G.H.I.J.K.L.M.N.      ",
"        O.P.Q.R.S.T.U.V.W.X.Y.Z.`. +.+++@+#+$+%+&+*+=+-+;+>+,+  ",
"        '+)+*+> , !+~+{+*+]+^+/+(+_+:+<+[+}+|+y.1+2+*+3+4+5+6+  ",
"        7+8+9+0+a+b+*+, , !+c+d+e+e+!+;.f+g+h+i+*+*+j+>.k+l+m+  ",
"        n+o+p+q+r+s+t+u+v+d+w+w+{+U.x+y+!+x+b+*+*+z+A+B+C+D+E+  ",
"        F+G+H+I+J+K+L+M+N+O+P+Q+R+S+T+w+S.U+U.*+*+j+5+V+W+X+6+  ",
"        Y+Z+`+ @.@h.+@v.@@#@$@%@N+&@*@=@-@;@x+z+S.3+>@,@'@)@!@  ",
"        ~@)@{@]@^@/@5+'+(@g._@:@<@[@}@|@1@2@3@4@5@6@7@8@9@0@a@  ",
"        b@c@d@e@f@g@h@i@6+>.j@k@l@n+B+m@n@o@p@q@r@s@t@a@u@v@'+  ",
"        w@x@y@z@A@B@C@D@E@~+F@G@C+H@I@J@K@L@M@N@1+O@Z+v@3+P@Q@  ",
"      R@S@T@U@V@W@X@Y@Z@`@ #.#e+1++#@###$#%#i@H+H+Z+u@3+B+&#    ",
"    *#=#-#;#>#,#'#)#!#~#{#]#^#w+/#(#_#:#<#[#`+3+}#O@|#k+1#      ",
"  2#3#4#5#> 6#7#8#9#0#a#b#c#d#e#f#g#h#i#j#k#l#m#5+n#o#p#        ",
"q#r#s#t#u#v#w#> x#y#z#A#B#C#D#E#          F#G#H#I#W.J#          ",
"    K#L#M#N#O#P#Q#R#> S#T#U#V#                                  ",
"        W#X#Y#Z#`# $.$+$@$#$                                    ",
"              $$%$&$*$=$-$                                      ",
"                                                                "};
