/* XPM */
static char * samba_xpm[] = {
"48 48 767 2",
"  	c None",
". 	c #575757",
"+ 	c #535353",
"@ 	c #505050",
"# 	c #4D4D4D",
"$ 	c #4A4A4A",
"% 	c #474747",
"& 	c #444444",
"* 	c #414141",
"= 	c #3E3E3E",
"- 	c #3B3B3B",
"; 	c #373737",
"> 	c #353535",
", 	c #313131",
"' 	c #2F2F2F",
") 	c #2B2B2B",
"! 	c #282828",
"~ 	c #252525",
"{ 	c #222222",
"] 	c #1F1F1F",
"^ 	c #1C1C1C",
"/ 	c #1A1A1A",
"( 	c #181818",
"_ 	c #464646",
": 	c #434343",
"< 	c #404040",
"[ 	c #3D3D3D",
"} 	c #3A3A3A",
"| 	c #343434",
"1 	c #2E2E2E",
"2 	c #1B1B1B",
"3 	c #191919",
"4 	c #4F4F4F",
"5 	c #4C4C4C",
"6 	c #FFFFFF",
"7 	c #FEFBFB",
"8 	c #FBF2F2",
"9 	c #F8E3E3",
"0 	c #F3CECE",
"a 	c #ECB4B4",
"b 	c #E59393",
"c 	c #DB6E6E",
"d 	c #303030",
"e 	c #FBFCFD",
"f 	c #F2F5F9",
"g 	c #E4EAF2",
"h 	c #D1DBEB",
"i 	c #B8C8E0",
"j 	c #9AB2D3",
"k 	c #7898C3",
"l 	c #494949",
"m 	c #FEFCFC",
"n 	c #F6DDDD",
"o 	c #F2C9C9",
"p 	c #EDB4B4",
"q 	c #E79C9C",
"r 	c #E28585",
"s 	c #DC6F6F",
"t 	c #D15555",
"u 	c #2D2D2D",
"v 	c #2A2A2A",
"w 	c #FCFDFD",
"x 	c #DEE5EF",
"y 	c #CBD6E8",
"z 	c #B8C8DF",
"A 	c #A3B7D6",
"B 	c #8DA9CE",
"C 	c #7798C5",
"D 	c #6488B8",
"E 	c #333333",
"F 	c #686868",
"G 	c #0D0D0F",
"H 	c #141416",
"I 	c #28282A",
"J 	c #2B2B2D",
"K 	c #616060",
"L 	c #484848",
"M 	c #454545",
"N 	c #FCF5F5",
"O 	c #EEBBBB",
"P 	c #EAA9A9",
"Q 	c #E59494",
"R 	c #E07F7F",
"S 	c #DB6A6A",
"T 	c #CB4F4F",
"U 	c #292929",
"V 	c #262626",
"W 	c #F5F7FB",
"X 	c #BFCDE2",
"Y 	c #ADC0DC",
"Z 	c #99B1D4",
"` 	c #86A2CB",
" .	c #7697C2",
"..	c #6282B4",
"+.	c #575758",
"@.	c #040405",
"#.	c #212123",
"$.	c #4F4F50",
"%.	c #323234",
"&.	c #242426",
"*.	c #1E1D1E",
"=.	c #2C2C2B",
"-.	c #131213",
";.	c #F9E9E9",
">.	c #E79A9A",
",.	c #E28989",
"'.	c #DE7575",
").	c #D96060",
"!.	c #C54545",
"~.	c #232323",
"{.	c #EAEEF5",
"].	c #A0B5D5",
"^.	c #8FA8CE",
"/.	c #7D9AC7",
"(.	c #6D8EC0",
"_.	c #5E7FB0",
":.	c #363636",
"<.	c #0C0C0E",
"[.	c #121214",
"}.	c #404042",
"|.	c #2D2D2F",
"1.	c #020204",
"2.	c #000000",
"3.	c #F5D8D8",
"4.	c #DE7979",
"5.	c #DA6767",
"6.	c #D65555",
"7.	c #BD3939",
"8.	c #DAE2EF",
"9.	c #809DC8",
"0.	c #7190C1",
"a.	c #6487BD",
"b.	c #597AAC",
"c.	c #575656",
"d.	c #08080A",
"e.	c #0C0C0C",
"f.	c #141314",
"g.	c #070708",
"h.	c #F0C3C3",
"i.	c #D75858",
"j.	c #D34646",
"k.	c #B72E2E",
"l.	c #C6D3E6",
"m.	c #7C9AC7",
"n.	c #7090C1",
"o.	c #6389BB",
"p.	c #5981B7",
"q.	c #5276A6",
"r.	c #302F2F",
"s.	c #030305",
"t.	c #09090A",
"u.	c #070709",
"v.	c #010103",
"w.	c #D03737",
"x.	c #B01F1F",
"y.	c #AFC2DC",
"z.	c #7698C5",
"A.	c #7495C1",
"B.	c #698BBE",
"C.	c #5E83BB",
"D.	c #537DB5",
"E.	c #4D75B2",
"F.	c #4B6DA0",
"G.	c #232325",
"H.	c #0F0F11",
"I.	c #5B5A5A",
"J.	c #161413",
"K.	c #030304",
"L.	c #040406",
"M.	c #1F1F20",
"N.	c #5F5E5D",
"O.	c #313030",
"P.	c #0F0E0F",
"Q.	c #E28B8B",
"R.	c #D65353",
"S.	c #D44B4B",
"T.	c #D14040",
"U.	c #CF3434",
"V.	c #CC2525",
"W.	c #A71111",
"X.	c #171717",
"Y.	c #141414",
"Z.	c #92ACCF",
"`.	c #6288BB",
" +	c #5E82B9",
".+	c #557CB6",
"++	c #4B74B2",
"@+	c #4270AE",
"#+	c #3F6BAD",
"$+	c #3F6399",
"%+	c #DBDBDB",
"&+	c #252526",
"*+	c #DDDCDC",
"=+	c #19191A",
"-+	c #D03D3D",
";+	c #CE3535",
">+	c #CD2C2C",
",+	c #CA2121",
"'+	c #C81313",
")+	c #A00303",
"!+	c #111111",
"~+	c #7093C1",
"{+	c #4972B0",
"]+	c #436DAC",
"^+	c #3866AB",
"/+	c #3160A6",
"(+	c #2E5EA5",
"_+	c #335A90",
":+	c #323233",
"<+	c #C0C0C0",
"[+	c #4B4B4A",
"}+	c #D9D9D8",
"|+	c #111112",
"1+	c #DAD9D9",
"2+	c #CECECE",
"3+	c #515151",
"4+	c #2C2C2C",
"5+	c #D13E3E",
"6+	c #C62727",
"7+	c #C02222",
"8+	c #B81C1C",
"9+	c #B21313",
"0+	c #A80A0A",
"a+	c #A10000",
"b+	c #8B0000",
"c+	c #101010",
"d+	c #0D0D0D",
"e+	c #4A74B2",
"f+	c #3461A4",
"g+	c #305C9E",
"h+	c #285696",
"i+	c #204E8D",
"j+	c #194487",
"k+	c #1A4484",
"l+	c #285087",
"m+	c #42403F",
"n+	c #C7C6C7",
"o+	c #C8C4BA",
"p+	c #4F411D",
"q+	c #6F6341",
"r+	c #93918B",
"s+	c #0B0B0C",
"t+	c #C2C2C2",
"u+	c #696969",
"v+	c #161616",
"w+	c #131313",
"x+	c #0A0A0A",
"y+	c #070707",
"z+	c #040404",
"A+	c #010101",
"B+	c #0F0F0F",
"C+	c #3C3B3A",
"D+	c #8F8C8A",
"E+	c #725923",
"F+	c #C99814",
"G+	c #E2B819",
"H+	c #D3AE1F",
"I+	c #C3A523",
"J+	c #64541D",
"K+	c #B6AD93",
"L+	c #151515",
"M+	c #121212",
"N+	c #090909",
"O+	c #060606",
"P+	c #030303",
"Q+	c #3C3B39",
"R+	c #785A23",
"S+	c #D19D1B",
"T+	c #E7B510",
"U+	c #EBC616",
"V+	c #F3D42D",
"W+	c #F5D622",
"X+	c #F1D014",
"Y+	c #DBB723",
"Z+	c #513E11",
"`+	c #242424",
" @	c #212121",
".@	c #FDFDFB",
"+@	c #F8F8F2",
"@@	c #F0F0E2",
"#@	c #E5E4CC",
"$@	c #D8D6B0",
"%@	c #C7C58E",
"&@	c #B4B166",
"*@	c #050505",
"=@	c #020202",
"-@	c #F7FAF6",
";@	c #EBF4E8",
">@	c #DAEAD5",
",@	c #C6DEBA",
"'@	c #ABCE9E",
")@	c #91C07F",
"!@	c #86BB72",
"~@	c #5B5752",
"{@	c #986A0A",
"]@	c #E2A90B",
"^@	c #EEBD11",
"/@	c #F0CD1B",
"(@	c #F5D623",
"_@	c #EFCD17",
":@	c #D5AD16",
"<@	c #B07A0C",
"[@	c #554110",
"}@	c #050506",
"|@	c #0D0D0E",
"1@	c #1E1E1E",
"2@	c #FDFDFC",
"3@	c #ECECDB",
"4@	c #E2E1C5",
"5@	c #D7D6B0",
"6@	c #CBCB98",
"7@	c #C0BE7F",
"8@	c #B4B267",
"9@	c #A4A14D",
"0@	c #FCFDFC",
"a@	c #E1EEDB",
"b@	c #D0E3C8",
"c@	c #BED9B2",
"d@	c #A9CE9B",
"e@	c #98C585",
"f@	c #8CBD76",
"g@	c #84B66F",
"h@	c #5D4518",
"i@	c #C28F11",
"j@	c #DFB613",
"k@	c #E3C015",
"l@	c #D0A917",
"m@	c #C49113",
"n@	c #C39C44",
"o@	c #43392E",
"p@	c #141415",
"q@	c #464544",
"r@	c #100F10",
"s@	c #504F4E",
"t@	c #1D1D1D",
"u@	c #F9F9F5",
"v@	c #DCDBB7",
"w@	c #D3D1A4",
"x@	c #C7C68F",
"y@	c #BCBA79",
"z@	c #B1AE62",
"A@	c #9F9B46",
"B@	c #F6FAF4",
"C@	c #C3DEB9",
"D@	c #B3D4A7",
"E@	c #A2CA93",
"F@	c #94C281",
"G@	c #88BC74",
"H@	c #84B46F",
"I@	c #424243",
"J@	c #666666",
"K@	c #A69169",
"L@	c #B48514",
"M@	c #BF8A0B",
"N@	c #BD870B",
"O@	c #BE8F27",
"P@	c #C1AD7F",
"Q@	c #CFCDCC",
"R@	c #858585",
"S@	c #5B5B5B",
"T@	c #1D1D1E",
"U@	c #F3F3E8",
"V@	c #CACA95",
"W@	c #C1BF82",
"X@	c #B7B66F",
"Y@	c #ADAA58",
"Z@	c #96953C",
"`@	c #A6CD98",
" #	c #9AC589",
".#	c #8BBD7A",
"+#	c #89BB73",
"@#	c #84B372",
"##	c #151517",
"$#	c #8C8B8B",
"%#	c #C3C3C3",
"&#	c #B2A385",
"*#	c #B09069",
"=#	c #B39C73",
"-#	c #B9B2A6",
";#	c #D1D0D0",
">#	c #F9F8F8",
",#	c #E0E0E0",
"'#	c #2F2F30",
")#	c #464647",
"!#	c #EAE9D6",
"~#	c #B9B872",
"{#	c #B1AE5E",
"]#	c #A7A44C",
"^#	c #8E8D30",
"/#	c #DDECD7",
"(#	c #99C488",
"_#	c #8CBF7B",
":#	c #87BB72",
"<#	c #86BB73",
"[#	c #3D3C3D",
"}#	c #E8E8E8",
"|#	c #BCBCBC",
"1#	c #B5B5B5",
"2#	c #C4C4C4",
"3#	c #DEDEDE",
"4#	c #F7F7F7",
"5#	c #FEFEFE",
"6#	c #989898",
"7#	c #060608",
"8#	c #171718",
"9#	c #DFDEC0",
"0#	c #A8A54F",
"a#	c #A09F3D",
"b#	c #848325",
"c#	c #CBE1C2",
"d#	c #96C483",
"e#	c #91C07E",
"f#	c #87BB76",
"g#	c #84BA6E",
"h#	c #85B96F",
"i#	c #606060",
"j#	c #B1B1B1",
"k#	c #FCFCFC",
"l#	c #E6E6E6",
"m#	c #EDEDED",
"n#	c #050507",
"o#	c #D2D1A5",
"p#	c #98972D",
"q#	c #7B7916",
"r#	c #B4D4A8",
"s#	c #84B96C",
"t#	c #7FB769",
"u#	c #7DB466",
"v#	c #7AB466",
"w#	c #83BA6D",
"x#	c #404041",
"y#	c #ECECEC",
"z#	c #FDFDFD",
"A#	c #F4F4F4",
"B#	c #565657",
"C#	c #0B0B0B",
"D#	c #080808",
"E#	c #C3C184",
"F#	c #A7A34A",
"G#	c #A2A141",
"H#	c #9D9C36",
"I#	c #95942A",
"J#	c #8F8D1A",
"K#	c #717008",
"L#	c #99C689",
"M#	c #70AD57",
"N#	c #70AD54",
"O#	c #6EAD57",
"P#	c #76B15F",
"Q#	c #101011",
"R#	c #5C5C5C",
"S#	c #DCDCDC",
"T#	c #F1F1F1",
"U#	c #F6F6F6",
"V#	c #EEEEEE",
"W#	c #FAFAFA",
"X#	c #FBFBFB",
"Y#	c #E7E7E7",
"Z#	c #DDDDDD",
"`#	c #D5D5D5",
" $	c #808080",
".$	c #6D6D6D",
"+$	c #B1B05F",
"@$	c #9B9A32",
"#$	c #97952A",
"$$	c #929021",
"%$	c #8C8815",
"&$	c #858408",
"*$	c #605E00",
"=$	c #7BB464",
"-$	c #5BA240",
";$	c #5DA442",
">$	c #63A84A",
",$	c #464545",
"'$	c #868585",
")$	c #E2E2E2",
"!$	c #F9F9F9",
"~$	c #CCCCCC",
"{$	c #C5C5C5",
"]$	c #171617",
"^$	c #9C9934",
"/$	c #8D8B1D",
"($	c #868418",
"_$	c #7F7F11",
":$	c #777508",
"<$	c #6E6A00",
"[$	c #5E5A00",
"}$	c #484500",
"|$	c #57A33C",
"1$	c #459428",
"2$	c #49942F",
"3$	c #57983E",
"4$	c #161617",
"5$	c #383838",
"6$	c #ADADAD",
"7$	c #201F1F",
"8$	c #686767",
"9$	c #A0A0A0",
"0$	c #3F3D3C",
"a$	c #161618",
"b$	c #272727",
"c$	c #151413",
"d$	c #393939",
"e$	c #8D8D8D",
"f$	c #333334",
"g$	c #09090B",
"h$	c #0E0D0D",
"i$	c #939393",
"j$	c #CBCBCB",
"k$	c #F8F8F8",
"l$	c #AFAFAF",
"m$	c #505051",
"n$	c #393634",
"o$	c #605E5D",
"p$	c #5D5D5D",
"q$	c #141313",
"r$	c #131314",
"s$	c #C7C7C7",
"t$	c #BFBFBF",
"u$	c #1F1F21",
"v$	c #666667",
"w$	c #3E3E3D",
"x$	c #0E0E0F",
"y$	c #171616",
"z$	c #333232",
"A$	c #D2D2D2",
"B$	c #F2F2F2",
"C$	c #E3E3E3",
"D$	c #F0F0F0",
"E$	c #EFEFEF",
"F$	c #6A6A6B",
"G$	c #4C4C4D",
"H$	c #171719",
"I$	c #292829",
"J$	c #585858",
"K$	c #6C6B6B",
"L$	c #2B2A2A",
"M$	c #464546",
"N$	c #D7D7D7",
"O$	c #C6C6C6",
"P$	c #79797A",
"Q$	c #5D5C5D",
"R$	c #262526",
"S$	c #555555",
"T$	c #110E0A",
"U$	c #181715",
"V$	c #535252",
"W$	c #DFDFDF",
"X$	c #F5F5F5",
"Y$	c #212122",
"Z$	c #919191",
"`$	c #7B7B7C",
" %	c #545353",
".%	c #121213",
"+%	c #2B2B2C",
"@%	c #A3710C",
"#%	c #C8980E",
"$%	c #AE870F",
"%%	c #453C27",
"&%	c #B8B8B8",
"*%	c #FCFBF2",
"=%	c #F1E5B4",
"-%	c #B6A87E",
";%	c #211F1C",
">%	c #636364",
",%	c #383839",
"'%	c #2C2B2A",
")%	c #474545",
"!%	c #F1B90E",
"~%	c #F4BD0E",
"{%	c #B68C0D",
"]%	c #B4B4B4",
"^%	c #E9E9E9",
"/%	c #F7EFD6",
"(%	c #E7B91A",
"_%	c #D2AB14",
":%	c #1C1710",
"<%	c #39393B",
"[%	c #313133",
"}%	c #0A0A0B",
"|%	c #3E3318",
"1%	c #81580E",
"2%	c #E5AE0D",
"3%	c #F5BD0E",
"4%	c #F2BC0E",
"5%	c #806410",
"6%	c #201E1D",
"7%	c #999898",
"8%	c #E7DEC7",
"9%	c #EAB313",
"0%	c #D19D0D",
"a%	c #261D0D",
"b%	c #181207",
"c%	c #AA8214",
"d%	c #E8BA17",
"e%	c #C6910C",
"f%	c #E6AE0C",
"g%	c #F1B90D",
"h%	c #F4BC0E",
"i%	c #F5C01A",
"j%	c #F5BF15",
"k%	c #E3B416",
"l%	c #3A2C0C",
"m%	c #727272",
"n%	c #C7BDA5",
"o%	c #E0A90F",
"p%	c #DBA30B",
"q%	c #966A0F",
"r%	c #5C400A",
"s%	c #654807",
"t%	c #A5750B",
"u%	c #ECB30D",
"v%	c #EEB812",
"w%	c #F6C42A",
"x%	c #F5C226",
"y%	c #F5C93C",
"z%	c #F6CB43",
"A%	c #F5BE14",
"B%	c #F3C012",
"C%	c #AA8813",
"D%	c #0F0C07",
"E%	c #767676",
"F%	c #E1E1E1",
"G%	c #BEB4A0",
"H%	c #D79F0E",
"I%	c #E6AE0A",
"J%	c #D49B13",
"K%	c #CD9410",
"L%	c #D19B0F",
"M%	c #E6AE0E",
"N%	c #F0BD0F",
"O%	c #E9B10F",
"P%	c #F6C630",
"Q%	c #F7D055",
"R%	c #F7D15B",
"S%	c #F6C83A",
"T%	c #EABB14",
"U%	c #624A0B",
"V%	c #040304",
"W%	c #414142",
"X%	c #EAEAEA",
"Y%	c #978C77",
"Z%	c #D0970A",
"`%	c #EFBE26",
" &	c #EBB30E",
".&	c #E7AF0B",
"+&	c #EAB20D",
"@&	c #F1BA0E",
"#&	c #F3BB0E",
"$&	c #E5AE13",
"%&	c #F5C42C",
"&&	c #F7D464",
"*&	c #F8D35F",
"=&	c #F5C737",
"-&	c #F3BD0E",
";&	c #CDA310",
">&	c #70674E",
",&	c #BEBEBE",
"'&	c #F3F3F3",
")&	c #CACACA",
"!&	c #8B8B8B",
"~&	c #3F321C",
"{&	c #CE960A",
"]&	c #EFBF2E",
"^&	c #F5C940",
"/&	c #F5BE12",
"(&	c #E8B10E",
"_&	c #97680C",
":&	c #E4AE13",
"<&	c #F2C22E",
"[&	c #F6C738",
"}&	c #F6CD4C",
"|&	c #F6C735",
"1&	c #EFBD0F",
"2&	c #CBAA47",
"3&	c #DFDDDB",
"4&	c #D3D3D3",
"5&	c #D8D8D8",
"6&	c #D4D4D4",
"7&	c #BABABA",
"8&	c #656565",
"9&	c #0A0A0C",
"0&	c #3D2A08",
"a&	c #CB930A",
"b&	c #F2C029",
"c&	c #F7D360",
"d&	c #F7CE4F",
"e&	c #F2BB0E",
"f&	c #DBA60E",
"g&	c #D29E0C",
"h&	c #93650C",
"i&	c #A2700C",
"j&	c #DFA90E",
"k&	c #E7B624",
"l&	c #EAB518",
"m&	c #EFBD22",
"n&	c #F5C01C",
"o&	c #F5BD10",
"p&	c #EEB90E",
"q&	c #CE980C",
"r&	c #85724E",
"s&	c #9B9B9B",
"t&	c #6B6B6B",
"u&	c #242425",
"v&	c #483106",
"w&	c #CC940A",
"x&	c #F1BC18",
"y&	c #F7CB46",
"z&	c #F7D15F",
"A&	c #EFBB1C",
"B&	c #F2BA0E",
"C&	c #E9B20E",
"D&	c #DDA70D",
"E&	c #C2900E",
"F&	c #D6A00C",
"G&	c #DAA30C",
"H&	c #DCA60E",
"I&	c #DFAA0E",
"J&	c #EBB40E",
"K&	c #F0B80D",
"L&	c #CB940E",
"M&	c #62430A",
"N&	c #573B0A",
"O&	c #C78E0A",
"P&	c #EFB70D",
"Q&	c #EFB915",
"R&	c #E5B527",
"S&	c #E6B217",
"T&	c #E8AF0E",
"U&	c #D49D0C",
"V&	c #A68147",
"W&	c #C68E0A",
"X&	c #D29A0B",
"Y&	c #D7A00C",
"Z&	c #EBB30D",
"`&	c #EDB50E",
" *	c #DEA50C",
".*	c #5D3F0D",
"+*	c #0D0B09",
"@*	c #0A090B",
"#*	c #4B3309",
"$*	c #B37D09",
"%*	c #DDA40B",
"&*	c #E8B00C",
"**	c #DCA411",
"=*	c #8C7655",
"-*	c #8E6412",
";*	c #B57E09",
">*	c #BC8509",
",*	c #A8740D",
"'*	c #7C5209",
")*	c #443316",
"!*	c #525150",
"~*	c #747372",
"{*	c #624A22",
"]*	c #926109",
"^*	c #B9820A",
"/*	c #C38B0A",
"(*	c #BD8509",
"_*	c #887C6A",
":*	c #724C11",
"<*	c #61410B",
"[*	c #604922",
"}*	c #827F7B",
"|*	c #725526",
"1*	c #76500E",
"2*	c #7B5516",
"                                                                                                ",
"                                                                                                ",
"    . + @ # $ % & * = - ; > , ' ) ! ~ { ] ^ / (                                                 ",
"    + @ # $ _ : < [ } ; | , 1 ) ! ~ { ] 2 3 3 2                                                 ",
"    4 5 6 7 8 9 0 a b c d 1 6 e f g h i j k ^ ~                                                 ",
"    5 l m n o p q r s t u v w x y z A B C D { E F G H I J v K                                   ",
"    L M N o O P Q R S T U V W y X Y Z `  ...v +.@.#.$.%.&.*.=.-.                                ",
"    & * ;.p P >.,.'.).!.V ~.{.z Y ].^./.(._.:.<.[.}.|.1.1./ 2.2.K                               ",
"    * = 3.q Q ,.4.5.6.7.{ ] 8.A Z ^.9.0.a.b.c.1.I %.d.1.1.e.f.g.2.                              ",
"    [ } h.r R '.5.i.j.k.] 2 l.B ` m.n.o.p.q.r.s.t.g.1.1.1.s.u.1.v.                              ",
"    } :.P s S ).6.j.w.x.2 ( y.z.A.B.C.D.E.F.G.H.I.J.K.L.M.N.O.P.v.K                             ",
"    :.E Q.i.R.S.T.U.V.W.X.Y.Z.`. +.+++@+#+$+&.N.%+N.s.&+N.*+N.=+v.v.                            ",
"    E d 5.T.-+;+>+,+'+)+Y.!+~+++{+]+^+/+(+_+:+<+[+}+|+K 1+[+2+3+1.2.                            ",
"    ' 4+5+6+7+8+9+0+a+b+c+d+e+f+g+h+i+j+k+l+m+n+) o+p+q+r+s+t+u+2.2.                            ",
"    ) ! ~ { ] ^ 3 v+w+c+d+x+y+z+2.2.A+z+B+! C+D+E+F+G+H+I+J+K+2.2.2.                            ",
"    ! ~ { ] 2 ( L+M+B+e.N+O+P+2.2.2.A+z+B+! Q+R+S+T+U+V+W+X+Y+Z+1.2.                            ",
"    `+ @6 .@+@@@#@$@%@&@*@=@6 -@;@>@,@'@)@!@~@{@]@^@/@(@_@:@<@[@@.}@|@                          ",
"     @1@2@3@4@5@6@7@8@9@=@2.0@a@b@c@d@e@f@g@3+h@i@j@k@l@m@<@n@o@p@q@r@s@                        ",
"    t@/ u@4@v@w@x@y@z@A@2.2.B@b@C@D@E@F@G@H@I@J@K@L@M@N@O@P@Q@R@d.S@{ T@                        ",
"    3 v+U@5@w@V@W@X@Y@Z@2.2.;@c@D@`@ #.#+#@###$#%#&#*#=#-#;#>#,#'#&.)#L.K                       ",
"    v+w+!#6@x@W@~#{#]#^#2.2./#d@E@(#_#:#<#[ [#}#,#|#1#2#3#4#5#5#6#7#}.<.8#                      ",
"    M+B+9#7@y@X@{#0#a#b#2.2.c#d#e#f#g#h#i#s+j#5#k#l#%+m#k#5#5#5#,#{ n#n#s.[                     ",
"    B+e.o#8@z@Y@]#a#p#q#2.2.r#s#t#u#v#w#d.x#y#5#5#z#z#5#5#5#5#z#A#4 1.1.1.n#B#                  ",
"    C#D#E#0#F#G#H#I#J#K#2.2.L#M#N#O#P#Q#1.R#S#T#U#y#V#W#X#T#Y#Z#`# $*@z+P+1.7#.$                ",
"    y+*@+$H#@$#$$$%$&$*$2.2.=$-$;$>$,$1.u.'$)$!$z#m#X#z#5#W#m#3#~${$l Y.3 L.1.]$                ",
"    z+A+^$/$($_$:$<$[$}$2.2.|$1$2$3$4$v+5$Z#k#z#z#k#z#z#z#z#5#k#!$Z#6$d+! 7$1.L.8$              ",
"    2.2.2.2.2.2.2.2.2.2.2.2.=@x+2 5$3 c+9$m#z#5#z#k#5#z#z#z#k#5#z#X#Z#4 } 0$a$1.b$              ",
"    2.2.2.2.2.2.2.2.2.2.2.A+O+!+V # c$d$t+)$z#z#X#!$z#5#z#5#z#k#z#k#4#e$] f$) 1.g$              ",
"                                  1@h$i$j$k$z#k#A#k$X#k#z#5#z#z#z#5#U#l$v+m$n$1.s.o$            ",
"        6  $                    p$q$r$s$Y#z#z#z#,#4#k#k#k#z#z#z#5#k#T#t$u$v$: 1.1.w$            ",
"        6  $                    x$y$z$A$B$z#z#5#C$D$k#z#5#z#z#z#z#z#E$2#]$F$G$s.H$I$            ",
"        J$4+                  K$1.L$M$N$B$z#k#k#Z#U#z#k#k#z#z#z#5#z#T#O$3 P$Q$J I R$            ",
"        J$4+                  S$T$U$V$Z#V#z#z#k#W$4#z#z#k#z#5#z#k#z#X$<+Y$Z$`$ %.%+%            ",
"        6  $                  @%#%$%%%&%m#z#z#z#,#B$z#z#z#X#k#k#z#*%=%-%;%>%i#,%'%)%            ",
"        6  $                @%@%!%~%{%; ]%X#k#z#^%A#k#z#5#z#z#5#k#/%(%_%:%<%[%}%|%@%            ",
"        J$4+            1%@%@%2%3%3%4%5%6%7%X$k#k$k#!$z#k#z#k#z#X#8%9%0%a%1.1.b%c%d%1%          ",
"        J$4+          1%e%f%g%h%i%j%3%k%l%G m%y#z#z#!$z#!$k#k#k#D$n%o%p%q%r%s%t%u%v%@%          ",
"        6  $          @%f%w%x%y%z%A%3%B%C%D%y+E%k$k#z#z#!$z#z#z#F%G%H%I%J%K%L%M%3%N%@%          ",
"        6  $          @%O%P%Q%R%S%3%3%3%T%U%V%W%D$z#z#5#z#z#X$X%2+Y%Z%`% &.&+&@&3%3%#&@%        ",
"        J$4+          @%$&%&&&*&=&3%3%3%-&;&>&,&'&z#k$!$X#y#3#)&!&~&{&]&^&P%/&3%3%3%h%(&_&      ",
"        J$4+          @%:&<&[&}&|&3%3%3%3%1&2&3&4&5&}#X%S#6&7&8&9&0&a&b&c&d&3%3%3%e&f&g&h&      ",
"        6  $J$J$6 6 J$i&j&k&l&m&n&o&3%3%3%p&q&r&6$,&t$1#s&t&u&s.1.v&w&x&y&z&A&B&C&D&E&1%        ",
"        6  $4+4+ $ $4+1%i&F&G&H&I&J&h%3%3%K&L&M&D#Y.t@B+P+=@1.1.s.N&O&P&Q&R&S&T&U&i&1%          ",
"                        V&1%@%@%W&X&Y&Z&`& *<@.*+*u.@*9&9&9&9&d.g.#*$*%* &&***@%1%              ",
"                              =*1%-*@%;*>*,*'*)*!*~*              {*]*^*/*(*1%                  ",
"                                    _*1%:*<*[*}*                    |*1*1%2*                    ",
"                                                                                                ",
"                                                                                                "};
