/* XPM */
static char * screensaver_xpm[] = {
"32 32 522 2",
"  	c None",
". 	c #ACD1F8",
"+ 	c #C6E0FA",
"@ 	c #D0E5FB",
"# 	c #CBE2FA",
"$ 	c #CAE2FA",
"% 	c #C9E0FA",
"& 	c #C7DFFA",
"* 	c #C6DFFA",
"= 	c #C7E1FA",
"- 	c #CBE3F9",
"; 	c #CCE3F9",
"> 	c #CDE4FA",
", 	c #CFE4FA",
"' 	c #CFE4F9",
") 	c #CFE5F9",
"! 	c #D2E5F8",
"~ 	c #D7E9F9",
"{ 	c #BAD9F9",
"] 	c #B5D6F8",
"^ 	c #85A2C5",
"/ 	c #375A86",
"( 	c #416693",
"_ 	c #4B6E9E",
": 	c #6385B3",
"< 	c #80A0C8",
"[ 	c #87A6CB",
"} 	c #8FADD2",
"| 	c #9FBCDE",
"1 	c #AEC9E7",
"2 	c #B2D0EB",
"3 	c #B7D2F0",
"4 	c #C2DBF7",
"5 	c #C5E0FA",
"6 	c #C4E0FA",
"7 	c #C1E0FA",
"8 	c #C5E1FA",
"9 	c #A9CDF5",
"0 	c #A0CBF5",
"a 	c #C8DBF0",
"b 	c #24436C",
"c 	c #0E2C4B",
"d 	c #0E2B4B",
"e 	c #0D2A49",
"f 	c #0D2A48",
"g 	c #0C2946",
"h 	c #0C2745",
"i 	c #0C2743",
"j 	c #0E2C4D",
"k 	c #113256",
"l 	c #123358",
"m 	c #14365D",
"n 	c #1B3F69",
"o 	c #1F446E",
"p 	c #3B6190",
"q 	c #CCE3FA",
"r 	c #B7D8F8",
"s 	c #A2C8F2",
"t 	c #A9CEF7",
"u 	c #CAE4FB",
"v 	c #6B87AD",
"w 	c #173659",
"x 	c #123A6D",
"y 	c #0B6C52",
"z 	c #0E366E",
"A 	c #0D356B",
"B 	c #0C3268",
"C 	c #0C3264",
"D 	c #0D305F",
"E 	c #0C2F5B",
"F 	c #0C2E56",
"G 	c #0C2D53",
"H 	c #0C2C4D",
"I 	c #0C2A49",
"J 	c #0D2945",
"K 	c #295180",
"L 	c #C9E1FB",
"M 	c #C4E0F9",
"N 	c #8BBDFA",
"O 	c #C0DCF9",
"P 	c #B2D4F9",
"Q 	c #CFDEEE",
"R 	c #264468",
"S 	c #163A65",
"T 	c #0A963E",
"U 	c #02E40F",
"V 	c #0E3772",
"W 	c #0D3570",
"X 	c #0C336E",
"Y 	c #0B326C",
"Z 	c #0A3069",
"` 	c #0A2F66",
" .	c #092E63",
"..	c #0A2D5F",
"+.	c #0A2C5B",
"@.	c #0A2C55",
"#.	c #133864",
"$.	c #A8C7E8",
"%.	c #C9E3FA",
"&.	c #C9E2FA",
"*.	c #AFD3FB",
"=.	c #578AC8",
"-.	c #A2CBF6",
";.	c #E1F3FD",
">.	c #6681A4",
",.	c #17375A",
"'.	c #153C72",
").	c #0E6F56",
"!.	c #00FF00",
"~.	c #08943D",
"{.	c #0E3570",
"].	c #0C346E",
"^.	c #0A2E62",
"/.	c #0A2D5E",
"(.	c #0A2D5A",
"_.	c #0B2C55",
":.	c #5179AC",
"<.	c #C9E3FB",
"[.	c #CAE3FB",
"}.	c #C2DFFA",
"|.	c #78AEF6",
"1.	c #2D5172",
"2.	c #B2D3F8",
"3.	c #C8E1FA",
"4.	c #C4D3E3",
"5.	c #254467",
"6.	c #173D69",
"7.	c #163D76",
"8.	c #143C75",
"9.	c #07B02E",
"0.	c #03D717",
"a.	c #0F3671",
"b.	c #0D356E",
"c.	c #0C336C",
"d.	c #0B3169",
"e.	c #0B3066",
"f.	c #0B2C58",
"g.	c #1D4578",
"h.	c #B5D3EE",
"i.	c #A1CCFF",
"j.	c #4D80B9",
"k.	c #C4DFF9",
"l.	c #B0D1F7",
"m.	c #EFF7FD",
"n.	c #587496",
"o.	c #19395D",
"p.	c #155965",
"q.	c #0BA537",
"r.	c #03E510",
"s.	c #01F208",
"t.	c #0B7B4C",
"u.	c #103771",
"v.	c #0E366F",
"w.	c #0D346C",
"x.	c #0C326A",
"y.	c #0B3166",
"z.	c #0B2F62",
"A.	c #0A2E5E",
"B.	c #0D305E",
"C.	c #6A90BF",
"D.	c #CCE4FB",
"E.	c #CBE3FB",
"F.	c #BEDDFE",
"G.	c #6EA4E9",
"H.	c #334F68",
"I.	c #A6CEF7",
"J.	c #DDEEFC",
"K.	c #B2C2D4",
"L.	c #234263",
"M.	c #193F6C",
"N.	c #09C028",
"O.	c #09B22F",
"P.	c #0F7E4E",
"Q.	c #143C74",
"R.	c #123A72",
"S.	c #113871",
"T.	c #0F366F",
"U.	c #0E356C",
"V.	c #0C336A",
"W.	c #0B3063",
"X.	c #0B2E5D",
"Y.	c #2A538A",
"Z.	c #C5DFF8",
"`.	c #CDE5FB",
" +	c #98C4FB",
".+	c #4D7DA6",
"++	c #B4D5F8",
"@+	c #C2DEF9",
"#+	c #ECF6F9",
"$+	c #557090",
"%+	c #193C61",
"&+	c #1B506F",
"*+	c #1C4276",
"=+	c #184076",
"-+	c #173F75",
";+	c #153D74",
">+	c #0F6F54",
",+	c #123A71",
"'+	c #10386F",
")+	c #0F366D",
"!+	c #0D346A",
"~+	c #0C3267",
"{+	c #0C3062",
"]+	c #12376A",
"^+	c #86A8D2",
"/+	c #CCE5FB",
"(+	c #CBE5FB",
"_+	c #B7D8FB",
":+	c #679EEC",
"<+	c #30464A",
"[+	c #C6DFF9",
"}+	c #AAD1F7",
"|+	c #EEF8FE",
"1+	c #AFBFD0",
"2+	c #214163",
"3+	c #1E4371",
"4+	c #1F4578",
"5+	c #1D4377",
"6+	c #1A4276",
"7+	c #184075",
"8+	c #0C983E",
"9+	c #0AA436",
"0+	c #133A72",
"a+	c #113970",
"b+	c #10376D",
"c+	c #0F356B",
"d+	c #0D3368",
"e+	c #0C3163",
"f+	c #3F689E",
"g+	c #CDE6FB",
"h+	c #C7E1FB",
"i+	c #8EBEF5",
"j+	c #4773BE",
"k+	c #ACD0F7",
"l+	c #E9F2F4",
"m+	c #3E6182",
"n+	c #1C4067",
"o+	c #224878",
"p+	c #204678",
"q+	c #1E4477",
"r+	c #1C4377",
"s+	c #1A4176",
"t+	c #13655D",
"u+	c #154A6B",
"v+	c #143C72",
"w+	c #11386E",
"x+	c #0F356C",
"y+	c #0E3367",
"z+	c #173E74",
"A+	c #A0BFE2",
"B+	c #CEE6FB",
"C+	c #B3D6F9",
"D+	c #6198E6",
"E+	c #25365A",
"F+	c #8BBCF3",
"G+	c #C5DFFA",
"H+	c #F5FCFE",
"I+	c #9CB1CB",
"J+	c #274B72",
"K+	c #244976",
"L+	c #244979",
"M+	c #224778",
"N+	c #1F4677",
"O+	c #1D4477",
"P+	c #1B4276",
"Q+	c #194075",
"R+	c #173E73",
"S+	c #153D73",
"T+	c #133A70",
"U+	c #12396F",
"V+	c #10366C",
"W+	c #0E3468",
"X+	c #577DB1",
"Y+	c #D2E6FB",
"Z+	c #C2E1FA",
"`+	c #80B3F1",
" @	c #426BB0",
".@	c #6DA6EF",
"+@	c #FDFFFE",
"@@	c #E1ECF4",
"#@	c #6F96C2",
"$@	c #345A8B",
"%@	c #254A79",
"&@	c #234978",
"*@	c #214678",
"=@	c #1E4577",
"-@	c #1C4376",
";@	c #183F74",
">@	c #163D73",
",@	c #143C71",
"'@	c #133A6F",
")@	c #11376C",
"!@	c #224B83",
"~@	c #B9D1ED",
"{@	c #D2E7FB",
"]@	c #A3CBF6",
"^@	c #5D98EE",
"/@	c #6DA2EB",
"(@	c #78AAEE",
"_@	c #A3C9F6",
":@	c #E8F4FC",
"<@	c #FBFFFF",
"[@	c #B3CCE7",
"}@	c #4D76A9",
"|@	c #274D7D",
"1@	c #1F4577",
"2@	c #1B4176",
"3@	c #143A70",
"4@	c #12396D",
"5@	c #7095C3",
"6@	c #D5E8FB",
"7@	c #B4D7F7",
"8@	c #76B0FC",
"9@	c #384F7A",
"0@	c #6C9AD9",
"a@	c #7AABEE",
"b@	c #B6D4F7",
"c@	c #F2FAFF",
"d@	c #EDF6FC",
"e@	c #82A7D0",
"f@	c #365E91",
"g@	c #214778",
"h@	c #1F4678",
"i@	c #1D4376",
"j@	c #1B4175",
"k@	c #163D72",
"l@	c #153B70",
"m@	c #2E568D",
"n@	c #D0E5F8",
"o@	c #D2E8FB",
"p@	c #B8D9F9",
"q@	c #97C4F8",
"r@	c #588AD9",
"s@	c #6191D2",
"t@	c #80B0EF",
"u@	c #C3DDF9",
"v@	c #F4FDFF",
"w@	c #C6DCEF",
"x@	c #5680B3",
"y@	c #295182",
"z@	c #194174",
"A@	c #183F73",
"B@	c #173D72",
"C@	c #8DADD2",
"D@	c #D7EBFB",
"E@	c #C0DDF9",
"F@	c #A5CFF7",
"G@	c #5C97ED",
"H@	c #4466A8",
"I@	c #6598DE",
"J@	c #89B7F2",
"K@	c #EEF9FE",
"L@	c #95B6DD",
"M@	c #3E6AA0",
"N@	c #1D4476",
"O@	c #1B4274",
"P@	c #193F73",
"Q@	c #466DA1",
"R@	c #D2E7F9",
"S@	c #A8D0F7",
"T@	c #81B5F9",
"U@	c #3573BB",
"V@	c #2E4942",
"W@	c #436CA9",
"X@	c #6699E2",
"Y@	c #96C1F7",
"Z@	c #DAEDFF",
"`@	c #DAEBFB",
" #	c #6A94C6",
".#	c #264E84",
"+#	c #22497E",
"@#	c #A2BEDE",
"##	c #B4D6F8",
"$#	c #8FC0F4",
"%#	c #5190F6",
"&#	c #3571A3",
"*#	c #2E4726",
"=#	c #4D78BE",
"-#	c #699EEA",
";#	c #A4CAFA",
">#	c #E0F3FF",
",#	c #B1CEEB",
"'#	c #E3F1FD",
")#	c #C6E1FB",
"!#	c #96C4F5",
"~#	c #68A0ED",
"{#	c #4687F5",
"]#	c #4982A1",
"^#	c #263E20",
"/#	c #4066A2",
"(#	c #6CA0E7",
"_#	c #B1D7FF",
":#	c #DEEDFB",
"<#	c #DAEDFC",
"[#	c #9EC9F6",
"}#	c #70A8F0",
"|#	c #4886E7",
"1#	c #70AAFE",
"2#	c #558993",
"3#	c #1B2C19",
"4#	c #4870A9",
"5#	c #79B1F5",
"6#	c #76ACF0",
"7#	c #4A8BEA",
"8#	c #3B7DE7",
"9#	c #669EEB",
"0#	c #99CAFF",
"a#	c #598798",
"b#	c #8DA7A4",
"c#	c #C7D9D8",
"d#	c #D6D7D8",
"e#	c #C8CFD0",
"f#	c #BEC6C2",
"g#	c #BCC8D1",
"h#	c #B5D7FB",
"i#	c #8EBCF3",
"j#	c #8EBBF3",
"k#	c #A4C9F6",
"l#	c #D4ECFE",
"m#	c #ABC9EE",
"n#	c #586574",
"o#	c #B2CDE1",
"p#	c #98C3E3",
"q#	c #DCF6FF",
"r#	c #F9FFFF",
"s#	c #F8FFFF",
"t#	c #F6FFFF",
"u#	c #ECFAFF",
"v#	c #DEEEFC",
"w#	c #DEEFFC",
"x#	c #EAF6FD",
"y#	c #E8F5FE",
"z#	c #D1E7FC",
"A#	c #ACD4FD",
"B#	c #8AC1F2",
"C#	c #597E74",
"D#	c #D0E6FA",
"E#	c #A4CEFD",
"F#	c #C7E3FF",
"G#	c #CFE7FB",
"H#	c #D6EAFC",
"I#	c #E7F3FD",
"J#	c #E7F4FD",
"K#	c #E3F3FD",
"L#	c #E6F4FD",
"M#	c #EBF6FD",
"N#	c #DCEEFC",
"O#	c #BDDCFA",
"P#	c #8CBEF3",
"Q#	c #7AB1F1",
"R#	c #75ADF8",
"S#	c #69ABE6",
"T#	c #3D5662",
"U#	c #98C5FF",
"V#	c #B8DAFB",
"W#	c #D3E8FB",
"X#	c #CBE4FB",
"Y#	c #D4E8FC",
"Z#	c #DFEFFC",
"`#	c #CEE6FA",
" $	c #A4CDF7",
".$	c #98C4F5",
"+$	c #8BBDF3",
"@$	c #80B5F2",
"#$	c #78B0F7",
"$$	c #6CADFF",
"%$	c #376DAD",
"&$	c #4D7BAA",
"*$	c #74A9EF",
"=$	c #B2D8FF",
"-$	c #D0E7FF",
";$	c #CCE4FA",
">$	c #C8E2FA",
",$	c #CAE3FA",
"'$	c #D7EAFB",
")$	c #CBE4FA",
"!$	c #B8D9F8",
"~$	c #ACD1F7",
"{$	c #A3CCF6",
"]$	c #99C5F4",
"^$	c #93C4F7",
"/$	c #84BDFF",
"($	c #5D9CDC",
"_$	c #3B66A3",
":$	c #182A2A",
"<$	c #5484B6",
"[$	c #86B7F1",
"}$	c #BCDDFD",
"|$	c #CAE4FA",
"1$	c #C4E1FA",
"2$	c #C6E2FA",
"3$	c #BBD9F9",
"4$	c #B1D5F8",
"5$	c #ABD1F8",
"6$	c #ABD2F9",
"7$	c #9DCEFF",
"8$	c #74ADF0",
"9$	c #426D75",
"0$	c #1C2E36",
"a$	c #3B6468",
"b$	c #6095EB",
"c$	c #97C3F5",
"d$	c #BDDFFB",
"e$	c #C9E5FB",
"f$	c #B8DBFF",
"g$	c #B0DAFF",
"h$	c #85BBF4",
"i$	c #497796",
"j$	c #1F2F4A",
"k$	c #181616",
"l$	c #5482CC",
"m$	c #70ABFA",
"n$	c #A9CEF8",
"o$	c #C8E5FD",
"p$	c #BCE0FF",
"q$	c #91C2D3",
"r$	c #4F778E",
"s$	c #1E2D2F",
"t$	c #5E91DA",
"u$	c #6FA0E7",
"v$	c #527CAA",
"w$	c #1B2C20",
"                                                                ",
"                  . + @ # $ % & * = - ; > , ' ' ) ! ~           ",
"                { ] ^ / ( _ : < [ } | 1 2 3 4 5 6 7 8 9         ",
"                0 a b c d e f g h i j k l m n o p $ q r s       ",
"              t u v w x y z A B C D E F G H I J K L # M N       ",
"            O P Q R S T U V W X Y Z `  ...+.@.#.$.%.&.*.=.      ",
"            -.;.>.,.'.).!.~.{.].Y Z ` ^./.(._.:.<.[.}.|.1.      ",
"          2.3.4.5.6.7.8.9.0.a.b.c.d.e.^./.f.g.h.[.%.i.j.        ",
"        k.l.m.n.o.p.q.r.s.t.u.v.w.x.y.z.A.B.C.D.E.F.G.H.        ",
"        I.J.K.L.M.N.O.P.Q.R.S.T.U.V.y.W.X.Y.Z.`.<. +.+          ",
"      ++@+#+$+%+&+*+=+-+;+>+,+'+)+!+~+{+]+^+/+(+_+:+<+          ",
"    [+}+|+1+2+3+4+5+6+7+8+9+0+a+b+c+d+e+f+g+`.h+i+j+            ",
"    k+J.l+m+n+o+p+q+r+s+t+u+v+,+w+x+y+z+A+B+u C+D+E+            ",
"  F+G+H+I+J+K+L+M+N+O+P+Q+R+S+T+U+V+W+X+Y+D.Z+`+ @              ",
"  .@q +@@@#@$@%@&@*@=@-@s+;@>@,@'@)@!@~@{@8 ]@^@                ",
"  /@(@_@:@<@[@}@|@M+1@q+2@Q+R+'.3@4@5@6@[.7@8@9@                ",
"      0@a@b@c@d@e@f@g@h@i@j@;@k@l@m@n@o@p@q@r@                  ",
"          s@t@u@v@w@x@y@q+-@z@A@B@C@D@E@F@G@H@                  ",
"              I@J@o@K@L@M@N@O@P@Q@R@B+S@T@U@V@                  ",
"                W@X@Y@Z@`@ #.#+#@#D@##$#%#&#*#                  ",
"                    =#-#;#>#,#^+'#)#!#~#{#]#^#                  ",
"                        /#(#_#:#<#[#}#|#1#2#3#                  ",
"                            4#5#6#7#8#9#0#a#                    ",
"                  b#c#d#e#f#g#h#i#j#k#6 l#m#n#                  ",
"              o#p#q#r#<@s#t#u#v#w#x#y#z#r A#B#C#                ",
"            D#E#F#G#H#'#I#J#K#L#M#N#O#-.P#Q#R#S#T#              ",
"            U#V#W#(+X#D.`./+Y#Z#`#C+ $.$+$@$#$$$%$              ",
"            &$*$=$-$;$<.>$,$'$)$!$~${$]$^$/$($_$:$              ",
"                <$[$}$|$1$2$/+3$4$5$6$7$8$9$0$                  ",
"                  a$b$c$d$e$1$p@f$g$h$i$j$k$                    ",
"                      l$m$n$o$p$q$r$s$                          ",
"                          t$u$v$w$                              "};
