/* XPM */
static char * themes_xpm[] = {
"32 32 319 2",
"  	c None",
". 	c #BAC6DB",
"+ 	c #93A0B7",
"@ 	c #F1F6FF",
"# 	c #FFFFFF",
"$ 	c #FEFFFF",
"% 	c #F9FDFF",
"& 	c #F4F7FE",
"* 	c #EBF0F9",
"= 	c #E3E9F4",
"- 	c #DAE1EF",
"; 	c #CED7E8",
"> 	c #B8C6DF",
", 	c #A2ADC0",
"' 	c #F2F7FF",
") 	c #F5F9FF",
"! 	c #EEF3FC",
"~ 	c #E8EDF7",
"{ 	c #E0E7F3",
"] 	c #D7DFED",
"^ 	c #CBD5E6",
"/ 	c #B5C2D9",
"( 	c #E1EAF9",
"_ 	c #9CA8BC",
": 	c #FBFEFF",
"< 	c #F6FAFF",
"[ 	c #F1F5FE",
"} 	c #E3EAF4",
"| 	c #DCE3F0",
"1 	c #CFD8E8",
"2 	c #B8C4DB",
"3 	c #E6ECF7",
"4 	c #D2DDEF",
"5 	c #9CA8BE",
"6 	c #FCFFFF",
"7 	c #F8FBFF",
"8 	c #F4F8FE",
"9 	c #EEF2FB",
"0 	c #E7EDF7",
"a 	c #DFE5F2",
"b 	c #D2DBEA",
"c 	c #BAC6DC",
"d 	c #F5F8FF",
"e 	c #DEE4F1",
"f 	c #D1DBEF",
"g 	c #9DA9BF",
"h 	c #FDFFFF",
"i 	c #F9FCFF",
"j 	c #F0F4FD",
"k 	c #E9EFF8",
"l 	c #E1E7F3",
"m 	c #D5DDEC",
"n 	c #BCC7DB",
"o 	c #F3F7FE",
"p 	c #E2E8F3",
"q 	c #D4DFF1",
"r 	c #9FABC0",
"s 	c #FAFDFF",
"t 	c #F7FAFF",
"u 	c #F2F5FD",
"v 	c #EBEFF9",
"w 	c #D9E1EF",
"x 	c #B4C1D7",
"y 	c #E9EBF1",
"z 	c #E2E8EF",
"A 	c #DAE1ED",
"B 	c #CED7E6",
"C 	c #C6D2E7",
"D 	c #97A4BB",
"E 	c #F7FBFF",
"F 	c #F2F6FD",
"G 	c #EDF1FB",
"H 	c #E6ECF6",
"I 	c #DEE5F2",
"J 	c #BECADD",
"K 	c #8E9FBB",
"L 	c #004BE0",
"M 	c #B7C3D8",
"N 	c #EEF3FB",
"O 	c #FCFCFC",
"P 	c #FEFEFE",
"Q 	c #F3F7FF",
"R 	c #E7ECF7",
"S 	c #E1E7F4",
"T 	c #DBE3F0",
"U 	c #CDD6E7",
"V 	c #B7C4DA",
"W 	c #ACBAD3",
"X 	c #AAB9D2",
"Y 	c #A4B4D1",
"Z 	c #7A8BA7",
"` 	c #9BAED2",
" .	c #E5E9F1",
"..	c #F6F6F6",
"+.	c #FCFBFC",
"@.	c #F5F8FE",
"#.	c #E2E9F4",
"$.	c #C2CCE0",
"%.	c #B4C0D8",
"&.	c #B1BFD6",
"*.	c #AFBCD5",
"=.	c #ABBBD6",
"-.	c #3E71D6",
";.	c #D7DBE2",
">.	c #ECECEC",
",.	c #F7F7F7",
"'.	c #F0F5FD",
").	c #E9EFF9",
"!.	c #E5EBF6",
"~.	c #DDE4F1",
"{.	c #CBD5E5",
"].	c #BDC9DE",
"^.	c #BBC7DC",
"/.	c #B8C5DB",
"(.	c #B7C3DA",
"_.	c #B3C1DB",
":.	c #014ADB",
"<.	c #0950DE",
"[.	c #BBC3D3",
"}.	c #E0DFE0",
"|.	c #F1F1F1",
"1.	c #EFC3CB",
"2.	c #F3565A",
"3.	c #F91A1C",
"4.	c #ED4046",
"5.	c #CAB3C4",
"6.	c #BFCADF",
"7.	c #BDC8DD",
"8.	c #BCC8DC",
"9.	c #B9C6DE",
"0.	c #0248D4",
"a.	c #7694D0",
"b.	c #D4D3D3",
"c.	c #E9E9E9",
"d.	c #F9F9F9",
"e.	c #ECE1E9",
"f.	c #FB1C1E",
"g.	c #EE5258",
"h.	c #EF4248",
"i.	c #FF0000",
"j.	c #D49DAA",
"k.	c #C4CFE2",
"l.	c #C2CDE0",
"m.	c #C1CDE0",
"n.	c #BECBE2",
"o.	c #014ADC",
"p.	c #1759DD",
"q.	c #CECDCD",
"r.	c #B7D3BE",
"s.	c #88CA99",
"t.	c #5EBC76",
"u.	c #2FA94E",
"v.	c #FAFCFF",
"w.	c #F2F6FE",
"x.	c #E9EEF8",
"y.	c #F16469",
"z.	c #F7292B",
"A.	c #D1DAE9",
"B.	c #D3CBDA",
"C.	c #F33539",
"D.	c #D5ADBB",
"E.	c #C8D2E5",
"F.	c #C6D1E3",
"G.	c #C4D0E6",
"H.	c #1356DB",
"I.	c #98AAD0",
"J.	c #87BF96",
"K.	c #49B163",
"L.	c #009626",
"M.	c #3FB05C",
"N.	c #EAEFF8",
"O.	c #DFE6F2",
"P.	c #FD0D0E",
"Q.	c #EB6F76",
"R.	c #D3DBEA",
"S.	c #CFD8E9",
"T.	c #CDD7E8",
"U.	c #CAD4E6",
"V.	c #CAD3E5",
"W.	c #C8D4E8",
"X.	c #0249D8",
"Y.	c #0249D5",
"Z.	c #3F72D9",
"`.	c #D0D0D0",
" +	c #C7DACC",
".+	c #3EB05B",
"++	c #F3F7FD",
"@+	c #E0D7E3",
"#+	c #ED7178",
"$+	c #D8E0EE",
"%+	c #D4DCEB",
"&+	c #CED7E7",
"*+	c #CBD6EA",
"=+	c #7691C4",
"-+	c #B1B9CC",
";+	c #DBDADA",
">+	c #3EAF5B",
",+	c #E8EDF8",
"'+	c #E3EAF5",
")+	c #E9AEB7",
"!+	c #EE7278",
"~+	c #DAE2EF",
"{+	c #DAD1DF",
"]+	c #D9C0CE",
"^+	c #D3DCEA",
"/+	c #D0DAE9",
"(+	c #CFD9EC",
"_+	c #9FA9BB",
":+	c #4B7BDC",
"<+	c #6388D3",
"[+	c #D2D1D2",
"}+	c #3BAC59",
"|+	c #EAEFF9",
"1+	c #E4EAF5",
"2+	c #E9BEC7",
"3+	c #ED7077",
"4+	c #E78C94",
"5+	c #D5DDED",
"6+	c #D1DBED",
"7+	c #A7B2C4",
"8+	c #92ACE0",
"9+	c #0C52DF",
"0+	c #B3BCCF",
"a+	c #38AA57",
"b+	c #DDEAEB",
"c+	c #58B875",
"d+	c #1CA140",
"e+	c #1CA13F",
"f+	c #64BB81",
"g+	c #CD2813",
"h+	c #FD0E0E",
"i+	c #E89DA6",
"j+	c #EC8087",
"k+	c #DBD3E0",
"l+	c #D6DDEC",
"m+	c #D2DCEE",
"n+	c #004BDE",
"o+	c #9AADD1",
"p+	c #467BE4",
"q+	c #185ADD",
"r+	c #28A349",
"s+	c #1CA03F",
"t+	c #3AAC5A",
"u+	c #0E9B32",
"v+	c #2B983E",
"w+	c #EB241F",
"x+	c #F7393C",
"y+	c #E5AAB5",
"z+	c #D8DFED",
"A+	c #D6DEED",
"B+	c #D6DEEC",
"C+	c #D4DEF0",
"D+	c #ACBBD9",
"E+	c #B0C6F1",
"F+	c #AFC1E6",
"G+	c #A0B2D8",
"H+	c #96A9CF",
"I+	c #7FC396",
"J+	c #E9EEF7",
"K+	c #D9E8EB",
"L+	c #72C08D",
"M+	c #D5DFF0",
"N+	c #B9C5D9",
"O+	c #EDF2FA",
"P+	c #EEEDEE",
"Q+	c #DDDDDD",
"R+	c #CCCED0",
"S+	c #26A147",
"T+	c #DEE2EA",
"U+	c #E7ECF5",
"V+	c #82C79B",
"W+	c #46B066",
"X+	c #E1E8F3",
"Y+	c #DDE4F0",
"Z+	c #D9E1EE",
"`+	c #D7DFEE",
" @	c #EFF4FC",
".@	c #F5F4F5",
"+@	c #EAEAEA",
"@@	c #DBDDE2",
"#@	c #36A855",
"$@	c #E2E7EE",
"%@	c #E9EEF6",
"&@	c #AED8C3",
"*@	c #39AB59",
"=@	c #E2E8F4",
"-@	c #D6DFF1",
";@	c #B9C5DA",
">@	c #FAFAFA",
",@	c #F6F5F5",
"'@	c #E8ECF2",
")@	c #39AB58",
"!@	c #E8EDF5",
"~@	c #EAEFF7",
"{@	c #ADD7C3",
"]@	c #D9E0EF",
"^@	c #FDFDFD",
"/@	c #F2F6FC",
"(@	c #3BAD5A",
"_@	c #73C18E",
":@	c #C8E0DB",
"<@	c #D9E0EE",
"[@	c #FCFEFF",
"}@	c #0E9B33",
"|@	c #C0E1D3",
"1@	c #91CCA8",
"2@	c #F8FAFE",
"3@	c #B3DCC6",
"4@	c #90CCA8",
"5@	c #D7DEED",
"6@	c #D6E0F2",
"7@	c #D1E8E1",
"8@	c #68BF83",
"9@	c #B2DCC6",
"0@	c #67BE83",
"a@	c #75C28F",
"b@	c #EAF3FF",
"c@	c #EDF2FB",
"d@	c #E8EEF8",
"                . . . . . . . . . . . . . . . +                 ",
"                . @ # # # # # # $ % & * = - ; > ,               ",
"                . ' # # # # # $ % ) ! ~ { ] ^ / ( _             ",
"                . ' # # # # # $ : < [ * } | 1 2 3 4 5           ",
"                . ' # # # # # # 6 7 8 9 0 a b c d e f g         ",
"                . ' # # # # # # h i d j k l m n # o p q r       ",
"                . ' # # # # # # h s t u v = w x y z A B C D     ",
"                . ' # # # # # # $ 6 E F G H I J K K K K K K K   ",
"              L M N O P # # # # $ : 7 Q 9 R S T ] U V W X Y Z   ",
"            L L `  ...+.# # # # # 6 s @.! k #.T m $.%.&.*.=.Z   ",
"            L L -.;.>.,.P # # # # 6 i d '.).!.~.{.].^./.(._.Z   ",
"          L :.L <.[.}.|.O # # # # h s t o 1.2.3.4.5.6.7.8.9.Z   ",
"          L   0.L a.b.c.d.# # # # h % o e.f.g.h.i.j.k.l.m.n.Z   ",
"        L o.    L p.q.r.s.t.u.h v.< w.x.y.z.A.B.C.D.E.F.F.G.Z   ",
"        L       H.L I.J.K.L.M.: i ) N.O.P.Q.m R.A.S.T.U.V.W.Z   ",
"        L :.X.Y.H.L Z.`. +L..+6 ++H l @+i.#+$+] %+R.A.; &+*+Z   ",
"      L X.      =+L L -+;+L.>+u ,+3 '+)+i.!+~+$+{+]+^+b /+(+Z   ",
"      L         _+:+L <+[+L.}+* |+0 1+2+i.y.~.- 3+4+5+%+^+6+Z   ",
"    L :.        7+8+L 9+0+L.a+b+c+d+e+f+g+h+i+j+P.k+$+l+m m+Z   ",
"  L L n+        o+p+L L q+L.r+s+e+t+u+L.v+w+i.x+y+~+z+A+B+C+Z   ",
"                D+E+F+G+H+L.L.I+J+|+K+u+L.L+l a | ~+w A+5+M+Z   ",
"                N+O+P+Q+R+L.S+T+U+x.x.V+L.W+X+O.Y+| Z+$+`+M+Z   ",
"                N+ @.@+@@@L.#@$@%@x.x.&@L.*@=@O.I | ~+] $+-@Z   ",
"                ;@'.>@,@'@L.)@!@~@* x.{@L.L+p O.Y+| ]@] $+-@Z   ",
"                . ' P ^@/@L.(@O+* * x._@L.:@X+{ Y+| <@$+$+M+Z   ",
"                . ' # [@F L.}@|@* |+1@u+f+= X+O.Y+| Z+$+] -@Z   ",
"                . ' # 2@3@L.L.L.t+d+u+4@H = { O.| ~+$+$+5@6@Z   ",
"                . ' # 2@7@8@9@0@t+a@K+0 H = { O.| ~+$+$+5@6@Z   ",
"                . b@# 2@ @ @N c@|+|+d@0 H = { O.| ~+$+$+5@6@Z   ",
"                . Z Z Z Z Z Z Z Z Z Z Z Z Z Z Z Z Z Z Z Z Z Z   ",
"                                                                ",
"                                                                "};
