/* XPM */
static char * timedate_xpm[] = {
"32 32 447 2",
"  	c None",
". 	c #BAC6DB",
"+ 	c #93A0B7",
"@ 	c #F1F6FF",
"# 	c #FFFFFF",
"$ 	c #FEFFFF",
"% 	c #F9FDFF",
"& 	c #F4F7FE",
"* 	c #EBF0F9",
"= 	c #E3E9F4",
"- 	c #DAE1EF",
"; 	c #CED7E8",
"> 	c #B8C6DF",
", 	c #A2ADC0",
"' 	c #F2F7FF",
") 	c #A0A2A5",
"! 	c #9DA1A5",
"~ 	c #9B9FA5",
"{ 	c #989CA4",
"] 	c #E8EDF7",
"^ 	c #E0E7F3",
"/ 	c #D7DFED",
"( 	c #CBD5E6",
"_ 	c #B5C2D9",
": 	c #E1EAF9",
"< 	c #9CA8BC",
"[ 	c #FBFEFF",
"} 	c #9C9FA5",
"| 	c #F1F5FE",
"1 	c #E3EAF4",
"2 	c #DCE3F0",
"3 	c #CFD8E8",
"4 	c #B8C4DB",
"5 	c #E6ECF7",
"6 	c #D2DDEF",
"7 	c #9CA8BE",
"8 	c #FCFFFF",
"9 	c #9DA0A5",
"0 	c #F4F8FE",
"a 	c #EEF2FB",
"b 	c #E7EDF7",
"c 	c #DFE5F2",
"d 	c #D2DBEA",
"e 	c #BAC6DC",
"f 	c #F5F8FF",
"g 	c #DEE4F1",
"h 	c #D1DBEF",
"i 	c #9DA9BF",
"j 	c #FDFFFF",
"k 	c #F0F4FD",
"l 	c #E9EFF8",
"m 	c #E1E7F3",
"n 	c #D5DDEC",
"o 	c #BCC7DB",
"p 	c #F3F7FE",
"q 	c #E2E8F3",
"r 	c #D4DFF1",
"s 	c #9FABC0",
"t 	c #9FA2A5",
"u 	c #9EA1A5",
"v 	c #F2F5FD",
"w 	c #EBEFF9",
"x 	c #D9E1EF",
"y 	c #B4C1D7",
"z 	c #E9EBF1",
"A 	c #E2E8EF",
"B 	c #DAE1ED",
"C 	c #CED7E6",
"D 	c #C6D2E7",
"E 	c #97A4BB",
"F 	c #F7FBFF",
"G 	c #F2F6FD",
"H 	c #EDF1FB",
"I 	c #E4EAF4",
"J 	c #D8DFEB",
"K 	c #BDC8DB",
"L 	c #8E9FBB",
"M 	c #F8FBFF",
"N 	c #F3F7FF",
"O 	c #E7ECF7",
"P 	c #E1E7F4",
"Q 	c #DBE3F0",
"R 	c #CDD6E7",
"S 	c #B7C4DA",
"T 	c #ACBAD3",
"U 	c #AAB9D2",
"V 	c #A4B4D1",
"W 	c #7A8BA7",
"X 	c #FAFDFF",
"Y 	c #F5F8FE",
"Z 	c #EEF3FC",
"` 	c #E2E9F4",
" .	c #C2CCE0",
"..	c #B4C0D8",
"+.	c #B1BFD6",
"@.	c #AFBCD5",
"#.	c #ABBBD6",
"$.	c #81A3D6",
"%.	c #DEE6F1",
"&.	c #E3E6E7",
"*.	c #42454C",
"=.	c #70737A",
"-.	c #F0F5FD",
";.	c #E9EFF9",
">.	c #E5EBF6",
",.	c #DDE4F1",
"'.	c #CBD5E5",
").	c #BDC9DE",
"!.	c #BBC7DC",
"~.	c #B8C5DB",
"{.	c #B7C3DA",
"].	c #B3C1DB",
"^.	c #8AABD8",
"/.	c #8EA5C7",
"(.	c #BFCBDC",
"_.	c #E3E7EF",
":.	c #FCFCFC",
"<.	c #808388",
"[.	c #676A71",
"}.	c #EBF0FA",
"|.	c #DFE6F2",
"1.	c #D0D8E8",
"2.	c #C6D0E3",
"3.	c #C2CDE0",
"4.	c #BFCADF",
"5.	c #BBC6DB",
"6.	c #BCC8DC",
"7.	c #B9C6DE",
"8.	c #9FC3F0",
"9.	c #81ACE5",
"0.	c #7397CA",
"a.	c #7793BD",
"b.	c #A7B7CD",
"c.	c #E8EBF1",
"d.	c #FEFEFE",
"e.	c #5A5C61",
"f.	c #72757C",
"g.	c #E0E6F3",
"h.	c #D2DBEB",
"i.	c #CCD6E7",
"j.	c #C9D3E4",
"k.	c #C6D1E3",
"l.	c #C4CFE2",
"m.	c #C1CCDF",
"n.	c #C1CDE0",
"o.	c #BECBE2",
"p.	c #E4E6E8",
"q.	c #D2DEED",
"r.	c #A5C2E8",
"s.	c #79A5E4",
"t.	c #6494DC",
"u.	c #5B85C0",
"v.	c #758DB4",
"w.	c #93A4BC",
"x.	c #F9FBFC",
"y.	c #8F9297",
"z.	c #494B52",
"A.	c #B3B6BE",
"B.	c #50545B",
"C.	c #D5DEEC",
"D.	c #D1DAE9",
"E.	c #D0D9E9",
"F.	c #C8D2E5",
"G.	c #C4D0E6",
"H.	c #FAF8F5",
"I.	c #EBEBEB",
"J.	c #E1E5E9",
"K.	c #B7C5DD",
"L.	c #6195E2",
"M.	c #4F81CB",
"N.	c #4A76BA",
"O.	c #6D86AD",
"P.	c #788495",
"Q.	c #EAEFF8",
"R.	c #C5CBD6",
"S.	c #DAE2EF",
"T.	c #D3DBEA",
"U.	c #888E9A",
"V.	c #CDD7E8",
"W.	c #CAD4E6",
"X.	c #868C98",
"Y.	c #C8D4E8",
"Z.	c #FEFEFB",
"`.	c #ECECED",
" +	c #F2F2F2",
".+	c #FCFCFD",
"++	c #F9F9F8",
"@+	c #C6CBD4",
"#+	c #8DA1BE",
"$+	c #5380C4",
"%+	c #4A7FD6",
"&+	c #3B6EBF",
"*+	c #3A64A7",
"=+	c #4D6895",
"-+	c #94A2BB",
";+	c #C6D0E2",
">+	c #D8E0EE",
",+	c #D4DCEB",
"'+	c #8A909B",
")+	c #898F9A",
"!+	c #888E99",
"~+	c #CBD6EA",
"{+	c #E0DFDC",
"]+	c #E8E8E9",
"^+	c #F7F7F7",
"/+	c #D6D4D5",
"(+	c #E0E1E2",
"_+	c #C4C9D1",
":+	c #5A76A3",
"<+	c #4274C9",
"[+	c #2961BC",
"}+	c #2C63BB",
"|+	c #3862A6",
"1+	c #436091",
"2+	c #8C9BB7",
"3+	c #D7DFEE",
"4+	c #8B909B",
"5+	c #D3DCEA",
"6+	c #CFD9EC",
"7+	c #FFFFFE",
"8+	c #E3E3E3",
"9+	c #D2D2D2",
"0+	c #E7E7E7",
"a+	c #DEDEDE",
"b+	c #DCDCDC",
"c+	c #EFEEEE",
"d+	c #ECECEB",
"e+	c #F2F3F4",
"f+	c #8E949D",
"g+	c #466AA8",
"h+	c #1A4FA9",
"i+	c #154FB7",
"j+	c #2A5BB7",
"k+	c #2A529D",
"l+	c #2C4A80",
"m+	c #96A3BF",
"n+	c #D8DFEE",
"o+	c #DAE1EE",
"p+	c #8D929D",
"q+	c #8B919C",
"r+	c #D1DBED",
"s+	c #F4F3F3",
"t+	c #E5E6E6",
"u+	c #F0F0F0",
"v+	c #E2E2E2",
"w+	c #D3D3D3",
"x+	c #D0D0D0",
"y+	c #E8E8E8",
"z+	c #EEEEEE",
"A+	c #F3F3F3",
"B+	c #CCCCCC",
"C+	c #E4E4E3",
"D+	c #F9F9F4",
"E+	c #8B96A8",
"F+	c #375998",
"G+	c #01379E",
"H+	c #124BB6",
"I+	c #2253AF",
"J+	c #1D4494",
"K+	c #3F5993",
"L+	c #C0CADE",
"M+	c #8D939D",
"N+	c #D6DDEC",
"O+	c #D2DCEE",
"P+	c #FBFAF8",
"Q+	c #E4E5E6",
"R+	c #E1E1E1",
"S+	c #FBFBFB",
"T+	c #E5E5E5",
"U+	c #BFBFBF",
"V+	c #BBBBBB",
"W+	c #E1E1E0",
"X+	c #F0F0F1",
"Y+	c #AEAEAE",
"Z+	c #D5CEC7",
"`+	c #677286",
" @	c #2A4990",
".@	c #042E9C",
"+@	c #214895",
"@@	c #3F5080",
"#@	c #B1BAD3",
"$@	c #8E939D",
"%@	c #8D929C",
"&@	c #8C919C",
"*@	c #D4DEF0",
"=@	c #E7E5E1",
"-@	c #C6C2BA",
";@	c #C1C2C4",
">@	c #E9E9E9",
",@	c #D8D8D8",
"'@	c #CDCED0",
")@	c #A49C94",
"!@	c #E3D5C1",
"~@	c #FAF6F2",
"{@	c #FEFEFC",
"]@	c #E6E7E8",
"^@	c #BCBBBA",
"/@	c #E2DFD5",
"(@	c #727F99",
"_@	c #143171",
":@	c #7D8BB1",
"<@	c #D9E1EE",
"[@	c #D6DEED",
"}@	c #D5DFF0",
"|@	c #FFFFF2",
"1@	c #DDDEE2",
"2@	c #C8C8C8",
"3@	c #D4D4D4",
"4@	c #DADADA",
"5@	c #D5D5D5",
"6@	c #F4F4F4",
"7@	c #FFFDFC",
"8@	c #E0C3A8",
"9@	c #D6B57F",
"0@	c #D5B894",
"a@	c #E0CEB7",
"b@	c #C5C6CD",
"c@	c #D0D0D2",
"d@	c #EFEFF0",
"e@	c #FAFAFA",
"f@	c #E9E7E1",
"g@	c #636A85",
"h@	c #A9B1CC",
"i@	c #DDE4F0",
"j@	c #D9DFE8",
"k@	c #EAE6E1",
"l@	c #CAC8C5",
"m@	c #E6E5E5",
"n@	c #B3B3B3",
"o@	c #C5C5C5",
"p@	c #E8E9E9",
"q@	c #F9FAFB",
"r@	c #D5BCB1",
"s@	c #D4B798",
"t@	c #F6DDAB",
"u@	c #C79147",
"v@	c #8A451D",
"w@	c #9F9595",
"x@	c #DFE7EA",
"y@	c #E1DFDE",
"z@	c #F1EFEB",
"A@	c #80879A",
"B@	c #6C73A1",
"C@	c #D8DFED",
"D@	c #DEE5F2",
"E@	c #D6DFF1",
"F@	c #679BF2",
"G@	c #7AA6EB",
"H@	c #B2BAC6",
"I@	c #E6E5E2",
"J@	c #C3C4C4",
"K@	c #CCCBCC",
"L@	c #CED0D1",
"M@	c #C8CBD0",
"N@	c #A47359",
"O@	c #CD984F",
"P@	c #DA9529",
"Q@	c #D1892A",
"R@	c #72201A",
"S@	c #DED3CB",
"T@	c #D3D9DD",
"U@	c #CBC8C5",
"V@	c #B2B4B4",
"W@	c #526185",
"X@	c #BFC4D9",
"Y@	c #D9E0EF",
"Z@	c #5D93EB",
"`@	c #8AB7FE",
" #	c #D0DDF0",
".#	c #D2CFCA",
"+#	c #E3E1D5",
"@#	c #F5F4F0",
"##	c #EEF0F2",
"$#	c #A6AAAC",
"%#	c #9C705E",
"&#	c #AF6B27",
"*#	c #B15A02",
"=#	c #A54300",
"-#	c #A47465",
";#	c #E7E7E5",
">#	c #727B8C",
",#	c #777FA2",
"'#	c #D9E0EE",
")#	c #6197F2",
"!#	c #719DE5",
"~#	c #CBD6DF",
"{#	c #FFFFF5",
"]#	c #E2DED8",
"^#	c #C6C7C6",
"/#	c #E6DEDE",
"(#	c #D7BCAD",
"_#	c #C39684",
":#	c #7E2A0D",
"<#	c #B99A88",
"[#	c #EFF2F3",
"}#	c #DEE0E4",
"|#	c #636C90",
"1#	c #BFC4D8",
"2#	c #E1E8F3",
"3#	c #6596EB",
"4#	c #70A2F4",
"5#	c #B3BAC3",
"6#	c #F4EEE4",
"7#	c #E3E6EC",
"8#	c #A48E86",
"9#	c #CCC2BB",
"0#	c #C1C3C4",
"a#	c #DBDBDB",
"b#	c #8C91A5",
"c#	c #7D82A5",
"d#	c #DEE4F0",
"e#	c #D7DEED",
"f#	c #D6E0F2",
"g#	c #B1C0DB",
"h#	c #B5CCF3",
"i#	c #6B9CF0",
"j#	c #6B9DF1",
"k#	c #F1F5FC",
"l#	c #C7C1B4",
"m#	c #DCE1E6",
"n#	c #E1E5E8",
"o#	c #D6D5D4",
"p#	c #AEB0B2",
"q#	c #465374",
"r#	c #B4BBD3",
"s#	c #EAF3FF",
"t#	c #DEE8F9",
"u#	c #B5CBF1",
"v#	c #659AF5",
"w#	c #6897E4",
"x#	c #B9BCC2",
"y#	c #FFFFF0",
"z#	c #F8F3EB",
"A#	c #9899A5",
"B#	c #5D618D",
"C#	c #6D85AC",
"D#	c #5277B5",
"E#	c #4F86E1",
"F#	c #7BA6EF",
"G#	c #E0E3E8",
"H#	c #EDEBE7",
"I#	c #37476B",
"J#	c #647398",
"K#	c #194999",
"L#	c #4983E6",
"M#	c #496292",
"N#	c #011147",
"              . . . . . . . . . . . . . . . +                   ",
"              . @ # # # # # # $ % & * = - ; > ,                 ",
"              . ' ) ) ) ) ) ) ! ~ { ] ^ / ( _ : <               ",
"              . ' # ) # ) # ) [ } | * 1 2 3 4 5 6 7             ",
"              . ' # # ) # # ) 8 9 0 a b c d e f g h i           ",
"              . ' # ) # ) # ) j 9 f k l m n o # p q r s         ",
"              . ' ) ) ) ) ) ) t u } v w = x y z A B C D E       ",
"              . ' # # # # # # $ 8 F G H I J K L L L L L L L     ",
"              . ' # # # # # # $ [ M N a O P Q / R S T U V W     ",
"              . ' # # # # # # # 8 X Y Z l ` Q n  ...+.@.#.W     ",
"              $.%.# # # # # # # &.*.=.-.;.>.,.'.).!.~.{.].W     ",
"            $.^./.(._.# # # # :.<.*.[.p }.|.1.2.3.4.5.6.7.W     ",
"            $.8.9.0.a.b.c.# d.e.*.*.f.* g.h.i.j.k.l.m.n.o.W     ",
"          $.p.q.r.s.t.u.v.w.x.y.z.A.B.c C.D.E.R ( F.k.k.G.W     ",
"          $.H.I.J.K.$.L.M.N.O.P.*.Q.R.S./ n T.D.U.V.W.X.Y.W     ",
"        $.Z.`. +.+++@+#+$+%+&+*+=+-+;+2 Q >+/ ,+'+)+U.!+~+W     ",
"        $.{+]+^+# # /+(+_+:+<+[+}+|+1+2+,.S.>+3+4+5+d )+6+W     ",
"      $.7+8+9+0+# a+b+c+d+e+f+g+h+i+j+k+l+m+n+o+p+q+4+'+r+W     ",
"    $.# s+t+u+v+w+x+y+z+A+B+C+D+E+F+G+H+I+J+K+L+M+>+N+q+O+W     ",
"    $.P+Q+R+S+# T+U+V+W+X+Y+# # 7+Z+`+ @.@+@@@#@$@%@&@&@*@W     ",
"  $.=@-@;@>@:.A+,@z+# '@)@!@~@{@]@^@7+/@(@_@:@<@$@x [@q+}@W     ",
"  $.|@1@2@3@a+4@5@6@# 7@8@9@0@a@b@c@d@e@f@g@h@i@2 <@>+3+}@W     ",
"$.j@k@l@m@# 3@n@o@p@q@r@s@t@u@v@w@x@y@z@A@B@C@D@2 S./ >+E@W     ",
"  F@G@H@# # I@J@K@L@M@N@O@P@Q@R@S@T@U@V@W@X@|.i@2 Y@/ >+E@W     ",
"      Z@`@ #.#+#@###$#%#&#*#=#-## # ;#>#,#o+^ i@2 '#>+>+}@W     ",
"          )#!#~#{#]#^#/#(#_#:#<#[## }#|#1#2#|.i@2 <@>+/ E@W     ",
"              3#4#5#6## # 7#8#9#0#a#b#c#d#^ |.2 S.>+>+e#f#W     ",
"              g#h#i#j#k## l#m#n#o#p#q#r#= ^ |.2 S.>+>+e#f#W     ",
"              . s#t#u#v#w#x#y#z#8+A#B#i@= ^ |.2 S.>+>+e#f#W     ",
"              . W W W C#D#E#F#G#H#I#J#W W W W W W W W W W W     ",
"                            K#L#M#N#                            ",
"                                                                "};
