/* XPM */
static char * wallpaper_xpm[] = {
"48 48 922 2",
"  	c None",
". 	c #141414",
"+ 	c #212121",
"@ 	c #232323",
"# 	c #242424",
"$ 	c #222222",
"% 	c #1D1D1D",
"& 	c #0C0C0C",
"* 	c #1C1C1C",
"= 	c #868686",
"- 	c #F9F9F9",
"; 	c #F8F8F8",
"> 	c #F6F6F6",
", 	c #F5F5F5",
"' 	c #F4F4F4",
") 	c #F3F3F3",
"! 	c #EEEEEE",
"~ 	c #EBEBEB",
"{ 	c #ECECEC",
"] 	c #EAEAEA",
"^ 	c #E9E9E9",
"/ 	c #E8E8E8",
"( 	c #E7E7E7",
"_ 	c #E6E6E6",
": 	c #E5E5E5",
"< 	c #E4E4E4",
"[ 	c #E3E3E3",
"} 	c #E2E2E2",
"| 	c #DFDFDF",
"1 	c #CDCDCD",
"2 	c #5B5B5B",
"3 	c #0B0B0B",
"4 	c #2D2D2D",
"5 	c #F2F2F2",
"6 	c #FEFEFE",
"7 	c #DBDBDB",
"8 	c #FCFCFC",
"9 	c #F0F0F0",
"0 	c #CFCFCF",
"a 	c #D3D3D3",
"b 	c #E0E0E0",
"c 	c #DEDEDE",
"d 	c #DDDDDD",
"e 	c #DCDCDC",
"f 	c #DADADA",
"g 	c #D9D9D9",
"h 	c #D8D8D8",
"i 	c #D7D7D7",
"j 	c #D6D6D6",
"k 	c #D5D5D5",
"l 	c #D2D2D2",
"m 	c #D1D1D1",
"n 	c #D0D0D0",
"o 	c #CACACA",
"p 	c #C6C6C6",
"q 	c #BBBBBB",
"r 	c #C2C2C2",
"s 	c #CECECE",
"t 	c #BEBEBE",
"u 	c #D4D4D4",
"v 	c #CBCBCB",
"w 	c #C9C9C9",
"x 	c #C7C7C7",
"y 	c #C4C4C4",
"z 	c #B4B4B4",
"A 	c #ADADAD",
"B 	c #AFAFAF",
"C 	c #BFBFBF",
"D 	c #B6B6B6",
"E 	c #B0B0B0",
"F 	c #BABABA",
"G 	c #BCBCBC",
"H 	c #B8B8B8",
"I 	c #B5B5B5",
"J 	c #B3B3B3",
"K 	c #B1B1B1",
"L 	c #AEAEAE",
"M 	c #AAAAAA",
"N 	c #A8A8A8",
"O 	c #A7A7A7",
"P 	c #A5A5A5",
"Q 	c #C1C1C1",
"R 	c #B9B9B9",
"S 	c #5D5D5D",
"T 	c #2F3132",
"U 	c #343638",
"V 	c #3D3F40",
"W 	c #434547",
"X 	c #494B4D",
"Y 	c #454749",
"Z 	c #404244",
"` 	c #393B3E",
" .	c #353739",
"..	c #343637",
"+.	c #333536",
"@.	c #343537",
"#.	c #333537",
"$.	c #333435",
"%.	c #333636",
"&.	c #323435",
"*.	c #323335",
"=.	c #313334",
"-.	c #2F3031",
";.	c #2D2E2F",
">.	c #2B2C2D",
",.	c #2A2B2C",
"'.	c #282829",
").	c #262728",
"!.	c #747475",
"~.	c #434647",
"{.	c #374655",
"].	c #475665",
"^.	c #5E6D7B",
"/.	c #707F8D",
"(.	c #7F8E9C",
"_.	c #8393A2",
":.	c #8091A1",
"<.	c #798B9C",
"[.	c #728597",
"}.	c #6F8294",
"|.	c #6D8192",
"1.	c #6C7F91",
"2.	c #6A7C8F",
"3.	c #677A8B",
"4.	c #647688",
"5.	c #627485",
"6.	c #607182",
"7.	c #5C6D7E",
"8.	c #5B6B7C",
"9.	c #546475",
"0.	c #4F6070",
"a.	c #4C5C6D",
"b.	c #495869",
"c.	c #445364",
"d.	c #415060",
"e.	c #3D4B5B",
"f.	c #334152",
"g.	c #2C3A4A",
"h.	c #243344",
"i.	c #1C2A3B",
"j.	c #162435",
"k.	c #122032",
"l.	c #061626",
"m.	c #7D7D7E",
"n.	c #B2B2B2",
"o.	c #F7F7F7",
"p.	c #484A4C",
"q.	c #51606D",
"r.	c #74818C",
"s.	c #919DA6",
"t.	c #A9B4BC",
"u.	c #B6C1C9",
"v.	c #BCC7CF",
"w.	c #BDC8D1",
"x.	c #B9C6CF",
"y.	c #B8C5CF",
"z.	c #B3C0CB",
"A.	c #B2BFCA",
"B.	c #B0BDC7",
"C.	c #AEBBC5",
"D.	c #ABB8C3",
"E.	c #A8B5C0",
"F.	c #A4B1BC",
"G.	c #A0ADB9",
"H.	c #98A6B2",
"I.	c #909FAC",
"J.	c #8897A5",
"K.	c #7C8C9B",
"L.	c #798897",
"M.	c #788895",
"N.	c #718190",
"O.	c #6C7C8B",
"P.	c #687887",
"Q.	c #5E6E7F",
"R.	c #516173",
"S.	c #435567",
"T.	c #34475C",
"U.	c #283C51",
"V.	c #23364C",
"W.	c #112436",
"X.	c #818282",
"Y.	c #C5C5C5",
"Z.	c #4A4C4D",
"`.	c #5A6773",
" +	c #8B959E",
".+	c #AEB6BE",
"++	c #C6CCD2",
"@+	c #D0D7DC",
"#+	c #D3D9E0",
"$+	c #D4DAE1",
"%+	c #D3DAE1",
"&+	c #CFD7DD",
"*+	c #CBD3DB",
"=+	c #CBD3DA",
"-+	c #C8D0D7",
";+	c #C6CED5",
">+	c #C7CED6",
",+	c #C3CBD2",
"'+	c #C0C8D0",
")+	c #B9C1CA",
"!+	c #B1BAC3",
"~+	c #A6B0BA",
"{+	c #95A0AC",
"]+	c #8995A1",
"^+	c #848F9C",
"/+	c #838F9B",
"(+	c #818C98",
"_+	c #7D8793",
":+	c #737F8B",
"<+	c #6B7683",
"[+	c #5A6674",
"}+	c #485464",
"|+	c #344152",
"1+	c #253244",
"2+	c #192638",
"3+	c #1D3142",
"4+	c #828383",
"5+	c #75828D",
"6+	c #A8B1B9",
"7+	c #CBD1D6",
"8+	c #DCE2E6",
"9+	c #E2E7EB",
"0+	c #E3E8EC",
"a+	c #E4EAEE",
"b+	c #E3E9EE",
"c+	c #E0E6EC",
"d+	c #DEE5EA",
"e+	c #DBE2E8",
"f+	c #D8E0E6",
"g+	c #D8DFE5",
"h+	c #D5DDE3",
"i+	c #D2DAE1",
"j+	c #D0D8DE",
"k+	c #CAD3DA",
"l+	c #C2CBD4",
"m+	c #B5C0CA",
"n+	c #A8B4C0",
"o+	c #9BA9B6",
"p+	c #95A3B0",
"q+	c #919FAC",
"r+	c #8E9DAA",
"s+	c #8B99A7",
"t+	c #8593A1",
"u+	c #7B8998",
"v+	c #6C7C8C",
"w+	c #5A6C7D",
"x+	c #485B6E",
"y+	c #384B60",
"z+	c #2C4156",
"A+	c #223646",
"B+	c #4C4E4F",
"C+	c #76838E",
"D+	c #ACB5BC",
"E+	c #CCD2D7",
"F+	c #D9DFE3",
"G+	c #DDE3E8",
"H+	c #DDE3E9",
"I+	c #DAE2E8",
"J+	c #D6DFE6",
"K+	c #D2DBE3",
"L+	c #CED7E0",
"M+	c #C8D3DC",
"N+	c #C3CED8",
"O+	c #C5CFD9",
"P+	c #C1CBD4",
"Q+	c #B8C3CE",
"R+	c #B2BEC8",
"S+	c #ABB7C3",
"T+	c #9FACB8",
"U+	c #93A2AF",
"V+	c #8998A6",
"W+	c #8392A1",
"X+	c #808E9C",
"Y+	c #7C8A99",
"Z+	c #778593",
"`+	c #707D8C",
" @	c #697686",
".@	c #5B6A79",
"+@	c #4D5D6E",
"@@	c #404F61",
"#@	c #324255",
"$@	c #273749",
"%@	c #223546",
"&@	c #828283",
"*@	c #C0C0C0",
"=@	c #4B4D4D",
"-@	c #818F9A",
";@	c #B2BBC2",
">@	c #CFD6DC",
",@	c #DAE1E6",
"'@	c #DDE4E9",
")@	c #DCE4EA",
"!@	c #DBE6ED",
"~@	c #D6E2EA",
"{@	c #CDDAE4",
"]@	c #C6D5E0",
"^@	c #BFCFDB",
"/@	c #B8C9D6",
"(@	c #B6C7D4",
"_@	c #B1C2D0",
":@	c #ACBECC",
"<@	c #A8B9C8",
"[@	c #A5B7C6",
"}@	c #9FB1C0",
"|@	c #99ABBB",
"1@	c #92A6B7",
"2@	c #8DA1B1",
"3@	c #899CAD",
"4@	c #8699AA",
"5@	c #7F92A4",
"6@	c #788B9D",
"7@	c #718698",
"8@	c #6B7F93",
"9@	c #64788C",
"0@	c #5D7186",
"a@	c #566B80",
"b@	c #485E74",
"c@	c #3B5269",
"d@	c #203344",
"e@	c #818182",
"f@	c #47494A",
"g@	c #717E8B",
"h@	c #A5AFB8",
"i@	c #C2CAD1",
"j@	c #CFD7DE",
"k@	c #D0D9E1",
"l@	c #CBD6E0",
"m@	c #C7D4E0",
"n@	c #C0CEDC",
"o@	c #B5C6D6",
"p@	c #AABDCE",
"q@	c #9DB2C5",
"r@	c #93A9BE",
"s@	c #9BB3C5",
"t@	c #9EB4C6",
"u@	c #849CB1",
"v@	c #768DA3",
"w@	c #72879D",
"x@	c #73889C",
"y@	c #798EA3",
"z@	c #879DB0",
"A@	c #8196A9",
"B@	c #6D8094",
"C@	c #687B8F",
"D@	c #64778B",
"E@	c #5E7184",
"F@	c #58697E",
"G@	c #526479",
"H@	c #506276",
"I@	c #4F6073",
"J@	c #48586C",
"K@	c #3E4E63",
"L@	c #35455A",
"M@	c #1E3142",
"N@	c #808081",
"O@	c #7B8A96",
"P@	c #AAB6BE",
"Q@	c #C5CED5",
"R@	c #D4DEE5",
"S@	c #D1DEE6",
"T@	c #CFDDE7",
"U@	c #CCDCE7",
"V@	c #C2D4E1",
"W@	c #B9CDDB",
"X@	c #AFC6D6",
"Y@	c #A6BECF",
"Z@	c #9CB5C9",
"`@	c #7792AA",
" #	c #68829C",
".#	c #627C96",
"+#	c #617B94",
"@#	c #5F7890",
"##	c #5A738B",
"$#	c #647B92",
"%#	c #7C95AA",
"&#	c #778FA5",
"*#	c #728BA1",
"=#	c #6C859B",
"-#	c #688197",
";#	c #657D94",
">#	c #657C93",
",#	c #627990",
"'#	c #60778F",
")#	c #5F758B",
"!#	c #546B83",
"~#	c #4B627B",
"{#	c #1C3142",
"]#	c #414345",
"^#	c #6B7A89",
"/#	c #9BA7B3",
"(#	c #B7C1CB",
"_#	c #C3CDD7",
":#	c #C2CED9",
"<#	c #BDCBD8",
"[#	c #BACAD9",
"}#	c #B1C2D1",
"|#	c #454D54",
"1#	c #91A4B5",
"2#	c #92A8BD",
"3#	c #A2BACC",
"4#	c #87A2B8",
"5#	c #6884A0",
"6#	c #617D99",
"7#	c #5F7A96",
"8#	c #57728F",
"9#	c #536F8A",
"0#	c #546E88",
"a#	c #4F6983",
"b#	c #5F7891",
"c#	c #6C869E",
"d#	c #546C85",
"e#	c #4E667F",
"f#	c #4F657E",
"g#	c #4D637B",
"h#	c #4D627A",
"i#	c #4F637A",
"j#	c #55677D",
"k#	c #516378",
"l#	c #4C5E73",
"m#	c #415369",
"n#	c #1B2F40",
"o#	c #808080",
"p#	c #A3AFB9",
"q#	c #BEC8D1",
"r#	c #CAD4DC",
"s#	c #CBD7E1",
"t#	c #C7D5E1",
"u#	c #C2D3E1",
"v#	c #99A7B2",
"w#	c #909090",
"x#	c #4B4B4B",
"y#	c #191919",
"z#	c #2F3A44",
"A#	c #5E7892",
"B#	c #5D7B96",
"C#	c #587593",
"D#	c #53718E",
"E#	c #516D89",
"F#	c #4E6A85",
"G#	c #496581",
"H#	c #4C6783",
"I#	c #6B86A0",
"J#	c #65829C",
"K#	c #627E98",
"L#	c #617C96",
"M#	c #617B95",
"N#	c #647D96",
"O#	c #688098",
"P#	c #6B8298",
"Q#	c #6C8299",
"R#	c #657B93",
"S#	c #5B728A",
"T#	c #6E7D8B",
"U#	c #98A5B0",
"V#	c #B2BDC7",
"W#	c #6F767E",
"X#	c #6D767E",
"Y#	c #67727C",
"Z#	c #4B545C",
"`#	c #393A3A",
" $	c #B7B7B7",
".$	c #9E9E9E",
"+$	c #505050",
"@$	c #1B1B1B",
"#$	c #1A232D",
"$$	c #496580",
"%$	c #4A6682",
"&$	c #496682",
"*$	c #45607D",
"=$	c #6B87A2",
"-$	c #4D6783",
";$	c #496480",
">$	c #48637E",
",$	c #4C657F",
"'$	c #526881",
")$	c #586D84",
"!$	c #61748A",
"~$	c #617389",
"{$	c #5B6E84",
"]$	c #4F6279",
"^$	c #1A2E3F",
"/$	c #414344",
"($	c #7F8F9B",
"_$	c #A4B0BA",
":$	c #B7C2CB",
"<$	c #000000",
"[$	c #C9C8C4",
"}$	c #858380",
"|$	c #7E7D7B",
"1$	c #9B9B9B",
"2$	c #E1E1E1",
"3$	c #EFEFEF",
"4$	c #535353",
"5$	c #425C77",
"6$	c #6C89A4",
"7$	c #6985A1",
"8$	c #65839E",
"9$	c #67829D",
"0$	c #6D87A0",
"a$	c #728BA4",
"b$	c #788EA6",
"c$	c #7A8FA6",
"d$	c #758BA2",
"e$	c #6A819A",
"f$	c #404243",
"g$	c #768695",
"h$	c #9CA9B5",
"i$	c #AAB7C1",
"j$	c #4E4D4C",
"k$	c #CECBC5",
"l$	c #C8C5BF",
"m$	c #D3D1CC",
"n$	c #DCDAD5",
"o$	c #BCBAB7",
"p$	c #A9A9A8",
"q$	c #C3C3C3",
"r$	c #506880",
"s$	c #657D97",
"t$	c #516C88",
"u$	c #4F6C87",
"v$	c #536E8B",
"w$	c #556F8B",
"x$	c #5B748D",
"y$	c #637A92",
"z$	c #6A7F97",
"A$	c #6D8197",
"B$	c #677B92",
"C$	c #5B7088",
"D$	c #192D3E",
"E$	c #CCCCCC",
"F$	c #A2A2A2",
"G$	c #202020",
"H$	c #85939F",
"I$	c #AAB6C0",
"J$	c #ABB5BE",
"K$	c #666563",
"L$	c #C6C2BB",
"M$	c #C5C2BA",
"N$	c #C8C4BD",
"O$	c #CDCAC2",
"P$	c #D4D1CB",
"Q$	c #D9D7D2",
"R$	c #DAD8D3",
"S$	c #C3C2BE",
"T$	c #BFBEBC",
"U$	c #252525",
"V$	c #556779",
"W$	c #5D7285",
"X$	c #6A849C",
"Y$	c #728DA7",
"Z$	c #748FAB",
"`$	c #748FA9",
" %	c #7B93AD",
".%	c #8097B0",
"+%	c #8399B1",
"@%	c #849AB0",
"#%	c #7D94AC",
"$%	c #748CA5",
"%%	c #A0A0A0",
"&%	c #1F1F1F",
"*%	c #3F4143",
"=%	c #798998",
"-%	c #788189",
";%	c #959592",
">%	c #C1BEB6",
",%	c #C6C3BB",
"'%	c #CAC7BF",
")%	c #CDCAC4",
"!%	c #CBC7C2",
"~%	c #D2D0CB",
"{%	c #D1CFCA",
"]%	c #CECCC7",
"^%	c #C5C4C0",
"/%	c #8A8885",
"(%	c #262625",
"_%	c #1E1E1E",
":%	c #20252B",
"<%	c #4C5A68",
"[%	c #4B5D70",
"}%	c #5C738C",
"|%	c #627C98",
"1%	c #66809C",
"2%	c #6D849F",
"3%	c #6F859F",
"4%	c #758AA2",
"5%	c #7589A2",
"6%	c #6F839D",
"7%	c #607792",
"8%	c #182B3D",
"9%	c #A1A1A1",
"0%	c #3F4042",
"a%	c #8B99A5",
"b%	c #A6B3BE",
"c%	c #555B60",
"d%	c #B1B0AA",
"e%	c #BFBBB4",
"f%	c #C7C4BC",
"g%	c #CCC8C1",
"h%	c #CDCBC4",
"i%	c #C0BDB5",
"j%	c #C3C0B8",
"k%	c #BFBCB4",
"l%	c #BAB6AD",
"m%	c #B8B4AB",
"n%	c #C5C3BC",
"o%	c #C8C7C1",
"p%	c #B4B1AB",
"q%	c #8A8881",
"r%	c #47515D",
"s%	c #566471",
"t%	c #677788",
"u%	c #7F95AB",
"v%	c #88A1BB",
"w%	c #8AA3BC",
"x%	c #89A2BB",
"y%	c #89A2BA",
"z%	c #8AA2BB",
"A%	c #8BA2BB",
"B%	c #8BA3BB",
"C%	c #839CB6",
"D%	c #7992AF",
"E%	c #172B3B",
"F%	c #A4A4A4",
"G%	c #3E4041",
"H%	c #7A8A9A",
"I%	c #96A5B3",
"J%	c #A3B2C0",
"K%	c #9DA7B0",
"L%	c #828382",
"M%	c #A8A49B",
"N%	c #BAB7AF",
"O%	c #CFCCC8",
"P%	c #76736D",
"Q%	c #ADA9A0",
"R%	c #BDBAB2",
"S%	c #B9B5AC",
"T%	c #B3B0A6",
"U%	c #AFAAA0",
"V%	c #A9A69C",
"W%	c #54534D",
"X%	c #3F3F3E",
"Y%	c #4D5864",
"Z%	c #566472",
"`%	c #69798C",
" &	c #7E92A9",
".&	c #8399B3",
"+&	c #8097B2",
"@&	c #7E95AF",
"#&	c #7D94AE",
"$&	c #7C93AE",
"%&	c #7D93AD",
"&&	c #798FAB",
"*&	c #7088A4",
"=&	c #647D9C",
"-&	c #112435",
";&	c #3E4040",
">&	c #8896A5",
",&	c #9CABB9",
"'&	c #909CA9",
")&	c #A8B7C6",
"!&	c #97A6B3",
"~&	c #292B2C",
"{&	c #7B7975",
"]&	c #D3D2CD",
"^&	c #878480",
"/&	c #3B3936",
"(&	c #252422",
"_&	c #908C81",
":&	c #B8B3AB",
"<&	c #B2AEA5",
"[&	c #938E84",
"}&	c #4C4945",
"|&	c #333333",
"1&	c #5F6B75",
"2&	c #6D7A88",
"3&	c #8C9CAD",
"4&	c #9EB1C7",
"5&	c #A1B7CD",
"6&	c #9FB4CC",
"7&	c #9AB1C9",
"8&	c #98AFC7",
"9&	c #92AAC4",
"0&	c #93ABC4",
"a&	c #8FA7C2",
"b&	c #88A2BD",
"c&	c #7B97B6",
"d&	c #172A3B",
"e&	c #ACACAC",
"f&	c #3C3E3F",
"g&	c #74879B",
"h&	c #8598AC",
"i&	c #90A4B8",
"j&	c #93A7BC",
"k&	c #4B535A",
"l&	c #94928F",
"m&	c #DBD9D6",
"n&	c #878580",
"o&	c #1F1E1C",
"p&	c #6F6A63",
"q&	c #242321",
"r&	c #8E887F",
"s&	c #B0ACA3",
"t&	c #ABA79E",
"u&	c #5C5851",
"v&	c #262523",
"w&	c #1E2126",
"x&	c #596572",
"y&	c #687685",
"z&	c #8597AD",
"A&	c #92A7C0",
"B&	c #92A9C3",
"C&	c #8FA5C0",
"D&	c #89A1BD",
"E&	c #839CB9",
"F&	c #7E97B5",
"G&	c #7B94B2",
"H&	c #768FAF",
"I&	c #6D88AA",
"J&	c #627EA3",
"K&	c #182C3C",
"L&	c #3C3D3E",
"M&	c #7F90A3",
"N&	c #8A9BAD",
"O&	c #8FA2B4",
"P&	c #595857",
"Q&	c #D0CFCD",
"R&	c #DCDBD7",
"S&	c #9B9892",
"T&	c #191817",
"U&	c #060505",
"V&	c #59646E",
"W&	c #606A72",
"X&	c #525353",
"Y&	c #302F2B",
"Z&	c #67635C",
"`&	c #7F7A72",
" *	c #47453F",
".*	c #262B30",
"+*	c #5E6974",
"@*	c #636E7A",
"#*	c #768393",
"$*	c #94A6BA",
"%*	c #9FB6CF",
"&*	c #9AB1CC",
"**	c #96ADC8",
"=*	c #90A9C6",
"-*	c #8CA7C3",
";*	c #89A3C1",
">*	c #849FBE",
",*	c #7D99BB",
"'*	c #7291B4",
")*	c #293B4A",
"!*	c #667C94",
"~*	c #7087A0",
"{*	c #4E5256",
"]*	c #F0EFEF",
"^*	c #EEEEED",
"/*	c #908C87",
"(*	c #424E5B",
"_*	c #505E6D",
":*	c #424D5A",
"<*	c #58697A",
"[*	c #11100F",
"}*	c #43403C",
"|*	c #171614",
"1*	c #2E363F",
"2*	c #4D5A69",
"3*	c #4F5D6D",
"4*	c #58687A",
"5*	c #697C92",
"6*	c #7C92AD",
"7*	c #819AB7",
"8*	c #7E97B6",
"9*	c #7994B4",
"0*	c #728DAF",
"a*	c #6E8AAD",
"b*	c #6784A8",
"c*	c #6381A5",
"d*	c #5D7BA1",
"e*	c #57769C",
"f*	c #53719A",
"g*	c #1E3141",
"h*	c #454545",
"i*	c #040B10",
"j*	c #050E13",
"k*	c #535351",
"l*	c #F2F1F1",
"m*	c #EBEAEA",
"n*	c #232220",
"o*	c #100F0E",
"p*	c #020609",
"q*	c #02070B",
"r*	c #010709",
"s*	c #01080B",
"t*	c #00070C",
"u*	c #02090E",
"v*	c #04080B",
"w*	c #030608",
"x*	c #03070A",
"y*	c #04090C",
"z*	c #050B0F",
"A*	c #050B10",
"B*	c #050A10",
"C*	c #050A0F",
"D*	c #040A0E",
"E*	c #04090E",
"F*	c #060B0F",
"G*	c #070B0F",
"H*	c #05090D",
"I*	c #04080C",
"J*	c #030609",
"K*	c #F1F1F1",
"L*	c #5F5F5F",
"M*	c #DDDDDC",
"N*	c #E9E9E8",
"O*	c #131211",
"P*	c #555555",
"Q*	c #898989",
"R*	c #919191",
"S*	c #A3A3A3",
"T*	c #EDEDED",
"U*	c #A9A9A9",
"V*	c #696969",
"W*	c #2B2A28",
"X*	c #2F2F2F",
"Y*	c #727272",
"Z*	c #757575",
"`*	c #888888",
" =	c #ABABAB",
".=	c #A6A6A6",
"+=	c #BDBDBD",
"@=	c #989898",
"#=	c #818181",
"$=	c #777777",
"%=	c #9A9A9A",
"&=	c #666666",
"*=	c #9C9C9C",
"==	c #8F8F8F",
"-=	c #6D6D6D",
";=	c #F2E4AE",
">=	c #F2E3AD",
",=	c #C9BF9E",
"'=	c #969696",
")=	c #8D8D8D",
"!=	c #7A7A7A",
"~=	c #8A8A8A",
"{=	c #999999",
"]=	c #979797",
"^=	c #959595",
"/=	c #8C8670",
"(=	c #86806A",
"_=	c #848173",
":=	c #949494",
"<=	c #C8C8C8",
"[=	c #929292",
"}=	c #9D9D9D",
"|=	c #8C8C8C",
"1=	c #7C7C7C",
"2=	c #878787",
"3=	c #121212",
"4=	c #858585",
"5=	c #626262",
"6=	c #595959",
"7=	c #9F9F9F",
"8=	c #3D3D3D",
"9=	c #606060",
"0=	c #8E8E8E",
"a=	c #7D7D7D",
"b=	c #3C3C3C",
"c=	c #838383",
"d=	c #848484",
"e=	c #464646",
"f=	c #060606",
"g=	c #020202",
"h=	c #2A2A2A",
"i=	c #4E4E4E",
"j=	c #585858",
"k=	c #565656",
"l=	c #545454",
"m=	c #515151",
"n=	c #4D4D4D",
"o=	c #4A4A4A",
"p=	c #4C4C4C",
"q=	c #494949",
"r=	c #484848",
"s=	c #474747",
"t=	c #444444",
"u=	c #434343",
"v=	c #424242",
"w=	c #414141",
"x=	c #3F3F3F",
"y=	c #3E3E3E",
"z=	c #3B3B3B",
"A=	c #383838",
"B=	c #404040",
"C=	c #3A3A3A",
"D=	c #363636",
"E=	c #313131",
"F=	c #2B2B2B",
"G=	c #282828",
"H=	c #272727",
"I=	c #262626",
"J=	c #1A1A1A",
"K=	c #040404",
"L=	c #373737",
"M=	c #8B8B8B",
"N=	c #7B7B7B",
"O=	c #787878",
"P=	c #707070",
"Q=	c #6C6C6C",
"R=	c #686868",
"S=	c #676767",
"T=	c #646464",
"U=	c #616161",
"V=	c #525252",
"W=	c #353535",
"X=	c #0D0D0D",
"Y=	c #0E0E0E",
"Z=	c #111111",
"`=	c #101010",
" -	c #0F0F0F",
".-	c #090909",
"                                                                                                ",
"                                                                                                ",
"      . + @ # # # # # # # # # # # # $ + # @ @ @ @ @ @ @ @ @ @ @ @ @ @ @ @ @ @ $ $ % &           ",
"    * = - - ; > , , ' ) ! ~ { { { { { { ~ ~ ] ] ] ^ ^ ^ / / / ( ( _ _ : : < [ } | 1 2 3         ",
"    4 5 , > 6 > ^ 7 8 9 0 a b | c c c d e e 7 7 f f g h h i j k k a l l m n 0 1 o p q *         ",
"    * 9 ~ : | 0 p r [ s t m d d e e 7 f g g g h i i j j k u l l m n 0 0 s 1 v w x y q +         ",
"    $ - _ k z A B C D E F G F H H H D D I z z z J J J K E E B L L A M M N O P P I Q R #         ",
"    $ ; < v S T U V W X X Y Z `  ...U  .U ..+.@.@.@.#...$.%.&.+.*.=.-.;.>.,.'.).!.C I #         ",
"    $ ; } p ~.{.].^./.(._.:.<.[.}.|.1.2.3.4.5.6.7.8.9.0.a.b.c.d.e.f.g.h.i.j.k.l.m.l n.@         ",
"    $ o.b y p.q.r.s.t.u.v.w.x.y.z.A.B.C.D.E.F.G.H.I.J.K.L.M.N.O.P.Q.R.S.T.U.V.W.X.u z @         ",
"    $ o.| Y.Z.`. +.+++@+#+$+%+&+*+=+-+;+>+,+'+)+!+~+{+]+^+/+(+_+:+<+[+}+|+1+2+3+4+u z @         ",
"    $ o.c r Z.5+6+7+8+9+0+a+b+c+d+e+f+g+h+i+j+k+l+m+n+o+p+q+r+s+t+u+v+w+x+y+z+A+4+a K @         ",
"    $ o.c Q B+C+D+E+F+G+H+I+J+K+L+M+N+O+P+w.Q+R+S+T+U+V+W+X+Y+Z+`+ @.@+@@@#@$@%@&@l B @         ",
"    $ o.d *@=@-@;@>@,@'@)@!@~@{@]@^@/@(@_@:@<@[@}@|@1@2@3@4@5@6@7@8@9@0@a@b@c@d@e@l L @         ",
"    $ > e t f@g@h@i@j@k@l@m@n@o@p@q@r@s@t@u@v@w@x@y@z@A@B@C@D@E@F@G@H@I@J@K@L@M@N@m L @         ",
"    $ > 7 t f@O@P@Q@i+R@S@T@U@V@W@X@Y@Z@`@ #.#+#@###$#%#&#*#=#-#;#>#,#'#)#!#~#{#N@m A $         ",
"    $ > 7 G ]#^#/#(#_#:#<#[#}#|#1#2#3#4#5#6#7#8#9#0#a#b#c#d#e#f#g#h#i#j#k#l#m#n#o#m M $         ",
"    $ > 7 G Z O@p#q#r#s#t#u#v#I w#x#y#z#A#B#C#D#E#F#G#H#I#J#K#L#M#N#O#P#Q#R#S#n#o#n M $         ",
"    $ > f G Z T#U#V#W#X#Y#Z#`# $Y.a d o .$+$@$#$$$%$&$*$=$-$;$>$,$'$)$!$~${$]$^$o#n M +         ",
"    $ > f G /$($_$:$<$[$}$|$= 1$B t v i 2$^ 3$h P 4$@$5$6$7$8$8$9$0$a$b$c$d$e$^$o#0 N +         ",
"    $ > g q f$g$h$i$j$k$l$m$n$[$o$p$I q$m e < { 5 v 4$r$s$t$u$v$w$x$y$z$A$B$C$D$o#E$F$G$        ",
"    $ > h F Z H$I$J$K$L$M$N$O$P$Q$R$m$S$T$o k b 1$U$<$V$W$X$Y$Z$`$ %.%+%@%#%$%D$o#E$%%&%        ",
"    $ > h F *%=%o+-%;%>%,%'%)%O$N$L$!%~%{%]%^%/%(%_%:%<%[%}%|%1%1%2%3%4%5%6%7%8%o#v 9%&%        ",
"    $ , h R 0%a%b%c%d%e%f%g%h%M$i%j%k%l%m%n%o%p%q%U$r%s%t%u%v%w%x%y%z%A%B%C%D%E%o#E$F%&%        ",
"    $ , i R G%H%I%J%K%L%M%N%g%O%P%Q%R%S%T%U%V%W%X%4 Y%Z%`% &.&+&@&#&$&%&&&*&=&-&o#E$L +         ",
"    $ , i H ;&>&,&'&)&!&~&{&]&^&/&(&_&:&<&Q%[&}&|&4 1&2&3&4&5&6&7&8&9&0&a&b&c&d&N@E$e&+         ",
"    $ , j H f&g&h&i&j&k&l&m&n&o&p&(&q&r&s&t&u&v&<$w&x&y&z&A&B&C&D&E&F&G&H&I&J&K&N@v e&+         ",
"    $ , k  $L&M&N&O&P&Q&R&S&T&U&V&W&X&Y&Z&`& *<$.*+*@*#*$*5&%*&***=*-*;*>*,*'*)*X.v L +         ",
"    $ , k  $L&!*~*{*]*^*/*T&U&(*_*:*<*:*[*}*|*1*2*3*4*5*6*7*8*9*0*a*b*c*d*e*f*g*N@o e&+         ",
"    $ ' u y h*i*j*k*l*m*n*o*p*q*r*s*t*u*v*w*x*x*v*v*y*z*A*z*A*B*C*D*E*F*G*H*I*J*N@o M +         ",
"    $ ' a m i K*> L*M*N*O*P*Q*R*N E$} b f Y.A S*A Y.c 9 o.; ; ; o.o.o.o.o.> , T*n K U*G$        ",
"    $ ' a l j j a *@V*W*X*Y*Z*`*S*q y y *@H  =.=e& $C r q$q$r Q *@C C +=q  $K K B N U*+         ",
"    $ ' l 7 7 g 2$U*H @=#=$=o#%=n.t Q Q C G R  $R q G q F F R H H  $D I z n.B L e&O .=G$        ",
"    $ ' m 2$q$Q g &=Q K *===@=L G *@*@C t +=+=G q q F R H  $D I I z z J x k u Q N .=F$+         ",
"    $ ) n } j : ' -=p *@D B J F C C t t +=G q F F R H  $D I z J J J K E < ;=>=,='=P L $         ",
"    $ ) 0 Q )=!=~='=Y.q$C t t e&1$.$.$*=1$1$1$%={={=@=]='='=^=*=G Y.I A q /=(=_=:=L z @$        ",
"    $ ) 1 <=+=R R C r Q C t U*~=.$< l '=[=e&7 7 }=-=|=0 < E 1=2=D m 1 B O .$*=}= =Q .$3=        ",
"    3 P  $R H z J K E L  =9%4=2=M  =5=6=R*7=B V*8=9=0=A a=b=4$c=]=9%q F {=[=w#R*:=d=e=f=        ",
"      g=h=i=j=k=l=4$l=m=n=x#o=p=x#q=q=o=r=s=s=s=e=h*h*h*t=u=u=u=v=w=i=k=u=x=y=z=A=@ <$<$        ",
"        <$$ q=h*u=t=t=t=t=t=t=b=t=v=y=B=w=C=C=D=|&E=4 F=h=G=H=I=# U$@ @ @ $ J=. K=<$<$          ",
"          L=L ^=)=============c===M=2=Q*~=o##=N=O=Z*P=-=Q=R=R=S=T=T=5=5=5=U=V=W=X=              ",
"          Y=y#3=Z=Z=`=Z=`=`=Z=Z=Z=Z=Z=`=Z=Z=Z=Z=Z=Z=Z=Z=Z=Z=Z=Z=Z=Z=`=`=`=`= -.-g=              ",
"                                                                                                ",
"                                                                                                ",
"                                                                                                ",
"                                                                                                ",
"                                                                                                ",
"                                                                                                "};
