/* XPM */
static char * item_xpm[] = {
"16 16 69 1",
" 	c None",
".	c #C6C6D5",
"+	c #9494AD",
"@	c #FBFBFC",
"#	c #F8F8FA",
"$	c #F4F4F7",
"%	c #EEEEF2",
"&	c #EAEAF0",
"*	c #DEDEE7",
"=	c #E0E0E9",
"-	c #C1C8D5",
";	c #BEC5D3",
">	c #BBC1CF",
",	c #B8BFCE",
"'	c #AFB5C7",
")	c #C9C9D7",
"!	c #F5F5F8",
"~	c #F0F0F4",
"{	c #E4E4EB",
"]	c #C0C7D4",
"^	c #BBC2D0",
"/	c #B9C0CE",
"(	c #B3B9CA",
"_	c #DBDBE5",
":	c #CDCDDA",
"<	c #BFBFD0",
"[	c #F7F7F9",
"}	c #F2F2F6",
"|	c #E7E7EE",
"1	c #E3E3EA",
"2	c #D0D0DC",
"3	c #C4C4D3",
"4	c #C2C2D1",
"5	c #FAFAFB",
"6	c #BDC3D1",
"7	c #B4BACB",
"8	c #AEB4C7",
"9	c #9EA3B9",
"0	c #9BA1B6",
"a	c #F9F9FA",
"b	c #DCDCE5",
"c	c #D6D6E1",
"d	c #D2D2DE",
"e	c #D1D1DD",
"f	c #CECEDB",
"g	c #BCC3D1",
"h	c #B6BDCD",
"i	c #B0B7C7",
"j	c #AAB0C3",
"k	c #AAAFC2",
"l	c #A6ACBF",
"m	c #A5ABBF",
"n	c #E5E5EC",
"o	c #DFDFE8",
"p	c #DDDDE6",
"q	c #DADAE4",
"r	c #D7D7E2",
"s	c #B5BBCB",
"t	c #B1B8C8",
"u	c #ADB3C6",
"v	c #A9AFC1",
"w	c #EFEFF3",
"x	c #E8E8EE",
"y	c #E6E6ED",
"z	c #B6BCCC",
"A	c #B2B8C9",
"B	c #ABB1C3",
"C	c #F3F3F6",
"D	c #E1E1E9",
"  ........+     ",
"  .@#$%&*=.+    ",
"  .@-;>,'=.)+   ",
"  .@#!~%{=++++  ",
"  .@];^/(=_:<+  ",
"  .@[!}~|1234+  ",
"  .5];6>7890.+  ",
"  .a$}%&bcdef+  ",
"  .!g^hijklmd+  ",
"  .!$%n1opqrc+  ",
"  .[^s(t8ujvc+  ",
"  .[wxy{=obqr+  ",
"  .$z7(AiuBkr+  ",
"  .Cx|n{Do_qr+  ",
"  .~xxyt8obqr+  ",
"  ++++++++++++  "};
