/* XPM */
static char * up_xpm[] = {
"24 24 128 2",
"  	c None",
". 	c #68A9FF",
"+ 	c #2E59B8",
"@ 	c #69AAFF",
"# 	c #88BFF9",
"$ 	c #699EE5",
"% 	c #2551B5",
"& 	c #6AAAFF",
"* 	c #8ABFF9",
"= 	c #86BEF9",
"- 	c #83BCF9",
"; 	c #6399E3",
"> 	c #1D4BB2",
", 	c #6BABFF",
"' 	c #87BEF9",
") 	c #7FB9F8",
"! 	c #79B4F7",
"~ 	c #5A91E1",
"{ 	c #1646B0",
"] 	c #83BBF9",
"^ 	c #7EB8F7",
"/ 	c #79B3F7",
"( 	c #74AFF6",
"_ 	c #6DAAF5",
": 	c #4F88DF",
"< 	c #1142AE",
"[ 	c #85BDF9",
"} 	c #81B9F8",
"| 	c #7CB6F7",
"1 	c #77B2F6",
"2 	c #72AEF5",
"3 	c #6CA9F4",
"4 	c #67A4F3",
"5 	c #619EF2",
"6 	c #457EDC",
"7 	c #0C3EAC",
"8 	c #65A7FF",
"9 	c #87BDF9",
"0 	c #7FB8F7",
"a 	c #7BB5F7",
"b 	c #76B0F6",
"c 	c #71ABF5",
"d 	c #6AA7F3",
"e 	c #65A1F2",
"f 	c #5F9CF0",
"g 	c #5998EF",
"h 	c #5493EE",
"i 	c #3A75D9",
"j 	c #093BAB",
"k 	c #62A6FF",
"l 	c #B5D6FB",
"m 	c #B4D5FB",
"n 	c #B1D3FB",
"o 	c #79B2F6",
"p 	c #73ADF5",
"q 	c #6EA9F4",
"r 	c #69A4F2",
"s 	c #63A0F1",
"t 	c #5D9AEF",
"u 	c #4982DD",
"v 	c #98BDF5",
"w 	c #94B9F4",
"x 	c #91B8F2",
"y 	c #326DD6",
"z 	c #0639AA",
"A 	c #5FA4FF",
"B 	c #5DA3FF",
"C 	c #5CA2FF",
"D 	c #5AA1FF",
"E 	c #58A0FF",
"F 	c #569FFF",
"G 	c #A6CAF8",
"H 	c #66A1F1",
"I 	c #609DF0",
"J 	c #5A98EE",
"K 	c #5693EE",
"L 	c #447CDB",
"M 	c #0B3DAC",
"N 	c #0A3CAC",
"O 	c #083BAB",
"P 	c #073AAB",
"Q 	c #0437A9",
"R 	c #539DFF",
"S 	c #A1C5F7",
"T 	c #5E9BF0",
"U 	c #5896EE",
"V 	c #5391ED",
"W 	c #4F8DEB",
"X 	c #3E77DA",
"Y 	c #509BFF",
"Z 	c #9CC1F5",
"` 	c #5694ED",
" .	c #518EEC",
"..	c #4C89EA",
"+.	c #4785EA",
"@.	c #3972D8",
"#.	c #083AAB",
"$.	c #4E9AFF",
"%.	c #97BCF5",
"&.	c #4D8CEB",
"*.	c #4988EA",
"=.	c #4584E9",
"-.	c #4180E8",
";.	c #366FD7",
">.	c #4B99FF",
",.	c #93B8F3",
"'.	c #4785E9",
").	c #4281E9",
"!.	c #3F7FE8",
"~.	c #3C7BE7",
"{.	c #316CD6",
"].	c #0538AA",
"^.	c #4998FF",
"/.	c #90B4F2",
"(.	c #4080E8",
"_.	c #3D7CE7",
":.	c #3A7AE6",
"<.	c #3978E6",
"[.	c #306BD6",
"}.	c #4897FF",
"|.	c #8BB2F0",
"1.	c #89AFEF",
"2.	c #88AEEF",
"3.	c #87AEEF",
"4.	c #6790DD",
"5.	c #0336A9",
"6.	c #093CAB",
"7.	c #0236A9",
"                                                ",
"                                                ",
"                                                ",
"                                                ",
"                      . +                       ",
"                    @ # $ %                     ",
"                  & * = - ; >                   ",
"                , * ' - ) ! ~ {                 ",
"              @ * ' ] ^ / ( _ : <               ",
"            . # [ } | 1 2 3 4 5 6 7             ",
"          8 9 ] 0 a b c d e f g h i j           ",
"        k l m n o p q r s t u v w x y z         ",
"      A B C D E F G H I J K L 7 M N O P Q       ",
"                R S T U V W X j                 ",
"                Y Z `  ...+.@.#.                ",
"                $.%.&.*.=.-.;.z                 ",
"                >.,.'.).!.~.{.].                ",
"                ^./.(._.:.<.[.Q                 ",
"                }.|.1.2.2.3.4.5.                ",
"                6.O P P z z ].7.                ",
"                                                ",
"                                                ",
"                                                ",
"                                                "};
