/* XPM */
static char * battery_xpm[] = {
"11 16 3 1",
" 	c None",
".	c #000000",
"+	c #FFFFFF",
"    ...    ",
" ......... ",
" ......... ",
" ..+++++.. ",
" ..+++++.. ",
" ..+++++.. ",
" ..+++++.. ",
" ..+++++.. ",
" ..+++++.. ",
" ..+++++.. ",
" ..+++++.. ",
" ..+++++.. ",
" ..+++++.. ",
" ..+++++.. ",
" ......... ",
" ......... "};
