/* XPM */
static char * desktop_xpm[] = {
"16 16 189 2",
"  	c None",
". 	c #80AADB",
"+ 	c #89B2E2",
"@ 	c #83AFE2",
"# 	c #7CABE2",
"$ 	c #74A8E2",
"% 	c #6DA4E2",
"& 	c #65A0E2",
"* 	c #609EE2",
"= 	c #5E9CE2",
"- 	c #5E9DE2",
"; 	c #65A0E4",
"> 	c #4299E6",
", 	c #003458",
"' 	c #8BB3E2",
") 	c #ADD4FF",
"! 	c #93C7FF",
"~ 	c #74B8FF",
"{ 	c #51A7FF",
"] 	c #2F95FF",
"^ 	c #0F86FF",
"/ 	c #007AFF",
"( 	c #0074FF",
"_ 	c #0075FF",
": 	c #0076FF",
"< 	c #007DFC",
"[ 	c #003656",
"} 	c #91B5E1",
"| 	c #CDE1F8",
"1 	c #C2DBF8",
"2 	c #B9D7F8",
"3 	c #AFD2F8",
"4 	c #A4CDF8",
"5 	c #9AC8F8",
"6 	c #92C5F8",
"7 	c #8EC3F8",
"8 	c #8DC2F8",
"9 	c #8BC2F8",
"0 	c #8AC1F8",
"a 	c #92C5FA",
"b 	c #5FB1F4",
"c 	c #003257",
"d 	c #9CBCE2",
"e 	c #FDFEFD",
"f 	c #F7FFFF",
"g 	c #F6FFFF",
"h 	c #F6FBFD",
"i 	c #F5FBFD",
"j 	c #F3FCFD",
"k 	c #F1FAFD",
"l 	c #EEF9FD",
"m 	c #EBF8FD",
"n 	c #E9F7FD",
"o 	c #F0FBFE",
"p 	c #8FC9F1",
"q 	c #003056",
"r 	c #FCFFFF",
"s 	c #F7DCBA",
"t 	c #F6C892",
"u 	c #F1E0C7",
"v 	c #F0FFFF",
"w 	c #EEFDFF",
"x 	c #E7F7FF",
"y 	c #E7F9FF",
"z 	c #E6FAFF",
"A 	c #E2F8FF",
"B 	c #E0F8FF",
"C 	c #E3F6FF",
"D 	c #84C4F2",
"E 	c #9BBCE2",
"F 	c #F9FFFF",
"G 	c #F6A94B",
"H 	c #F97700",
"I 	c #F6BD73",
"J 	c #BFCFD5",
"K 	c #B3B9BD",
"L 	c #E8FBFF",
"M 	c #C0CCD2",
"N 	c #A6ACB0",
"O 	c #A9B1B5",
"P 	c #A7AFB3",
"Q 	c #D5E7F1",
"R 	c #85C8F7",
"S 	c #9ABCE2",
"T 	c #F4BE7A",
"U 	c #F7982B",
"V 	c #F1CA95",
"W 	c #D8EDF2",
"X 	c #D4E2EA",
"Y 	c #E1F6FF",
"Z 	c #D4E6F1",
"` 	c #C9DBE6",
" .	c #C8DCE8",
"..	c #C6DCE7",
"+.	c #D7EFFB",
"@.	c #82C4F3",
"#.	c #9ABBE2",
"$.	c #F4FDFF",
"%.	c #ECF9FF",
"&.	c #E9F9FF",
"*.	c #E6F8FF",
"=.	c #E4F7FF",
"-.	c #DDF2FF",
";.	c #DCF3FF",
">.	c #DAF4FF",
",.	c #D6F3FF",
"'.	c #D5F3FF",
").	c #D8F2FF",
"!.	c #7FC2F2",
"~.	c #99BBE2",
"{.	c #F1FBFF",
"].	c #E9F8FF",
"^.	c #E6F9FF",
"/.	c #DAF1FF",
"(.	c #D9F2FF",
"_.	c #D6F4FF",
":.	c #D3F2FF",
"<.	c #D1F1FF",
"[.	c #D5F1FF",
"}.	c #7EC2F2",
"|.	c #98BBE2",
"1.	c #EDFEFF",
"2.	c #F0BD7A",
"3.	c #F6992B",
"4.	c #EBC795",
"5.	c #D1EAF2",
"6.	c #CDDFEA",
"7.	c #CCE3F1",
"8.	c #C2D9E6",
"9.	c #C1DAE8",
"0.	c #C0D9E7",
"a.	c #CFEBFB",
"b.	c #7DC3F3",
"c.	c #EAFFFF",
"d.	c #F3A84B",
"e.	c #FE7900",
"f.	c #F0BA73",
"g.	c #B5CBD5",
"h.	c #ABB6BD",
"i.	c #D7F5FF",
"j.	c #B6C8D2",
"k.	c #A1AAB0",
"l.	c #A3AEB5",
"m.	c #A1ADB3",
"n.	c #C7E2F1",
"o.	c #7EC4F7",
"p.	c #97BBE2",
"q.	c #E9FBFF",
"r.	c #E8D7BA",
"s.	c #EAC492",
"t.	c #E2DBC7",
"u.	c #DAF7FF",
"v.	c #D8F4FF",
"w.	c #D1EFFF",
"x.	c #D1F0FF",
"y.	c #CFF1FF",
"z.	c #CCF1FF",
"A.	c #C9F0FF",
"B.	c #CDEFFF",
"C.	c #7AC0F2",
"D.	c #003156",
"E.	c #9FBEE4",
"F.	c #EFFCFF",
"G.	c #E6FCFF",
"H.	c #E1FFFF",
"I.	c #E0FAFF",
"J.	c #DEF3FF",
"K.	c #DBF3FF",
"L.	c #D4F0FF",
"M.	c #D2EFFF",
"N.	c #CFEFFF",
"O.	c #CDEEFF",
"P.	c #D5F2FF",
"Q.	c #81C4F5",
"R.	c #64A9E4",
"S.	c #8BC8F3",
"T.	c #87C6F2",
"U.	c #86C5F2",
"V.	c #83C4F2",
"W.	c #81C3F2",
"X.	c #80C3F2",
"Y.	c #7CC1F2",
"Z.	c #7AC1F2",
"`.	c #81C5F5",
" +	c #54B4F6",
".+	c #00375F",
"++	c #003358",
"@+	c #00375E",
"#+	c #001A2B",
". + @ # $ % & * = - - - ; > ,   ",
"' ) ! ~ { ] ^ / ( _ _ _ : < [   ",
"} | 1 2 3 4 5 6 7 8 9 0 a b c   ",
"d e f g g h i j k l m n o p q   ",
"d r s t u v w x y z A B C D q   ",
"E F G H I J K L M N O P Q R q   ",
"S g T U V W X Y Z `  ...+.@.q   ",
"#.$.%.&.*.*.=.-.;.>.,.'.).!.q   ",
"~.{.].^.C C Y /.(._.:.<.[.}.q   ",
"|.1.2.3.4.5.6.).7.8.9.0.a.b.q   ",
"|.c.d.e.f.g.h.i.j.k.l.m.n.o.q   ",
"p.q.r.s.t.u.v.w.x.y.z.A.B.C.D.  ",
"E.F.G.H.I.J.K.).L.M.N.O.P.Q.D.  ",
"R.S.T.U.D V.W.X.}.Y.Y.Z.`. +.+  ",
"++q q q q q q q q q q q q @+#+  ",
"                                "};
