/* XPM */
static char * lock_xpm[] = {
"16 16 146 2",
"  	c None",
". 	c #006495",
"+ 	c #2D81AA",
"@ 	c #267CA6",
"# 	c #247CA6",
"$ 	c #237BA4",
"% 	c #1F7BA4",
"& 	c #1A78A5",
"* 	c #1777A2",
"= 	c #1677A2",
"- 	c #1275A0",
"; 	c #1577A2",
"> 	c #006395",
", 	c #227DA6",
"' 	c #9EC2D8",
") 	c #238FB9",
"! 	c #2D93BD",
"~ 	c #2E93BD",
"{ 	c #2593BD",
"] 	c #3792BE",
"^ 	c #4694BE",
"/ 	c #5295C0",
"( 	c #5999BF",
"_ 	c #5E99C2",
": 	c #6B9CC3",
"< 	c #90ABC9",
"[ 	c #086F9E",
"} 	c #9CC0D8",
"| 	c #006BA4",
"1 	c #0078AA",
"2 	c #007BAE",
"3 	c #007CAF",
"4 	c #2491BE",
"5 	c #59A6CC",
"6 	c #63A9CD",
"7 	c #3F8FBB",
"8 	c #3B88B5",
"9 	c #458CB6",
"0 	c #4C8FBA",
"a 	c #5590BB",
"b 	c #85A7C7",
"c 	c #006396",
"d 	c #2A80AA",
"e 	c #3797BD",
"f 	c #0077AA",
"g 	c #007EB1",
"h 	c #007FB1",
"i 	c #6FBAD9",
"j 	c #FFFFFF",
"k 	c #71A8C9",
"l 	c #5090BB",
"m 	c #5992BB",
"n 	c #6095BC",
"o 	c #78A0C5",
"p 	c #06719F",
"q 	c #2B92BD",
"r 	c #2C93BF",
"s 	c #ECFCFF",
"t 	c #7DB5D4",
"u 	c #85B6D5",
"v 	c #659BC0",
"w 	c #5F95BC",
"x 	c #679ABD",
"y 	c #7DA1C4",
"z 	c #006C9E",
"A 	c #0B80B2",
"B 	c #9ECEE6",
"C 	c #539AC2",
"D 	c #418AB6",
"E 	c #4A8FB8",
"F 	c #8FBBD8",
"G 	c #99BED9",
"H 	c #659ABD",
"I 	c #729CC2",
"J 	c #7CA2C3",
"K 	c #006A9C",
"L 	c #027DB1",
"M 	c #2382B3",
"N 	c #68ABCE",
"O 	c #A7D0E7",
"P 	c #BCD7EB",
"Q 	c #92BAD4",
"R 	c #6E9BC0",
"S 	c #769EBE",
"T 	c #7FA4C7",
"U 	c #006B9C",
"V 	c #1A7FB2",
"W 	c #3B90BB",
"X 	c #FBFFFF",
"Y 	c #EEF9FF",
"Z 	c #739CBE",
"` 	c #7FA4C5",
" .	c #80A6C7",
"..	c #00699C",
"+.	c #2683B3",
"@.	c #6EACCE",
"#.	c #CAE4F3",
"$.	c #B4D4E9",
"%.	c #B9D5E9",
"&.	c #BFD9EB",
"*.	c #7BA1C4",
"=.	c #85A8C6",
"-.	c #85ABCA",
";.	c #006799",
">.	c #3086B4",
",.	c #77AECF",
"'.	c #82B2D2",
").	c #C6DAEC",
"!.	c #7EA6C5",
"~.	c #91AECA",
"{.	c #7EACCC",
"].	c #006499",
"^.	c #7EB1D0",
"/.	c #89B3D2",
"(.	c #C9DDEE",
"_.	c #88AAC9",
":.	c #95B2CC",
"<.	c #81B1CE",
"[.	c #006399",
"}.	c #5F99C2",
"|.	c #F6FFFF",
"1.	c #ECF8FF",
"2.	c #EFF9FF",
"3.	c #F0FAFF",
"4.	c #8CAFCA",
"5.	c #9DB6D0",
"6.	c #89B6D2",
"7.	c #006296",
"8.	c #649AC0",
"9.	c #4D8FBA",
"0.	c #DEEFFB",
"a.	c #F1FBFF",
"b.	c #F3FCFF",
"c.	c #DBE9F6",
"d.	c #93B3CE",
"e.	c #A7BED4",
"f.	c #89B6D1",
"g.	c #006397",
"h.	c #91ABCA",
"i.	c #A4BDD3",
"j.	c #D5D4E3",
"k.	c #3797BF",
"l.	c #87B5D1",
"m.	c #9DBFD8",
"n.	c #3596BF",
"o.	c #005F95",
"    . + @ # $ % & * = - ; >     ",
"  , ' ) ! ~ { ] ^ / ( _ : < [   ",
". } | 1 2 3 4 5 6 7 8 9 0 a b c ",
"d e f g h i j j j j k l m n o p ",
"@ q 2 h r j s t u j j v w x y z ",
"# ~ 3 A B j C D E F j G H I J K ",
"$ { L M N O D E l m P Q R S T U ",
"% ] V W X j j j j j j Y Z `  ...",
"& ^ +.@.j #.$.%.P &.Y j *.=.-.;.",
"* / >.,.j '.m w H R ).j !.~.{.].",
"= ( 8 ^.j /.w H R Z (.j _.:.<.[.",
"- }.9 '.j |.1.Y 2.3.j j 4.5.6.7.",
"; 8.9.v 0.1.Y 2.3.a.b.c.d.e.f.g.",
"> h.a n x I S ` =.~.:.5.i.j.k.> ",
"  [ b o y J T  .-.{.<.l.m.n.o.  ",
"    c p z K U ..;.].[.7.7.>     "};
