/* XPM */
static char * logout_xpm[] = {
"16 16 6 1",
" 	c None",
".	c #8B8B8B",
"+	c #7F7F7F",
"@	c #296FC4",
"#	c #4C4C4C",
"$	c #7E7E7E",
"                ",
"                ",
"  ...........+  ",
"  .@@@@@@@@@@+# ",
"  .@@@@@@@@@@+# ",
"  .@@@@@@@@@@+# ",
"  .@@@@@@@@@@+# ",
"  .@@@@@@@@@@+# ",
"  .@@@@@@@@@@+# ",
"  .@@@@@@@@@@+# ",
"  +++$++++++++# ",
"   ###.+++##### ",
"      .+++#     ",
"    .+++++++#   ",
"                ",
"                "};
