/* XPM */
static char * mini_penguin_xpm[] = {
"15 15 106 2",
"  	c None",
". 	c #4A484A",
"+ 	c #454345",
"@ 	c #996523",
"# 	c #3A332A",
"$ 	c #706D70",
"% 	c #282726",
"& 	c #434243",
"* 	c #8D5F22",
"= 	c #603A08",
"- 	c #030303",
"; 	c #050504",
"> 	c #000000",
", 	c #131313",
"' 	c #404040",
") 	c #2F2E2F",
"! 	c #787578",
"~ 	c #494749",
"{ 	c #0E0E0E",
"] 	c #4C4B4C",
"^ 	c #7B7B7B",
"/ 	c #F8F4F8",
"( 	c #F7F4F7",
"_ 	c #A5A3A5",
": 	c #2F2F2F",
"< 	c #3B3B3B",
"[ 	c #4A4C4A",
"} 	c #949295",
"| 	c #FFFBFF",
"1 	c #E2DEE2",
"2 	c #3E3D3E",
"3 	c #0F0F0F",
"4 	c #353435",
"5 	c #7D7C7D",
"6 	c #757275",
"7 	c #817F81",
"8 	c #F3EFF3",
"9 	c #757475",
"0 	c #121212",
"a 	c #191919",
"b 	c #343334",
"c 	c #A19DA1",
"d 	c #6F6C6F",
"e 	c #A9A7A9",
"f 	c #E2DFE2",
"g 	c #2C2B2C",
"h 	c #010101",
"i 	c #1E1D1C",
"j 	c #2A2A2B",
"k 	c #1F1F1F",
"l 	c #616061",
"m 	c #F4F0F4",
"n 	c #9E9D9E",
"o 	c #CCC9CC",
"p 	c #F6F3F6",
"q 	c #212021",
"r 	c #4A494B",
"s 	c #232323",
"t 	c #777677",
"u 	c #E7E3E7",
"v 	c #878587",
"w 	c #B3B0B2",
"x 	c #FCF8FC",
"y 	c #171717",
"z 	c #ADAAAD",
"A 	c #878687",
"B 	c #676667",
"C 	c #AFABAF",
"D 	c #F6F2F6",
"E 	c #6C6A6C",
"F 	c #282728",
"G 	c #C1BDC1",
"H 	c #BAB7BA",
"I 	c #060606",
"J 	c #515051",
"K 	c #CAC6C9",
"L 	c #BEBABE",
"M 	c #585558",
"N 	c #C4C0C4",
"O 	c #CECACE",
"P 	c #252525",
"Q 	c #020202",
"R 	c #4A4848",
"S 	c #ACA9AB",
"T 	c #B3B0B3",
"U 	c #CCC8CC",
"V 	c #D4D0D4",
"W 	c #464546",
"X 	c #080808",
"Y 	c #575557",
"Z 	c #525352",
"` 	c #6C6B6C",
" .	c #626263",
"..	c #4E4D4E",
"+.	c #4C4C4C",
"@.	c #818081",
"#.	c #535253",
"$.	c #101010",
"%.	c #222122",
"&.	c #393839",
"*.	c #545354",
"=.	c #59585A",
"-.	c #858485",
";.	c #838183",
">.	c #6D6B6D",
",.	c #595959",
"            . +               ",
"        @ # $ % &             ",
"      * = - ; > ,             ",
"        ' ) ! ~ { ]           ",
"        ^ / ( _ : <           ",
"      [ } | 1 2 3 4 )         ",
"    5 6 7 8 9 0 - a b         ",
"    c d e f g h i j k         ",
"  l m n o p q - d r { s       ",
"  t u v w x b y z A > y       ",
"  B C   7 D E F G H I 3       ",
"        J K L M N O P Q       ",
"          R S T U V W X Y     ",
"        Z `  ...+.@.#.$.%.&.  ",
"          *.=.-.;.>.,.        "};
