/* XPM */
static char * poweron_xpm[] = {
"11 16 50 1",
" 	c None",
".	c #D06300",
"+	c #D16700",
"@	c #D87900",
"#	c #DB8A00",
"$	c #D46B00",
"%	c #CA7F37",
"&	c #EAB600",
"*	c #DB8F00",
"=	c #D08248",
"-	c #E6A606",
";	c #F6D900",
">	c #D37A00",
",	c #D59A6C",
"'	c #E19508",
")	c #FAD800",
"!	c #F2C700",
"~	c #C56B0B",
"{	c #D47208",
"]	c #F0B400",
"^	c #FACC00",
"/	c #FBD000",
"(	c #E49D00",
"_	c #C66300",
":	c #D48948",
"<	c #D98B30",
"[	c #D0750D",
"}	c #DC8900",
"|	c #FAC700",
"1	c #E9A500",
"2	c #C15D00",
"3	c #DF8800",
"4	c #FFC400",
"5	c #ECA800",
"6	c #C36300",
"7	c #B9631B",
"8	c #F7AA00",
"9	c #EE9F00",
"0	c #C46400",
"a	c #D87A04",
"b	c #EE9800",
"c	c #C56200",
"d	c #C35A01",
"e	c #E28200",
"f	c #C35D00",
"g	c #C35C00",
"h	c #C15B00",
"i	c #BA5000",
"j	c #B95000",
"k	c #B84F00",
"           ",
"       .   ",
"      +.   ",
"     @#$   ",
"    %&*    ",
"   =-;>    ",
"  ,')!~    ",
"  {]^/(_   ",
"  :<[}|12  ",
"     3456  ",
"    7890   ",
"    abc    ",
"   def     ",
"   gh      ",
"  ij       ",
"  k        "};
