/* XPM */
static char * sound_xpm[] = {
"16 16 143 2",
"  	c None",
". 	c #7094A6",
"+ 	c #6D99A9",
"@ 	c #73949A",
"# 	c #6A9BB4",
"$ 	c #6D828C",
"% 	c #54595B",
"& 	c #A0D0E7",
"* 	c #689BB2",
"= 	c #5890AB",
"- 	c #536771",
"; 	c #2A2A2A",
"> 	c #424242",
", 	c #5C5C5C",
"' 	c #86BBD8",
") 	c #608191",
"! 	c #084268",
"~ 	c #A0D9F5",
"{ 	c #131313",
"] 	c #272727",
"^ 	c #404040",
"/ 	c #565656",
"( 	c #787C7E",
"_ 	c #4B83A5",
": 	c #001A2E",
"< 	c #022136",
"[ 	c #055087",
"} 	c #94D2F0",
"| 	c #435D6A",
"1 	c #B9B9B9",
"2 	c #F6F6F6",
"3 	c #CCCCCC",
"4 	c #595959",
"5 	c #757575",
"6 	c #4E8EB3",
"7 	c #557384",
"8 	c #15546E",
"9 	c #005080",
"0 	c #55B8EA",
"a 	c #A5EBFF",
"b 	c #8BCCEE",
"c 	c #2B2C2C",
"d 	c #E9E9E9",
"e 	c #F5F5F5",
"f 	c #F8F8F8",
"g 	c #8F8F8F",
"h 	c #7B7B7B",
"i 	c #638CA4",
"j 	c #447089",
"k 	c #5C8F9C",
"l 	c #98DBE9",
"m 	c #8DDBFF",
"n 	c #86D4FD",
"o 	c #72BEE5",
"p 	c #777777",
"q 	c #DFDFDF",
"r 	c #EBEBEB",
"s 	c #EFEFEF",
"t 	c #E1E1E1",
"u 	c #7D7D7D",
"v 	c #78A8C1",
"w 	c #29648D",
"x 	c #1D5D82",
"y 	c #55AED3",
"z 	c #54B1D8",
"A 	c #58B3DB",
"B 	c #65BBE3",
"C 	c #B2B2B2",
"D 	c #D1D1D1",
"E 	c #DCDCDC",
"F 	c #DEDEDE",
"G 	c #D8D8D8",
"H 	c #858585",
"I 	c #909A9F",
"J 	c #1C608D",
"K 	c #033B57",
"L 	c #0881A2",
"M 	c #329ABD",
"N 	c #359BBF",
"O 	c #55B1DB",
"P 	c #A1A1A1",
"Q 	c #B5B5B5",
"R 	c #C2C2C2",
"S 	c #C4C4C4",
"T 	c #C3C3C3",
"U 	c #8C8C8C",
"V 	c #95A0A6",
"W 	c #145683",
"X 	c #033241",
"Y 	c #004F65",
"Z 	c #0083A5",
"` 	c #0082A1",
" .	c #49AAD8",
"..	c #787878",
"+.	c #A4A4A4",
"@.	c #ABABAB",
"#.	c #ACACAC",
"$.	c #A7A7A7",
"%.	c #999999",
"&.	c #65A3C1",
"*.	c #10507C",
"=.	c #0D323C",
"-.	c #00212D",
";.	c #00556C",
">.	c #00738D",
",.	c #2CA1CF",
"'.	c #737474",
").	c #797979",
"!.	c #8B8B8B",
"~.	c #919191",
"{.	c #3E80A0",
"].	c #185775",
"^.	c #001015",
"/.	c #02141A",
"(.	c #001A27",
"_.	c #069BCE",
":.	c #4D8FA4",
"<.	c #484848",
"[.	c #3A3A3A",
"}.	c #A6A6A6",
"|.	c #B0B0B0",
"1.	c #01588A",
"2.	c #13576F",
"3.	c #001C2E",
"4.	c #0096C8",
"5.	c #9C9C9C",
"6.	c #A2A2A2",
"7.	c #AAAAAA",
"8.	c #B3B3B3",
"9.	c #B1BCBF",
"0.	c #003C6B",
"a.	c #003968",
"b.	c #67A2B5",
"c.	c #006596",
"d.	c #074E6B",
"e.	c #003764",
"f.	c #5399B1",
"g.	c #ADBDC3",
"h.	c #006E9D",
"i.	c #003562",
"j.	c #023B5E",
"k.	c #01375C",
"l.	c #044262",
"                . + @           ",
"              # $ % & *         ",
"            = - ; > , ' )       ",
"          ! ~ { ] ^ / ( _       ",
"    : < [ } | 1 2 3 4 5 6 7     ",
"  8 9 0 a b c d e f g h i j     ",
"  k l m n o p q r s t u v w     ",
"  x y z A B C D E F G H I J     ",
"  K L M N O P Q R S T U V W     ",
"  X Y Z `  ...+.@.#.$.%.&.*.    ",
"  =.-.;.>.,.'.).U !.~.+.{.].    ",
"    ^./.(._.:.<.[.4 }.|.1.2.    ",
"          3.4.5.6.7.8.9.0.      ",
"            a.b.C 1 R c.d.      ",
"              e.f.g.h.i.        ",
"                j.k.l.          "};
